<?xml version="1.0" encoding="UTF-8" standalone="no"?>
<!DOCTYPE svg PUBLIC "-//W3C//DTD SVG 1.1//EN"
 "http://www.w3.org/Graphics/SVG/1.1/DTD/svg11.dtd">
<!-- Generated by graphviz version 8.0.5 (20230430.1635)
 -->
<!-- Title: limes::files::FilesystemEntry Pages: 1 -->
<svg width="345pt" height="149pt"
 viewBox="0.00 0.00 345.25 149.00" xmlns="http://www.w3.org/2000/svg" xmlns:xlink="http://www.w3.org/1999/xlink">

<svg id="main" version="1.1" xmlns="http://www.w3.org/2000/svg" xmlns:xlink="http://www.w3.org/1999/xlink" xml:space="preserve" onload="init(evt)">
<style type="text/css"><![CDATA[
.node, .edge {opacity: 0.7;}
.node.selected, .edge.selected {opacity: 1;}
.edge:hover path { stroke: red; }
.edge:hover polygon { stroke: red; fill: red; }
]]></style>
<script type="application/ecmascript" xlink:href="svg.min.js"/>
<svg id="graph" class="graph">
<g id="graph0" class="graph" transform="scale(1 1) rotate(0) translate(4 145)">
<title>limes::files::FilesystemEntry</title>
<!-- Node1 -->
<g id="Node000001" class="node">
<title>Node1</title>
<g id="a_Node000001"><a xlink:title="The base class for any kind of object on the filesystem.">
<polygon fill="#999999" stroke="#666666" points="228.12,-141 110.88,-141 110.88,-110.5 228.12,-110.5 228.12,-141"/>
<text text-anchor="start" x="118.88" y="-127.5" font-family="Helvetica,sans-Serif" font-size="10.00">limes::files::Filesystem</text>
<text text-anchor="middle" x="169.5" y="-116.25" font-family="Helvetica,sans-Serif" font-size="10.00">Entry</text>
</a>
</g>
</g>
<!-- Node2 -->
<g id="Node000002" class="node">
<title>Node2</title>
<g id="a_Node000002"><a xlink:href="classlimes_1_1files_1_1_directory.html" target="_top" xlink:title="This class represents a directory on the filesystem.">
<polygon fill="white" stroke="#666666" points="109,-74.5 0,-74.5 0,-55.25 109,-55.25 109,-74.5"/>
<text text-anchor="middle" x="54.5" y="-61" font-family="Helvetica,sans-Serif" font-size="10.00">limes::files::Directory</text>
</a>
</g>
</g>
<!-- Node1&#45;&gt;Node2 -->
<g id="edge1_Node000001_Node000002" class="edge">
<title>Node1&#45;&gt;Node2</title>
<g id="a_edge1_Node000001_Node000002"><a xlink:title=" ">
<path fill="none" stroke="#63b8ff" d="M131.03,-105.05C111.11,-94.86 87.76,-82.9 72.14,-74.9"/>
<polygon fill="#63b8ff" stroke="#63b8ff" points="129.28,-108.6 139.78,-110.05 132.47,-102.37 129.28,-108.6"/>
</a>
</g>
</g>
<!-- Node3 -->
<g id="Node000003" class="node">
<title>Node3</title>
<g id="a_Node000003"><a xlink:href="classlimes_1_1files_1_1_file.html" target="_top" xlink:title="This class represents a file on the filesystem.">
<polygon fill="white" stroke="#666666" points="212,-74.5 127,-74.5 127,-55.25 212,-55.25 212,-74.5"/>
<text text-anchor="middle" x="169.5" y="-61" font-family="Helvetica,sans-Serif" font-size="10.00">limes::files::File</text>
</a>
</g>
</g>
<!-- Node1&#45;&gt;Node3 -->
<g id="edge2_Node000001_Node000003" class="edge">
<title>Node1&#45;&gt;Node3</title>
<g id="a_edge2_Node000001_Node000003"><a xlink:title=" ">
<path fill="none" stroke="#63b8ff" d="M169.5,-99.32C169.5,-90.64 169.5,-81.48 169.5,-74.95"/>
<polygon fill="#63b8ff" stroke="#63b8ff" points="166,-99.2 169.5,-109.2 173,-99.2 166,-99.2"/>
</a>
</g>
</g>
<!-- Node5 -->
<g id="Node000005" class="node">
<title>Node5</title>
<g id="a_Node000005"><a xlink:href="classlimes_1_1files_1_1_sym_link.html" target="_top" xlink:title="This class represents a symbolic link on the filesystem.">
<polygon fill="white" stroke="#666666" points="337.25,-74.5 229.75,-74.5 229.75,-55.25 337.25,-55.25 337.25,-74.5"/>
<text text-anchor="middle" x="283.5" y="-61" font-family="Helvetica,sans-Serif" font-size="10.00">limes::files::SymLink</text>
</a>
</g>
</g>
<!-- Node1&#45;&gt;Node5 -->
<g id="edge4_Node000001_Node000005" class="edge">
<title>Node1&#45;&gt;Node5</title>
<g id="a_edge4_Node000001_Node000005"><a xlink:title=" ">
<path fill="none" stroke="#63b8ff" d="M207.64,-105.05C227.38,-94.86 250.53,-82.9 266.02,-74.9"/>
<polygon fill="#63b8ff" stroke="#63b8ff" points="206.25,-102.35 198.97,-110.05 209.46,-108.57 206.25,-102.35"/>
</a>
</g>
</g>
<!-- Node4 -->
<g id="Node000004" class="node">
<title>Node4</title>
<g id="a_Node000004"><a xlink:href="classlimes_1_1files_1_1_temp_file.html" target="_top" xlink:title="Represents a temporary file.">
<polygon fill="white" stroke="#666666" points="224,-19.25 115,-19.25 115,0 224,0 224,-19.25"/>
<text text-anchor="middle" x="169.5" y="-5.75" font-family="Helvetica,sans-Serif" font-size="10.00">limes::files::TempFile</text>
</a>
</g>
</g>
<!-- Node3&#45;&gt;Node4 -->
<g id="edge3_Node000003_Node000004" class="edge">
<title>Node3&#45;&gt;Node4</title>
<g id="a_edge3_Node000003_Node000004"><a xlink:title=" ">
<path fill="none" stroke="#63b8ff" d="M169.5,-44.21C169.5,-35.77 169.5,-26.33 169.5,-19.61"/>
<polygon fill="#63b8ff" stroke="#63b8ff" points="166,-44.08 169.5,-54.08 173,-44.08 166,-44.08"/>
</a>
</g>
</g>
</g>
</svg>
</svg>

<style type='text/css'>
<![CDATA[
[data-mouse-over-selected='false'] { opacity: 0.7; }
[data-mouse-over-selected='true']  { opacity: 1.0; }
]]>
</style>
<script type="application/ecmascript"><![CDATA[
document.addEventListener('DOMContentLoaded', (event) => {
  highlightEdges();
  highlightAdjacentNodes();
});
]]></script>
</svg>
