<?xml version="1.0" encoding="UTF-8" standalone="no"?>
<!DOCTYPE svg PUBLIC "-//W3C//DTD SVG 1.1//EN"
 "http://www.w3.org/Graphics/SVG/1.1/DTD/svg11.dtd">
<!-- Generated by graphviz version 8.0.5 (20230430.1635)
 -->
<!-- Title: limes::files::TempFile Pages: 1 -->
<svg width="125pt" height="149pt"
 viewBox="0.00 0.00 125.25 149.00" xmlns="http://www.w3.org/2000/svg" xmlns:xlink="http://www.w3.org/1999/xlink">
<g id="graph0" class="graph" transform="scale(1 1) rotate(0) translate(4 145)">
<title>limes::files::TempFile</title>
<!-- Node1 -->
<g id="Node000001" class="node">
<title>Node1</title>
<g id="a_Node000001"><a xlink:title="Represents a temporary file.">
<polygon fill="#999999" stroke="#666666" points="113.12,-19.25 4.12,-19.25 4.12,0 113.12,0 113.12,-19.25"/>
<text text-anchor="middle" x="58.62" y="-5.75" font-family="Helvetica,sans-Serif" font-size="10.00">limes::files::TempFile</text>
</a>
</g>
</g>
<!-- Node2 -->
<g id="Node000002" class="node">
<title>Node2</title>
<g id="a_Node000002"><a xlink:href="classlimes_1_1files_1_1_file.html" target="_top" xlink:title="This class represents a file on the filesystem.">
<polygon fill="white" stroke="#666666" points="101.12,-74.5 16.12,-74.5 16.12,-55.25 101.12,-55.25 101.12,-74.5"/>
<text text-anchor="middle" x="58.62" y="-61" font-family="Helvetica,sans-Serif" font-size="10.00">limes::files::File</text>
</a>
</g>
</g>
<!-- Node2&#45;&gt;Node1 -->
<g id="edge1_Node000001_Node000002" class="edge">
<title>Node2&#45;&gt;Node1</title>
<g id="a_edge1_Node000001_Node000002"><a xlink:title=" ">
<path fill="none" stroke="#63b8ff" d="M58.62,-44.21C58.62,-35.77 58.62,-26.33 58.62,-19.61"/>
<polygon fill="#63b8ff" stroke="#63b8ff" points="55.13,-44.08 58.62,-54.08 62.13,-44.08 55.13,-44.08"/>
</a>
</g>
</g>
<!-- Node3 -->
<g id="Node000003" class="node">
<title>Node3</title>
<g id="a_Node000003"><a xlink:href="classlimes_1_1files_1_1_filesystem_entry.html" target="_top" xlink:title="The base class for any kind of object on the filesystem.">
<polygon fill="white" stroke="#666666" points="117.25,-141 0,-141 0,-110.5 117.25,-110.5 117.25,-141"/>
<text text-anchor="start" x="8" y="-127.5" font-family="Helvetica,sans-Serif" font-size="10.00">limes::files::Filesystem</text>
<text text-anchor="middle" x="58.62" y="-116.25" font-family="Helvetica,sans-Serif" font-size="10.00">Entry</text>
</a>
</g>
</g>
<!-- Node3&#45;&gt;Node2 -->
<g id="edge2_Node000002_Node000003" class="edge">
<title>Node3&#45;&gt;Node2</title>
<g id="a_edge2_Node000002_Node000003"><a xlink:title=" ">
<path fill="none" stroke="#63b8ff" d="M58.62,-99.32C58.62,-90.64 58.62,-81.48 58.62,-74.95"/>
<polygon fill="#63b8ff" stroke="#63b8ff" points="55.13,-99.2 58.62,-109.2 62.13,-99.2 55.13,-99.2"/>
</a>
</g>
</g>
</g>
</svg>
