<?xml version="1.0" encoding="UTF-8" standalone="no"?>
<!DOCTYPE svg PUBLIC "-//W3C//DTD SVG 1.1//EN"
 "http://www.w3.org/Graphics/SVG/1.1/DTD/svg11.dtd">
<!-- Generated by graphviz version 2.43.0 (0)
 -->
<!-- Title: limes::files::FileWatcher Pages: 1 -->
<svg width="306pt" height="95pt"
 viewBox="0.00 0.00 306.00 95.00" xmlns="http://www.w3.org/2000/svg" xmlns:xlink="http://www.w3.org/1999/xlink">
<g id="graph0" class="graph" transform="scale(1 1) rotate(0) translate(4 91)">
<title>limes::files::FileWatcher</title>
<polygon fill="white" stroke="transparent" points="-4,4 -4,-91 302,-91 302,4 -4,4"/>
<!-- Node1 -->
<g id="node1" class="node">
<title>Node1</title>
<g id="a_node1"><a xlink:title="This class listens for changes to or operations on a certain file, and receives callbacks to be notif...">
<polygon fill="#bfbfbf" stroke="black" points="89,-67.5 89,-86.5 222,-86.5 222,-67.5 89,-67.5"/>
<text text-anchor="middle" x="155.5" y="-74.5" font-family="Helvetica,sans-Serif" font-size="10.00">limes::files::FileWatcher</text>
</a>
</g>
</g>
<!-- Node2 -->
<g id="node2" class="node">
<title>Node2</title>
<g id="a_node2"><a xlink:href="classlimes_1_1files_1_1DynamicLibrary_1_1Reloader.html" target="_top" xlink:title="This class watches a dynamic library file for changes on disk.">
<polygon fill="white" stroke="black" points="0,-0.5 0,-30.5 153,-30.5 153,-0.5 0,-0.5"/>
<text text-anchor="start" x="8" y="-18.5" font-family="Helvetica,sans-Serif" font-size="10.00">limes::files::DynamicLibrary</text>
<text text-anchor="middle" x="76.5" y="-7.5" font-family="Helvetica,sans-Serif" font-size="10.00">::Reloader</text>
</a>
</g>
</g>
<!-- Node1&#45;&gt;Node2 -->
<g id="edge1" class="edge">
<title>Node1&#45;&gt;Node2</title>
<path fill="none" stroke="midnightblue" d="M135.84,-61.2C123.39,-51.81 107.37,-39.75 95.12,-30.52"/>
<polygon fill="midnightblue" stroke="midnightblue" points="134.09,-64.25 144.18,-67.48 138.3,-58.66 134.09,-64.25"/>
</g>
<!-- Node3 -->
<g id="node3" class="node">
<title>Node3</title>
<g id="a_node3"><a xlink:href="classlimes_1_1files_1_1SimpleFileWatcher.html" target="_top" xlink:title="This class implements all of FileWatcher&#39;s virtual methods, and allows you to easily specify a lambda...">
<polygon fill="white" stroke="black" points="171,-0.5 171,-30.5 298,-30.5 298,-0.5 171,-0.5"/>
<text text-anchor="start" x="179" y="-18.5" font-family="Helvetica,sans-Serif" font-size="10.00">limes::files::SimpleFile</text>
<text text-anchor="middle" x="234.5" y="-7.5" font-family="Helvetica,sans-Serif" font-size="10.00">Watcher</text>
</a>
</g>
</g>
<!-- Node1&#45;&gt;Node3 -->
<g id="edge2" class="edge">
<title>Node1&#45;&gt;Node3</title>
<path fill="none" stroke="midnightblue" d="M175.16,-61.2C187.61,-51.81 203.63,-39.75 215.88,-30.52"/>
<polygon fill="midnightblue" stroke="midnightblue" points="172.7,-58.66 166.82,-67.48 176.91,-64.25 172.7,-58.66"/>
</g>
</g>
</svg>
