<?xml version="1.0" encoding="UTF-8" standalone="no"?>
<!DOCTYPE svg PUBLIC "-//W3C//DTD SVG 1.1//EN"
 "http://www.w3.org/Graphics/SVG/1.1/DTD/svg11.dtd">
<!-- Generated by graphviz version 8.0.5 (20230430.1635)
 -->
<!-- Title: limes::files::FileWatcher Pages: 1 -->
<svg width="278pt" height="94pt"
 viewBox="0.00 0.00 278.25 93.75" xmlns="http://www.w3.org/2000/svg" xmlns:xlink="http://www.w3.org/1999/xlink">
<g id="graph0" class="graph" transform="scale(1 1) rotate(0) translate(4 89.75)">
<title>limes::files::FileWatcher</title>
<!-- Node1 -->
<g id="Node000001" class="node">
<title>Node1</title>
<g id="a_Node000001"><a xlink:title="This class listens for changes to or operations on a certain file, and receives callbacks to be notif...">
<polygon fill="#999999" stroke="#666666" points="201.25,-85.75 80.25,-85.75 80.25,-66.5 201.25,-66.5 201.25,-85.75"/>
<text text-anchor="middle" x="140.75" y="-72.25" font-family="Helvetica,sans-Serif" font-size="10.00">limes::files::FileWatcher</text>
</a>
</g>
</g>
<!-- Node2 -->
<g id="Node000002" class="node">
<title>Node2</title>
<g id="a_Node000002"><a xlink:href="classlimes_1_1files_1_1_dynamic_library_1_1_reloader.html" target="_top" xlink:title="This class watches a dynamic library file for changes on disk.">
<polygon fill="white" stroke="#666666" points="137.5,-30.5 0,-30.5 0,0 137.5,0 137.5,-30.5"/>
<text text-anchor="start" x="8" y="-17" font-family="Helvetica,sans-Serif" font-size="10.00">limes::files::DynamicLibrary</text>
<text text-anchor="middle" x="68.75" y="-5.75" font-family="Helvetica,sans-Serif" font-size="10.00">::Reloader</text>
</a>
</g>
</g>
<!-- Node1&#45;&gt;Node2 -->
<g id="edge1_Node000001_Node000002" class="edge">
<title>Node1&#45;&gt;Node2</title>
<g id="a_edge1_Node000001_Node000002"><a xlink:title=" ">
<path fill="none" stroke="#63b8ff" d="M121.43,-59.32C110.57,-50.45 97.12,-39.44 86.52,-30.78"/>
<polygon fill="#63b8ff" stroke="#63b8ff" points="118.86,-62.56 128.81,-66.18 123.29,-57.14 118.86,-62.56"/>
</a>
</g>
</g>
<!-- Node3 -->
<g id="Node000003" class="node">
<title>Node3</title>
<g id="a_Node000003"><a xlink:href="classlimes_1_1files_1_1_simple_file_watcher.html" target="_top" xlink:title="This class implements all of FileWatcher&#39;s virtual methods, and allows you to easily specify a lambda...">
<polygon fill="white" stroke="#666666" points="270.25,-30.5 155.25,-30.5 155.25,0 270.25,0 270.25,-30.5"/>
<text text-anchor="start" x="163.25" y="-17" font-family="Helvetica,sans-Serif" font-size="10.00">limes::files::SimpleFile</text>
<text text-anchor="middle" x="212.75" y="-5.75" font-family="Helvetica,sans-Serif" font-size="10.00">Watcher</text>
</a>
</g>
</g>
<!-- Node1&#45;&gt;Node3 -->
<g id="edge2_Node000001_Node000003" class="edge">
<title>Node1&#45;&gt;Node3</title>
<g id="a_edge2_Node000001_Node000003"><a xlink:title=" ">
<path fill="none" stroke="#63b8ff" d="M160.07,-59.32C170.93,-50.45 184.38,-39.44 194.98,-30.78"/>
<polygon fill="#63b8ff" stroke="#63b8ff" points="158.21,-57.14 152.69,-66.18 162.64,-62.56 158.21,-57.14"/>
</a>
</g>
</g>
</g>
</svg>
