<?xml version="1.0" encoding="UTF-8" standalone="no"?>
<!DOCTYPE svg PUBLIC "-//W3C//DTD SVG 1.1//EN"
 "http://www.w3.org/Graphics/SVG/1.1/DTD/svg11.dtd">
<!-- Generated by graphviz version 2.43.0 (0)
 -->
<!-- Title: limes::files::FilesystemEntry Pages: 1 -->
<svg width="377pt" height="151pt"
 viewBox="0.00 0.00 376.50 151.00" xmlns="http://www.w3.org/2000/svg" xmlns:xlink="http://www.w3.org/1999/xlink">
<g id="graph0" class="graph" transform="scale(1 1) rotate(0) translate(4 147)">
<title>limes::files::FilesystemEntry</title>
<polygon fill="white" stroke="transparent" points="-4,4 -4,-147 372.5,-147 372.5,4 -4,4"/>
<!-- Node1 -->
<g id="node1" class="node">
<title>Node1</title>
<g id="a_node1"><a xlink:title="The base class for any kind of object on the filesystem.">
<polygon fill="#bfbfbf" stroke="black" points="121,-112.5 121,-142.5 250,-142.5 250,-112.5 121,-112.5"/>
<text text-anchor="start" x="129" y="-130.5" font-family="Helvetica,sans-Serif" font-size="10.00">limes::files::Filesystem</text>
<text text-anchor="middle" x="185.5" y="-119.5" font-family="Helvetica,sans-Serif" font-size="10.00">Entry</text>
</a>
</g>
</g>
<!-- Node2 -->
<g id="node2" class="node">
<title>Node2</title>
<g id="a_node2"><a xlink:href="classlimes_1_1files_1_1Directory.html" target="_top" xlink:title="This class represents a directory on the filesystem.">
<polygon fill="white" stroke="black" points="0,-56.5 0,-75.5 121,-75.5 121,-56.5 0,-56.5"/>
<text text-anchor="middle" x="60.5" y="-63.5" font-family="Helvetica,sans-Serif" font-size="10.00">limes::files::Directory</text>
</a>
</g>
</g>
<!-- Node1&#45;&gt;Node2 -->
<g id="edge1" class="edge">
<title>Node1&#45;&gt;Node2</title>
<path fill="none" stroke="midnightblue" d="M146.81,-108.08C124.11,-97.28 96.47,-84.12 78.69,-75.66"/>
<polygon fill="midnightblue" stroke="midnightblue" points="145.34,-111.26 155.88,-112.4 148.35,-104.94 145.34,-111.26"/>
</g>
<!-- Node3 -->
<g id="node3" class="node">
<title>Node3</title>
<g id="a_node3"><a xlink:href="classlimes_1_1files_1_1File.html" target="_top" xlink:title="This class represents a file on the filesystem.">
<polygon fill="white" stroke="black" points="139,-56.5 139,-75.5 232,-75.5 232,-56.5 139,-56.5"/>
<text text-anchor="middle" x="185.5" y="-63.5" font-family="Helvetica,sans-Serif" font-size="10.00">limes::files::File</text>
</a>
</g>
</g>
<!-- Node1&#45;&gt;Node3 -->
<g id="edge2" class="edge">
<title>Node1&#45;&gt;Node3</title>
<path fill="none" stroke="midnightblue" d="M185.5,-102.29C185.5,-92.86 185.5,-82.65 185.5,-75.66"/>
<polygon fill="midnightblue" stroke="midnightblue" points="182,-102.4 185.5,-112.4 189,-102.4 182,-102.4"/>
</g>
<!-- Node5 -->
<g id="node5" class="node">
<title>Node5</title>
<g id="a_node5"><a xlink:href="classlimes_1_1files_1_1SymLink.html" target="_top" xlink:title="This class represents a symbolic link on the filesystem.">
<polygon fill="white" stroke="black" points="250.5,-56.5 250.5,-75.5 368.5,-75.5 368.5,-56.5 250.5,-56.5"/>
<text text-anchor="middle" x="309.5" y="-63.5" font-family="Helvetica,sans-Serif" font-size="10.00">limes::files::SymLink</text>
</a>
</g>
</g>
<!-- Node1&#45;&gt;Node5 -->
<g id="edge4" class="edge">
<title>Node1&#45;&gt;Node5</title>
<path fill="none" stroke="midnightblue" d="M224.18,-107.94C246.65,-97.16 273.9,-84.08 291.46,-75.66"/>
<polygon fill="midnightblue" stroke="midnightblue" points="222.39,-104.92 214.89,-112.4 225.42,-111.23 222.39,-104.92"/>
</g>
<!-- Node4 -->
<g id="node4" class="node">
<title>Node4</title>
<g id="a_node4"><a xlink:href="classlimes_1_1files_1_1TempFile.html" target="_top" xlink:title="Represents a temporary file.">
<polygon fill="white" stroke="black" points="126,-0.5 126,-19.5 245,-19.5 245,-0.5 126,-0.5"/>
<text text-anchor="middle" x="185.5" y="-7.5" font-family="Helvetica,sans-Serif" font-size="10.00">limes::files::TempFile</text>
</a>
</g>
</g>
<!-- Node3&#45;&gt;Node4 -->
<g id="edge3" class="edge">
<title>Node3&#45;&gt;Node4</title>
<path fill="none" stroke="midnightblue" d="M185.5,-45.8C185.5,-36.91 185.5,-26.78 185.5,-19.75"/>
<polygon fill="midnightblue" stroke="midnightblue" points="182,-46.08 185.5,-56.08 189,-46.08 182,-46.08"/>
</g>
</g>
</svg>
