<?xml version="1.0" encoding="UTF-8" standalone="no"?>
<!DOCTYPE svg PUBLIC "-//W3C//DTD SVG 1.1//EN"
 "http://www.w3.org/Graphics/SVG/1.1/DTD/svg11.dtd">
<!-- Generated by graphviz version 2.43.0 (0)
 -->
<!-- Title: limes::files::TempFile Pages: 1 -->
<svg width="137pt" height="151pt"
 viewBox="0.00 0.00 137.00 151.00" xmlns="http://www.w3.org/2000/svg" xmlns:xlink="http://www.w3.org/1999/xlink">
<g id="graph0" class="graph" transform="scale(1 1) rotate(0) translate(4 147)">
<title>limes::files::TempFile</title>
<polygon fill="white" stroke="transparent" points="-4,4 -4,-147 133,-147 133,4 -4,4"/>
<!-- Node1 -->
<g id="node1" class="node">
<title>Node1</title>
<g id="a_node1"><a xlink:title="Represents a temporary file.">
<polygon fill="#bfbfbf" stroke="black" points="5,-0.5 5,-19.5 124,-19.5 124,-0.5 5,-0.5"/>
<text text-anchor="middle" x="64.5" y="-7.5" font-family="Helvetica,sans-Serif" font-size="10.00">limes::files::TempFile</text>
</a>
</g>
</g>
<!-- Node2 -->
<g id="node2" class="node">
<title>Node2</title>
<g id="a_node2"><a xlink:href="classlimes_1_1files_1_1File.html" target="_top" xlink:title="This class represents a file on the filesystem.">
<polygon fill="white" stroke="black" points="18,-56.5 18,-75.5 111,-75.5 111,-56.5 18,-56.5"/>
<text text-anchor="middle" x="64.5" y="-63.5" font-family="Helvetica,sans-Serif" font-size="10.00">limes::files::File</text>
</a>
</g>
</g>
<!-- Node2&#45;&gt;Node1 -->
<g id="edge1" class="edge">
<title>Node2&#45;&gt;Node1</title>
<path fill="none" stroke="midnightblue" d="M64.5,-45.8C64.5,-36.91 64.5,-26.78 64.5,-19.75"/>
<polygon fill="midnightblue" stroke="midnightblue" points="61,-46.08 64.5,-56.08 68,-46.08 61,-46.08"/>
</g>
<!-- Node3 -->
<g id="node3" class="node">
<title>Node3</title>
<g id="a_node3"><a xlink:href="classlimes_1_1files_1_1FilesystemEntry.html" target="_top" xlink:title="The base class for any kind of object on the filesystem.">
<polygon fill="white" stroke="black" points="0,-112.5 0,-142.5 129,-142.5 129,-112.5 0,-112.5"/>
<text text-anchor="start" x="8" y="-130.5" font-family="Helvetica,sans-Serif" font-size="10.00">limes::files::Filesystem</text>
<text text-anchor="middle" x="64.5" y="-119.5" font-family="Helvetica,sans-Serif" font-size="10.00">Entry</text>
</a>
</g>
</g>
<!-- Node3&#45;&gt;Node2 -->
<g id="edge2" class="edge">
<title>Node3&#45;&gt;Node2</title>
<path fill="none" stroke="midnightblue" d="M64.5,-102.29C64.5,-92.86 64.5,-82.65 64.5,-75.66"/>
<polygon fill="midnightblue" stroke="midnightblue" points="61,-102.4 64.5,-112.4 68,-102.4 61,-102.4"/>
</g>
</g>
</svg>
