<?xml version="1.0" encoding="UTF-8" standalone="no"?>
<!DOCTYPE svg PUBLIC "-//W3C//DTD SVG 1.1//EN"
 "http://www.w3.org/Graphics/SVG/1.1/DTD/svg11.dtd">
<!-- Generated by graphviz version 2.43.0 (0)
 -->
<!-- Title: limes::files::FileWatcher Pages: 1 -->
<svg width="405pt" height="95pt"
 viewBox="0.00 0.00 404.50 95.00" xmlns="http://www.w3.org/2000/svg" xmlns:xlink="http://www.w3.org/1999/xlink">
<g id="graph0" class="graph" transform="scale(1 1) rotate(0) translate(4 91)">
<title>limes::files::FileWatcher</title>
<polygon fill="white" stroke="transparent" points="-4,4 -4,-91 400.5,-91 400.5,4 -4,4"/>
<!-- Node1 -->
<g id="node1" class="node">
<title>Node1</title>
<g id="a_node1"><a xlink:title="This class listens for changes to or operations on a certain file, and receives callbacks to be notif...">
<polygon fill="#bfbfbf" stroke="black" points="108.5,-67.5 108.5,-86.5 241.5,-86.5 241.5,-67.5 108.5,-67.5"/>
<text text-anchor="middle" x="175" y="-74.5" font-family="Helvetica,sans-Serif" font-size="10.00">limes::files::FileWatcher</text>
</a>
</g>
</g>
<!-- Node2 -->
<g id="node2" class="node">
<title>Node2</title>
<g id="a_node2"><a xlink:href="structJSONWatcher.html" target="_top" xlink:title=" ">
<polygon fill="white" stroke="black" points="0,-6 0,-25 80,-25 80,-6 0,-6"/>
<text text-anchor="middle" x="40" y="-13" font-family="Helvetica,sans-Serif" font-size="10.00">JSONWatcher</text>
</a>
</g>
</g>
<!-- Node1&#45;&gt;Node2 -->
<g id="edge1" class="edge">
<title>Node1&#45;&gt;Node2</title>
<path fill="none" stroke="midnightblue" d="M146.25,-63.33C120.04,-51.78 82.05,-35.03 59.31,-25.01"/>
<polygon fill="midnightblue" stroke="midnightblue" points="145.1,-66.64 155.66,-67.48 147.92,-60.24 145.1,-66.64"/>
</g>
<!-- Node3 -->
<g id="node3" class="node">
<title>Node3</title>
<g id="a_node3"><a xlink:href="classlimes_1_1files_1_1DynamicLibrary_1_1Reloader.html" target="_top" xlink:title="This class watches a dynamic library file for changes on disk.">
<polygon fill="white" stroke="black" points="98.5,-0.5 98.5,-30.5 251.5,-30.5 251.5,-0.5 98.5,-0.5"/>
<text text-anchor="start" x="106.5" y="-18.5" font-family="Helvetica,sans-Serif" font-size="10.00">limes::files::DynamicLibrary</text>
<text text-anchor="middle" x="175" y="-7.5" font-family="Helvetica,sans-Serif" font-size="10.00">::Reloader</text>
</a>
</g>
</g>
<!-- Node1&#45;&gt;Node3 -->
<g id="edge2" class="edge">
<title>Node1&#45;&gt;Node3</title>
<path fill="none" stroke="midnightblue" d="M175,-57.23C175,-48.59 175,-38.5 175,-30.52"/>
<polygon fill="midnightblue" stroke="midnightblue" points="171.5,-57.48 175,-67.48 178.5,-57.48 171.5,-57.48"/>
</g>
<!-- Node4 -->
<g id="node4" class="node">
<title>Node4</title>
<g id="a_node4"><a xlink:href="classlimes_1_1files_1_1SimpleFileWatcher.html" target="_top" xlink:title="This class implements all of FileWatcher&#39;s virtual methods, and allows you to easily specify a lambda...">
<polygon fill="white" stroke="black" points="269.5,-0.5 269.5,-30.5 396.5,-30.5 396.5,-0.5 269.5,-0.5"/>
<text text-anchor="start" x="277.5" y="-18.5" font-family="Helvetica,sans-Serif" font-size="10.00">limes::files::SimpleFile</text>
<text text-anchor="middle" x="333" y="-7.5" font-family="Helvetica,sans-Serif" font-size="10.00">Watcher</text>
</a>
</g>
</g>
<!-- Node1&#45;&gt;Node4 -->
<g id="edge3" class="edge">
<title>Node1&#45;&gt;Node4</title>
<path fill="none" stroke="midnightblue" d="M207.27,-63.85C232.94,-54.18 268.88,-40.65 295.76,-30.52"/>
<polygon fill="midnightblue" stroke="midnightblue" points="205.76,-60.68 197.64,-67.48 208.23,-67.23 205.76,-60.68"/>
</g>
</g>
</svg>
