<?xml version="1.0" encoding="UTF-8" standalone="no"?>
<!DOCTYPE svg PUBLIC "-//W3C//DTD SVG 1.1//EN"
 "http://www.w3.org/Graphics/SVG/1.1/DTD/svg11.dtd">
<!-- Generated by graphviz version 2.43.0 (0)
 -->
<!-- Title: docs Pages: 1 -->
<svg width="178pt" height="132pt"
 viewBox="0.00 0.00 178.00 132.00" xmlns="http://www.w3.org/2000/svg" xmlns:xlink="http://www.w3.org/1999/xlink">
<g id="graph0" class="graph" transform="scale(1 1) rotate(0) translate(4 128)">
<title>docs</title>
<polygon fill="white" stroke="transparent" points="-4,4 -4,-128 174,-128 174,4 -4,4"/>
<g id="clust1" class="cluster">
<title>clusterdir_49e56c817e5e54854c35e136979f97ca</title>
<g id="a_clust1"><a xlink:href="dir_49e56c817e5e54854c35e136979f97ca.html" target="_top">
<polygon fill="#eeeeff" stroke="black" points="8,-64 8,-116 162,-116 162,-64 8,-64"/>
</a>
</g>
</g>
<!-- dir_49e56c817e5e54854c35e136979f97ca -->
<g id="node1" class="node">
<title>dir_49e56c817e5e54854c35e136979f97ca</title>
<text text-anchor="middle" x="127" y="-87.5" font-family="Helvetica,sans-Serif" font-size="10.00">docs</text>
</g>
<!-- dir_77c33839815b7c6c2ca556064fb28352 -->
<g id="node2" class="node">
<title>dir_77c33839815b7c6c2ca556064fb28352</title>
<g id="a_node2"><a xlink:href="dir_77c33839815b7c6c2ca556064fb28352.html" target="_top" xlink:title="examples">
<polygon fill="white" stroke="black" points="81.5,-108 16.5,-108 16.5,-72 81.5,-72 81.5,-108"/>
<text text-anchor="middle" x="49" y="-87.5" font-family="Helvetica,sans-Serif" font-size="10.00">examples</text>
</a>
</g>
</g>
<!-- dir_d44c64559bbebec7f509842c48db8b23 -->
<g id="node3" class="node">
<title>dir_d44c64559bbebec7f509842c48db8b23</title>
<g id="a_node3"><a xlink:href="dir_d44c64559bbebec7f509842c48db8b23.html" target="_top" xlink:title="include">
<polygon fill="white" stroke="red" points="76,-36 22,-36 22,0 76,0 76,-36"/>
<text text-anchor="middle" x="49" y="-15.5" font-family="Helvetica,sans-Serif" font-size="10.00">include</text>
</a>
</g>
</g>
<!-- dir_77c33839815b7c6c2ca556064fb28352&#45;&gt;dir_d44c64559bbebec7f509842c48db8b23 -->
<g id="edge1" class="edge">
<title>dir_77c33839815b7c6c2ca556064fb28352&#45;&gt;dir_d44c64559bbebec7f509842c48db8b23</title>
<path fill="none" stroke="black" d="M49,-71.7C49,-63.98 49,-54.71 49,-46.11"/>
<polygon fill="black" stroke="black" points="52.5,-46.1 49,-36.1 45.5,-46.1 52.5,-46.1"/>
<g id="a_edge1&#45;headlabel"><a xlink:href="dir_000001_000002.html" target="_top" xlink:title="2">
<text text-anchor="middle" x="55.34" y="-47.2" font-family="Helvetica,sans-Serif" font-size="10.00">2</text>
</a>
</g>
</g>
</g>
</svg>
