<?xml version="1.0" encoding="UTF-8" standalone="no"?>
<!DOCTYPE svg PUBLIC "-//W3C//DTD SVG 1.1//EN"
 "http://www.w3.org/Graphics/SVG/1.1/DTD/svg11.dtd">
<!-- Generated by graphviz version 2.43.0 (0)
 -->
<!-- Title: Graphical Class Hierarchy Pages: 1 -->
<svg width="330pt" height="88pt"
 viewBox="0.00 0.00 330.00 88.00" xmlns="http://www.w3.org/2000/svg" xmlns:xlink="http://www.w3.org/1999/xlink">
<g id="graph0" class="graph" transform="scale(1 1) rotate(0) translate(4 84)">
<title>Graphical Class Hierarchy</title>
<polygon fill="white" stroke="transparent" points="-4,4 -4,-84 326,-84 326,4 -4,4"/>
<!-- Node0 -->
<g id="node1" class="node">
<title>Node0</title>
<g id="a_node1"><a xlink:href="classlimes_1_1files_1_1FileWatcher.html" target="_top" xlink:title="This class listens for changes to or operations on a certain file, and receives callbacks to be notif...">
<polygon fill="white" stroke="black" points="0,-30 0,-49 133,-49 133,-30 0,-30"/>
<text text-anchor="middle" x="66.5" y="-37" font-family="Helvetica,sans-Serif" font-size="10.00">limes::files::FileWatcher</text>
</a>
</g>
</g>
<!-- Node1 -->
<g id="node2" class="node">
<title>Node1</title>
<g id="a_node2"><a xlink:href="classlimes_1_1files_1_1DynamicLibrary_1_1Reloader.html" target="_top" xlink:title="This class watches a dynamic library file for changes on disk.">
<polygon fill="white" stroke="black" points="169,-49.5 169,-79.5 322,-79.5 322,-49.5 169,-49.5"/>
<text text-anchor="start" x="177" y="-67.5" font-family="Helvetica,sans-Serif" font-size="10.00">limes::files::DynamicLibrary</text>
<text text-anchor="middle" x="245.5" y="-56.5" font-family="Helvetica,sans-Serif" font-size="10.00">::Reloader</text>
</a>
</g>
</g>
<!-- Node0&#45;&gt;Node1 -->
<g id="edge1" class="edge">
<title>Node0&#45;&gt;Node1</title>
<path fill="none" stroke="midnightblue" d="M143.07,-50.17C151.59,-51.38 160.27,-52.6 168.8,-53.81"/>
<polygon fill="midnightblue" stroke="midnightblue" points="143.55,-46.71 133.16,-48.77 142.57,-53.64 143.55,-46.71"/>
</g>
<!-- Node2 -->
<g id="node3" class="node">
<title>Node2</title>
<g id="a_node3"><a xlink:href="classlimes_1_1files_1_1SimpleFileWatcher.html" target="_top" xlink:title="This class implements all of FileWatcher&#39;s virtual methods, and allows you to easily specify a lambda...">
<polygon fill="white" stroke="black" points="182,-0.5 182,-30.5 309,-30.5 309,-0.5 182,-0.5"/>
<text text-anchor="start" x="190" y="-18.5" font-family="Helvetica,sans-Serif" font-size="10.00">limes::files::SimpleFile</text>
<text text-anchor="middle" x="245.5" y="-7.5" font-family="Helvetica,sans-Serif" font-size="10.00">Watcher</text>
</a>
</g>
</g>
<!-- Node0&#45;&gt;Node2 -->
<g id="edge2" class="edge">
<title>Node0&#45;&gt;Node2</title>
<path fill="none" stroke="midnightblue" d="M143.36,-29.21C156.21,-27.47 169.43,-25.68 181.89,-23.99"/>
<polygon fill="midnightblue" stroke="midnightblue" points="142.6,-25.79 133.16,-30.6 143.54,-32.72 142.6,-25.79"/>
</g>
</g>
</svg>
