<?xml version="1.0" encoding="UTF-8" standalone="no"?>
<!DOCTYPE svg PUBLIC "-//W3C//DTD SVG 1.1//EN"
 "http://www.w3.org/Graphics/SVG/1.1/DTD/svg11.dtd">
<!-- Generated by graphviz version 8.0.5 (20230430.1635)
 -->
<!-- Title: Graphical Class Hierarchy Pages: 1 -->
<svg width="415pt" height="101pt"
 viewBox="0.00 0.00 415.25 101.25" xmlns="http://www.w3.org/2000/svg" xmlns:xlink="http://www.w3.org/1999/xlink">
<g id="graph0" class="graph" transform="scale(1 1) rotate(0) translate(4 97.25)">
<title>Graphical Class Hierarchy</title>
<!-- Node0 -->
<g id="Node000000" class="node">
<title>Node0</title>
<g id="a_Node000000"><a xlink:href="classlimes_1_1files_1_1_filesystem_entry.html" target="_top" xlink:title="The base class for any kind of object on the filesystem.">
<polygon fill="white" stroke="#666666" points="117.25,-61.88 0,-61.88 0,-31.38 117.25,-31.38 117.25,-61.88"/>
<text text-anchor="start" x="8" y="-48.38" font-family="Helvetica,sans-Serif" font-size="10.00">limes::files::Filesystem</text>
<text text-anchor="middle" x="58.62" y="-37.12" font-family="Helvetica,sans-Serif" font-size="10.00">Entry</text>
</a>
</g>
</g>
<!-- Node1 -->
<g id="Node000001" class="node">
<title>Node1</title>
<g id="a_Node000001"><a xlink:href="classlimes_1_1files_1_1_directory.html" target="_top" xlink:title="This class represents a directory on the filesystem.">
<polygon fill="white" stroke="#666666" points="262.25,-93.25 153.25,-93.25 153.25,-74 262.25,-74 262.25,-93.25"/>
<text text-anchor="middle" x="207.75" y="-79.75" font-family="Helvetica,sans-Serif" font-size="10.00">limes::files::Directory</text>
</a>
</g>
</g>
<!-- Node0&#45;&gt;Node1 -->
<g id="edge1_Node000000_Node000001" class="edge">
<title>Node0&#45;&gt;Node1</title>
<g id="a_edge1_Node000000_Node000001"><a xlink:title=" ">
<path fill="none" stroke="#63b8ff" d="M127.96,-63.81C141.3,-67.16 154.86,-70.58 166.89,-73.6"/>
<polygon fill="#63b8ff" stroke="#63b8ff" points="128.9,-60.19 118.35,-61.14 127.19,-66.98 128.9,-60.19"/>
</a>
</g>
</g>
<!-- Node2 -->
<g id="Node000002" class="node">
<title>Node2</title>
<g id="a_Node000002"><a xlink:href="classlimes_1_1files_1_1_file.html" target="_top" xlink:title="This class represents a file on the filesystem.">
<polygon fill="white" stroke="#666666" points="250.25,-56.25 165.25,-56.25 165.25,-37 250.25,-37 250.25,-56.25"/>
<text text-anchor="middle" x="207.75" y="-42.75" font-family="Helvetica,sans-Serif" font-size="10.00">limes::files::File</text>
</a>
</g>
</g>
<!-- Node0&#45;&gt;Node2 -->
<g id="edge2_Node000000_Node000002" class="edge">
<title>Node0&#45;&gt;Node2</title>
<g id="a_edge2_Node000000_Node000002"><a xlink:title=" ">
<path fill="none" stroke="#63b8ff" d="M128.31,-46.62C140.87,-46.62 153.63,-46.62 165.1,-46.62"/>
<polygon fill="#63b8ff" stroke="#63b8ff" points="128.35,-43.13 118.35,-46.62 128.35,-50.13 128.35,-43.13"/>
</a>
</g>
</g>
<!-- Node4 -->
<g id="Node000004" class="node">
<title>Node4</title>
<g id="a_Node000004"><a xlink:href="classlimes_1_1files_1_1_sym_link.html" target="_top" xlink:title="This class represents a symbolic link on the filesystem.">
<polygon fill="white" stroke="#666666" points="261.5,-19.25 154,-19.25 154,0 261.5,0 261.5,-19.25"/>
<text text-anchor="middle" x="207.75" y="-5.75" font-family="Helvetica,sans-Serif" font-size="10.00">limes::files::SymLink</text>
</a>
</g>
</g>
<!-- Node0&#45;&gt;Node4 -->
<g id="edge4_Node000000_Node000004" class="edge">
<title>Node0&#45;&gt;Node4</title>
<g id="a_edge4_Node000000_Node000004"><a xlink:title=" ">
<path fill="none" stroke="#63b8ff" d="M127.96,-29.44C141.3,-26.09 154.86,-22.67 166.89,-19.65"/>
<polygon fill="#63b8ff" stroke="#63b8ff" points="127.19,-26.27 118.35,-32.11 128.9,-33.06 127.19,-26.27"/>
</a>
</g>
</g>
<!-- Node3 -->
<g id="Node000003" class="node">
<title>Node3</title>
<g id="a_Node000003"><a xlink:href="classlimes_1_1files_1_1_temp_file.html" target="_top" xlink:title="Represents a temporary file.">
<polygon fill="white" stroke="#666666" points="407.25,-56.25 298.25,-56.25 298.25,-37 407.25,-37 407.25,-56.25"/>
<text text-anchor="middle" x="352.75" y="-42.75" font-family="Helvetica,sans-Serif" font-size="10.00">limes::files::TempFile</text>
</a>
</g>
</g>
<!-- Node2&#45;&gt;Node3 -->
<g id="edge3_Node000002_Node000003" class="edge">
<title>Node2&#45;&gt;Node3</title>
<g id="a_edge3_Node000002_Node000003"><a xlink:title=" ">
<path fill="none" stroke="#63b8ff" d="M261.23,-46.62C273.2,-46.62 285.94,-46.62 297.96,-46.62"/>
<polygon fill="#63b8ff" stroke="#63b8ff" points="261.5,-43.13 251.5,-46.62 261.5,-50.13 261.5,-43.13"/>
</a>
</g>
</g>
</g>
</svg>
