<?xml version="1.0" encoding="UTF-8" standalone="no"?>
<!DOCTYPE svg PUBLIC "-//W3C//DTD SVG 1.1//EN"
 "http://www.w3.org/Graphics/SVG/1.1/DTD/svg11.dtd">
<!-- Generated by graphviz version 2.43.0 (0)
 -->
<!-- Title: Graphical Class Hierarchy Pages: 1 -->
<svg width="449pt" height="104pt"
 viewBox="0.00 0.00 449.00 104.00" xmlns="http://www.w3.org/2000/svg" xmlns:xlink="http://www.w3.org/1999/xlink">
<g id="graph0" class="graph" transform="scale(1 1) rotate(0) translate(4 100)">
<title>Graphical Class Hierarchy</title>
<polygon fill="white" stroke="transparent" points="-4,4 -4,-100 445,-100 445,4 -4,4"/>
<!-- Node0 -->
<g id="node1" class="node">
<title>Node0</title>
<g id="a_node1"><a xlink:href="classlimes_1_1files_1_1FilesystemEntry.html" target="_top" xlink:title="The base class for any kind of object on the filesystem.">
<polygon fill="white" stroke="black" points="0,-33 0,-63 129,-63 129,-33 0,-33"/>
<text text-anchor="start" x="8" y="-51" font-family="Helvetica,sans-Serif" font-size="10.00">limes::files::Filesystem</text>
<text text-anchor="middle" x="64.5" y="-40" font-family="Helvetica,sans-Serif" font-size="10.00">Entry</text>
</a>
</g>
</g>
<!-- Node1 -->
<g id="node2" class="node">
<title>Node1</title>
<g id="a_node2"><a xlink:href="classlimes_1_1files_1_1Directory.html" target="_top" xlink:title="This class represents a directory on the filesystem.">
<polygon fill="white" stroke="black" points="165,-76.5 165,-95.5 286,-95.5 286,-76.5 165,-76.5"/>
<text text-anchor="middle" x="225.5" y="-83.5" font-family="Helvetica,sans-Serif" font-size="10.00">limes::files::Directory</text>
</a>
</g>
</g>
<!-- Node0&#45;&gt;Node1 -->
<g id="edge1" class="edge">
<title>Node0&#45;&gt;Node1</title>
<path fill="none" stroke="midnightblue" d="M138.19,-65.37C154.13,-69.18 170.43,-73.08 184.51,-76.44"/>
<polygon fill="midnightblue" stroke="midnightblue" points="138.88,-61.94 128.34,-63.02 137.25,-68.75 138.88,-61.94"/>
</g>
<!-- Node2 -->
<g id="node3" class="node">
<title>Node2</title>
<g id="a_node3"><a xlink:href="classlimes_1_1files_1_1File.html" target="_top" xlink:title="This class represents a file on the filesystem.">
<polygon fill="white" stroke="black" points="179,-38.5 179,-57.5 272,-57.5 272,-38.5 179,-38.5"/>
<text text-anchor="middle" x="225.5" y="-45.5" font-family="Helvetica,sans-Serif" font-size="10.00">limes::files::File</text>
</a>
</g>
</g>
<!-- Node0&#45;&gt;Node2 -->
<g id="edge2" class="edge">
<title>Node0&#45;&gt;Node2</title>
<path fill="none" stroke="midnightblue" d="M139.46,-48C152.88,-48 166.52,-48 178.83,-48"/>
<polygon fill="midnightblue" stroke="midnightblue" points="139.26,-44.5 129.26,-48 139.26,-51.5 139.26,-44.5"/>
</g>
<!-- Node4 -->
<g id="node5" class="node">
<title>Node4</title>
<g id="a_node5"><a xlink:href="classlimes_1_1files_1_1SymLink.html" target="_top" xlink:title="This class represents a symbolic link on the filesystem.">
<polygon fill="white" stroke="black" points="166.5,-0.5 166.5,-19.5 284.5,-19.5 284.5,-0.5 166.5,-0.5"/>
<text text-anchor="middle" x="225.5" y="-7.5" font-family="Helvetica,sans-Serif" font-size="10.00">limes::files::SymLink</text>
</a>
</g>
</g>
<!-- Node0&#45;&gt;Node4 -->
<g id="edge4" class="edge">
<title>Node0&#45;&gt;Node4</title>
<path fill="none" stroke="midnightblue" d="M138.19,-30.63C154.13,-26.82 170.43,-22.92 184.51,-19.56"/>
<polygon fill="midnightblue" stroke="midnightblue" points="137.25,-27.25 128.34,-32.98 138.88,-34.06 137.25,-27.25"/>
</g>
<!-- Node3 -->
<g id="node4" class="node">
<title>Node3</title>
<g id="a_node4"><a xlink:href="classlimes_1_1files_1_1TempFile.html" target="_top" xlink:title="Represents a temporary file.">
<polygon fill="white" stroke="black" points="322,-38.5 322,-57.5 441,-57.5 441,-38.5 322,-38.5"/>
<text text-anchor="middle" x="381.5" y="-45.5" font-family="Helvetica,sans-Serif" font-size="10.00">limes::files::TempFile</text>
</a>
</g>
</g>
<!-- Node2&#45;&gt;Node3 -->
<g id="edge3" class="edge">
<title>Node2&#45;&gt;Node3</title>
<path fill="none" stroke="midnightblue" d="M282.35,-48C295.16,-48 308.81,-48 321.74,-48"/>
<polygon fill="midnightblue" stroke="midnightblue" points="282.29,-44.5 272.29,-48 282.29,-51.5 282.29,-44.5"/>
</g>
</g>
</svg>
