<?xml version="1.0" encoding="UTF-8" standalone="no"?>
<!DOCTYPE svg PUBLIC "-//W3C//DTD SVG 1.1//EN"
 "http://www.w3.org/Graphics/SVG/1.1/DTD/svg11.dtd">
<!-- Generated by graphviz version 8.0.5 (20230430.1635)
 -->
<!-- Title: Graphical Class Hierarchy Pages: 1 -->
<svg width="303pt" height="88pt"
 viewBox="0.00 0.00 302.50 87.50" xmlns="http://www.w3.org/2000/svg" xmlns:xlink="http://www.w3.org/1999/xlink">
<g id="graph0" class="graph" transform="scale(1 1) rotate(0) translate(4 83.5)">
<title>Graphical Class Hierarchy</title>
<!-- Node0 -->
<g id="Node000000" class="node">
<title>Node0</title>
<g id="a_Node000000"><a xlink:href="classlimes_1_1files_1_1_file_watcher.html" target="_top" xlink:title="This class listens for changes to or operations on a certain file, and receives callbacks to be notif...">
<polygon fill="white" stroke="#666666" points="121,-48.88 0,-48.88 0,-29.62 121,-29.62 121,-48.88"/>
<text text-anchor="middle" x="60.5" y="-35.38" font-family="Helvetica,sans-Serif" font-size="10.00">limes::files::FileWatcher</text>
</a>
</g>
</g>
<!-- Node1 -->
<g id="Node000001" class="node">
<title>Node1</title>
<g id="a_Node000001"><a xlink:href="classlimes_1_1files_1_1_dynamic_library_1_1_reloader.html" target="_top" xlink:title="This class watches a dynamic library file for changes on disk.">
<polygon fill="white" stroke="#666666" points="294.5,-79.5 157,-79.5 157,-49 294.5,-49 294.5,-79.5"/>
<text text-anchor="start" x="165" y="-66" font-family="Helvetica,sans-Serif" font-size="10.00">limes::files::DynamicLibrary</text>
<text text-anchor="middle" x="225.75" y="-54.75" font-family="Helvetica,sans-Serif" font-size="10.00">::Reloader</text>
</a>
</g>
</g>
<!-- Node0&#45;&gt;Node1 -->
<g id="edge5_Node000000_Node000001" class="edge">
<title>Node0&#45;&gt;Node1</title>
<g id="a_edge5_Node000000_Node000001"><a xlink:title=" ">
<path fill="none" stroke="#63b8ff" d="M131.99,-50.04C140.16,-51.3 148.48,-52.57 156.61,-53.82"/>
<polygon fill="#63b8ff" stroke="#63b8ff" points="132.78,-46.47 122.36,-48.42 131.72,-53.39 132.78,-46.47"/>
</a>
</g>
</g>
<!-- Node2 -->
<g id="Node000002" class="node">
<title>Node2</title>
<g id="a_Node000002"><a xlink:href="classlimes_1_1files_1_1_simple_file_watcher.html" target="_top" xlink:title="This class implements all of FileWatcher&#39;s virtual methods, and allows you to easily specify a lambda...">
<polygon fill="white" stroke="#666666" points="283.25,-30.5 168.25,-30.5 168.25,0 283.25,0 283.25,-30.5"/>
<text text-anchor="start" x="176.25" y="-17" font-family="Helvetica,sans-Serif" font-size="10.00">limes::files::SimpleFile</text>
<text text-anchor="middle" x="225.75" y="-5.75" font-family="Helvetica,sans-Serif" font-size="10.00">Watcher</text>
</a>
</g>
</g>
<!-- Node0&#45;&gt;Node2 -->
<g id="edge6_Node000000_Node000002" class="edge">
<title>Node0&#45;&gt;Node2</title>
<g id="a_edge6_Node000000_Node000002"><a xlink:title=" ">
<path fill="none" stroke="#63b8ff" d="M132.2,-28.86C144.12,-27.1 156.37,-25.3 167.88,-23.61"/>
<polygon fill="#63b8ff" stroke="#63b8ff" points="131.75,-25.53 122.36,-30.45 132.76,-32.46 131.75,-25.53"/>
</a>
</g>
</g>
</g>
</svg>
