<?xml version="1.0" encoding="UTF-8" standalone="no"?>
<!DOCTYPE svg PUBLIC "-//W3C//DTD SVG 1.1//EN"
 "http://www.w3.org/Graphics/SVG/1.1/DTD/svg11.dtd">
<!-- Generated by graphviz version 8.0.5 (20230430.1635)
 -->
<!-- Title: lfilesystem_Permissions.h Pages: 1 -->
<svg width="411pt" height="94pt"
 viewBox="0.00 0.00 411.25 93.75" xmlns="http://www.w3.org/2000/svg" xmlns:xlink="http://www.w3.org/1999/xlink">

<svg id="main" version="1.1" xmlns="http://www.w3.org/2000/svg" xmlns:xlink="http://www.w3.org/1999/xlink" xml:space="preserve" onload="init(evt)">
<style type="text/css"><![CDATA[
.node, .edge {opacity: 0.7;}
.node.selected, .edge.selected {opacity: 1;}
.edge:hover path { stroke: red; }
.edge:hover polygon { stroke: red; fill: red; }
]]></style>
<script type="application/ecmascript" xlink:href="svg.min.js"/>
<svg id="graph" class="graph">
<g id="graph0" class="graph" transform="scale(1 1) rotate(0) translate(4 89.75)">
<title>lfilesystem_Permissions.h</title>
<!-- Node1 -->
<g id="Node000001" class="node">
<title>Node1</title>
<g id="a_Node000001"><a xlink:title="This file defines the Permissions class.">
<polygon fill="#999999" stroke="#666666" points="235.88,-85.75 105.12,-85.75 105.12,-66.5 235.88,-66.5 235.88,-85.75"/>
<text text-anchor="middle" x="170.5" y="-72.25" font-family="Helvetica,sans-Serif" font-size="10.00">lfilesystem_Permissions.h</text>
</a>
</g>
</g>
<!-- Node2 -->
<g id="Node000002" class="node">
<title>Node2</title>
<g id="a_Node000002"><a xlink:title=" ">
<polygon fill="#e0e0e0" stroke="#999999" points="61,-24.88 0,-24.88 0,-5.63 61,-5.63 61,-24.88"/>
<text text-anchor="middle" x="30.5" y="-11.38" font-family="Helvetica,sans-Serif" font-size="10.00">filesystem</text>
</a>
</g>
</g>
<!-- Node1&#45;&gt;Node2 -->
<g id="edge1_Node000001_Node000002" class="edge">
<title>Node1&#45;&gt;Node2</title>
<g id="a_edge1_Node000001_Node000002"><a xlink:title=" ">
<path fill="none" stroke="#63b8ff" d="M148.93,-66.05C125.64,-56.26 88.31,-40.56 61.79,-29.41"/>
<polygon fill="#63b8ff" stroke="#63b8ff" points="63.44,-25.88 52.86,-25.23 60.72,-32.34 63.44,-25.88"/>
</a>
</g>
</g>
<!-- Node3 -->
<g id="Node000003" class="node">
<title>Node3</title>
<g id="a_Node000003"><a xlink:title=" ">
<polygon fill="#e0e0e0" stroke="#999999" points="119.5,-24.88 79.5,-24.88 79.5,-5.63 119.5,-5.63 119.5,-24.88"/>
<text text-anchor="middle" x="99.5" y="-11.38" font-family="Helvetica,sans-Serif" font-size="10.00">string</text>
</a>
</g>
</g>
<!-- Node1&#45;&gt;Node3 -->
<g id="edge2_Node000001_Node000003" class="edge">
<title>Node1&#45;&gt;Node3</title>
<g id="a_edge2_Node000001_Node000003"><a xlink:title=" ">
<path fill="none" stroke="#63b8ff" d="M159.72,-66.18C148.87,-57.19 131.92,-43.14 118.77,-32.23"/>
<polygon fill="#63b8ff" stroke="#63b8ff" points="121.32,-28.96 111.38,-25.28 116.85,-34.35 121.32,-28.96"/>
</a>
</g>
</g>
<!-- Node4 -->
<g id="Node000004" class="node">
<title>Node4</title>
<g id="a_Node000004"><a xlink:title=" ">
<polygon fill="#e0e0e0" stroke="#999999" points="203.25,-24.88 137.75,-24.88 137.75,-5.63 203.25,-5.63 203.25,-24.88"/>
<text text-anchor="middle" x="170.5" y="-11.38" font-family="Helvetica,sans-Serif" font-size="10.00">string_view</text>
</a>
</g>
</g>
<!-- Node1&#45;&gt;Node4 -->
<g id="edge3_Node000001_Node000004" class="edge">
<title>Node1&#45;&gt;Node4</title>
<g id="a_edge3_Node000001_Node000004"><a xlink:title=" ">
<path fill="none" stroke="#63b8ff" d="M170.5,-66.18C170.5,-58.23 170.5,-46.31 170.5,-36.12"/>
<polygon fill="#63b8ff" stroke="#63b8ff" points="174,-36.28 170.5,-26.28 167,-36.28 174,-36.28"/>
</a>
</g>
</g>
<!-- Node5 -->
<g id="Node000005" class="node">
<title>Node5</title>
<g id="a_Node000005"><a xlink:title=" ">
<polygon fill="#e0e0e0" stroke="#999999" points="272.12,-24.88 220.88,-24.88 220.88,-5.63 272.12,-5.63 272.12,-24.88"/>
<text text-anchor="middle" x="246.5" y="-11.38" font-family="Helvetica,sans-Serif" font-size="10.00">ostream</text>
</a>
</g>
</g>
<!-- Node1&#45;&gt;Node5 -->
<g id="edge4_Node000001_Node000005" class="edge">
<title>Node1&#45;&gt;Node5</title>
<g id="a_edge4_Node000001_Node000005"><a xlink:title=" ">
<path fill="none" stroke="#63b8ff" d="M182.04,-66.18C193.76,-57.11 212.14,-42.87 226.28,-31.91"/>
<polygon fill="#63b8ff" stroke="#63b8ff" points="228.09,-34.17 233.85,-25.28 223.8,-28.63 228.09,-34.17"/>
</a>
</g>
</g>
<!-- Node6 -->
<g id="Node000006" class="node">
<title>Node6</title>
<g id="a_Node000006"><a xlink:title=" ">
<polygon fill="#e0e0e0" stroke="#999999" points="403.25,-30.5 289.75,-30.5 289.75,0 403.25,0 403.25,-30.5"/>
<text text-anchor="start" x="297.75" y="-17" font-family="Helvetica,sans-Serif" font-size="10.00">lfilesystem/lfilesystem</text>
<text text-anchor="middle" x="346.5" y="-5.75" font-family="Helvetica,sans-Serif" font-size="10.00">_Export.h</text>
</a>
</g>
</g>
<!-- Node1&#45;&gt;Node6 -->
<g id="edge5_Node000001_Node000006" class="edge">
<title>Node1&#45;&gt;Node6</title>
<g id="a_edge5_Node000001_Node000006"><a xlink:title=" ">
<path fill="none" stroke="#63b8ff" d="M197.61,-66.05C222.74,-57.65 260.85,-44.9 292.22,-34.41"/>
<polygon fill="#63b8ff" stroke="#63b8ff" points="293.2,-37.44 301.57,-30.94 290.98,-30.8 293.2,-37.44"/>
</a>
</g>
</g>
</g>
</svg>
</svg>

<style type='text/css'>
<![CDATA[
[data-mouse-over-selected='false'] { opacity: 0.7; }
[data-mouse-over-selected='true']  { opacity: 1.0; }
]]>
</style>
<script type="application/ecmascript"><![CDATA[
document.addEventListener('DOMContentLoaded', (event) => {
  highlightEdges();
  highlightAdjacentNodes();
});
]]></script>
</svg>
