<?xml version="1.0" encoding="UTF-8" standalone="no"?>
<!DOCTYPE svg PUBLIC "-//W3C//DTD SVG 1.1//EN"
 "http://www.w3.org/Graphics/SVG/1.1/DTD/svg11.dtd">
<!-- Generated by graphviz version 2.43.0 (0)
 -->
<!-- Title: lfilesystem_Misc.h Pages: 1 -->
<svg width="358pt" height="95pt"
 viewBox="0.00 0.00 358.00 95.00" xmlns="http://www.w3.org/2000/svg" xmlns:xlink="http://www.w3.org/1999/xlink">
<g id="graph0" class="graph" transform="scale(1 1) rotate(0) translate(4 91)">
<title>lfilesystem_Misc.h</title>
<polygon fill="white" stroke="transparent" points="-4,4 -4,-91 354,-91 354,4 -4,4"/>
<!-- Node1 -->
<g id="node1" class="node">
<title>Node1</title>
<g id="a_node1"><a xlink:title="This file defines miscellaneous filesystem utility functions.">
<polygon fill="#bfbfbf" stroke="black" points="131.5,-67.5 131.5,-86.5 238.5,-86.5 238.5,-67.5 131.5,-67.5"/>
<text text-anchor="middle" x="185" y="-74.5" font-family="Helvetica,sans-Serif" font-size="10.00">lfilesystem_Misc.h</text>
</a>
</g>
</g>
<!-- Node2 -->
<g id="node2" class="node">
<title>Node2</title>
<g id="a_node2"><a xlink:title=" ">
<polygon fill="white" stroke="#bfbfbf" points="0,-6 0,-25 50,-25 50,-6 0,-6"/>
<text text-anchor="middle" x="25" y="-13" font-family="Helvetica,sans-Serif" font-size="10.00">climits</text>
</a>
</g>
</g>
<!-- Node1&#45;&gt;Node2 -->
<g id="edge1" class="edge">
<title>Node1&#45;&gt;Node2</title>
<path fill="none" stroke="midnightblue" d="M159.73,-67.48C134.18,-58.74 93.61,-44.55 59,-31 57.4,-30.37 55.76,-29.72 54.11,-29.05"/>
<polygon fill="midnightblue" stroke="midnightblue" points="55.27,-25.74 44.69,-25.14 52.58,-32.21 55.27,-25.74"/>
</g>
<!-- Node3 -->
<g id="node3" class="node">
<title>Node3</title>
<g id="a_node3"><a xlink:title=" ">
<polygon fill="white" stroke="#bfbfbf" points="68,-0.5 68,-30.5 196,-30.5 196,-0.5 68,-0.5"/>
<text text-anchor="start" x="76" y="-18.5" font-family="Helvetica,sans-Serif" font-size="10.00">lfilesystem/lfilesystem</text>
<text text-anchor="middle" x="132" y="-7.5" font-family="Helvetica,sans-Serif" font-size="10.00">_Export.h</text>
</a>
</g>
</g>
<!-- Node1&#45;&gt;Node3 -->
<g id="edge2" class="edge">
<title>Node1&#45;&gt;Node3</title>
<path fill="none" stroke="midnightblue" d="M177.41,-67.48C170.63,-59.87 160.41,-48.4 151.39,-38.26"/>
<polygon fill="midnightblue" stroke="midnightblue" points="153.76,-35.66 144.49,-30.52 148.53,-40.32 153.76,-35.66"/>
</g>
<!-- Node4 -->
<g id="node4" class="node">
<title>Node4</title>
<g id="a_node4"><a xlink:title=" ">
<polygon fill="white" stroke="#bfbfbf" points="214,-6 214,-25 264,-25 264,-6 214,-6"/>
<text text-anchor="middle" x="239" y="-13" font-family="Helvetica,sans-Serif" font-size="10.00">cstdint</text>
</a>
</g>
</g>
<!-- Node1&#45;&gt;Node4 -->
<g id="edge3" class="edge">
<title>Node1&#45;&gt;Node4</title>
<path fill="none" stroke="midnightblue" d="M192.74,-67.48C201,-58.37 214.28,-43.74 224.49,-32.48"/>
<polygon fill="midnightblue" stroke="midnightblue" points="227.15,-34.77 231.28,-25.01 221.97,-30.06 227.15,-34.77"/>
</g>
<!-- Node5 -->
<g id="node5" class="node">
<title>Node5</title>
<g id="a_node5"><a xlink:title=" ">
<polygon fill="white" stroke="#bfbfbf" points="282,-6 282,-25 350,-25 350,-6 282,-6"/>
<text text-anchor="middle" x="316" y="-13" font-family="Helvetica,sans-Serif" font-size="10.00">filesystem</text>
</a>
</g>
</g>
<!-- Node1&#45;&gt;Node5 -->
<g id="edge4" class="edge">
<title>Node1&#45;&gt;Node5</title>
<path fill="none" stroke="midnightblue" d="M203.77,-67.48C225.85,-57.45 262.72,-40.7 288.14,-29.15"/>
<polygon fill="midnightblue" stroke="midnightblue" points="289.61,-32.33 297.27,-25.01 286.71,-25.96 289.61,-32.33"/>
</g>
</g>
</svg>
