<?xml version="1.0" encoding="UTF-8" standalone="no"?>
<!DOCTYPE svg PUBLIC "-//W3C//DTD SVG 1.1//EN"
 "http://www.w3.org/Graphics/SVG/1.1/DTD/svg11.dtd">
<!-- Generated by graphviz version 2.43.0 (0)
 -->
<!-- Title: lfilesystem_CFile.h Pages: 1 -->
<svg width="587pt" height="229pt"
 viewBox="0.00 0.00 587.00 229.00" xmlns="http://www.w3.org/2000/svg" xmlns:xlink="http://www.w3.org/1999/xlink">
<g id="graph0" class="graph" transform="scale(1 1) rotate(0) translate(4 225)">
<title>lfilesystem_CFile.h</title>
<polygon fill="white" stroke="transparent" points="-4,4 -4,-225 583,-225 583,4 -4,4"/>
<!-- Node1 -->
<g id="node1" class="node">
<title>Node1</title>
<g id="a_node1"><a xlink:title="This file defines the CFile class.">
<polygon fill="#bfbfbf" stroke="black" points="201.5,-201.5 201.5,-220.5 310.5,-220.5 310.5,-201.5 201.5,-201.5"/>
<text text-anchor="middle" x="256" y="-208.5" font-family="Helvetica,sans-Serif" font-size="10.00">lfilesystem_CFile.h</text>
</a>
</g>
</g>
<!-- Node2 -->
<g id="node2" class="node">
<title>Node2</title>
<g id="a_node2"><a xlink:title=" ">
<polygon fill="white" stroke="#bfbfbf" points="128,-140 128,-159 174,-159 174,-140 128,-140"/>
<text text-anchor="middle" x="151" y="-147" font-family="Helvetica,sans-Serif" font-size="10.00">cstdio</text>
</a>
</g>
</g>
<!-- Node1&#45;&gt;Node2 -->
<g id="edge1" class="edge">
<title>Node1&#45;&gt;Node2</title>
<path fill="none" stroke="midnightblue" d="M240.96,-201.48C223.72,-191.71 195.26,-175.58 174.97,-164.08"/>
<polygon fill="midnightblue" stroke="midnightblue" points="176.44,-160.89 166.02,-159.01 172.99,-166.98 176.44,-160.89"/>
</g>
<!-- Node3 -->
<g id="node3" class="node">
<title>Node3</title>
<g id="a_node3"><a xlink:title=" ">
<polygon fill="white" stroke="#bfbfbf" points="451,-0.5 451,-30.5 579,-30.5 579,-0.5 451,-0.5"/>
<text text-anchor="start" x="459" y="-18.5" font-family="Helvetica,sans-Serif" font-size="10.00">lfilesystem/lfilesystem</text>
<text text-anchor="middle" x="515" y="-7.5" font-family="Helvetica,sans-Serif" font-size="10.00">_Export.h</text>
</a>
</g>
</g>
<!-- Node1&#45;&gt;Node3 -->
<g id="edge2" class="edge">
<title>Node1&#45;&gt;Node3</title>
<path fill="none" stroke="midnightblue" d="M291.46,-201.42C341.05,-187.69 430.99,-156.19 484,-98 498.61,-81.97 506.57,-58.35 510.76,-40.67"/>
<polygon fill="midnightblue" stroke="midnightblue" points="514.25,-41.05 512.9,-30.54 507.4,-39.6 514.25,-41.05"/>
</g>
<!-- Node4 -->
<g id="node4" class="node">
<title>Node4</title>
<g id="a_node4"><a xlink:href="lfilesystem__FilesystemEntry_8h.html" target="_top" xlink:title="This file defines the FilesystemEntry class.">
<polygon fill="white" stroke="black" points="192,-134.5 192,-164.5 320,-164.5 320,-134.5 192,-134.5"/>
<text text-anchor="start" x="200" y="-152.5" font-family="Helvetica,sans-Serif" font-size="10.00">lfilesystem/lfilesystem</text>
<text text-anchor="middle" x="256" y="-141.5" font-family="Helvetica,sans-Serif" font-size="10.00">_FilesystemEntry.h</text>
</a>
</g>
</g>
<!-- Node1&#45;&gt;Node4 -->
<g id="edge3" class="edge">
<title>Node1&#45;&gt;Node4</title>
<path fill="none" stroke="midnightblue" d="M256,-201.48C256,-194.47 256,-184.19 256,-174.7"/>
<polygon fill="midnightblue" stroke="midnightblue" points="259.5,-174.52 256,-164.52 252.5,-174.52 259.5,-174.52"/>
</g>
<!-- Node4&#45;&gt;Node3 -->
<g id="edge10" class="edge">
<title>Node4&#45;&gt;Node3</title>
<path fill="none" stroke="midnightblue" d="M320.13,-143.39C361.53,-137.53 414.93,-124.97 455,-98 476.72,-83.38 493.49,-58.16 503.7,-39.64"/>
<polygon fill="midnightblue" stroke="midnightblue" points="506.87,-41.14 508.44,-30.66 500.68,-37.87 506.87,-41.14"/>
</g>
<!-- Node5 -->
<g id="node5" class="node">
<title>Node5</title>
<g id="a_node5"><a xlink:title=" ">
<polygon fill="white" stroke="#bfbfbf" points="0,-73 0,-92 50,-92 50,-73 0,-73"/>
<text text-anchor="middle" x="25" y="-80" font-family="Helvetica,sans-Serif" font-size="10.00">cstdint</text>
</a>
</g>
</g>
<!-- Node4&#45;&gt;Node5 -->
<g id="edge4" class="edge">
<title>Node4&#45;&gt;Node5</title>
<path fill="none" stroke="midnightblue" d="M196.32,-134.42C158.2,-125.02 107.87,-111.89 64,-98 61.44,-97.19 58.8,-96.31 56.16,-95.4"/>
<polygon fill="midnightblue" stroke="midnightblue" points="57.33,-92.1 46.73,-92.01 54.96,-98.68 57.33,-92.1"/>
</g>
<!-- Node6 -->
<g id="node6" class="node">
<title>Node6</title>
<g id="a_node6"><a xlink:title=" ">
<polygon fill="white" stroke="#bfbfbf" points="365,-6 365,-25 433,-25 433,-6 365,-6"/>
<text text-anchor="middle" x="399" y="-13" font-family="Helvetica,sans-Serif" font-size="10.00">filesystem</text>
</a>
</g>
</g>
<!-- Node4&#45;&gt;Node6 -->
<g id="edge5" class="edge">
<title>Node4&#45;&gt;Node6</title>
<path fill="none" stroke="midnightblue" d="M320.25,-139.14C366.95,-130.88 424.42,-117.14 439,-98 454.73,-77.34 433.64,-49.51 416.61,-32.3"/>
<polygon fill="midnightblue" stroke="midnightblue" points="418.86,-29.61 409.22,-25.21 414.01,-34.66 418.86,-29.61"/>
</g>
<!-- Node7 -->
<g id="node7" class="node">
<title>Node7</title>
<g id="a_node7"><a xlink:title=" ">
<polygon fill="white" stroke="#bfbfbf" points="91,-6 91,-25 135,-25 135,-6 91,-6"/>
<text text-anchor="middle" x="113" y="-13" font-family="Helvetica,sans-Serif" font-size="10.00">string</text>
</a>
</g>
</g>
<!-- Node4&#45;&gt;Node7 -->
<g id="edge6" class="edge">
<title>Node4&#45;&gt;Node7</title>
<path fill="none" stroke="midnightblue" d="M205.29,-134.49C173.45,-124.66 136.49,-111 126,-98 111.76,-80.36 110.15,-53.38 111.01,-35.36"/>
<polygon fill="midnightblue" stroke="midnightblue" points="114.51,-35.46 111.79,-25.22 107.53,-34.92 114.51,-35.46"/>
</g>
<!-- Node8 -->
<g id="node8" class="node">
<title>Node8</title>
<g id="a_node8"><a xlink:title=" ">
<polygon fill="white" stroke="#bfbfbf" points="144.5,-73 144.5,-92 209.5,-92 209.5,-73 144.5,-73"/>
<text text-anchor="middle" x="177" y="-80" font-family="Helvetica,sans-Serif" font-size="10.00">functional</text>
</a>
</g>
</g>
<!-- Node4&#45;&gt;Node8 -->
<g id="edge7" class="edge">
<title>Node4&#45;&gt;Node8</title>
<path fill="none" stroke="midnightblue" d="M238.86,-134.4C226.05,-123.86 208.57,-109.48 195.46,-98.69"/>
<polygon fill="midnightblue" stroke="midnightblue" points="197.51,-95.85 187.57,-92.19 193.07,-101.25 197.51,-95.85"/>
</g>
<!-- Node9 -->
<g id="node9" class="node">
<title>Node9</title>
<g id="a_node9"><a xlink:title=" ">
<polygon fill="white" stroke="#bfbfbf" points="228,-73 228,-92 284,-92 284,-73 228,-73"/>
<text text-anchor="middle" x="256" y="-80" font-family="Helvetica,sans-Serif" font-size="10.00">optional</text>
</a>
</g>
</g>
<!-- Node4&#45;&gt;Node9 -->
<g id="edge8" class="edge">
<title>Node4&#45;&gt;Node9</title>
<path fill="none" stroke="midnightblue" d="M256,-134.4C256,-125.06 256,-112.71 256,-102.52"/>
<polygon fill="midnightblue" stroke="midnightblue" points="259.5,-102.19 256,-92.19 252.5,-102.19 259.5,-102.19"/>
</g>
<!-- Node10 -->
<g id="node10" class="node">
<title>Node10</title>
<g id="a_node10"><a xlink:title=" ">
<polygon fill="white" stroke="#bfbfbf" points="183.5,-6 183.5,-25 240.5,-25 240.5,-6 183.5,-6"/>
<text text-anchor="middle" x="212" y="-13" font-family="Helvetica,sans-Serif" font-size="10.00">ostream</text>
</a>
</g>
</g>
<!-- Node4&#45;&gt;Node10 -->
<g id="edge9" class="edge">
<title>Node4&#45;&gt;Node10</title>
<path fill="none" stroke="midnightblue" d="M191.82,-136.51C170.4,-129.12 148.75,-117.21 136,-98 128.38,-86.52 129.49,-79.14 136,-67 145.2,-49.84 163.08,-37.52 179.18,-29.35"/>
<polygon fill="midnightblue" stroke="midnightblue" points="180.83,-32.44 188.38,-25.01 177.85,-26.11 180.83,-32.44"/>
</g>
<!-- Node11 -->
<g id="node11" class="node">
<title>Node11</title>
<g id="a_node11"><a xlink:href="lfilesystem__Permissions_8h.html" target="_top" xlink:title="This file defines the Permissions class.">
<polygon fill="white" stroke="black" points="302,-67.5 302,-97.5 430,-97.5 430,-67.5 302,-67.5"/>
<text text-anchor="start" x="310" y="-85.5" font-family="Helvetica,sans-Serif" font-size="10.00">lfilesystem/lfilesystem</text>
<text text-anchor="middle" x="366" y="-74.5" font-family="Helvetica,sans-Serif" font-size="10.00">_Permissions.h</text>
</a>
</g>
</g>
<!-- Node4&#45;&gt;Node11 -->
<g id="edge11" class="edge">
<title>Node4&#45;&gt;Node11</title>
<path fill="none" stroke="midnightblue" d="M279.87,-134.4C295.58,-125.11 316.35,-112.84 333.55,-102.67"/>
<polygon fill="midnightblue" stroke="midnightblue" points="335.35,-105.68 342.18,-97.58 331.79,-99.65 335.35,-105.68"/>
</g>
<!-- Node11&#45;&gt;Node3 -->
<g id="edge16" class="edge">
<title>Node11&#45;&gt;Node3</title>
<path fill="none" stroke="midnightblue" d="M398.33,-67.4C420.3,-57.81 449.56,-45.05 473.28,-34.7"/>
<polygon fill="midnightblue" stroke="midnightblue" points="474.97,-37.78 482.73,-30.58 472.17,-31.37 474.97,-37.78"/>
</g>
<!-- Node11&#45;&gt;Node6 -->
<g id="edge12" class="edge">
<title>Node11&#45;&gt;Node6</title>
<path fill="none" stroke="midnightblue" d="M373.16,-67.4C378.1,-57.66 384.71,-44.65 390.01,-34.21"/>
<polygon fill="midnightblue" stroke="midnightblue" points="393.18,-35.7 394.59,-25.19 386.94,-32.53 393.18,-35.7"/>
</g>
<!-- Node11&#45;&gt;Node7 -->
<g id="edge13" class="edge">
<title>Node11&#45;&gt;Node7</title>
<path fill="none" stroke="midnightblue" d="M311.41,-67.48C260.66,-54.44 186.78,-35.46 144.97,-24.71"/>
<polygon fill="midnightblue" stroke="midnightblue" points="145.62,-21.27 135.07,-22.17 143.88,-28.05 145.62,-21.27"/>
</g>
<!-- Node11&#45;&gt;Node10 -->
<g id="edge15" class="edge">
<title>Node11&#45;&gt;Node10</title>
<path fill="none" stroke="midnightblue" d="M332.58,-67.4C305.44,-55.94 267.53,-39.94 241.5,-28.95"/>
<polygon fill="midnightblue" stroke="midnightblue" points="242.73,-25.67 232.16,-25.01 240.01,-32.12 242.73,-25.67"/>
</g>
<!-- Node12 -->
<g id="node12" class="node">
<title>Node12</title>
<g id="a_node12"><a xlink:title=" ">
<polygon fill="white" stroke="#bfbfbf" points="273.5,-6 273.5,-25 346.5,-25 346.5,-6 273.5,-6"/>
<text text-anchor="middle" x="310" y="-13" font-family="Helvetica,sans-Serif" font-size="10.00">string_view</text>
</a>
</g>
</g>
<!-- Node11&#45;&gt;Node12 -->
<g id="edge14" class="edge">
<title>Node11&#45;&gt;Node12</title>
<path fill="none" stroke="midnightblue" d="M353.85,-67.4C345.12,-57.26 333.32,-43.57 324.16,-32.94"/>
<polygon fill="midnightblue" stroke="midnightblue" points="326.67,-30.49 317.49,-25.19 321.37,-35.06 326.67,-30.49"/>
</g>
</g>
</svg>
