<?xml version="1.0" encoding="UTF-8" standalone="no"?>
<!DOCTYPE svg PUBLIC "-//W3C//DTD SVG 1.1//EN"
 "http://www.w3.org/Graphics/SVG/1.1/DTD/svg11.dtd">
<!-- Generated by graphviz version 8.0.5 (20230430.1635)
 -->
<!-- Title: lfilesystem_File.h Pages: 1 -->
<!--zoomable 293 -->

<svg id="main" version="1.1" xmlns="http://www.w3.org/2000/svg" xmlns:xlink="http://www.w3.org/1999/xlink" xml:space="preserve" onload="init(evt)">
<style type="text/css"><![CDATA[
.node, .edge {opacity: 0.7;}
.node.selected, .edge.selected {opacity: 1;}
.edge:hover path { stroke: red; }
.edge:hover polygon { stroke: red; fill: red; }
]]></style>

<defs>
  <circle id="rim" cx="0" cy="0" r="7"/>
  <circle id="rim2" cx="0" cy="0" r="3.5"/>
  <g id="zoomPlus">
    <use xlink:href="#rim" fill="#404040"><set attributeName="fill" to="#808080" begin="zoomplus.mouseover" end="zoomplus.mouseout"/></use>
    <path d="M-4,0h8M0,-4v8" fill="none" stroke="white" stroke-width="1.5" pointer-events="none"/>
  </g>
  <g id="zoomMin">
    <use xlink:href="#rim" fill="#404040"><set attributeName="fill" to="#808080" begin="zoomminus.mouseover" end="zoomminus.mouseout"/></use>
    <path d="M-4,0h8" fill="none" stroke="white" stroke-width="1.5" pointer-events="none"/>
  </g>
  <g id="arrowUp" transform="translate(30 24)">
    <use xlink:href="#rim"/>
    <path pointer-events="none" fill="none" stroke="white" stroke-width="1.5" d="M0,-3.0v7 M-2.5,-0.5L0,-3.0L2.5,-0.5"/>
  </g>
  <g id="arrowRight" transform="rotate(90) translate(36 -43)">
    <use xlink:href="#rim"/>
    <path pointer-events="none" fill="none" stroke="white" stroke-width="1.5" d="M0,-3.0v7 M-2.5,-0.5L0,-3.0L2.5,-0.5"/>
  </g>
  <g id="arrowDown" transform="rotate(180) translate(-30 -48)">
    <use xlink:href="#rim"/>
    <path pointer-events="none" fill="none" stroke="white" stroke-width="1.5" d="M0,-3.0v7 M-2.5,-0.5L0,-3.0L2.5,-0.5"/>
  </g>
  <g id="arrowLeft" transform="rotate(270) translate(-36 17)">
    <use xlink:href="#rim"/>
    <path pointer-events="none" fill="none" stroke="white" stroke-width="1.5" d="M0,-3.0v7 M-2.5,-0.5L0,-3.0L2.5,-0.5"/>
  </g>
  <g id="resetDef">
    <use xlink:href="#rim2" fill="#404040"><set attributeName="fill" to="#808080" begin="reset.mouseover" end="reset.mouseout"/></use>
  </g>
</defs>
<script type="application/ecmascript">
var viewWidth = 961;
var viewHeight = 293;
var sectionId = 'dynsection-0';
</script>
<script type="application/ecmascript" xlink:href="svg.min.js"/>
<svg id="graph" class="graph">
<g id="viewport">
<title>lfilesystem_File.h</title>
<!-- Node1 -->
<g id="Node000001" class="node">
<title>Node1</title>
<g id="a_Node000001"><a xlink:title="This file defines the File and TempFile classes.">
<polygon fill="#999999" stroke="#666666" points="599.38,-285.25 506.88,-285.25 506.88,-266 599.38,-266 599.38,-285.25"/>
<text text-anchor="middle" x="553.12" y="-271.75" font-family="Helvetica,sans-Serif" font-size="10.00">lfilesystem_File.h</text>
</a>
</g>
</g>
<!-- Node2 -->
<g id="Node000002" class="node">
<title>Node2</title>
<g id="a_Node000002"><a xlink:title=" ">
<polygon fill="#e0e0e0" stroke="#999999" points="48.25,-224.38 0,-224.38 0,-205.12 48.25,-205.12 48.25,-224.38"/>
<text text-anchor="middle" x="24.12" y="-210.88" font-family="Helvetica,sans-Serif" font-size="10.00">cstddef</text>
</a>
</g>
</g>
<!-- Node1&#45;&gt;Node2 -->
<g id="edge1_Node000001_Node000002" class="edge">
<title>Node1&#45;&gt;Node2</title>
<g id="a_edge1_Node000001_Node000002"><a xlink:title=" ">
<path fill="none" stroke="#63b8ff" d="M506.45,-274.52C418.42,-273.41 222.33,-266.62 62.12,-230 59.92,-229.5 57.68,-228.9 55.44,-228.23"/>
<polygon fill="#63b8ff" stroke="#63b8ff" points="56.71,-224.63 46.12,-224.77 54.49,-231.27 56.71,-224.63"/>
</a>
</g>
</g>
<!-- Node3 -->
<g id="Node000003" class="node">
<title>Node3</title>
<g id="a_Node000003"><a xlink:title=" ">
<polygon fill="#e0e0e0" stroke="#999999" points="278.12,-24.88 238.12,-24.88 238.12,-5.63 278.12,-5.63 278.12,-24.88"/>
<text text-anchor="middle" x="258.12" y="-11.38" font-family="Helvetica,sans-Serif" font-size="10.00">string</text>
</a>
</g>
</g>
<!-- Node1&#45;&gt;Node3 -->
<g id="edge2_Node000001_Node000003" class="edge">
<title>Node1&#45;&gt;Node3</title>
<g id="a_edge2_Node000001_Node000003"><a xlink:title=" ">
<path fill="none" stroke="#63b8ff" d="M506.7,-273.9C408.16,-269.46 180.16,-243.14 95.12,-97 64.59,-44.52 171.85,-25.32 227.16,-19.02"/>
<polygon fill="#63b8ff" stroke="#63b8ff" points="227.21,-22.42 236.79,-17.89 226.48,-15.46 227.21,-22.42"/>
</a>
</g>
</g>
<!-- Node4 -->
<g id="Node000004" class="node">
<title>Node4</title>
<g id="a_Node000004"><a xlink:title=" ">
<polygon fill="#e0e0e0" stroke="#999999" points="563.88,-24.88 498.38,-24.88 498.38,-5.63 563.88,-5.63 563.88,-24.88"/>
<text text-anchor="middle" x="531.12" y="-11.38" font-family="Helvetica,sans-Serif" font-size="10.00">string_view</text>
</a>
</g>
</g>
<!-- Node1&#45;&gt;Node4 -->
<g id="edge3_Node000001_Node000004" class="edge">
<title>Node1&#45;&gt;Node4</title>
<g id="a_edge3_Node000001_Node000004"><a xlink:title=" ">
<path fill="none" stroke="#63b8ff" d="M546.81,-265.57C541.17,-256.89 533.33,-243.21 530.12,-230 525.64,-211.51 528.98,-85.42 530.49,-36.03"/>
<polygon fill="#63b8ff" stroke="#63b8ff" points="534.01,-36.35 530.83,-26.24 527.02,-36.13 534.01,-36.35"/>
</a>
</g>
</g>
<!-- Node5 -->
<g id="Node000005" class="node">
<title>Node5</title>
<g id="a_Node000005"><a xlink:title=" ">
<polygon fill="#e0e0e0" stroke="#999999" points="752.62,-224.38 709.62,-224.38 709.62,-205.12 752.62,-205.12 752.62,-224.38"/>
<text text-anchor="middle" x="731.12" y="-210.88" font-family="Helvetica,sans-Serif" font-size="10.00">vector</text>
</a>
</g>
</g>
<!-- Node1&#45;&gt;Node5 -->
<g id="edge4_Node000001_Node000005" class="edge">
<title>Node1&#45;&gt;Node5</title>
<g id="a_edge4_Node000001_Node000005"><a xlink:title=" ">
<path fill="none" stroke="#63b8ff" d="M584.36,-265.52C613.28,-256.92 657.37,-243.38 695.12,-230 696.41,-229.55 697.71,-229.07 699.03,-228.59"/>
<polygon fill="#63b8ff" stroke="#63b8ff" points="700.03,-231.57 708.14,-224.75 697.54,-225.03 700.03,-231.57"/>
</a>
</g>
</g>
<!-- Node6 -->
<g id="Node000006" class="node">
<title>Node6</title>
<g id="a_Node000006"><a xlink:title=" ">
<polygon fill="#e0e0e0" stroke="#999999" points="162.12,-91.38 104.12,-91.38 104.12,-72.12 162.12,-72.12 162.12,-91.38"/>
<text text-anchor="middle" x="133.12" y="-77.88" font-family="Helvetica,sans-Serif" font-size="10.00">functional</text>
</a>
</g>
</g>
<!-- Node1&#45;&gt;Node6 -->
<g id="edge5_Node000001_Node000006" class="edge">
<title>Node1&#45;&gt;Node6</title>
<g id="a_edge5_Node000001_Node000006"><a xlink:title=" ">
<path fill="none" stroke="#63b8ff" d="M513.59,-265.53C482.43,-257.76 438.2,-245.41 401.12,-230 306.13,-190.51 201.39,-126.43 156.09,-97.62"/>
<polygon fill="#63b8ff" stroke="#63b8ff" points="158.41,-94.31 148.1,-91.87 154.64,-100.21 158.41,-94.31"/>
</a>
</g>
</g>
<!-- Node7 -->
<g id="Node000007" class="node">
<title>Node7</title>
<g id="a_Node000007"><a xlink:title=" ">
<polygon fill="#e0e0e0" stroke="#999999" points="230,-91.38 180.25,-91.38 180.25,-72.12 230,-72.12 230,-91.38"/>
<text text-anchor="middle" x="205.12" y="-77.88" font-family="Helvetica,sans-Serif" font-size="10.00">optional</text>
</a>
</g>
</g>
<!-- Node1&#45;&gt;Node7 -->
<g id="edge6_Node000001_Node000007" class="edge">
<title>Node1&#45;&gt;Node7</title>
<g id="a_edge6_Node000001_Node000007"><a xlink:title=" ">
<path fill="none" stroke="#63b8ff" d="M533.6,-265.51C514.88,-256.68 485.88,-242.8 461.12,-230 406.61,-201.82 393.35,-194.03 340.12,-163.5 300.84,-140.97 255.81,-113.75 228.96,-97.36"/>
<polygon fill="#63b8ff" stroke="#63b8ff" points="230.96,-93.88 220.61,-91.65 227.31,-99.85 230.96,-93.88"/>
</a>
</g>
</g>
<!-- Node8 -->
<g id="Node000008" class="node">
<title>Node8</title>
<g id="a_Node000008"><a xlink:title=" ">
<polygon fill="#e0e0e0" stroke="#999999" points="819.62,-224.38 770.62,-224.38 770.62,-205.12 819.62,-205.12 819.62,-224.38"/>
<text text-anchor="middle" x="795.12" y="-210.88" font-family="Helvetica,sans-Serif" font-size="10.00">fstream</text>
</a>
</g>
</g>
<!-- Node1&#45;&gt;Node8 -->
<g id="edge7_Node000001_Node000008" class="edge">
<title>Node1&#45;&gt;Node8</title>
<g id="a_edge7_Node000001_Node000008"><a xlink:title=" ">
<path fill="none" stroke="#63b8ff" d="M599.47,-267.43C642.28,-260.16 707.34,-247.49 762.12,-230 763.4,-229.59 764.68,-229.16 765.98,-228.7"/>
<polygon fill="#63b8ff" stroke="#63b8ff" points="766.79,-231.75 774.82,-224.84 764.24,-225.23 766.79,-231.75"/>
</a>
</g>
</g>
<!-- Node9 -->
<g id="Node000009" class="node">
<title>Node9</title>
<g id="a_Node000009"><a xlink:title=" ">
<polygon fill="#e0e0e0" stroke="#999999" points="888.75,-224.38 837.5,-224.38 837.5,-205.12 888.75,-205.12 888.75,-224.38"/>
<text text-anchor="middle" x="863.12" y="-210.88" font-family="Helvetica,sans-Serif" font-size="10.00">memory</text>
</a>
</g>
</g>
<!-- Node1&#45;&gt;Node9 -->
<g id="edge8_Node000001_Node000009" class="edge">
<title>Node1&#45;&gt;Node9</title>
<g id="a_edge8_Node000001_Node000009"><a xlink:title=" ">
<path fill="none" stroke="#63b8ff" d="M599.76,-270.48C655.24,-264.78 750.26,-252.56 829.12,-230 830.62,-229.57 832.15,-229.09 833.67,-228.58"/>
<polygon fill="#63b8ff" stroke="#63b8ff" points="834.5,-231.64 842.63,-224.85 832.04,-225.08 834.5,-231.64"/>
</a>
</g>
</g>
<!-- Node10 -->
<g id="Node000010" class="node">
<title>Node10</title>
<g id="a_Node000010"><a xlink:title=" ">
<polygon fill="#e0e0e0" stroke="#999999" points="953.12,-224.38 907.12,-224.38 907.12,-205.12 953.12,-205.12 953.12,-224.38"/>
<text text-anchor="middle" x="930.12" y="-210.88" font-family="Helvetica,sans-Serif" font-size="10.00">iterator</text>
</a>
</g>
</g>
<!-- Node1&#45;&gt;Node10 -->
<g id="edge9_Node000001_Node000010" class="edge">
<title>Node1&#45;&gt;Node10</title>
<g id="a_edge9_Node000001_Node000010"><a xlink:title=" ">
<path fill="none" stroke="#63b8ff" d="M599.74,-272.88C666.84,-269.4 794.04,-259.23 898.12,-230 899.44,-229.63 900.78,-229.22 902.11,-228.77"/>
<polygon fill="#63b8ff" stroke="#63b8ff" points="903.15,-231.73 911.19,-224.83 900.6,-225.21 903.15,-231.73"/>
</a>
</g>
</g>
<!-- Node11 -->
<g id="Node000011" class="node">
<title>Node11</title>
<g id="a_Node000011"><a xlink:title=" ">
<polygon fill="#e0e0e0" stroke="#999999" points="697.88,-30.5 584.38,-30.5 584.38,0 697.88,0 697.88,-30.5"/>
<text text-anchor="start" x="592.38" y="-17" font-family="Helvetica,sans-Serif" font-size="10.00">lfilesystem/lfilesystem</text>
<text text-anchor="middle" x="641.12" y="-5.75" font-family="Helvetica,sans-Serif" font-size="10.00">_Export.h</text>
</a>
</g>
</g>
<!-- Node1&#45;&gt;Node11 -->
<g id="edge10_Node000001_Node000011" class="edge">
<title>Node1&#45;&gt;Node11</title>
<g id="a_edge10_Node000001_Node000011"><a xlink:title=" ">
<path fill="none" stroke="#63b8ff" d="M599.75,-267.84C622.61,-261.91 648.17,-250.8 662.12,-230 701.31,-171.61 671.37,-83.25 652.88,-40.77"/>
<polygon fill="#63b8ff" stroke="#63b8ff" points="655.67,-39.44 648.37,-31.76 649.29,-42.32 655.67,-39.44"/>
</a>
</g>
</g>
<!-- Node12 -->
<g id="Node000012" class="node">
<title>Node12</title>
<g id="a_Node000012"><a xlink:href="lfilesystem___filesystem_entry_8h.html" target="_top" xlink:title="This file defines the FilesystemEntry class.">
<polygon fill="white" stroke="#666666" points="462.88,-163.5 349.38,-163.5 349.38,-133 462.88,-133 462.88,-163.5"/>
<text text-anchor="start" x="357.38" y="-150" font-family="Helvetica,sans-Serif" font-size="10.00">lfilesystem/lfilesystem</text>
<text text-anchor="middle" x="406.12" y="-138.75" font-family="Helvetica,sans-Serif" font-size="10.00">_FilesystemEntry.h</text>
</a>
</g>
</g>
<!-- Node1&#45;&gt;Node12 -->
<g id="edge11_Node000001_Node000012" class="edge">
<title>Node1&#45;&gt;Node12</title>
<g id="a_edge11_Node000001_Node000012"><a xlink:title=" ">
<path fill="none" stroke="#63b8ff" d="M541.4,-265.57C529.97,-256.68 512.16,-242.64 497.12,-230 473.86,-210.43 447.98,-187.33 429.79,-170.87"/>
<polygon fill="#63b8ff" stroke="#63b8ff" points="432.77,-168.93 423.01,-164.81 428.06,-174.12 432.77,-168.93"/>
</a>
</g>
</g>
<!-- Node17 -->
<g id="Node000017" class="node">
<title>Node17</title>
<g id="a_Node000017"><a xlink:href="lfilesystem___c_file_8h.html" target="_top" xlink:title="This file defines the CFile class.">
<polygon fill="white" stroke="#666666" points="652.88,-230 539.38,-230 539.38,-199.5 652.88,-199.5 652.88,-230"/>
<text text-anchor="start" x="547.38" y="-216.5" font-family="Helvetica,sans-Serif" font-size="10.00">lfilesystem/lfilesystem</text>
<text text-anchor="middle" x="596.12" y="-205.25" font-family="Helvetica,sans-Serif" font-size="10.00">_CFile.h</text>
</a>
</g>
</g>
<!-- Node1&#45;&gt;Node17 -->
<g id="edge25_Node000001_Node000017" class="edge">
<title>Node1&#45;&gt;Node17</title>
<g id="a_edge25_Node000001_Node000017"><a xlink:title=" ">
<path fill="none" stroke="#63b8ff" d="M559.66,-265.68C564.85,-258.56 572.37,-248.27 579.23,-238.88"/>
<polygon fill="#63b8ff" stroke="#63b8ff" points="582.44,-241.42 585.51,-231.28 576.79,-237.29 582.44,-241.42"/>
</a>
</g>
</g>
<!-- Node12&#45;&gt;Node3 -->
<g id="edge14_Node000012_Node000003" class="edge">
<title>Node12&#45;&gt;Node3</title>
<g id="a_edge14_Node000012_Node000003"><a xlink:title=" ">
<path fill="none" stroke="#63b8ff" d="M365.38,-132.67C346.14,-124.35 323.8,-112.46 307.12,-97 288.29,-79.54 274.16,-53.23 266.03,-35.42"/>
<polygon fill="#63b8ff" stroke="#63b8ff" points="268.86,-34.14 261.66,-26.36 262.44,-36.93 268.86,-34.14"/>
</a>
</g>
</g>
<!-- Node12&#45;&gt;Node6 -->
<g id="edge15_Node000012_Node000006" class="edge">
<title>Node12&#45;&gt;Node6</title>
<g id="a_edge15_Node000012_Node000006"><a xlink:title=" ">
<path fill="none" stroke="#63b8ff" d="M349.03,-137.49C301.08,-128.71 230.99,-114.52 171.12,-97 169.36,-96.48 167.56,-95.92 165.75,-95.33"/>
<polygon fill="#63b8ff" stroke="#63b8ff" points="167.04,-91.73 156.44,-91.75 164.74,-98.34 167.04,-91.73"/>
</a>
</g>
</g>
<!-- Node12&#45;&gt;Node7 -->
<g id="edge16_Node000012_Node000007" class="edge">
<title>Node12&#45;&gt;Node7</title>
<g id="a_edge16_Node000012_Node000007"><a xlink:title=" ">
<path fill="none" stroke="#63b8ff" d="M356.65,-132.6C324.46,-122.89 281.65,-109.67 244.12,-97 242.63,-96.5 241.11,-95.97 239.57,-95.44"/>
<polygon fill="#63b8ff" stroke="#63b8ff" points="240.99,-91.88 230.4,-91.83 238.65,-98.47 240.99,-91.88"/>
</a>
</g>
</g>
<!-- Node12&#45;&gt;Node11 -->
<g id="edge18_Node000012_Node000011" class="edge">
<title>Node12&#45;&gt;Node11</title>
<g id="a_edge18_Node000012_Node000011"><a xlink:title=" ">
<path fill="none" stroke="#63b8ff" d="M447.79,-132.58C471.63,-123.55 501.74,-111.03 527.12,-97 558.84,-79.47 592.37,-54.89 614.79,-37.47"/>
<polygon fill="#63b8ff" stroke="#63b8ff" points="616.69,-39.64 622.39,-30.71 612.36,-34.14 616.69,-39.64"/>
</a>
</g>
</g>
<!-- Node13 -->
<g id="Node000013" class="node">
<title>Node13</title>
<g id="a_Node000013"><a xlink:title=" ">
<polygon fill="#e0e0e0" stroke="#999999" points="369.75,-91.38 324.5,-91.38 324.5,-72.12 369.75,-72.12 369.75,-91.38"/>
<text text-anchor="middle" x="347.12" y="-77.88" font-family="Helvetica,sans-Serif" font-size="10.00">cstdint</text>
</a>
</g>
</g>
<!-- Node12&#45;&gt;Node13 -->
<g id="edge12_Node000012_Node000013" class="edge">
<title>Node12&#45;&gt;Node13</title>
<g id="a_edge12_Node000012_Node000013"><a xlink:title=" ">
<path fill="none" stroke="#63b8ff" d="M392.74,-132.61C383.71,-122.74 371.77,-109.69 362.37,-99.42"/>
<polygon fill="#63b8ff" stroke="#63b8ff" points="365.53,-97.59 356.2,-92.57 360.36,-102.31 365.53,-97.59"/>
</a>
</g>
</g>
<!-- Node14 -->
<g id="Node000014" class="node">
<title>Node14</title>
<g id="a_Node000014"><a xlink:title=" ">
<polygon fill="#e0e0e0" stroke="#999999" points="475.62,-24.88 414.62,-24.88 414.62,-5.63 475.62,-5.63 475.62,-24.88"/>
<text text-anchor="middle" x="445.12" y="-11.38" font-family="Helvetica,sans-Serif" font-size="10.00">filesystem</text>
</a>
</g>
</g>
<!-- Node12&#45;&gt;Node14 -->
<g id="edge13_Node000012_Node000014" class="edge">
<title>Node12&#45;&gt;Node14</title>
<g id="a_edge13_Node000012_Node000014"><a xlink:title=" ">
<path fill="none" stroke="#63b8ff" d="M463.32,-132.82C481.45,-125.26 499.52,-113.9 510.12,-97 517.33,-85.52 516.1,-78.67 510.12,-66.5 502.59,-51.15 487.85,-39.15 474.32,-30.74"/>
<polygon fill="#63b8ff" stroke="#63b8ff" points="476.2,-27.21 465.79,-25.25 472.71,-33.28 476.2,-27.21"/>
</a>
</g>
</g>
<!-- Node15 -->
<g id="Node000015" class="node">
<title>Node15</title>
<g id="a_Node000015"><a xlink:title=" ">
<polygon fill="#e0e0e0" stroke="#999999" points="372.75,-24.88 321.5,-24.88 321.5,-5.63 372.75,-5.63 372.75,-24.88"/>
<text text-anchor="middle" x="347.12" y="-11.38" font-family="Helvetica,sans-Serif" font-size="10.00">ostream</text>
</a>
</g>
</g>
<!-- Node12&#45;&gt;Node15 -->
<g id="edge17_Node000012_Node000015" class="edge">
<title>Node12&#45;&gt;Node15</title>
<g id="a_edge17_Node000012_Node000015"><a xlink:title=" ">
<path fill="none" stroke="#63b8ff" d="M359.02,-132.68C342.12,-124.92 324.85,-113.48 315.12,-97 302.97,-76.4 318.16,-50.33 331.48,-33.47"/>
<polygon fill="#63b8ff" stroke="#63b8ff" points="334.73,-36.05 338.5,-26.15 329.38,-31.53 334.73,-36.05"/>
</a>
</g>
</g>
<!-- Node16 -->
<g id="Node000016" class="node">
<title>Node16</title>
<g id="a_Node000016"><a xlink:href="lfilesystem___permissions_8h.html" target="_top" xlink:title="This file defines the Permissions class.">
<polygon fill="white" stroke="#666666" points="500.88,-97 387.38,-97 387.38,-66.5 500.88,-66.5 500.88,-97"/>
<text text-anchor="start" x="395.38" y="-83.5" font-family="Helvetica,sans-Serif" font-size="10.00">lfilesystem/lfilesystem</text>
<text text-anchor="middle" x="444.12" y="-72.25" font-family="Helvetica,sans-Serif" font-size="10.00">_Permissions.h</text>
</a>
</g>
</g>
<!-- Node12&#45;&gt;Node16 -->
<g id="edge19_Node000012_Node000016" class="edge">
<title>Node12&#45;&gt;Node16</title>
<g id="a_edge19_Node000012_Node000016"><a xlink:title=" ">
<path fill="none" stroke="#63b8ff" d="M414.75,-132.61C419.27,-124.94 424.91,-115.36 430.05,-106.65"/>
<polygon fill="#63b8ff" stroke="#63b8ff" points="433.48,-108.72 435.54,-98.33 427.44,-105.17 433.48,-108.72"/>
</a>
</g>
</g>
<!-- Node16&#45;&gt;Node3 -->
<g id="edge21_Node000016_Node000003" class="edge">
<title>Node16&#45;&gt;Node3</title>
<g id="a_edge21_Node000016_Node000003"><a xlink:title=" ">
<path fill="none" stroke="#63b8ff" d="M401.92,-66.11C367.4,-54.14 319.42,-37.51 288.57,-26.81"/>
<polygon fill="#63b8ff" stroke="#63b8ff" points="290.01,-23.26 279.42,-23.29 287.72,-29.87 290.01,-23.26"/>
</a>
</g>
</g>
<!-- Node16&#45;&gt;Node4 -->
<g id="edge22_Node000016_Node000004" class="edge">
<title>Node16&#45;&gt;Node4</title>
<g id="a_edge22_Node000016_Node000004"><a xlink:title=" ">
<path fill="none" stroke="#63b8ff" d="M463.87,-66.11C477.85,-55.75 496.56,-41.88 510.69,-31.4"/>
<polygon fill="#63b8ff" stroke="#63b8ff" points="512.28,-33.84 518.22,-25.07 508.11,-28.22 512.28,-33.84"/>
</a>
</g>
</g>
<!-- Node16&#45;&gt;Node11 -->
<g id="edge24_Node000016_Node000011" class="edge">
<title>Node16&#45;&gt;Node11</title>
<g id="a_edge24_Node000016_Node000011"><a xlink:title=" ">
<path fill="none" stroke="#63b8ff" d="M488.83,-66.11C517.69,-56.66 555.45,-44.3 586.14,-34.25"/>
<polygon fill="#63b8ff" stroke="#63b8ff" points="586.84,-37.38 595.26,-30.94 584.67,-30.73 586.84,-37.38"/>
</a>
</g>
</g>
<!-- Node16&#45;&gt;Node14 -->
<g id="edge20_Node000016_Node000014" class="edge">
<title>Node16&#45;&gt;Node14</title>
<g id="a_edge20_Node000016_Node000014"><a xlink:title=" ">
<path fill="none" stroke="#63b8ff" d="M444.35,-66.11C444.49,-57.13 444.67,-45.51 444.82,-35.76"/>
<polygon fill="#63b8ff" stroke="#63b8ff" points="448.33,-36.13 444.99,-26.07 441.33,-36.02 448.33,-36.13"/>
</a>
</g>
</g>
<!-- Node16&#45;&gt;Node15 -->
<g id="edge23_Node000016_Node000015" class="edge">
<title>Node16&#45;&gt;Node15</title>
<g id="a_edge23_Node000016_Node000015"><a xlink:title=" ">
<path fill="none" stroke="#63b8ff" d="M422.11,-66.11C406.47,-55.71 385.52,-41.78 369.74,-31.29"/>
<polygon fill="#63b8ff" stroke="#63b8ff" points="371.94,-27.88 361.67,-25.26 368.06,-33.71 371.94,-27.88"/>
</a>
</g>
</g>
<!-- Node17&#45;&gt;Node11 -->
<g id="edge27_Node000017_Node000011" class="edge">
<title>Node17&#45;&gt;Node11</title>
<g id="a_edge27_Node000017_Node000011"><a xlink:title=" ">
<path fill="none" stroke="#63b8ff" d="M606.35,-199.07C612.54,-189.41 620.02,-176.24 624.12,-163.5 637.43,-122.2 640.58,-71.42 641.19,-41.57"/>
<polygon fill="#63b8ff" stroke="#63b8ff" points="644.69,-41.9 641.31,-31.86 637.69,-41.82 644.69,-41.9"/>
</a>
</g>
</g>
<!-- Node17&#45;&gt;Node12 -->
<g id="edge28_Node000017_Node000012" class="edge">
<title>Node17&#45;&gt;Node12</title>
<g id="a_edge28_Node000017_Node000012"><a xlink:title=" ">
<path fill="none" stroke="#63b8ff" d="M553.01,-199.11C525.29,-189.7 489.08,-177.41 459.54,-167.38"/>
<polygon fill="#63b8ff" stroke="#63b8ff" points="460.99,-163.84 450.4,-163.94 458.74,-170.47 460.99,-163.84"/>
</a>
</g>
</g>
<!-- Node18 -->
<g id="Node000018" class="node">
<title>Node18</title>
<g id="a_Node000018"><a xlink:title=" ">
<polygon fill="#e0e0e0" stroke="#999999" points="615.25,-157.88 573,-157.88 573,-138.62 615.25,-138.62 615.25,-157.88"/>
<text text-anchor="middle" x="594.12" y="-144.38" font-family="Helvetica,sans-Serif" font-size="10.00">cstdio</text>
</a>
</g>
</g>
<!-- Node17&#45;&gt;Node18 -->
<g id="edge26_Node000017_Node000018" class="edge">
<title>Node17&#45;&gt;Node18</title>
<g id="a_edge26_Node000017_Node000018"><a xlink:title=" ">
<path fill="none" stroke="#63b8ff" d="M595.67,-199.11C595.39,-190.13 595.03,-178.51 594.73,-168.76"/>
<polygon fill="#63b8ff" stroke="#63b8ff" points="598.21,-168.96 594.4,-159.07 591.21,-169.18 598.21,-168.96"/>
</a>
</g>
</g>
</g>
</svg>

<g id="navigator" transform="translate(0 0)" fill="#404254">
  <rect fill="#f2f5e9" fill-opacity="0.5" stroke="#606060" stroke-width=".5" x="0" y="0" width="60" height="60"/>
  <use id="zoomplus" xlink:href="#zoomPlus" x="17" y="9" onmousedown="handleZoom(evt,'in')"/>
  <use id="zoomminus" xlink:href="#zoomMin" x="42" y="9" onmousedown="handleZoom(evt,'out')"/>
  <use id="reset" xlink:href="#resetDef" x="30" y="36" onmousedown="handleReset()"/>
   <use id="arrowup" xlink:href="#arrowUp" x="0" y="0" onmousedown="handlePan(0,-1)"/>
  <use id="arrowright" xlink:href="#arrowRight" x="0" y="0" onmousedown="handlePan(1,0)"/>
  <use id="arrowdown" xlink:href="#arrowDown" x="0" y="0" onmousedown="handlePan(0,1)"/>
  <use id="arrowleft" xlink:href="#arrowLeft" x="0" y="0" onmousedown="handlePan(-1,0)"/>
</g>
<svg viewBox="0 0 15 15" width="100%" height="30px" preserveAspectRatio="xMaxYMin meet">
 <g id="arrow_out" transform="scale(0.3 0.3)">
  <a xlink:href="lfilesystem___file_8h__incl_org.svg" target="_base">
   <rect id="button" ry="5" rx="5" y="6" x="6" height="38" width="38"
        fill="#f2f5e9" fill-opacity="0.5" stroke="#606060" stroke-width="1.0"/>
   <path id="arrow"
     d="M 11.500037,31.436501 C 11.940474,20.09759 22.043105,11.32322 32.158766,21.979434 L 37.068811,17.246167 C 37.068811,17.246167 37.088388,32 37.088388,32 L 22.160133,31.978069 C 22.160133,31.978069 26.997745,27.140456 26.997745,27.140456 C 18.528582,18.264221 13.291696,25.230495 11.500037,31.436501 z"
     style="fill:#404040;"/>
  </a>
 </g>
</svg>

<style type='text/css'>
<![CDATA[
[data-mouse-over-selected='false'] { opacity: 0.7; }
[data-mouse-over-selected='true']  { opacity: 1.0; }
]]>
</style>
<script type="application/ecmascript"><![CDATA[
document.addEventListener('DOMContentLoaded', (event) => {
  highlightEdges();
  highlightAdjacentNodes();
});
]]></script>
</svg>
