<?xml version="1.0" encoding="UTF-8" standalone="no"?>
<!DOCTYPE svg PUBLIC "-//W3C//DTD SVG 1.1//EN"
 "http://www.w3.org/Graphics/SVG/1.1/DTD/svg11.dtd">
<!-- Generated by graphviz version 2.43.0 (0)
 -->
<!-- Title: lfilesystem_DynamicLibrary.h Pages: 1 -->
<svg width="268pt" height="140pt"
 viewBox="0.00 0.00 267.50 140.00" xmlns="http://www.w3.org/2000/svg" xmlns:xlink="http://www.w3.org/1999/xlink">
<g id="graph0" class="graph" transform="scale(1 1) rotate(0) translate(4 136)">
<title>lfilesystem_DynamicLibrary.h</title>
<polygon fill="white" stroke="transparent" points="-4,4 -4,-136 263.5,-136 263.5,4 -4,4"/>
<!-- Node1 -->
<g id="node1" class="node">
<title>Node1</title>
<g id="a_node1"><a xlink:title="This file defines the DynamicLibrary class.">
<polygon fill="#bfbfbf" stroke="black" points="55.5,-112.5 55.5,-131.5 216.5,-131.5 216.5,-112.5 55.5,-112.5"/>
<text text-anchor="middle" x="136" y="-119.5" font-family="Helvetica,sans-Serif" font-size="10.00">lfilesystem_DynamicLibrary.h</text>
</a>
</g>
</g>
<!-- Node2 -->
<g id="node2" class="node">
<title>Node2</title>
<g id="a_node2"><a xlink:href="lfilesystem_8h.html" target="_top" xlink:title="The main header for the limes_files library.">
<polygon fill="white" stroke="black" points="96,-56.5 96,-75.5 176,-75.5 176,-56.5 96,-56.5"/>
<text text-anchor="middle" x="136" y="-63.5" font-family="Helvetica,sans-Serif" font-size="10.00">lfilesystem.h</text>
</a>
</g>
</g>
<!-- Node1&#45;&gt;Node2 -->
<g id="edge1" class="edge">
<title>Node1&#45;&gt;Node2</title>
<path fill="none" stroke="midnightblue" d="M136,-101.8C136,-92.91 136,-82.78 136,-75.75"/>
<polygon fill="midnightblue" stroke="midnightblue" points="132.5,-102.08 136,-112.08 139.5,-102.08 132.5,-102.08"/>
</g>
<!-- Node3 -->
<g id="node3" class="node">
<title>Node3</title>
<g id="a_node3"><a xlink:href="files__dir__enumerate_8cpp_source.html" target="_top" xlink:title=" ">
<polygon fill="white" stroke="black" points="0,-0.5 0,-19.5 134,-19.5 134,-0.5 0,-0.5"/>
<text text-anchor="middle" x="67" y="-7.5" font-family="Helvetica,sans-Serif" font-size="10.00">files_dir_enumerate.cpp</text>
</a>
</g>
</g>
<!-- Node2&#45;&gt;Node3 -->
<g id="edge2" class="edge">
<title>Node2&#45;&gt;Node3</title>
<path fill="none" stroke="midnightblue" d="M116.96,-50.1C104.54,-40.38 88.76,-28.03 78.29,-19.83"/>
<polygon fill="midnightblue" stroke="midnightblue" points="114.88,-52.92 124.91,-56.32 119.2,-47.4 114.88,-52.92"/>
</g>
<!-- Node4 -->
<g id="node4" class="node">
<title>Node4</title>
<g id="a_node4"><a xlink:href="files__dir__listen_8cpp_source.html" target="_top" xlink:title=" ">
<polygon fill="white" stroke="black" points="152.5,-0.5 152.5,-19.5 259.5,-19.5 259.5,-0.5 152.5,-0.5"/>
<text text-anchor="middle" x="206" y="-7.5" font-family="Helvetica,sans-Serif" font-size="10.00">files_dir_listen.cpp</text>
</a>
</g>
</g>
<!-- Node2&#45;&gt;Node4 -->
<g id="edge3" class="edge">
<title>Node2&#45;&gt;Node4</title>
<path fill="none" stroke="midnightblue" d="M155.31,-50.1C167.91,-40.38 183.93,-28.03 194.55,-19.83"/>
<polygon fill="midnightblue" stroke="midnightblue" points="153.03,-47.44 147.25,-56.32 157.3,-52.99 153.03,-47.44"/>
</g>
</g>
</svg>
