<?xml version="1.0" encoding="UTF-8" standalone="no"?>
<!DOCTYPE svg PUBLIC "-//W3C//DTD SVG 1.1//EN"
 "http://www.w3.org/Graphics/SVG/1.1/DTD/svg11.dtd">
<!-- Generated by graphviz version 8.0.5 (20230430.1635)
 -->
<!-- Title: lfilesystem_Volume.h Pages: 1 -->
<svg width="1286pt" height="493pt"
 viewBox="0.00 0.00 1286.00 492.75" xmlns="http://www.w3.org/2000/svg" xmlns:xlink="http://www.w3.org/1999/xlink">
<g id="graph0" class="graph" transform="scale(1 1) rotate(0) translate(4 488.75)">
<title>lfilesystem_Volume.h</title>
<!-- Node1 -->
<g id="Node000001" class="node">
<title>Node1</title>
<g id="a_Node000001"><a xlink:title="This file defines the files::Volume class.">
<polygon fill="#999999" stroke="#666666" points="485.88,-484.75 376.12,-484.75 376.12,-465.5 485.88,-465.5 485.88,-484.75"/>
<text text-anchor="middle" x="431" y="-471.25" font-family="Helvetica,sans-Serif" font-size="10.00">lfilesystem_Volume.h</text>
</a>
</g>
</g>
<!-- Node2 -->
<g id="Node000002" class="node">
<title>Node2</title>
<g id="a_Node000002"><a xlink:title=" ">
<polygon fill="#e0e0e0" stroke="#999999" points="365,-24.88 325,-24.88 325,-5.63 365,-5.63 365,-24.88"/>
<text text-anchor="middle" x="345" y="-11.38" font-family="Helvetica,sans-Serif" font-size="10.00">string</text>
</a>
</g>
</g>
<!-- Node1&#45;&gt;Node2 -->
<g id="edge1_Node000001_Node000002" class="edge">
<title>Node1&#45;&gt;Node2</title>
<g id="a_edge1_Node000001_Node000002"><a xlink:title=" ">
<path fill="none" stroke="#63b8ff" d="M375.98,-473.26C284.45,-470.9 105.76,-462.12 53,-429.5 16.49,-406.92 0,-391.68 0,-348.75 0,-348.75 0,-348.75 0,-147.25 0,-97.04 34.74,-90.2 79,-66.5 156.23,-25.15 262.02,-17.38 313.83,-16.2"/>
<polygon fill="#63b8ff" stroke="#63b8ff" points="313.68,-19.69 323.63,-16.04 313.58,-12.69 313.68,-19.69"/>
</a>
</g>
</g>
<!-- Node3 -->
<g id="Node000003" class="node">
<title>Node3</title>
<g id="a_Node000003"><a xlink:title=" ">
<polygon fill="#e0e0e0" stroke="#999999" points="212.62,-91.38 167.38,-91.38 167.38,-72.12 212.62,-72.12 212.62,-91.38"/>
<text text-anchor="middle" x="190" y="-77.88" font-family="Helvetica,sans-Serif" font-size="10.00">cstdint</text>
</a>
</g>
</g>
<!-- Node1&#45;&gt;Node3 -->
<g id="edge2_Node000001_Node000003" class="edge">
<title>Node1&#45;&gt;Node3</title>
<g id="a_edge2_Node000001_Node000003"><a xlink:title=" ">
<path fill="none" stroke="#63b8ff" d="M375.8,-471.74C294.1,-467.38 145.72,-455.98 100,-429.5 60.85,-406.82 38,-394 38,-348.75 38,-348.75 38,-348.75 38,-280.25 38,-196.98 123.9,-127.3 166.55,-97.83"/>
<polygon fill="#63b8ff" stroke="#63b8ff" points="168.09,-100.33 174.43,-91.84 164.18,-94.53 168.09,-100.33"/>
</a>
</g>
</g>
<!-- Node4 -->
<g id="Node000004" class="node">
<title>Node4</title>
<g id="a_Node000004"><a xlink:title=" ">
<polygon fill="#e0e0e0" stroke="#999999" points="527.5,-24.88 466.5,-24.88 466.5,-5.63 527.5,-5.63 527.5,-24.88"/>
<text text-anchor="middle" x="497" y="-11.38" font-family="Helvetica,sans-Serif" font-size="10.00">filesystem</text>
</a>
</g>
</g>
<!-- Node1&#45;&gt;Node4 -->
<g id="edge3_Node000001_Node000004" class="edge">
<title>Node1&#45;&gt;Node4</title>
<g id="a_edge3_Node000001_Node000004"><a xlink:title=" ">
<path fill="none" stroke="#63b8ff" d="M380.77,-465.05C291.38,-447.46 114,-405.42 114,-348.75 114,-348.75 114,-348.75 114,-147.25 114,-106.38 124.49,-89.9 158,-66.5 170.11,-58.05 367.35,-32.48 455.27,-21.43"/>
<polygon fill="#63b8ff" stroke="#63b8ff" points="455.69,-24.78 465.18,-20.06 454.82,-17.83 455.69,-24.78"/>
</a>
</g>
</g>
<!-- Node5 -->
<g id="Node000005" class="node">
<title>Node5</title>
<g id="a_Node000005"><a xlink:title=" ">
<polygon fill="#e0e0e0" stroke="#999999" points="337.5,-224.38 294.5,-224.38 294.5,-205.12 337.5,-205.12 337.5,-224.38"/>
<text text-anchor="middle" x="316" y="-210.88" font-family="Helvetica,sans-Serif" font-size="10.00">vector</text>
</a>
</g>
</g>
<!-- Node1&#45;&gt;Node5 -->
<g id="edge4_Node000001_Node000005" class="edge">
<title>Node1&#45;&gt;Node5</title>
<g id="a_edge4_Node000001_Node000005"><a xlink:title=" ">
<path fill="none" stroke="#63b8ff" d="M432.29,-465.26C433.53,-456.27 435.3,-441.95 436,-429.5 438.45,-385.64 437.9,-371.14 417,-332.5 395.05,-291.92 356.95,-253.12 334.35,-232.06"/>
<polygon fill="#63b8ff" stroke="#63b8ff" points="336.98,-229.81 327.24,-225.65 332.26,-234.98 336.98,-229.81"/>
</a>
</g>
</g>
<!-- Node6 -->
<g id="Node000006" class="node">
<title>Node6</title>
<g id="a_Node000006"><a xlink:title=" ">
<polygon fill="#e0e0e0" stroke="#999999" points="865.88,-91.38 816.12,-91.38 816.12,-72.12 865.88,-72.12 865.88,-91.38"/>
<text text-anchor="middle" x="841" y="-77.88" font-family="Helvetica,sans-Serif" font-size="10.00">optional</text>
</a>
</g>
</g>
<!-- Node1&#45;&gt;Node6 -->
<g id="edge5_Node000001_Node000006" class="edge">
<title>Node1&#45;&gt;Node6</title>
<g id="a_edge5_Node000001_Node000006"><a xlink:title=" ">
<path fill="none" stroke="#63b8ff" d="M486.12,-470C650.5,-456.97 1126,-413.66 1126,-348.75 1126,-348.75 1126,-348.75 1126,-280.25 1126,-243.38 1130.59,-227.84 1107,-199.5 1047.26,-127.73 934.79,-98.7 877.11,-88.14"/>
<polygon fill="#63b8ff" stroke="#63b8ff" points="877.79,-84.53 867.34,-86.26 876.59,-91.42 877.79,-84.53"/>
</a>
</g>
</g>
<!-- Node7 -->
<g id="Node000007" class="node">
<title>Node7</title>
<g id="a_Node000007"><a xlink:title=" ">
<polygon fill="#e0e0e0" stroke="#999999" points="692.62,-24.88 641.38,-24.88 641.38,-5.63 692.62,-5.63 692.62,-24.88"/>
<text text-anchor="middle" x="667" y="-11.38" font-family="Helvetica,sans-Serif" font-size="10.00">ostream</text>
</a>
</g>
</g>
<!-- Node1&#45;&gt;Node7 -->
<g id="edge6_Node000001_Node000007" class="edge">
<title>Node1&#45;&gt;Node7</title>
<g id="a_edge6_Node000001_Node000007"><a xlink:title=" ">
<path fill="none" stroke="#63b8ff" d="M486.29,-471.4C668.72,-461.69 1240,-425.19 1240,-348.75 1240,-348.75 1240,-348.75 1240,-213.75 1240,-99.86 830.31,-37.36 703.77,-20.78"/>
<polygon fill="#63b8ff" stroke="#63b8ff" points="704.48,-17.21 694.11,-19.4 703.58,-24.15 704.48,-17.21"/>
</a>
</g>
</g>
<!-- Node8 -->
<g id="Node000008" class="node">
<title>Node8</title>
<g id="a_Node000008"><a xlink:title=" ">
<polygon fill="#e0e0e0" stroke="#999999" points="1059.75,-30.5 946.25,-30.5 946.25,0 1059.75,0 1059.75,-30.5"/>
<text text-anchor="start" x="954.25" y="-17" font-family="Helvetica,sans-Serif" font-size="10.00">lfilesystem/lfilesystem</text>
<text text-anchor="middle" x="1003" y="-5.75" font-family="Helvetica,sans-Serif" font-size="10.00">_Export.h</text>
</a>
</g>
</g>
<!-- Node1&#45;&gt;Node8 -->
<g id="edge7_Node000001_Node000008" class="edge">
<title>Node1&#45;&gt;Node8</title>
<g id="a_edge7_Node000001_Node000008"><a xlink:title=" ">
<path fill="none" stroke="#63b8ff" d="M485.92,-472.33C620.07,-467.6 961.6,-453.54 1073,-429.5 1168.72,-408.84 1278,-446.67 1278,-348.75 1278,-348.75 1278,-348.75 1278,-147.25 1278,-55.64 1152.09,-28.03 1070.66,-19.75"/>
<polygon fill="#63b8ff" stroke="#63b8ff" points="1071.26,-16.2 1060.98,-18.75 1070.61,-23.17 1071.26,-16.2"/>
</a>
</g>
</g>
<!-- Node9 -->
<g id="Node000009" class="node">
<title>Node9</title>
<g id="a_Node000009"><a xlink:href="lfilesystem___special_directories_8h.html" target="_top" xlink:title="This file contains utility functions for finding some common directories.">
<polygon fill="white" stroke="#666666" points="426.75,-429.5 313.25,-429.5 313.25,-399 426.75,-399 426.75,-429.5"/>
<text text-anchor="start" x="321.25" y="-416" font-family="Helvetica,sans-Serif" font-size="10.00">lfilesystem/lfilesystem</text>
<text text-anchor="middle" x="370" y="-404.75" font-family="Helvetica,sans-Serif" font-size="10.00">_SpecialDirectories.h</text>
</a>
</g>
</g>
<!-- Node1&#45;&gt;Node9 -->
<g id="edge8_Node000001_Node000009" class="edge">
<title>Node1&#45;&gt;Node9</title>
<g id="a_edge8_Node000001_Node000009"><a xlink:title=" ">
<path fill="none" stroke="#63b8ff" d="M421.74,-465.18C414.06,-457.77 402.81,-446.92 392.77,-437.22"/>
<polygon fill="#63b8ff" stroke="#63b8ff" points="395.68,-435.21 386.06,-430.78 390.82,-440.25 395.68,-435.21"/>
</a>
</g>
</g>
<!-- Node9&#45;&gt;Node5 -->
<g id="edge9_Node000009_Node000005" class="edge">
<title>Node9&#45;&gt;Node5</title>
<g id="a_edge9_Node000009_Node000005"><a xlink:title=" ">
<path fill="none" stroke="#63b8ff" d="M327.27,-398.63C311.04,-390.75 294.26,-379.23 285,-363 261.13,-321.17 287.72,-263.22 304.47,-234.06"/>
<polygon fill="#63b8ff" stroke="#63b8ff" points="307.94,-236.08 310.08,-225.71 301.94,-232.48 307.94,-236.08"/>
</a>
</g>
</g>
<!-- Node9&#45;&gt;Node8 -->
<g id="edge10_Node000009_Node000008" class="edge">
<title>Node9&#45;&gt;Node8</title>
<g id="a_edge10_Node000009_Node000008"><a xlink:title=" ">
<path fill="none" stroke="#63b8ff" d="M427.13,-409.83C581.96,-399.74 1006,-366.27 1125,-296.5 1213.48,-244.62 1221.1,-134.15 1144,-66.5 1123.31,-48.35 1095.61,-36.61 1070.24,-29.09"/>
<polygon fill="#63b8ff" stroke="#63b8ff" points="1071.48,-25.53 1060.91,-26.22 1069.6,-32.27 1071.48,-25.53"/>
</a>
</g>
</g>
<!-- Node10 -->
<g id="Node000010" class="node">
<title>Node10</title>
<g id="a_Node000010"><a xlink:href="lfilesystem___directory_8h.html" target="_top" xlink:title="This file defines the Directory class.">
<polygon fill="white" stroke="#666666" points="407.75,-363 294.25,-363 294.25,-332.5 407.75,-332.5 407.75,-363"/>
<text text-anchor="start" x="302.25" y="-349.5" font-family="Helvetica,sans-Serif" font-size="10.00">lfilesystem/lfilesystem</text>
<text text-anchor="middle" x="351" y="-338.25" font-family="Helvetica,sans-Serif" font-size="10.00">_Directory.h</text>
</a>
</g>
</g>
<!-- Node9&#45;&gt;Node10 -->
<g id="edge11_Node000009_Node000010" class="edge">
<title>Node9&#45;&gt;Node10</title>
<g id="a_edge11_Node000009_Node000010"><a xlink:title=" ">
<path fill="none" stroke="#63b8ff" d="M365.69,-398.61C363.53,-391.27 360.85,-382.18 358.37,-373.77"/>
<polygon fill="#63b8ff" stroke="#63b8ff" points="361.48,-372.93 355.29,-364.33 354.76,-374.91 361.48,-372.93"/>
</a>
</g>
</g>
<!-- Node10&#45;&gt;Node2 -->
<g id="edge14_Node000010_Node000002" class="edge">
<title>Node10&#45;&gt;Node2</title>
<g id="a_edge14_Node000010_Node000002"><a xlink:title=" ">
<path fill="none" stroke="#63b8ff" d="M302.94,-332.04C281.53,-323.89 256.93,-312.19 238,-296.5 146.21,-220.43 24.65,-158.88 100,-66.5 126.69,-33.78 254.21,-21.78 313.97,-17.89"/>
<polygon fill="#63b8ff" stroke="#63b8ff" points="313.86,-21.35 323.63,-17.24 313.44,-14.36 313.86,-21.35"/>
</a>
</g>
</g>
<!-- Node10&#45;&gt;Node3 -->
<g id="edge13_Node000010_Node000003" class="edge">
<title>Node10&#45;&gt;Node3</title>
<g id="a_edge13_Node000010_Node000003"><a xlink:title=" ">
<path fill="none" stroke="#63b8ff" d="M310.65,-332.03C293.27,-323.9 274,-312.22 261,-296.5 211.98,-237.25 196.38,-142.89 191.78,-102.33"/>
<polygon fill="#63b8ff" stroke="#63b8ff" points="195.17,-102.16 190.68,-92.57 188.21,-102.87 195.17,-102.16"/>
</a>
</g>
</g>
<!-- Node10&#45;&gt;Node5 -->
<g id="edge15_Node000010_Node000005" class="edge">
<title>Node10&#45;&gt;Node5</title>
<g id="a_edge15_Node000010_Node000005"><a xlink:title=" ">
<path fill="none" stroke="#63b8ff" d="M347.12,-332.23C340.8,-308.55 328.26,-261.62 321.18,-235.13"/>
<polygon fill="#63b8ff" stroke="#63b8ff" points="324.39,-234.61 318.43,-225.85 317.63,-236.42 324.39,-234.61"/>
</a>
</g>
</g>
<!-- Node10&#45;&gt;Node8 -->
<g id="edge18_Node000010_Node000008" class="edge">
<title>Node10&#45;&gt;Node8</title>
<g id="a_edge18_Node000010_Node000008"><a xlink:title=" ">
<path fill="none" stroke="#63b8ff" d="M407.88,-334.8C412.64,-333.96 417.4,-333.18 422,-332.5 587.12,-308.09 1164,-382.67 1164,-215.75 1164,-215.75 1164,-215.75 1164,-147.25 1164,-91.19 1104.53,-54.88 1057.88,-35.03"/>
<polygon fill="#63b8ff" stroke="#63b8ff" points="1059.43,-31.47 1048.85,-30.92 1056.78,-37.95 1059.43,-31.47"/>
</a>
</g>
</g>
<!-- Node11 -->
<g id="Node000011" class="node">
<title>Node11</title>
<g id="a_Node000011"><a xlink:title=" ">
<polygon fill="#e0e0e0" stroke="#999999" points="431,-91.38 373,-91.38 373,-72.12 431,-72.12 431,-91.38"/>
<text text-anchor="middle" x="402" y="-77.88" font-family="Helvetica,sans-Serif" font-size="10.00">functional</text>
</a>
</g>
</g>
<!-- Node10&#45;&gt;Node11 -->
<g id="edge12_Node000010_Node000011" class="edge">
<title>Node10&#45;&gt;Node11</title>
<g id="a_edge12_Node000010_Node000011"><a xlink:title=" ">
<path fill="none" stroke="#63b8ff" d="M319.86,-332.13C305.43,-323.73 289.42,-311.8 280,-296.5 257.27,-259.6 252.2,-239.01 270,-199.5 291.53,-151.72 343.34,-115.61 375.27,-96.95"/>
<polygon fill="#63b8ff" stroke="#63b8ff" points="376.52,-99.7 383.49,-91.72 373.06,-93.61 376.52,-99.7"/>
</a>
</g>
</g>
<!-- Node12 -->
<g id="Node000012" class="node">
<title>Node12</title>
<g id="a_Node000012"><a xlink:title=" ">
<polygon fill="#e0e0e0" stroke="#999999" points="1097.62,-224.38 1046.38,-224.38 1046.38,-205.12 1097.62,-205.12 1097.62,-224.38"/>
<text text-anchor="middle" x="1072" y="-210.88" font-family="Helvetica,sans-Serif" font-size="10.00">memory</text>
</a>
</g>
</g>
<!-- Node10&#45;&gt;Node12 -->
<g id="edge16_Node000010_Node000012" class="edge">
<title>Node10&#45;&gt;Node12</title>
<g id="a_edge16_Node000010_Node000012"><a xlink:title=" ">
<path fill="none" stroke="#63b8ff" d="M407.91,-335.02C412.67,-334.13 417.41,-333.28 422,-332.5 693.01,-286.36 766.63,-301.79 1032,-230 1034.03,-229.45 1036.1,-228.85 1038.18,-228.21"/>
<polygon fill="#63b8ff" stroke="#63b8ff" points="1039.1,-231.26 1047.5,-224.81 1036.91,-224.61 1039.1,-231.26"/>
</a>
</g>
</g>
<!-- Node13 -->
<g id="Node000013" class="node">
<title>Node13</title>
<g id="a_Node000013"><a xlink:title=" ">
<polygon fill="#e0e0e0" stroke="#999999" points="402,-224.38 356,-224.38 356,-205.12 402,-205.12 402,-224.38"/>
<text text-anchor="middle" x="379" y="-210.88" font-family="Helvetica,sans-Serif" font-size="10.00">iterator</text>
</a>
</g>
</g>
<!-- Node10&#45;&gt;Node13 -->
<g id="edge17_Node000010_Node000013" class="edge">
<title>Node10&#45;&gt;Node13</title>
<g id="a_edge17_Node000010_Node000013"><a xlink:title=" ">
<path fill="none" stroke="#63b8ff" d="M354.1,-332.23C359.14,-308.66 369.11,-262.04 374.78,-235.49"/>
<polygon fill="#63b8ff" stroke="#63b8ff" points="378.39,-236.36 377.05,-225.85 371.54,-234.9 378.39,-236.36"/>
</a>
</g>
</g>
<!-- Node14 -->
<g id="Node000014" class="node">
<title>Node14</title>
<g id="a_Node000014"><a xlink:href="lfilesystem___filesystem_entry_8h.html" target="_top" xlink:title="This file defines the FilesystemEntry class.">
<polygon fill="white" stroke="#666666" points="647.75,-163.5 534.25,-163.5 534.25,-133 647.75,-133 647.75,-163.5"/>
<text text-anchor="start" x="542.25" y="-150" font-family="Helvetica,sans-Serif" font-size="10.00">lfilesystem/lfilesystem</text>
<text text-anchor="middle" x="591" y="-138.75" font-family="Helvetica,sans-Serif" font-size="10.00">_FilesystemEntry.h</text>
</a>
</g>
</g>
<!-- Node10&#45;&gt;Node14 -->
<g id="edge19_Node000010_Node000014" class="edge">
<title>Node10&#45;&gt;Node14</title>
<g id="a_edge19_Node000010_Node000014"><a xlink:title=" ">
<path fill="none" stroke="#63b8ff" d="M335.24,-332.3C306.34,-304.08 250.92,-240.83 286,-199.5 315.83,-164.36 442.97,-153.75 523.38,-150.58"/>
<polygon fill="#63b8ff" stroke="#63b8ff" points="523.05,-154.05 532.92,-150.19 522.8,-147.06 523.05,-154.05"/>
</a>
</g>
</g>
<!-- Node17 -->
<g id="Node000017" class="node">
<title>Node17</title>
<g id="a_Node000017"><a xlink:href="lfilesystem___file_8h.html" target="_top" xlink:title="This file defines the File and TempFile classes.">
<polygon fill="white" stroke="#666666" points="627.75,-296.5 514.25,-296.5 514.25,-266 627.75,-266 627.75,-296.5"/>
<text text-anchor="start" x="522.25" y="-283" font-family="Helvetica,sans-Serif" font-size="10.00">lfilesystem/lfilesystem</text>
<text text-anchor="middle" x="571" y="-271.75" font-family="Helvetica,sans-Serif" font-size="10.00">_File.h</text>
</a>
</g>
</g>
<!-- Node10&#45;&gt;Node17 -->
<g id="edge33_Node000010_Node000017" class="edge">
<title>Node10&#45;&gt;Node17</title>
<g id="a_edge33_Node000010_Node000017"><a xlink:title=" ">
<path fill="none" stroke="#63b8ff" d="M401.2,-332.03C433.72,-322.5 476.27,-310.02 510.64,-299.95"/>
<polygon fill="#63b8ff" stroke="#63b8ff" points="511.41,-303.08 520.02,-296.9 509.44,-296.36 511.41,-303.08"/>
</a>
</g>
</g>
<!-- Node22 -->
<g id="Node000022" class="node">
<title>Node22</title>
<g id="a_Node000022"><a xlink:href="lfilesystem___sym_link_8h.html" target="_top" xlink:title="This file defines the files::SymLink class.">
<polygon fill="white" stroke="#666666" points="819.75,-230 706.25,-230 706.25,-199.5 819.75,-199.5 819.75,-230"/>
<text text-anchor="start" x="714.25" y="-216.5" font-family="Helvetica,sans-Serif" font-size="10.00">lfilesystem/lfilesystem</text>
<text text-anchor="middle" x="763" y="-205.25" font-family="Helvetica,sans-Serif" font-size="10.00">_SymLink.h</text>
</a>
</g>
</g>
<!-- Node10&#45;&gt;Node22 -->
<g id="edge49_Node000010_Node000022" class="edge">
<title>Node10&#45;&gt;Node22</title>
<g id="a_edge49_Node000010_Node000022"><a xlink:title=" ">
<path fill="none" stroke="#63b8ff" d="M407.94,-335.16C412.69,-334.24 417.43,-333.34 422,-332.5 517.29,-314.97 546.6,-331.35 637,-296.5 674.4,-282.08 712.49,-255.71 736.85,-237.03"/>
<polygon fill="#63b8ff" stroke="#63b8ff" points="738.75,-239.21 744.48,-230.29 734.45,-233.69 738.75,-239.21"/>
</a>
</g>
</g>
<!-- Node14&#45;&gt;Node2 -->
<g id="edge22_Node000014_Node000002" class="edge">
<title>Node14&#45;&gt;Node2</title>
<g id="a_edge22_Node000014_Node000002"><a xlink:title=" ">
<path fill="none" stroke="#63b8ff" d="M563.74,-132.63C533.52,-116.42 483.31,-89.53 440,-66.5 416.96,-54.25 390.74,-40.38 371.69,-30.33"/>
<polygon fill="#63b8ff" stroke="#63b8ff" points="373.65,-26.88 363.17,-25.3 370.38,-33.07 373.65,-26.88"/>
</a>
</g>
</g>
<!-- Node14&#45;&gt;Node3 -->
<g id="edge20_Node000014_Node000003" class="edge">
<title>Node14&#45;&gt;Node3</title>
<g id="a_edge20_Node000014_Node000003"><a xlink:title=" ">
<path fill="none" stroke="#63b8ff" d="M533.97,-138.08C448.97,-124.4 291.72,-99.11 223.27,-88.1"/>
<polygon fill="#63b8ff" stroke="#63b8ff" points="224.13,-84.53 213.7,-86.4 223.01,-91.44 224.13,-84.53"/>
</a>
</g>
</g>
<!-- Node14&#45;&gt;Node4 -->
<g id="edge21_Node000014_Node000004" class="edge">
<title>Node14&#45;&gt;Node4</title>
<g id="a_edge21_Node000014_Node000004"><a xlink:title=" ">
<path fill="none" stroke="#63b8ff" d="M558.68,-132.65C543.57,-124.27 526.62,-112.33 516,-97 503.47,-78.91 499.13,-53.64 497.66,-36.21"/>
<polygon fill="#63b8ff" stroke="#63b8ff" points="501.11,-36.13 497.04,-26.35 494.12,-36.53 501.11,-36.13"/>
</a>
</g>
</g>
<!-- Node14&#45;&gt;Node6 -->
<g id="edge24_Node000014_Node000006" class="edge">
<title>Node14&#45;&gt;Node6</title>
<g id="a_edge24_Node000014_Node000006"><a xlink:title=" ">
<path fill="none" stroke="#63b8ff" d="M648.04,-132.53C696.36,-120.07 764.13,-102.58 805.17,-91.99"/>
<polygon fill="#63b8ff" stroke="#63b8ff" points="805.94,-95.15 814.74,-89.27 804.19,-88.38 805.94,-95.15"/>
</a>
</g>
</g>
<!-- Node14&#45;&gt;Node7 -->
<g id="edge25_Node000014_Node000007" class="edge">
<title>Node14&#45;&gt;Node7</title>
<g id="a_edge25_Node000014_Node000007"><a xlink:title=" ">
<path fill="none" stroke="#63b8ff" d="M613.56,-132.57C625.52,-123.66 639.46,-111.26 648,-97 659.31,-78.11 663.89,-52.98 665.74,-35.8"/>
<polygon fill="#63b8ff" stroke="#63b8ff" points="669.31,-36.16 666.67,-25.9 662.33,-35.57 669.31,-36.16"/>
</a>
</g>
</g>
<!-- Node14&#45;&gt;Node8 -->
<g id="edge26_Node000014_Node000008" class="edge">
<title>Node14&#45;&gt;Node8</title>
<g id="a_edge26_Node000014_Node000008"><a xlink:title=" ">
<path fill="none" stroke="#63b8ff" d="M617.98,-132.59C651.88,-114.71 712.27,-84.63 767,-66.5 822.34,-48.16 887.25,-34.91 934.97,-26.64"/>
<polygon fill="#63b8ff" stroke="#63b8ff" points="935.53,-29.92 944.8,-24.8 934.36,-23.02 935.53,-29.92"/>
</a>
</g>
</g>
<!-- Node14&#45;&gt;Node11 -->
<g id="edge23_Node000014_Node000011" class="edge">
<title>Node14&#45;&gt;Node11</title>
<g id="a_edge23_Node000014_Node000011"><a xlink:title=" ">
<path fill="none" stroke="#63b8ff" d="M548.11,-132.61C515.14,-121.36 470.07,-105.98 438.74,-95.29"/>
<polygon fill="#63b8ff" stroke="#63b8ff" points="440.27,-91.77 429.68,-91.85 438.01,-98.4 440.27,-91.77"/>
</a>
</g>
</g>
<!-- Node15 -->
<g id="Node000015" class="node">
<title>Node15</title>
<g id="a_Node000015"><a xlink:href="lfilesystem___permissions_8h.html" target="_top" xlink:title="This file defines the Permissions class.">
<polygon fill="white" stroke="#666666" points="638.75,-97 525.25,-97 525.25,-66.5 638.75,-66.5 638.75,-97"/>
<text text-anchor="start" x="533.25" y="-83.5" font-family="Helvetica,sans-Serif" font-size="10.00">lfilesystem/lfilesystem</text>
<text text-anchor="middle" x="582" y="-72.25" font-family="Helvetica,sans-Serif" font-size="10.00">_Permissions.h</text>
</a>
</g>
</g>
<!-- Node14&#45;&gt;Node15 -->
<g id="edge27_Node000014_Node000015" class="edge">
<title>Node14&#45;&gt;Node15</title>
<g id="a_edge27_Node000014_Node000015"><a xlink:title=" ">
<path fill="none" stroke="#63b8ff" d="M588.96,-132.61C587.95,-125.36 586.69,-116.38 585.53,-108.06"/>
<polygon fill="#63b8ff" stroke="#63b8ff" points="588.88,-107.75 584.03,-98.33 581.95,-108.72 588.88,-107.75"/>
</a>
</g>
</g>
<!-- Node15&#45;&gt;Node2 -->
<g id="edge29_Node000015_Node000002" class="edge">
<title>Node15&#45;&gt;Node2</title>
<g id="a_edge29_Node000015_Node000002"><a xlink:title=" ">
<path fill="none" stroke="#63b8ff" d="M527.92,-66.03C480.92,-53.24 414.49,-35.16 375.97,-24.68"/>
<polygon fill="#63b8ff" stroke="#63b8ff" points="376.99,-21.06 366.42,-21.81 375.15,-27.81 376.99,-21.06"/>
</a>
</g>
</g>
<!-- Node15&#45;&gt;Node4 -->
<g id="edge28_Node000015_Node000004" class="edge">
<title>Node15&#45;&gt;Node4</title>
<g id="a_edge28_Node000015_Node000004"><a xlink:title=" ">
<path fill="none" stroke="#63b8ff" d="M562.71,-66.11C549.18,-55.85 531.12,-42.14 517.36,-31.7"/>
<polygon fill="#63b8ff" stroke="#63b8ff" points="519.71,-28.33 509.63,-25.07 515.48,-33.91 519.71,-28.33"/>
</a>
</g>
</g>
<!-- Node15&#45;&gt;Node7 -->
<g id="edge31_Node000015_Node000007" class="edge">
<title>Node15&#45;&gt;Node7</title>
<g id="a_edge31_Node000015_Node000007"><a xlink:title=" ">
<path fill="none" stroke="#63b8ff" d="M601.29,-66.11C614.82,-55.85 632.88,-42.14 646.64,-31.7"/>
<polygon fill="#63b8ff" stroke="#63b8ff" points="648.52,-33.91 654.37,-25.07 644.29,-28.33 648.52,-33.91"/>
</a>
</g>
</g>
<!-- Node15&#45;&gt;Node8 -->
<g id="edge32_Node000015_Node000008" class="edge">
<title>Node15&#45;&gt;Node8</title>
<g id="a_edge32_Node000015_Node000008"><a xlink:title=" ">
<path fill="none" stroke="#63b8ff" d="M639.22,-71.98C716.24,-60.18 853.08,-39.22 935.19,-26.64"/>
<polygon fill="#63b8ff" stroke="#63b8ff" points="935.55,-29.97 944.91,-25 934.49,-23.05 935.55,-29.97"/>
</a>
</g>
</g>
<!-- Node16 -->
<g id="Node000016" class="node">
<title>Node16</title>
<g id="a_Node000016"><a xlink:title=" ">
<polygon fill="#e0e0e0" stroke="#999999" points="619.75,-24.88 554.25,-24.88 554.25,-5.63 619.75,-5.63 619.75,-24.88"/>
<text text-anchor="middle" x="587" y="-11.38" font-family="Helvetica,sans-Serif" font-size="10.00">string_view</text>
</a>
</g>
</g>
<!-- Node15&#45;&gt;Node16 -->
<g id="edge30_Node000015_Node000016" class="edge">
<title>Node15&#45;&gt;Node16</title>
<g id="a_edge30_Node000015_Node000016"><a xlink:title=" ">
<path fill="none" stroke="#63b8ff" d="M583.13,-66.11C583.83,-57.13 584.73,-45.51 585.49,-35.76"/>
<polygon fill="#63b8ff" stroke="#63b8ff" points="589.03,-36.31 586.32,-26.07 582.05,-35.77 589.03,-36.31"/>
</a>
</g>
</g>
<!-- Node17&#45;&gt;Node2 -->
<g id="edge35_Node000017_Node000002" class="edge">
<title>Node17&#45;&gt;Node2</title>
<g id="a_edge35_Node000017_Node000002"><a xlink:title=" ">
<path fill="none" stroke="#63b8ff" d="M544.83,-265.52C499.62,-238.54 407.54,-176.58 364,-97 353.54,-77.89 348.81,-53.16 346.69,-36.14"/>
<polygon fill="#63b8ff" stroke="#63b8ff" points="350.07,-35.87 345.56,-26.29 343.11,-36.6 350.07,-35.87"/>
</a>
</g>
</g>
<!-- Node17&#45;&gt;Node5 -->
<g id="edge37_Node000017_Node000005" class="edge">
<title>Node17&#45;&gt;Node5</title>
<g id="a_edge37_Node000017_Node000005"><a xlink:title=" ">
<path fill="none" stroke="#63b8ff" d="M513.94,-270.88C468.13,-262.54 402.51,-248.75 347,-230 346.07,-229.68 345.12,-229.35 344.18,-229"/>
<polygon fill="#63b8ff" stroke="#63b8ff" points="345.68,-225.42 335.1,-224.84 343.01,-231.89 345.68,-225.42"/>
</a>
</g>
</g>
<!-- Node17&#45;&gt;Node6 -->
<g id="edge39_Node000017_Node000006" class="edge">
<title>Node17&#45;&gt;Node6</title>
<g id="a_edge39_Node000017_Node000006"><a xlink:title=" ">
<path fill="none" stroke="#63b8ff" d="M628.14,-272.81C700.01,-262.9 815.69,-244.88 829,-230 860.69,-194.58 852.79,-133.27 846.01,-102.12"/>
<polygon fill="#63b8ff" stroke="#63b8ff" points="849.27,-101.7 843.55,-92.78 842.46,-103.32 849.27,-101.7"/>
</a>
</g>
</g>
<!-- Node17&#45;&gt;Node8 -->
<g id="edge43_Node000017_Node000008" class="edge">
<title>Node17&#45;&gt;Node8</title>
<g id="a_edge43_Node000017_Node000008"><a xlink:title=" ">
<path fill="none" stroke="#63b8ff" d="M628.25,-272.82C645.81,-270.58 665.19,-268.15 683,-266 753.17,-257.54 951.45,-282.29 999,-230 1046.44,-177.84 1025.68,-85.39 1011.81,-41.17"/>
<polygon fill="#63b8ff" stroke="#63b8ff" points="1014.84,-40.18 1008.39,-31.77 1008.19,-42.37 1014.84,-40.18"/>
</a>
</g>
</g>
<!-- Node17&#45;&gt;Node11 -->
<g id="edge38_Node000017_Node000011" class="edge">
<title>Node17&#45;&gt;Node11</title>
<g id="a_edge38_Node000017_Node000011"><a xlink:title=" ">
<path fill="none" stroke="#63b8ff" d="M556.06,-265.63C546.17,-255.78 533.03,-242.37 522,-230 481.55,-184.65 437.16,-128.29 415.46,-100.27"/>
<polygon fill="#63b8ff" stroke="#63b8ff" points="417.65,-98.38 408.77,-92.61 412.11,-102.66 417.65,-98.38"/>
</a>
</g>
</g>
<!-- Node17&#45;&gt;Node12 -->
<g id="edge41_Node000017_Node000012" class="edge">
<title>Node17&#45;&gt;Node12</title>
<g id="a_edge41_Node000017_Node000012"><a xlink:title=" ">
<path fill="none" stroke="#63b8ff" d="M628.13,-278.31C715.95,-274.36 888.98,-262.79 1032,-230 1034.34,-229.46 1036.72,-228.84 1039.11,-228.14"/>
<polygon fill="#63b8ff" stroke="#63b8ff" points="1039.98,-231.22 1048.43,-224.83 1037.84,-224.56 1039.98,-231.22"/>
</a>
</g>
</g>
<!-- Node17&#45;&gt;Node13 -->
<g id="edge42_Node000017_Node000013" class="edge">
<title>Node17&#45;&gt;Node13</title>
<g id="a_edge42_Node000017_Node000013"><a xlink:title=" ">
<path fill="none" stroke="#63b8ff" d="M523.29,-265.52C492.52,-255.84 451.73,-242.66 416,-230 414.72,-229.55 413.42,-229.08 412.11,-228.6"/>
<polygon fill="#63b8ff" stroke="#63b8ff" points="413.61,-225.05 403.02,-224.84 411.17,-231.61 413.61,-225.05"/>
</a>
</g>
</g>
<!-- Node17&#45;&gt;Node14 -->
<g id="edge44_Node000017_Node000014" class="edge">
<title>Node17&#45;&gt;Node14</title>
<g id="a_edge44_Node000017_Node000014"><a xlink:title=" ">
<path fill="none" stroke="#63b8ff" d="M554.55,-265.73C545.41,-256.53 534.91,-243.79 530,-230 525.45,-217.23 524.22,-211.76 530,-199.5 535.48,-187.89 545.1,-178.05 555.11,-170.24"/>
<polygon fill="#63b8ff" stroke="#63b8ff" points="556.84,-172.59 562.91,-163.91 552.75,-166.91 556.84,-172.59"/>
</a>
</g>
</g>
<!-- Node17&#45;&gt;Node16 -->
<g id="edge36_Node000017_Node000016" class="edge">
<title>Node17&#45;&gt;Node16</title>
<g id="a_edge36_Node000017_Node000016"><a xlink:title=" ">
<path fill="none" stroke="#63b8ff" d="M564.58,-265.71C558,-248.37 550.48,-219.23 564,-199.5 589.05,-162.94 631.95,-200.06 657,-163.5 667.86,-147.64 658.09,-84.61 648,-66.5 639.91,-51.98 625.82,-39.95 613.22,-31.31"/>
<polygon fill="#63b8ff" stroke="#63b8ff" points="615.3,-27.84 605,-25.37 611.51,-33.73 615.3,-27.84"/>
</a>
</g>
</g>
<!-- Node18 -->
<g id="Node000018" class="node">
<title>Node18</title>
<g id="a_Node000018"><a xlink:title=" ">
<polygon fill="#e0e0e0" stroke="#999999" points="688.12,-224.38 639.88,-224.38 639.88,-205.12 688.12,-205.12 688.12,-224.38"/>
<text text-anchor="middle" x="664" y="-210.88" font-family="Helvetica,sans-Serif" font-size="10.00">cstddef</text>
</a>
</g>
</g>
<!-- Node17&#45;&gt;Node18 -->
<g id="edge34_Node000017_Node000018" class="edge">
<title>Node17&#45;&gt;Node18</title>
<g id="a_edge34_Node000017_Node000018"><a xlink:title=" ">
<path fill="none" stroke="#63b8ff" d="M592.1,-265.61C607.1,-255.21 627.19,-241.28 642.32,-230.79"/>
<polygon fill="#63b8ff" stroke="#63b8ff" points="643.79,-233.33 650.01,-224.76 639.8,-227.58 643.79,-233.33"/>
</a>
</g>
</g>
<!-- Node19 -->
<g id="Node000019" class="node">
<title>Node19</title>
<g id="a_Node000019"><a xlink:title=" ">
<polygon fill="#e0e0e0" stroke="#999999" points="621.5,-224.38 572.5,-224.38 572.5,-205.12 621.5,-205.12 621.5,-224.38"/>
<text text-anchor="middle" x="597" y="-210.88" font-family="Helvetica,sans-Serif" font-size="10.00">fstream</text>
</a>
</g>
</g>
<!-- Node17&#45;&gt;Node19 -->
<g id="edge40_Node000017_Node000019" class="edge">
<title>Node17&#45;&gt;Node19</title>
<g id="a_edge40_Node000017_Node000019"><a xlink:title=" ">
<path fill="none" stroke="#63b8ff" d="M576.9,-265.61C580.6,-256.43 585.41,-244.5 589.4,-234.61"/>
<polygon fill="#63b8ff" stroke="#63b8ff" points="592.95,-236.16 593.44,-225.57 586.46,-233.54 592.95,-236.16"/>
</a>
</g>
</g>
<!-- Node20 -->
<g id="Node000020" class="node">
<title>Node20</title>
<g id="a_Node000020"><a xlink:href="lfilesystem___c_file_8h.html" target="_top" xlink:title="This file defines the CFile class.">
<polygon fill="white" stroke="#666666" points="989.75,-230 876.25,-230 876.25,-199.5 989.75,-199.5 989.75,-230"/>
<text text-anchor="start" x="884.25" y="-216.5" font-family="Helvetica,sans-Serif" font-size="10.00">lfilesystem/lfilesystem</text>
<text text-anchor="middle" x="933" y="-205.25" font-family="Helvetica,sans-Serif" font-size="10.00">_CFile.h</text>
</a>
</g>
</g>
<!-- Node17&#45;&gt;Node20 -->
<g id="edge45_Node000017_Node000020" class="edge">
<title>Node17&#45;&gt;Node20</title>
<g id="a_edge45_Node000017_Node000020"><a xlink:title=" ">
<path fill="none" stroke="#63b8ff" d="M628.23,-270.84C686.97,-261.07 780.99,-245.12 862,-230 863.14,-229.79 864.3,-229.57 865.46,-229.35"/>
<polygon fill="#63b8ff" stroke="#63b8ff" points="865.9,-232.64 875.06,-227.32 864.58,-225.76 865.9,-232.64"/>
</a>
</g>
</g>
<!-- Node20&#45;&gt;Node8 -->
<g id="edge47_Node000020_Node000008" class="edge">
<title>Node20&#45;&gt;Node8</title>
<g id="a_edge47_Node000020_Node000008"><a xlink:title=" ">
<path fill="none" stroke="#63b8ff" d="M938.15,-199.23C950.03,-165.7 979.49,-82.59 994.26,-40.91"/>
<polygon fill="#63b8ff" stroke="#63b8ff" points="997.8,-42.39 997.85,-31.79 991.21,-40.05 997.8,-42.39"/>
</a>
</g>
</g>
<!-- Node20&#45;&gt;Node14 -->
<g id="edge48_Node000020_Node000014" class="edge">
<title>Node20&#45;&gt;Node14</title>
<g id="a_edge48_Node000020_Node000014"><a xlink:title=" ">
<path fill="none" stroke="#63b8ff" d="M875.76,-202.95C815.99,-191.68 722.29,-174.01 658.84,-162.04"/>
<polygon fill="#63b8ff" stroke="#63b8ff" points="659.62,-158.44 649.14,-160.03 658.32,-165.32 659.62,-158.44"/>
</a>
</g>
</g>
<!-- Node21 -->
<g id="Node000021" class="node">
<title>Node21</title>
<g id="a_Node000021"><a xlink:title=" ">
<polygon fill="#e0e0e0" stroke="#999999" points="918.12,-157.88 875.88,-157.88 875.88,-138.62 918.12,-138.62 918.12,-157.88"/>
<text text-anchor="middle" x="897" y="-144.38" font-family="Helvetica,sans-Serif" font-size="10.00">cstdio</text>
</a>
</g>
</g>
<!-- Node20&#45;&gt;Node21 -->
<g id="edge46_Node000020_Node000021" class="edge">
<title>Node20&#45;&gt;Node21</title>
<g id="a_edge46_Node000020_Node000021"><a xlink:title=" ">
<path fill="none" stroke="#63b8ff" d="M924.83,-199.11C919.6,-189.73 912.76,-177.49 907.17,-167.48"/>
<polygon fill="#63b8ff" stroke="#63b8ff" points="909.85,-166.1 901.92,-159.07 903.74,-169.51 909.85,-166.1"/>
</a>
</g>
</g>
<!-- Node22&#45;&gt;Node6 -->
<g id="edge51_Node000022_Node000006" class="edge">
<title>Node22&#45;&gt;Node6</title>
<g id="a_edge51_Node000022_Node000006"><a xlink:title=" ">
<path fill="none" stroke="#63b8ff" d="M771.65,-199.23C785.93,-175.24 814.44,-127.36 830.09,-101.07"/>
<polygon fill="#63b8ff" stroke="#63b8ff" points="833.47,-103.23 835.58,-92.85 827.46,-99.65 833.47,-103.23"/>
</a>
</g>
</g>
<!-- Node22&#45;&gt;Node8 -->
<g id="edge52_Node000022_Node000008" class="edge">
<title>Node22&#45;&gt;Node8</title>
<g id="a_edge52_Node000022_Node000008"><a xlink:title=" ">
<path fill="none" stroke="#63b8ff" d="M762.91,-199.25C763.54,-169.8 769.3,-102.74 807,-66.5 841.01,-33.8 893.28,-21.58 935.3,-17.35"/>
<polygon fill="#63b8ff" stroke="#63b8ff" points="935.36,-20.77 945.01,-16.42 934.75,-13.8 935.36,-20.77"/>
</a>
</g>
</g>
<!-- Node22&#45;&gt;Node11 -->
<g id="edge50_Node000022_Node000011" class="edge">
<title>Node22&#45;&gt;Node11</title>
<g id="a_edge50_Node000022_Node000011"><a xlink:title=" ">
<path fill="none" stroke="#63b8ff" d="M705.77,-201.37C702.8,-200.74 699.87,-200.11 697,-199.5 620.61,-183.26 596.58,-194.75 525,-163.5 503.53,-154.13 501.48,-146.01 482,-133 463.48,-120.63 442.09,-107.24 426.09,-97.4"/>
<polygon fill="#63b8ff" stroke="#63b8ff" points="428.26,-94.01 417.9,-91.77 424.6,-99.97 428.26,-94.01"/>
</a>
</g>
</g>
<!-- Node22&#45;&gt;Node14 -->
<g id="edge53_Node000022_Node000014" class="edge">
<title>Node22&#45;&gt;Node14</title>
<g id="a_edge53_Node000022_Node000014"><a xlink:title=" ">
<path fill="none" stroke="#63b8ff" d="M723.97,-199.11C699.21,-189.83 666.95,-177.73 640.41,-167.78"/>
<polygon fill="#63b8ff" stroke="#63b8ff" points="641.76,-164.17 631.17,-163.94 639.31,-170.73 641.76,-164.17"/>
</a>
</g>
</g>
</g>
</svg>
