<?xml version="1.0" encoding="UTF-8" standalone="no"?>
<!DOCTYPE svg PUBLIC "-//W3C//DTD SVG 1.1//EN"
 "http://www.w3.org/Graphics/SVG/1.1/DTD/svg11.dtd">
<!-- Generated by graphviz version 2.43.0 (0)
 -->
<!-- Title: lfilesystem.h Pages: 1 -->
<!--zoomable 531 -->
<svg id="main" version="1.1" xmlns="http://www.w3.org/2000/svg" xmlns:xlink="http://www.w3.org/1999/xlink" xml:space="preserve" onload="init(evt)">
<style type="text/css"><![CDATA[
.edge:hover path { stroke: red; }
.edge:hover polygon { stroke: red; fill: red; }
]]></style>
<script type="text/javascript"><![CDATA[
var edges = document.getElementsByTagName('g');
if (edges && edges.length) {
  for (var i=0;i<edges.length;i++) {
    if (edges[i].id.substr(0,4)=='edge') {
      edges[i].setAttribute('class','edge');
    }
  }
}
]]></script>
        <defs>
                <circle id="rim" cx="0" cy="0" r="7"/>
                <circle id="rim2" cx="0" cy="0" r="3.5"/>
                <g id="zoomPlus">
                        <use xlink:href="#rim" fill="#404040">
                                <set attributeName="fill" to="#808080" begin="zoomplus.mouseover" end="zoomplus.mouseout"/>
                        </use>
                        <path d="M-4,0h8M0,-4v8" fill="none" stroke="white" stroke-width="1.5" pointer-events="none"/>
                </g>
                <g id="zoomMin">
                        <use xlink:href="#rim" fill="#404040">
                                <set attributeName="fill" to="#808080" begin="zoomminus.mouseover" end="zoomminus.mouseout"/>
                        </use>
                        <path d="M-4,0h8" fill="none" stroke="white" stroke-width="1.5" pointer-events="none"/>
                </g>
                <g id="dirArrow">
                        <path fill="none" stroke="white" stroke-width="1.5" d="M0,-3.0v7 M-2.5,-0.5L0,-3.0L2.5,-0.5"/>
                </g>
               <g id="resetDef">
                       <use xlink:href="#rim2" fill="#404040">
                               <set attributeName="fill" to="#808080" begin="reset.mouseover" end="reset.mouseout"/>
                       </use>
               </g>
        </defs>

<script type="text/javascript">
var viewWidth = 1914;
var viewHeight = 531;
var sectionId = 'dynsection-0';
</script>
<script xlink:href="svgpan.js"/>
<svg id="graph" class="graph">
<g id="viewport">
<title>lfilesystem.h</title>
<polygon fill="white" stroke="transparent" points="-4,4 -4,-527 1909.97,-527 1909.97,4 -4,4"/>
<!-- Node1 -->
<g id="node1" class="node">
<title>Node1</title>
<g id="a_node1"><a xlink:title="The main header for the limes_files library.">
<polygon fill="#bfbfbf" stroke="black" points="1074.5,-503.5 1074.5,-522.5 1154.5,-522.5 1154.5,-503.5 1074.5,-503.5"/>
<text text-anchor="middle" x="1114.5" y="-510.5" font-family="Helvetica,sans-Serif" font-size="10.00">lfilesystem.h</text>
</a>
</g>
</g>
<!-- Node2 -->
<g id="node2" class="node">
<title>Node2</title>
<g id="a_node2"><a xlink:href="lfilesystem__CFile_8h.html" target="_top" xlink:title="This file defines the CFile class.">
<polygon fill="white" stroke="black" points="338,-207 338,-226 453,-226 453,-207 338,-207"/>
<text text-anchor="middle" x="395.5" y="-214" font-family="Helvetica,sans-Serif" font-size="10.00">./lfilesystem_CFile.h</text>
</a>
</g>
</g>
<!-- Node1&#45;&gt;Node2 -->
<g id="edge1" class="edge">
<title>Node1&#45;&gt;Node2</title>
<path fill="none" stroke="midnightblue" d="M1074.42,-511.48C897.54,-508.68 195.5,-491.88 195.5,-402 195.5,-402 195.5,-402 195.5,-344 195.5,-276.23 278.54,-243.27 337.61,-228.4"/>
<polygon fill="midnightblue" stroke="midnightblue" points="338.69,-231.74 347.6,-226 337.05,-224.94 338.69,-231.74"/>
</g>
<!-- Node5 -->
<g id="node5" class="node">
<title>Node5</title>
<g id="a_node5"><a xlink:href="lfilesystem__FilesystemEntry_8h.html" target="_top" xlink:title="This file defines the FilesystemEntry class.">
<polygon fill="white" stroke="black" points="770.5,-134.5 770.5,-164.5 898.5,-164.5 898.5,-134.5 770.5,-134.5"/>
<text text-anchor="start" x="778.5" y="-152.5" font-family="Helvetica,sans-Serif" font-size="10.00">lfilesystem/lfilesystem</text>
<text text-anchor="middle" x="834.5" y="-141.5" font-family="Helvetica,sans-Serif" font-size="10.00">_FilesystemEntry.h</text>
</a>
</g>
</g>
<!-- Node1&#45;&gt;Node5 -->
<g id="edge57" class="edge">
<title>Node1&#45;&gt;Node5</title>
<path fill="none" stroke="midnightblue" d="M1074.3,-507.45C985.12,-496.24 778.5,-463.61 778.5,-402 778.5,-402 778.5,-402 778.5,-282.5 778.5,-241.48 801.7,-198.59 818.23,-173.22"/>
<polygon fill="midnightblue" stroke="midnightblue" points="821.28,-174.95 823.97,-164.7 815.48,-171.04 821.28,-174.95"/>
</g>
<!-- Node12 -->
<g id="node12" class="node">
<title>Node12</title>
<g id="a_node12"><a xlink:href="lfilesystem__Permissions_8h.html" target="_top" xlink:title="This file defines the Permissions class.">
<polygon fill="white" stroke="black" points="151.5,-67.5 151.5,-97.5 279.5,-97.5 279.5,-67.5 151.5,-67.5"/>
<text text-anchor="start" x="159.5" y="-85.5" font-family="Helvetica,sans-Serif" font-size="10.00">lfilesystem/lfilesystem</text>
<text text-anchor="middle" x="215.5" y="-74.5" font-family="Helvetica,sans-Serif" font-size="10.00">_Permissions.h</text>
</a>
</g>
</g>
<!-- Node1&#45;&gt;Node12 -->
<g id="edge67" class="edge">
<title>Node1&#45;&gt;Node12</title>
<path fill="none" stroke="midnightblue" d="M1074.27,-511.73C928.19,-510.44 426.15,-503.42 270.5,-467 199.36,-450.35 119.5,-475.06 119.5,-402 119.5,-402 119.5,-402 119.5,-344 119.5,-251.05 173.98,-150.31 200.86,-106.27"/>
<polygon fill="midnightblue" stroke="midnightblue" points="203.99,-107.85 206.3,-97.51 198.05,-104.16 203.99,-107.85"/>
</g>
<!-- Node14 -->
<g id="node14" class="node">
<title>Node14</title>
<g id="a_node14"><a xlink:href="lfilesystem__Directory_8h.html" target="_top" xlink:title="This file defines the Directory class.">
<polygon fill="white" stroke="black" points="1145.5,-335.5 1145.5,-354.5 1279.5,-354.5 1279.5,-335.5 1145.5,-335.5"/>
<text text-anchor="middle" x="1212.5" y="-342.5" font-family="Helvetica,sans-Serif" font-size="10.00">./lfilesystem_Directory.h</text>
</a>
</g>
</g>
<!-- Node1&#45;&gt;Node14 -->
<g id="edge18" class="edge">
<title>Node1&#45;&gt;Node14</title>
<path fill="none" stroke="midnightblue" d="M1137.82,-503.48C1154.24,-496.27 1175.37,-484.32 1187.5,-467 1209.27,-435.92 1212.89,-390.01 1213.05,-364.61"/>
<polygon fill="midnightblue" stroke="midnightblue" points="1216.55,-364.47 1212.93,-354.51 1209.55,-364.55 1216.55,-364.47"/>
</g>
<!-- Node18 -->
<g id="node18" class="node">
<title>Node18</title>
<g id="a_node18"><a xlink:href="lfilesystem__File_8h.html" target="_top" xlink:title="This file defines the File and TempFile classes.">
<polygon fill="white" stroke="black" points="600.5,-268.5 600.5,-298.5 728.5,-298.5 728.5,-268.5 600.5,-268.5"/>
<text text-anchor="start" x="608.5" y="-286.5" font-family="Helvetica,sans-Serif" font-size="10.00">lfilesystem/lfilesystem</text>
<text text-anchor="middle" x="664.5" y="-275.5" font-family="Helvetica,sans-Serif" font-size="10.00">_File.h</text>
</a>
</g>
</g>
<!-- Node1&#45;&gt;Node18 -->
<g id="edge56" class="edge">
<title>Node1&#45;&gt;Node18</title>
<path fill="none" stroke="midnightblue" d="M1074.32,-511.33C993.37,-509.26 814.16,-500.88 764.5,-467 708.47,-428.78 680.84,-348.48 670.09,-308.36"/>
<polygon fill="midnightblue" stroke="midnightblue" points="673.47,-307.45 667.6,-298.63 666.69,-309.19 673.47,-307.45"/>
</g>
<!-- Node21 -->
<g id="node21" class="node">
<title>Node21</title>
<g id="a_node21"><a xlink:href="lfilesystem__SymLink_8h.html" target="_top" xlink:title="This file defines the files::SymLink class.">
<polygon fill="white" stroke="black" points="1210.5,-201.5 1210.5,-231.5 1338.5,-231.5 1338.5,-201.5 1210.5,-201.5"/>
<text text-anchor="start" x="1218.5" y="-219.5" font-family="Helvetica,sans-Serif" font-size="10.00">lfilesystem/lfilesystem</text>
<text text-anchor="middle" x="1274.5" y="-208.5" font-family="Helvetica,sans-Serif" font-size="10.00">_SymLink.h</text>
</a>
</g>
</g>
<!-- Node1&#45;&gt;Node21 -->
<g id="edge76" class="edge">
<title>Node1&#45;&gt;Node21</title>
<path fill="none" stroke="midnightblue" d="M1154.72,-508.5C1249.79,-499.13 1480.5,-469.43 1480.5,-402 1480.5,-402 1480.5,-402 1480.5,-344 1480.5,-279.99 1407.39,-247.35 1348.28,-231.42"/>
<polygon fill="midnightblue" stroke="midnightblue" points="1349.11,-228.02 1338.55,-228.92 1347.36,-234.8 1349.11,-228.02"/>
</g>
<!-- Node22 -->
<g id="node22" class="node">
<title>Node22</title>
<g id="a_node22"><a xlink:href="lfilesystem__DynamicLibrary_8h.html" target="_top" xlink:title="This file defines the DynamicLibrary class.">
<polygon fill="white" stroke="black" points="398,-335.5 398,-354.5 565,-354.5 565,-335.5 398,-335.5"/>
<text text-anchor="middle" x="481.5" y="-342.5" font-family="Helvetica,sans-Serif" font-size="10.00">./lfilesystem_DynamicLibrary.h</text>
</a>
</g>
</g>
<!-- Node1&#45;&gt;Node22 -->
<g id="edge45" class="edge">
<title>Node1&#45;&gt;Node22</title>
<path fill="none" stroke="midnightblue" d="M1074.47,-512.66C965.21,-513.83 664.32,-512.71 578.5,-467 534.88,-443.77 503.95,-391.65 489.93,-364.01"/>
<polygon fill="midnightblue" stroke="midnightblue" points="492.93,-362.17 485.39,-354.72 486.64,-365.24 492.93,-362.17"/>
</g>
<!-- Node24 -->
<g id="node24" class="node">
<title>Node24</title>
<g id="a_node24"><a xlink:href="lfilesystem__FileWatcher_8h.html" target="_top" xlink:title="This file defines the files::FileWatcher class.">
<polygon fill="white" stroke="black" points="906.5,-268.5 906.5,-298.5 1034.5,-298.5 1034.5,-268.5 906.5,-268.5"/>
<text text-anchor="start" x="914.5" y="-286.5" font-family="Helvetica,sans-Serif" font-size="10.00">lfilesystem/lfilesystem</text>
<text text-anchor="middle" x="970.5" y="-275.5" font-family="Helvetica,sans-Serif" font-size="10.00">_FileWatcher.h</text>
</a>
</g>
</g>
<!-- Node1&#45;&gt;Node24 -->
<g id="edge58" class="edge">
<title>Node1&#45;&gt;Node24</title>
<path fill="none" stroke="midnightblue" d="M1093.36,-503.46C1077.2,-495.99 1055.41,-483.7 1041.5,-467 1001.69,-419.22 982.52,-346.53 974.82,-308.93"/>
<polygon fill="midnightblue" stroke="midnightblue" points="978.21,-308.03 972.87,-298.88 971.34,-309.37 978.21,-308.03"/>
</g>
<!-- Node25 -->
<g id="node25" class="node">
<title>Node25</title>
<g id="a_node25"><a xlink:href="lfilesystem__Misc_8h.html" target="_top" xlink:title="This file defines miscellaneous filesystem utility functions.">
<polygon fill="white" stroke="black" points="1729,-140 1729,-159 1842,-159 1842,-140 1729,-140"/>
<text text-anchor="middle" x="1785.5" y="-147" font-family="Helvetica,sans-Serif" font-size="10.00">./lfilesystem_Misc.h</text>
</a>
</g>
</g>
<!-- Node1&#45;&gt;Node25 -->
<g id="edge59" class="edge">
<title>Node1&#45;&gt;Node25</title>
<path fill="none" stroke="midnightblue" d="M1154.64,-510.12C1305.85,-502.53 1832.5,-471.12 1832.5,-402 1832.5,-402 1832.5,-402 1832.5,-282.5 1832.5,-239.31 1809.89,-192.54 1796.04,-167.93"/>
<polygon fill="midnightblue" stroke="midnightblue" points="1798.95,-165.97 1790.89,-159.08 1792.9,-169.49 1798.95,-165.97"/>
</g>
<!-- Node27 -->
<g id="node27" class="node">
<title>Node27</title>
<g id="a_node27"><a xlink:href="lfilesystem__Paths_8h.html" target="_top" xlink:title="This file defines some utility functions for working with paths.">
<polygon fill="white" stroke="black" points="1759,-73 1759,-92 1876,-92 1876,-73 1759,-73"/>
<text text-anchor="middle" x="1817.5" y="-80" font-family="Helvetica,sans-Serif" font-size="10.00">./lfilesystem_Paths.h</text>
</a>
</g>
</g>
<!-- Node1&#45;&gt;Node27 -->
<g id="edge64" class="edge">
<title>Node1&#45;&gt;Node27</title>
<path fill="none" stroke="midnightblue" d="M1154.91,-510.65C1271.62,-506.49 1607.7,-492.55 1714.5,-467 1787.55,-449.52 1870.5,-477.11 1870.5,-402 1870.5,-402 1870.5,-402 1870.5,-215.5 1870.5,-178.31 1866.35,-168.1 1851.5,-134 1846.25,-121.96 1838.09,-109.71 1831.07,-100.29"/>
<polygon fill="midnightblue" stroke="midnightblue" points="1833.72,-97.99 1824.84,-92.22 1828.19,-102.27 1833.72,-97.99"/>
</g>
<!-- Node28 -->
<g id="node28" class="node">
<title>Node28</title>
<g id="a_node28"><a xlink:href="lfilesystem__SimpleWatcher_8h.html" target="_top" xlink:title="This file defines the SimpleFileWatcher class.">
<polygon fill="white" stroke="black" points="1508.5,-335.5 1508.5,-354.5 1672.5,-354.5 1672.5,-335.5 1508.5,-335.5"/>
<text text-anchor="middle" x="1590.5" y="-342.5" font-family="Helvetica,sans-Serif" font-size="10.00">./lfilesystem_SimpleWatcher.h</text>
</a>
</g>
</g>
<!-- Node1&#45;&gt;Node28 -->
<g id="edge68" class="edge">
<title>Node1&#45;&gt;Node28</title>
<path fill="none" stroke="midnightblue" d="M1154.69,-511.07C1240.17,-508.49 1436.92,-499.13 1494.5,-467 1537.48,-443.02 1568.18,-391.22 1582.11,-363.83"/>
<polygon fill="midnightblue" stroke="midnightblue" points="1585.36,-365.15 1586.62,-354.63 1579.08,-362.07 1585.36,-365.15"/>
</g>
<!-- Node29 -->
<g id="node29" class="node">
<title>Node29</title>
<g id="a_node29"><a xlink:href="lfilesystem__SpecialDirectories_8h.html" target="_top" xlink:title="This file contains utility functions for finding some common directories.">
<polygon fill="white" stroke="black" points="1273,-391.5 1273,-410.5 1452,-410.5 1452,-391.5 1273,-391.5"/>
<text text-anchor="middle" x="1362.5" y="-398.5" font-family="Helvetica,sans-Serif" font-size="10.00">./lfilesystem_SpecialDirectories.h</text>
</a>
</g>
</g>
<!-- Node1&#45;&gt;Node29 -->
<g id="edge72" class="edge">
<title>Node1&#45;&gt;Node29</title>
<path fill="none" stroke="midnightblue" d="M1135.29,-503.37C1156.72,-494.44 1191.05,-479.99 1220.5,-467 1260.44,-449.38 1306.32,-428.21 1334.86,-414.93"/>
<polygon fill="midnightblue" stroke="midnightblue" points="1336.61,-417.98 1344.19,-410.58 1333.65,-411.63 1336.61,-417.98"/>
</g>
<!-- Node30 -->
<g id="node30" class="node">
<title>Node30</title>
<g id="a_node30"><a xlink:href="lfilesystem__Volume_8h.html" target="_top" xlink:title="This file defines the files::Volume class.">
<polygon fill="white" stroke="black" points="1050.5,-447.5 1050.5,-466.5 1178.5,-466.5 1178.5,-447.5 1050.5,-447.5"/>
<text text-anchor="middle" x="1114.5" y="-454.5" font-family="Helvetica,sans-Serif" font-size="10.00">./lfilesystem_Volume.h</text>
</a>
</g>
</g>
<!-- Node1&#45;&gt;Node30 -->
<g id="edge77" class="edge">
<title>Node1&#45;&gt;Node30</title>
<path fill="none" stroke="midnightblue" d="M1114.5,-503.08C1114.5,-496.01 1114.5,-485.86 1114.5,-476.99"/>
<polygon fill="midnightblue" stroke="midnightblue" points="1118,-476.75 1114.5,-466.75 1111,-476.75 1118,-476.75"/>
</g>
<!-- Node3 -->
<g id="node3" class="node">
<title>Node3</title>
<g id="a_node3"><a xlink:title=" ">
<polygon fill="white" stroke="#bfbfbf" points="369.5,-140 369.5,-159 415.5,-159 415.5,-140 369.5,-140"/>
<text text-anchor="middle" x="392.5" y="-147" font-family="Helvetica,sans-Serif" font-size="10.00">cstdio</text>
</a>
</g>
</g>
<!-- Node2&#45;&gt;Node3 -->
<g id="edge2" class="edge">
<title>Node2&#45;&gt;Node3</title>
<path fill="none" stroke="midnightblue" d="M395.1,-206.73C394.65,-197.18 393.94,-181.62 393.37,-169.28"/>
<polygon fill="midnightblue" stroke="midnightblue" points="396.86,-168.96 392.9,-159.13 389.86,-169.28 396.86,-168.96"/>
</g>
<!-- Node4 -->
<g id="node4" class="node">
<title>Node4</title>
<g id="a_node4"><a xlink:title=" ">
<polygon fill="white" stroke="#bfbfbf" points="1185.5,-0.5 1185.5,-30.5 1313.5,-30.5 1313.5,-0.5 1185.5,-0.5"/>
<text text-anchor="start" x="1193.5" y="-18.5" font-family="Helvetica,sans-Serif" font-size="10.00">lfilesystem/lfilesystem</text>
<text text-anchor="middle" x="1249.5" y="-7.5" font-family="Helvetica,sans-Serif" font-size="10.00">_Export.h</text>
</a>
</g>
</g>
<!-- Node2&#45;&gt;Node4 -->
<g id="edge3" class="edge">
<title>Node2&#45;&gt;Node4</title>
<path fill="none" stroke="midnightblue" d="M400.93,-206.72C406.99,-196.77 416.94,-179.98 424.5,-165 445.93,-122.54 428.54,-94.28 467.5,-67 524.58,-27.03 991.15,-18.69 1175.23,-16.96"/>
<polygon fill="midnightblue" stroke="midnightblue" points="1175.39,-20.45 1185.36,-16.86 1175.33,-13.45 1175.39,-20.45"/>
</g>
<!-- Node2&#45;&gt;Node5 -->
<g id="edge4" class="edge">
<title>Node2&#45;&gt;Node5</title>
<path fill="none" stroke="midnightblue" d="M453.34,-206.94C532.29,-195.25 673.84,-174.29 760.45,-161.46"/>
<polygon fill="midnightblue" stroke="midnightblue" points="761.09,-164.91 770.47,-159.98 760.07,-157.98 761.09,-164.91"/>
</g>
<!-- Node5&#45;&gt;Node4 -->
<g id="edge11" class="edge">
<title>Node5&#45;&gt;Node4</title>
<path fill="none" stroke="midnightblue" d="M838.24,-134.3C843.97,-115.56 856.84,-83.06 880.5,-67 927.1,-35.36 1081.17,-23.4 1174.85,-18.98"/>
<polygon fill="midnightblue" stroke="midnightblue" points="1175.29,-22.47 1185.13,-18.52 1174.98,-15.47 1175.29,-22.47"/>
</g>
<!-- Node6 -->
<g id="node6" class="node">
<title>Node6</title>
<g id="a_node6"><a xlink:title=" ">
<polygon fill="white" stroke="#bfbfbf" points="1584.5,-73 1584.5,-92 1634.5,-92 1634.5,-73 1584.5,-73"/>
<text text-anchor="middle" x="1609.5" y="-80" font-family="Helvetica,sans-Serif" font-size="10.00">cstdint</text>
</a>
</g>
</g>
<!-- Node5&#45;&gt;Node6 -->
<g id="edge5" class="edge">
<title>Node5&#45;&gt;Node6</title>
<path fill="none" stroke="midnightblue" d="M898.58,-143.13C1055.24,-129.99 1453.58,-96.58 1574.3,-86.45"/>
<polygon fill="midnightblue" stroke="midnightblue" points="1574.78,-89.92 1584.46,-85.6 1574.2,-82.95 1574.78,-89.92"/>
</g>
<!-- Node7 -->
<g id="node7" class="node">
<title>Node7</title>
<g id="a_node7"><a xlink:title=" ">
<polygon fill="white" stroke="#bfbfbf" points="1783.5,-6 1783.5,-25 1851.5,-25 1851.5,-6 1783.5,-6"/>
<text text-anchor="middle" x="1817.5" y="-13" font-family="Helvetica,sans-Serif" font-size="10.00">filesystem</text>
</a>
</g>
</g>
<!-- Node5&#45;&gt;Node7 -->
<g id="edge6" class="edge">
<title>Node5&#45;&gt;Node7</title>
<path fill="none" stroke="midnightblue" d="M898.68,-134.53C983.27,-116.57 1136.9,-85.49 1269.5,-67 1455.83,-41.02 1679.74,-25.13 1773.17,-19.18"/>
<polygon fill="midnightblue" stroke="midnightblue" points="1773.62,-22.66 1783.38,-18.53 1773.18,-15.67 1773.62,-22.66"/>
</g>
<!-- Node8 -->
<g id="node8" class="node">
<title>Node8</title>
<g id="a_node8"><a xlink:title=" ">
<polygon fill="white" stroke="#bfbfbf" points="304.5,-6 304.5,-25 348.5,-25 348.5,-6 304.5,-6"/>
<text text-anchor="middle" x="326.5" y="-13" font-family="Helvetica,sans-Serif" font-size="10.00">string</text>
</a>
</g>
</g>
<!-- Node5&#45;&gt;Node8 -->
<g id="edge7" class="edge">
<title>Node5&#45;&gt;Node8</title>
<path fill="none" stroke="midnightblue" d="M780.62,-134.5C674.97,-107.05 443.52,-46.91 358.58,-24.84"/>
<polygon fill="midnightblue" stroke="midnightblue" points="359.3,-21.41 348.74,-22.28 357.54,-28.18 359.3,-21.41"/>
</g>
<!-- Node9 -->
<g id="node9" class="node">
<title>Node9</title>
<g id="a_node9"><a xlink:title=" ">
<polygon fill="white" stroke="#bfbfbf" points="1278,-73 1278,-92 1343,-92 1343,-73 1278,-73"/>
<text text-anchor="middle" x="1310.5" y="-80" font-family="Helvetica,sans-Serif" font-size="10.00">functional</text>
</a>
</g>
</g>
<!-- Node5&#45;&gt;Node9 -->
<g id="edge8" class="edge">
<title>Node5&#45;&gt;Node9</title>
<path fill="none" stroke="midnightblue" d="M898.7,-139.73C997.48,-126.24 1184.09,-100.76 1267.88,-89.32"/>
<polygon fill="midnightblue" stroke="midnightblue" points="1268.38,-92.78 1277.82,-87.96 1267.43,-85.85 1268.38,-92.78"/>
</g>
<!-- Node10 -->
<g id="node10" class="node">
<title>Node10</title>
<g id="a_node10"><a xlink:title=" ">
<polygon fill="white" stroke="#bfbfbf" points="889.5,-73 889.5,-92 945.5,-92 945.5,-73 889.5,-73"/>
<text text-anchor="middle" x="917.5" y="-80" font-family="Helvetica,sans-Serif" font-size="10.00">optional</text>
</a>
</g>
</g>
<!-- Node5&#45;&gt;Node10 -->
<g id="edge9" class="edge">
<title>Node5&#45;&gt;Node10</title>
<path fill="none" stroke="midnightblue" d="M852.51,-134.4C866.09,-123.76 884.68,-109.2 898.5,-98.38"/>
<polygon fill="midnightblue" stroke="midnightblue" points="900.68,-101.12 906.4,-92.19 896.37,-95.6 900.68,-101.12"/>
</g>
<!-- Node11 -->
<g id="node11" class="node">
<title>Node11</title>
<g id="a_node11"><a xlink:title=" ">
<polygon fill="white" stroke="#bfbfbf" points="0,-6 0,-25 57,-25 57,-6 0,-6"/>
<text text-anchor="middle" x="28.5" y="-13" font-family="Helvetica,sans-Serif" font-size="10.00">ostream</text>
</a>
</g>
</g>
<!-- Node5&#45;&gt;Node11 -->
<g id="edge10" class="edge">
<title>Node5&#45;&gt;Node11</title>
<path fill="none" stroke="midnightblue" d="M770.26,-145.8C609.88,-138.77 200.6,-118.99 142.5,-98 102.91,-83.69 64.76,-51.49 44.19,-32.12"/>
<polygon fill="midnightblue" stroke="midnightblue" points="46.59,-29.58 36.96,-25.16 41.73,-34.62 46.59,-29.58"/>
</g>
<!-- Node5&#45;&gt;Node12 -->
<g id="edge12" class="edge">
<title>Node5&#45;&gt;Node12</title>
<path fill="none" stroke="midnightblue" d="M770.3,-141.76C654.78,-129.63 412.56,-104.19 289.97,-91.32"/>
<polygon fill="midnightblue" stroke="midnightblue" points="290.23,-87.83 279.92,-90.26 289.5,-94.79 290.23,-87.83"/>
</g>
<!-- Node12&#45;&gt;Node4 -->
<g id="edge17" class="edge">
<title>Node12&#45;&gt;Node4</title>
<path fill="none" stroke="midnightblue" d="M279.64,-77.05C322.14,-74.13 379.15,-70.26 429.5,-67 704.54,-49.21 1031.58,-29.5 1175.4,-20.91"/>
<polygon fill="midnightblue" stroke="midnightblue" points="1175.66,-24.4 1185.44,-20.31 1175.24,-17.41 1175.66,-24.4"/>
</g>
<!-- Node12&#45;&gt;Node7 -->
<g id="edge13" class="edge">
<title>Node12&#45;&gt;Node7</title>
<path fill="none" stroke="midnightblue" d="M279.79,-78.89C544.93,-68.13 1550.16,-27.35 1773.4,-18.29"/>
<polygon fill="midnightblue" stroke="midnightblue" points="1773.58,-21.78 1783.43,-17.88 1773.3,-14.79 1773.58,-21.78"/>
</g>
<!-- Node12&#45;&gt;Node8 -->
<g id="edge14" class="edge">
<title>Node12&#45;&gt;Node8</title>
<path fill="none" stroke="midnightblue" d="M239.59,-67.4C258.46,-56.34 284.56,-41.06 303.22,-30.13"/>
<polygon fill="midnightblue" stroke="midnightblue" points="305.11,-33.08 311.97,-25.01 301.57,-27.04 305.11,-33.08"/>
</g>
<!-- Node12&#45;&gt;Node11 -->
<g id="edge16" class="edge">
<title>Node12&#45;&gt;Node11</title>
<path fill="none" stroke="midnightblue" d="M171.98,-67.47C141.94,-57.63 101.13,-43.97 65.5,-31 63.6,-30.31 61.66,-29.59 59.7,-28.85"/>
<polygon fill="midnightblue" stroke="midnightblue" points="60.54,-25.43 49.95,-25.11 58.04,-31.96 60.54,-25.43"/>
</g>
<!-- Node13 -->
<g id="node13" class="node">
<title>Node13</title>
<g id="a_node13"><a xlink:title=" ">
<polygon fill="white" stroke="#bfbfbf" points="75,-6 75,-25 148,-25 148,-6 75,-6"/>
<text text-anchor="middle" x="111.5" y="-13" font-family="Helvetica,sans-Serif" font-size="10.00">string_view</text>
</a>
</g>
</g>
<!-- Node12&#45;&gt;Node13 -->
<g id="edge15" class="edge">
<title>Node12&#45;&gt;Node13</title>
<path fill="none" stroke="midnightblue" d="M192.93,-67.4C175.49,-56.5 151.47,-41.48 134.03,-30.58"/>
<polygon fill="midnightblue" stroke="midnightblue" points="135.45,-27.34 125.11,-25.01 131.74,-33.28 135.45,-27.34"/>
</g>
<!-- Node14&#45;&gt;Node4 -->
<g id="edge25" class="edge">
<title>Node14&#45;&gt;Node4</title>
<path fill="none" stroke="midnightblue" d="M1246.06,-335.4C1268.61,-328.37 1298.03,-316.68 1319.5,-299 1347.19,-276.2 1354.05,-266.31 1364.5,-232 1377.71,-188.65 1392.59,-125.34 1352.5,-67 1342.65,-52.66 1327.52,-42.23 1311.88,-34.71"/>
<polygon fill="midnightblue" stroke="midnightblue" points="1313.2,-31.46 1302.64,-30.6 1310.36,-37.86 1313.2,-31.46"/>
</g>
<!-- Node14&#45;&gt;Node5 -->
<g id="edge26" class="edge">
<title>Node14&#45;&gt;Node5</title>
<path fill="none" stroke="midnightblue" d="M1212.42,-335.23C1211.67,-309.93 1205.79,-236.34 1163.5,-201 1125.9,-169.57 993.71,-157.62 908.77,-153.13"/>
<polygon fill="midnightblue" stroke="midnightblue" points="908.82,-149.63 898.66,-152.62 908.47,-156.62 908.82,-149.63"/>
</g>
<!-- Node14&#45;&gt;Node6 -->
<g id="edge20" class="edge">
<title>Node14&#45;&gt;Node6</title>
<path fill="none" stroke="midnightblue" d="M1271.97,-335.46C1305.39,-328.89 1347,-317.67 1380.5,-299 1477.59,-244.9 1565.1,-140.54 1596.85,-100.09"/>
<polygon fill="midnightblue" stroke="midnightblue" points="1599.72,-102.1 1603.08,-92.06 1594.18,-97.81 1599.72,-102.1"/>
</g>
<!-- Node14&#45;&gt;Node8 -->
<g id="edge21" class="edge">
<title>Node14&#45;&gt;Node8</title>
<path fill="none" stroke="midnightblue" d="M1145.47,-342.73C1031.17,-339.76 791.51,-330.07 591.5,-299 533.23,-289.95 519.85,-281.73 462.5,-268 395.4,-251.94 354.26,-286.15 311.5,-232 299.45,-216.74 316.76,-84.83 323.78,-35.24"/>
<polygon fill="midnightblue" stroke="midnightblue" points="327.25,-35.64 325.21,-25.24 320.32,-34.64 327.25,-35.64"/>
</g>
<!-- Node14&#45;&gt;Node9 -->
<g id="edge19" class="edge">
<title>Node14&#45;&gt;Node9</title>
<path fill="none" stroke="midnightblue" d="M1230.86,-335.46C1261.76,-319.93 1323.16,-283.82 1347.5,-232 1368.51,-187.28 1339.47,-129.16 1322.01,-100.71"/>
<polygon fill="midnightblue" stroke="midnightblue" points="1324.95,-98.82 1316.62,-92.27 1319.04,-102.58 1324.95,-98.82"/>
</g>
<!-- Node15 -->
<g id="node15" class="node">
<title>Node15</title>
<g id="a_node15"><a xlink:title=" ">
<polygon fill="white" stroke="#bfbfbf" points="1107,-207 1107,-226 1154,-226 1154,-207 1107,-207"/>
<text text-anchor="middle" x="1130.5" y="-214" font-family="Helvetica,sans-Serif" font-size="10.00">vector</text>
</a>
</g>
</g>
<!-- Node14&#45;&gt;Node15 -->
<g id="edge22" class="edge">
<title>Node14&#45;&gt;Node15</title>
<path fill="none" stroke="midnightblue" d="M1206.86,-335.31C1193.46,-314.63 1159.5,-262.23 1141.73,-234.82"/>
<polygon fill="midnightblue" stroke="midnightblue" points="1144.55,-232.74 1136.18,-226.26 1138.68,-236.55 1144.55,-232.74"/>
</g>
<!-- Node16 -->
<g id="node16" class="node">
<title>Node16</title>
<g id="a_node16"><a xlink:title=" ">
<polygon fill="white" stroke="#bfbfbf" points="916.5,-207 916.5,-226 974.5,-226 974.5,-207 916.5,-207"/>
<text text-anchor="middle" x="945.5" y="-214" font-family="Helvetica,sans-Serif" font-size="10.00">memory</text>
</a>
</g>
</g>
<!-- Node14&#45;&gt;Node16 -->
<g id="edge23" class="edge">
<title>Node14&#45;&gt;Node16</title>
<path fill="none" stroke="midnightblue" d="M1145.23,-344.27C1062.42,-343 928.9,-335.2 897.5,-299 879.44,-278.18 905.7,-249.62 925.93,-232.42"/>
<polygon fill="midnightblue" stroke="midnightblue" points="928.26,-235.04 933.81,-226.01 923.85,-229.6 928.26,-235.04"/>
</g>
<!-- Node17 -->
<g id="node17" class="node">
<title>Node17</title>
<g id="a_node17"><a xlink:title=" ">
<polygon fill="white" stroke="#bfbfbf" points="845,-207 845,-226 898,-226 898,-207 845,-207"/>
<text text-anchor="middle" x="871.5" y="-214" font-family="Helvetica,sans-Serif" font-size="10.00">iterator</text>
</a>
</g>
</g>
<!-- Node14&#45;&gt;Node17 -->
<g id="edge24" class="edge">
<title>Node14&#45;&gt;Node17</title>
<path fill="none" stroke="midnightblue" d="M1145.37,-343.7C1060.91,-341.84 922.53,-333.45 886.5,-299 869.79,-283.03 868.15,-255 869.24,-236.35"/>
<polygon fill="midnightblue" stroke="midnightblue" points="872.75,-236.41 870.16,-226.13 865.78,-235.78 872.75,-236.41"/>
</g>
<!-- Node14&#45;&gt;Node18 -->
<g id="edge27" class="edge">
<title>Node14&#45;&gt;Node18</title>
<path fill="none" stroke="midnightblue" d="M1145.3,-336.7C1042.31,-325.52 846.1,-304.22 738.93,-292.58"/>
<polygon fill="midnightblue" stroke="midnightblue" points="739.16,-289.09 728.84,-291.49 738.4,-296.04 739.16,-289.09"/>
</g>
<!-- Node14&#45;&gt;Node21 -->
<g id="edge40" class="edge">
<title>Node14&#45;&gt;Node21</title>
<path fill="none" stroke="midnightblue" d="M1216.76,-335.31C1226.16,-316.13 1248.94,-269.66 1262.91,-241.15"/>
<polygon fill="midnightblue" stroke="midnightblue" points="1266.19,-242.41 1267.45,-231.89 1259.9,-239.33 1266.19,-242.41"/>
</g>
<!-- Node18&#45;&gt;Node2 -->
<g id="edge39" class="edge">
<title>Node18&#45;&gt;Node2</title>
<path fill="none" stroke="midnightblue" d="M606.46,-268.48C556.78,-256.47 486.25,-239.43 440.69,-228.42"/>
<polygon fill="midnightblue" stroke="midnightblue" points="441.34,-224.98 430.8,-226.03 439.69,-231.78 441.34,-224.98"/>
</g>
<!-- Node18&#45;&gt;Node4 -->
<g id="edge37" class="edge">
<title>Node18&#45;&gt;Node4</title>
<path fill="none" stroke="midnightblue" d="M666.2,-268.46C668.56,-251.82 673.71,-223.52 683.5,-201 721.32,-114.05 759.37,-96.43 849.5,-67 959.09,-31.21 1093.24,-20.57 1174.98,-17.53"/>
<polygon fill="midnightblue" stroke="midnightblue" points="1175.3,-21.02 1185.18,-17.18 1175.06,-14.03 1175.3,-21.02"/>
</g>
<!-- Node18&#45;&gt;Node5 -->
<g id="edge38" class="edge">
<title>Node18&#45;&gt;Node5</title>
<path fill="none" stroke="midnightblue" d="M681.24,-268.35C700.91,-251.84 734.65,-223.9 764.5,-201 777.93,-190.7 793.13,-179.66 805.93,-170.54"/>
<polygon fill="midnightblue" stroke="midnightblue" points="808.23,-173.2 814.36,-164.56 804.18,-167.49 808.23,-173.2"/>
</g>
<!-- Node18&#45;&gt;Node8 -->
<g id="edge29" class="edge">
<title>Node18&#45;&gt;Node8</title>
<path fill="none" stroke="midnightblue" d="M600.26,-275.02C505.22,-263.64 337.3,-242.23 328.5,-232 279.82,-175.45 380.79,-138.51 359.5,-67 355.79,-54.52 347.9,-42.26 340.77,-32.94"/>
<polygon fill="midnightblue" stroke="midnightblue" points="343.34,-30.56 334.32,-25 337.91,-34.97 343.34,-30.56"/>
</g>
<!-- Node18&#45;&gt;Node9 -->
<g id="edge32" class="edge">
<title>Node18&#45;&gt;Node9</title>
<path fill="none" stroke="midnightblue" d="M690.04,-268.41C723.04,-250.68 782.66,-220.21 836.5,-201 991.53,-145.68 1184.05,-106.69 1268.02,-91.07"/>
<polygon fill="midnightblue" stroke="midnightblue" points="1268.75,-94.5 1277.95,-89.24 1267.48,-87.61 1268.75,-94.5"/>
</g>
<!-- Node18&#45;&gt;Node10 -->
<g id="edge33" class="edge">
<title>Node18&#45;&gt;Node10</title>
<path fill="none" stroke="midnightblue" d="M669.9,-268.34C681.84,-238.92 713.3,-170.84 761.5,-134 796.24,-107.45 845.46,-94.58 879.27,-88.53"/>
<polygon fill="midnightblue" stroke="midnightblue" points="879.95,-91.96 889.23,-86.86 878.79,-85.06 879.95,-91.96"/>
</g>
<!-- Node18&#45;&gt;Node13 -->
<g id="edge30" class="edge">
<title>Node18&#45;&gt;Node13</title>
<path fill="none" stroke="midnightblue" d="M600.33,-275.16C505.8,-264.07 337.45,-243.16 311.5,-232 223.44,-194.12 199.12,-175.35 142.5,-98 128.49,-78.86 120.02,-52.62 115.55,-35.14"/>
<polygon fill="midnightblue" stroke="midnightblue" points="118.88,-34.01 113.18,-25.08 112.07,-35.62 118.88,-34.01"/>
</g>
<!-- Node18&#45;&gt;Node15 -->
<g id="edge31" class="edge">
<title>Node18&#45;&gt;Node15</title>
<path fill="none" stroke="midnightblue" d="M728.81,-273.53C829.2,-259.53 1019.65,-232.96 1096.79,-222.2"/>
<polygon fill="midnightblue" stroke="midnightblue" points="1097.48,-225.64 1106.9,-220.79 1096.52,-218.71 1097.48,-225.64"/>
</g>
<!-- Node18&#45;&gt;Node16 -->
<g id="edge35" class="edge">
<title>Node18&#45;&gt;Node16</title>
<path fill="none" stroke="midnightblue" d="M728.63,-272.06C778.02,-263.32 847.74,-249.49 907.5,-232 910.08,-231.25 912.73,-230.39 915.38,-229.49"/>
<polygon fill="midnightblue" stroke="midnightblue" points="916.59,-232.78 924.8,-226.08 914.2,-226.2 916.59,-232.78"/>
</g>
<!-- Node18&#45;&gt;Node17 -->
<g id="edge36" class="edge">
<title>Node18&#45;&gt;Node17</title>
<path fill="none" stroke="midnightblue" d="M712.62,-268.48C745.86,-258.64 791.01,-244.98 830.5,-232 832.95,-231.2 835.47,-230.35 838.01,-229.48"/>
<polygon fill="midnightblue" stroke="midnightblue" points="839.41,-232.7 847.71,-226.11 837.12,-226.09 839.41,-232.7"/>
</g>
<!-- Node19 -->
<g id="node19" class="node">
<title>Node19</title>
<g id="a_node19"><a xlink:title=" ">
<polygon fill="white" stroke="#bfbfbf" points="510,-207 510,-226 563,-226 563,-207 510,-207"/>
<text text-anchor="middle" x="536.5" y="-214" font-family="Helvetica,sans-Serif" font-size="10.00">cstddef</text>
</a>
</g>
</g>
<!-- Node18&#45;&gt;Node19 -->
<g id="edge28" class="edge">
<title>Node18&#45;&gt;Node19</title>
<path fill="none" stroke="midnightblue" d="M636.73,-268.4C614.56,-257.14 583.76,-241.5 562.17,-230.54"/>
<polygon fill="midnightblue" stroke="midnightblue" points="563.75,-227.41 553.25,-226.01 560.58,-233.66 563.75,-227.41"/>
</g>
<!-- Node20 -->
<g id="node20" class="node">
<title>Node20</title>
<g id="a_node20"><a xlink:title=" ">
<polygon fill="white" stroke="#bfbfbf" points="581,-207 581,-226 636,-226 636,-207 581,-207"/>
<text text-anchor="middle" x="608.5" y="-214" font-family="Helvetica,sans-Serif" font-size="10.00">fstream</text>
</a>
</g>
</g>
<!-- Node18&#45;&gt;Node20 -->
<g id="edge34" class="edge">
<title>Node18&#45;&gt;Node20</title>
<path fill="none" stroke="midnightblue" d="M652.35,-268.4C643.62,-258.26 631.82,-244.57 622.66,-233.94"/>
<polygon fill="midnightblue" stroke="midnightblue" points="625.17,-231.49 615.99,-226.19 619.87,-236.06 625.17,-231.49"/>
</g>
<!-- Node21&#45;&gt;Node4 -->
<g id="edge43" class="edge">
<title>Node21&#45;&gt;Node4</title>
<path fill="none" stroke="midnightblue" d="M1272.7,-201.19C1268.47,-167.48 1257.83,-82.8 1252.56,-40.84"/>
<polygon fill="midnightblue" stroke="midnightblue" points="1256,-40.17 1251.28,-30.68 1249.06,-41.04 1256,-40.17"/>
</g>
<!-- Node21&#45;&gt;Node5 -->
<g id="edge44" class="edge">
<title>Node21&#45;&gt;Node5</title>
<path fill="none" stroke="midnightblue" d="M1210.27,-203.32C1205.61,-202.51 1200.99,-201.73 1196.5,-201 1097.2,-184.85 982.05,-169.34 908.77,-159.86"/>
<polygon fill="midnightblue" stroke="midnightblue" points="909.08,-156.37 898.72,-158.57 908.19,-163.32 909.08,-156.37"/>
</g>
<!-- Node21&#45;&gt;Node9 -->
<g id="edge41" class="edge">
<title>Node21&#45;&gt;Node9</title>
<path fill="none" stroke="midnightblue" d="M1278.35,-201.37C1284.89,-177.4 1298.16,-128.75 1305.44,-102.06"/>
<polygon fill="midnightblue" stroke="midnightblue" points="1308.9,-102.67 1308.16,-92.1 1302.15,-100.82 1308.9,-102.67"/>
</g>
<!-- Node21&#45;&gt;Node10 -->
<g id="edge42" class="edge">
<title>Node21&#45;&gt;Node10</title>
<path fill="none" stroke="midnightblue" d="M1236.63,-201.5C1166.31,-175.5 1016.68,-120.17 950.34,-95.64"/>
<polygon fill="midnightblue" stroke="midnightblue" points="951.4,-92.3 940.81,-92.12 948.97,-98.87 951.4,-92.3"/>
</g>
<!-- Node22&#45;&gt;Node4 -->
<g id="edge50" class="edge">
<title>Node22&#45;&gt;Node4</title>
<path fill="none" stroke="midnightblue" d="M481.5,-335.41C481.5,-314.98 481.5,-261.86 481.5,-217.5 481.5,-217.5 481.5,-217.5 481.5,-148.5 481.5,-78.56 982.67,-35.48 1175.3,-21.5"/>
<polygon fill="midnightblue" stroke="midnightblue" points="1175.62,-24.99 1185.34,-20.78 1175.12,-18.01 1175.62,-24.99"/>
</g>
<!-- Node22&#45;&gt;Node8 -->
<g id="edge47" class="edge">
<title>Node22&#45;&gt;Node8</title>
<path fill="none" stroke="midnightblue" d="M411.66,-335.45C349.44,-323.73 261.87,-296.2 219.5,-232 195.51,-195.65 196.92,-171.25 219.5,-134 237.43,-104.42 264.59,-123 288.5,-98 305.66,-80.06 316.16,-52.97 321.66,-35.01"/>
<polygon fill="midnightblue" stroke="midnightblue" points="325.09,-35.75 324.45,-25.17 318.35,-33.84 325.09,-35.75"/>
</g>
<!-- Node22&#45;&gt;Node13 -->
<g id="edge46" class="edge">
<title>Node22&#45;&gt;Node13</title>
<path fill="none" stroke="midnightblue" d="M397.74,-342.4C351.27,-338.07 294.22,-326.77 250.5,-299 213.88,-275.74 128.72,-115.95 122.5,-98 115.36,-77.39 112.83,-52.36 111.94,-35.52"/>
<polygon fill="midnightblue" stroke="midnightblue" points="115.43,-35.19 111.56,-25.33 108.44,-35.45 115.43,-35.19"/>
</g>
<!-- Node22&#45;&gt;Node15 -->
<g id="edge49" class="edge">
<title>Node22&#45;&gt;Node15</title>
<path fill="none" stroke="midnightblue" d="M565.09,-344.01C700.25,-342.92 960.08,-335.89 1043.5,-299 1075.53,-284.84 1103.22,-253.79 1118.32,-234.37"/>
<polygon fill="midnightblue" stroke="midnightblue" points="1121.31,-236.23 1124.52,-226.13 1115.71,-232.02 1121.31,-236.23"/>
</g>
<!-- Node22&#45;&gt;Node18 -->
<g id="edge55" class="edge">
<title>Node22&#45;&gt;Node18</title>
<path fill="none" stroke="midnightblue" d="M507.72,-335.48C534.7,-326.7 577.5,-312.79 611.56,-301.71"/>
<polygon fill="midnightblue" stroke="midnightblue" points="612.94,-304.94 621.37,-298.52 610.78,-298.29 612.94,-304.94"/>
</g>
<!-- Node23 -->
<g id="node23" class="node">
<title>Node23</title>
<g id="a_node23"><a xlink:title=" ">
<polygon fill="white" stroke="#bfbfbf" points="403.5,-274 403.5,-293 453.5,-293 453.5,-274 403.5,-274"/>
<text text-anchor="middle" x="428.5" y="-281" font-family="Helvetica,sans-Serif" font-size="10.00">atomic</text>
</a>
</g>
</g>
<!-- Node22&#45;&gt;Node23 -->
<g id="edge48" class="edge">
<title>Node22&#45;&gt;Node23</title>
<path fill="none" stroke="midnightblue" d="M473.91,-335.48C465.8,-326.37 452.77,-311.74 442.74,-300.48"/>
<polygon fill="midnightblue" stroke="midnightblue" points="445.34,-298.15 436.08,-293.01 440.12,-302.8 445.34,-298.15"/>
</g>
<!-- Node22&#45;&gt;Node24 -->
<g id="edge51" class="edge">
<title>Node22&#45;&gt;Node24</title>
<path fill="none" stroke="midnightblue" d="M551.56,-335.48C643.16,-324.33 802.93,-304.89 896.46,-293.51"/>
<polygon fill="midnightblue" stroke="midnightblue" points="896.9,-296.98 906.41,-292.3 896.06,-290.03 896.9,-296.98"/>
</g>
<!-- Node24&#45;&gt;Node4 -->
<g id="edge53" class="edge">
<title>Node24&#45;&gt;Node4</title>
<path fill="none" stroke="midnightblue" d="M985.5,-268.2C1031.78,-224.07 1172.52,-89.9 1227.32,-37.64"/>
<polygon fill="midnightblue" stroke="midnightblue" points="1229.94,-39.98 1234.76,-30.55 1225.11,-34.92 1229.94,-39.98"/>
</g>
<!-- Node24&#45;&gt;Node5 -->
<g id="edge54" class="edge">
<title>Node24&#45;&gt;Node5</title>
<path fill="none" stroke="midnightblue" d="M978.42,-268.4C987.06,-250.93 997.86,-221.03 983.5,-201 974.02,-187.77 941.07,-175.92 908.57,-167.02"/>
<polygon fill="midnightblue" stroke="midnightblue" points="909.08,-163.54 898.52,-164.36 907.29,-170.3 909.08,-163.54"/>
</g>
<!-- Node24&#45;&gt;Node16 -->
<g id="edge52" class="edge">
<title>Node24&#45;&gt;Node16</title>
<path fill="none" stroke="midnightblue" d="M965.08,-268.4C961.37,-258.76 956.43,-245.91 952.44,-235.54"/>
<polygon fill="midnightblue" stroke="midnightblue" points="955.7,-234.27 948.84,-226.19 949.17,-236.78 955.7,-234.27"/>
</g>
<!-- Node25&#45;&gt;Node4 -->
<g id="edge61" class="edge">
<title>Node25&#45;&gt;Node4</title>
<path fill="none" stroke="midnightblue" d="M1764.42,-139.98C1742.85,-130.88 1708.74,-115.39 1681.5,-98 1663.13,-86.27 1663.53,-75.61 1643.5,-67 1587.58,-42.97 1421.48,-28.07 1323.71,-21.13"/>
<polygon fill="midnightblue" stroke="midnightblue" points="1323.81,-17.63 1313.59,-20.43 1323.32,-24.62 1323.81,-17.63"/>
</g>
<!-- Node25&#45;&gt;Node6 -->
<g id="edge62" class="edge">
<title>Node25&#45;&gt;Node6</title>
<path fill="none" stroke="midnightblue" d="M1762.22,-139.94C1734.96,-129.91 1688.44,-112.79 1648.5,-98 1646.41,-97.23 1644.25,-96.43 1642.08,-95.62"/>
<polygon fill="midnightblue" stroke="midnightblue" points="1643.19,-92.3 1632.59,-92.1 1640.75,-98.86 1643.19,-92.3"/>
</g>
<!-- Node25&#45;&gt;Node7 -->
<g id="edge63" class="edge">
<title>Node25&#45;&gt;Node7</title>
<path fill="none" stroke="midnightblue" d="M1823.18,-139.99C1845.48,-132.8 1871.94,-120.03 1885.5,-98 1892.72,-86.27 1891.69,-79.31 1885.5,-67 1877.32,-50.73 1861.13,-38.38 1846.61,-29.97"/>
<polygon fill="midnightblue" stroke="midnightblue" points="1847.86,-26.67 1837.4,-25.01 1844.54,-32.83 1847.86,-26.67"/>
</g>
<!-- Node26 -->
<g id="node26" class="node">
<title>Node26</title>
<g id="a_node26"><a xlink:title=" ">
<polygon fill="white" stroke="#bfbfbf" points="1690.5,-73 1690.5,-92 1740.5,-92 1740.5,-73 1690.5,-73"/>
<text text-anchor="middle" x="1715.5" y="-80" font-family="Helvetica,sans-Serif" font-size="10.00">climits</text>
</a>
</g>
</g>
<!-- Node25&#45;&gt;Node26 -->
<g id="edge60" class="edge">
<title>Node25&#45;&gt;Node26</title>
<path fill="none" stroke="midnightblue" d="M1776.06,-139.73C1764.83,-129.31 1745.88,-111.71 1732.16,-98.97"/>
<polygon fill="midnightblue" stroke="midnightblue" points="1734.5,-96.37 1724.79,-92.13 1729.74,-101.5 1734.5,-96.37"/>
</g>
<!-- Node27&#45;&gt;Node4 -->
<g id="edge66" class="edge">
<title>Node27&#45;&gt;Node4</title>
<path fill="none" stroke="midnightblue" d="M1780.93,-72.93C1770.8,-70.77 1759.76,-68.61 1749.5,-67 1599.23,-43.46 1421.76,-28.56 1323.81,-21.45"/>
<polygon fill="midnightblue" stroke="midnightblue" points="1323.94,-17.95 1313.72,-20.73 1323.44,-24.94 1323.94,-17.95"/>
</g>
<!-- Node27&#45;&gt;Node7 -->
<g id="edge65" class="edge">
<title>Node27&#45;&gt;Node7</title>
<path fill="none" stroke="midnightblue" d="M1817.5,-72.73C1817.5,-63.18 1817.5,-47.62 1817.5,-35.28"/>
<polygon fill="midnightblue" stroke="midnightblue" points="1821,-35.13 1817.5,-25.13 1814,-35.13 1821,-35.13"/>
</g>
<!-- Node28&#45;&gt;Node4 -->
<g id="edge70" class="edge">
<title>Node28&#45;&gt;Node4</title>
<path fill="none" stroke="midnightblue" d="M1591.74,-335.44C1596.72,-297.55 1611.3,-143.48 1532.5,-67 1503.43,-38.78 1397.4,-26.04 1323.72,-20.5"/>
<polygon fill="midnightblue" stroke="midnightblue" points="1323.78,-17 1313.55,-19.77 1323.27,-23.98 1323.78,-17"/>
</g>
<!-- Node28&#45;&gt;Node9 -->
<g id="edge69" class="edge">
<title>Node28&#45;&gt;Node9</title>
<path fill="none" stroke="midnightblue" d="M1581.18,-335.33C1540.74,-297.71 1380.07,-148.22 1327.35,-99.18"/>
<polygon fill="midnightblue" stroke="midnightblue" points="1329.56,-96.45 1319.85,-92.2 1324.79,-101.57 1329.56,-96.45"/>
</g>
<!-- Node28&#45;&gt;Node24 -->
<g id="edge71" class="edge">
<title>Node28&#45;&gt;Node24</title>
<path fill="none" stroke="midnightblue" d="M1508.49,-336.13C1387.25,-324.49 1161.97,-302.87 1045.13,-291.66"/>
<polygon fill="midnightblue" stroke="midnightblue" points="1045.14,-288.15 1034.85,-290.68 1044.47,-295.11 1045.14,-288.15"/>
</g>
<!-- Node29&#45;&gt;Node4 -->
<g id="edge74" class="edge">
<title>Node29&#45;&gt;Node4</title>
<path fill="none" stroke="midnightblue" d="M1378.32,-391.5C1417.98,-368.89 1518.5,-303.16 1518.5,-217.5 1518.5,-217.5 1518.5,-217.5 1518.5,-148.5 1518.5,-110.74 1522.29,-92.57 1494.5,-67 1469.94,-44.4 1386.56,-30.74 1323.84,-23.42"/>
<polygon fill="midnightblue" stroke="midnightblue" points="1323.91,-19.91 1313.58,-22.26 1323.12,-26.86 1323.91,-19.91"/>
</g>
<!-- Node29&#45;&gt;Node14 -->
<g id="edge75" class="edge">
<title>Node29&#45;&gt;Node14</title>
<path fill="none" stroke="midnightblue" d="M1338.73,-391.44C1313.61,-382.4 1273.79,-368.06 1245.6,-357.92"/>
<polygon fill="midnightblue" stroke="midnightblue" points="1246.75,-354.61 1236.16,-354.52 1244.38,-361.2 1246.75,-354.61"/>
</g>
<!-- Node29&#45;&gt;Node15 -->
<g id="edge73" class="edge">
<title>Node29&#45;&gt;Node15</title>
<path fill="none" stroke="midnightblue" d="M1353.13,-391.33C1339.29,-378.63 1312.43,-354.36 1288.5,-335 1240.57,-296.23 1181.76,-253.77 1151.18,-232.06"/>
<polygon fill="midnightblue" stroke="midnightblue" points="1152.83,-228.94 1142.64,-226.02 1148.78,-234.65 1152.83,-228.94"/>
</g>
<!-- Node30&#45;&gt;Node4 -->
<g id="edge84" class="edge">
<title>Node30&#45;&gt;Node4</title>
<path fill="none" stroke="midnightblue" d="M1136.13,-447.4C1182.14,-428 1290.29,-376.42 1348.5,-299 1368.57,-272.31 1372.58,-263.89 1382.5,-232 1404.31,-161.89 1422.78,-122.31 1374.5,-67 1361.07,-51.61 1342.27,-40.85 1323.33,-33.34"/>
<polygon fill="midnightblue" stroke="midnightblue" points="1324.33,-29.98 1313.74,-29.81 1321.91,-36.55 1324.33,-29.98"/>
</g>
<!-- Node30&#45;&gt;Node6 -->
<g id="edge79" class="edge">
<title>Node30&#45;&gt;Node6</title>
<path fill="none" stroke="midnightblue" d="M1178.61,-450.64C1330.66,-437.06 1700.5,-398.63 1700.5,-346 1700.5,-346 1700.5,-346 1700.5,-215.5 1700.5,-165.77 1656.18,-121.16 1629.4,-98.75"/>
<polygon fill="midnightblue" stroke="midnightblue" points="1631.37,-95.84 1621.4,-92.27 1626.97,-101.28 1631.37,-95.84"/>
</g>
<!-- Node30&#45;&gt;Node7 -->
<g id="edge80" class="edge">
<title>Node30&#45;&gt;Node7</title>
<path fill="none" stroke="midnightblue" d="M1178.87,-455.23C1268.04,-452.92 1433.63,-444.06 1570.5,-411 1636.45,-395.07 1658.75,-396.39 1712.5,-355 1824.84,-268.5 1857.3,-232.72 1901.5,-98 1905.8,-84.91 1908.28,-78.99 1901.5,-67 1891.46,-49.25 1872.42,-37.06 1855,-29.1"/>
<polygon fill="midnightblue" stroke="midnightblue" points="1856.13,-25.78 1845.56,-25.11 1853.41,-32.23 1856.13,-25.78"/>
</g>
<!-- Node30&#45;&gt;Node8 -->
<g id="edge78" class="edge">
<title>Node30&#45;&gt;Node8</title>
<path fill="none" stroke="midnightblue" d="M1050.42,-451.68C872.66,-438.58 378.09,-394.24 250.5,-299 159.36,-230.97 73.54,-157.44 142.5,-67 160.85,-42.94 246.71,-27.5 294.38,-20.63"/>
<polygon fill="midnightblue" stroke="midnightblue" points="295.08,-24.07 304.5,-19.22 294.11,-17.14 295.08,-24.07"/>
</g>
<!-- Node30&#45;&gt;Node10 -->
<g id="edge82" class="edge">
<title>Node30&#45;&gt;Node10</title>
<path fill="none" stroke="midnightblue" d="M1111.99,-447.49C1103.87,-420.45 1076.88,-334.39 1043.5,-268 1027.61,-236.39 1020.27,-230.35 1000.5,-201 976.1,-164.77 946.3,-123.2 929.86,-100.5"/>
<polygon fill="midnightblue" stroke="midnightblue" points="932.59,-98.29 923.88,-92.25 926.92,-102.4 932.59,-98.29"/>
</g>
<!-- Node30&#45;&gt;Node11 -->
<g id="edge83" class="edge">
<title>Node30&#45;&gt;Node11</title>
<path fill="none" stroke="midnightblue" d="M1050.37,-454.52C943.84,-451.28 723.95,-441.21 540.5,-411 440.52,-394.54 414.48,-390.31 319.5,-355 229.02,-321.37 197.55,-309.86 140.5,-232 91.3,-164.85 51.37,-73.1 35.68,-34.63"/>
<polygon fill="midnightblue" stroke="midnightblue" points="38.89,-33.23 31.91,-25.26 32.39,-35.84 38.89,-33.23"/>
</g>
<!-- Node30&#45;&gt;Node15 -->
<g id="edge81" class="edge">
<title>Node30&#45;&gt;Node15</title>
<path fill="none" stroke="midnightblue" d="M1115.09,-447.23C1117.42,-412.53 1126.01,-284.39 1129.25,-236.09"/>
<polygon fill="midnightblue" stroke="midnightblue" points="1132.75,-236.31 1129.92,-226.1 1125.76,-235.84 1132.75,-236.31"/>
</g>
<!-- Node30&#45;&gt;Node29 -->
<g id="edge85" class="edge">
<title>Node30&#45;&gt;Node29</title>
<path fill="none" stroke="midnightblue" d="M1153.8,-447.44C1197.06,-438.02 1266.67,-422.87 1313.47,-412.68"/>
<polygon fill="midnightblue" stroke="midnightblue" points="1314.36,-416.06 1323.39,-410.52 1312.87,-409.22 1314.36,-416.06"/>
</g>
</g>
</svg>
        <g id="navigator" transform="translate(0 0)" fill="#404254">
                <rect fill="#f2f5e9" fill-opacity="0.5" stroke="#606060" stroke-width=".5" x="0" y="0" width="60" height="60"/>
                <use id="zoomplus" xlink:href="#zoomPlus" x="17" y="9" onmousedown="handleZoom(evt,'in')"/>
                <use id="zoomminus" xlink:href="#zoomMin" x="42" y="9" onmousedown="handleZoom(evt,'out')"/>
                <use id="reset" xlink:href="#resetDef" x="30" y="36" onmousedown="handleReset()"/>
                <g id="arrowUp" xlink:href="#dirArrow" transform="translate(30 24)" onmousedown="handlePan(0,-1)">
                  <use xlink:href="#rim" fill="#404040">
                        <set attributeName="fill" to="#808080" begin="arrowUp.mouseover" end="arrowUp.mouseout"/>
                  </use>
                  <path fill="none" stroke="white" stroke-width="1.5" d="M0,-3.0v7 M-2.5,-0.5L0,-3.0L2.5,-0.5"/>
                </g>
                <g id="arrowRight" xlink:href="#dirArrow" transform="rotate(90) translate(36 -43)" onmousedown="handlePan(1,0)">
                  <use xlink:href="#rim" fill="#404040">
                        <set attributeName="fill" to="#808080" begin="arrowRight.mouseover" end="arrowRight.mouseout"/>
                  </use>
                  <path fill="none" stroke="white" stroke-width="1.5" d="M0,-3.0v7 M-2.5,-0.5L0,-3.0L2.5,-0.5"/>
                </g>
                <g id="arrowDown" xlink:href="#dirArrow" transform="rotate(180) translate(-30 -48)" onmousedown="handlePan(0,1)">
                  <use xlink:href="#rim" fill="#404040">
                        <set attributeName="fill" to="#808080" begin="arrowDown.mouseover" end="arrowDown.mouseout"/>
                  </use>
                  <path fill="none" stroke="white" stroke-width="1.5" d="M0,-3.0v7 M-2.5,-0.5L0,-3.0L2.5,-0.5"/>
                </g>
                <g id="arrowLeft" xlink:href="#dirArrow" transform="rotate(270) translate(-36 17)" onmousedown="handlePan(-1,0)">
                  <use xlink:href="#rim" fill="#404040">
                        <set attributeName="fill" to="#808080" begin="arrowLeft.mouseover" end="arrowLeft.mouseout"/>
                  </use>
                  <path fill="none" stroke="white" stroke-width="1.5" d="M0,-3.0v7 M-2.5,-0.5L0,-3.0L2.5,-0.5"/>
                </g>
        </g>
        <svg viewBox="0 0 15 15" width="100%" height="30px" preserveAspectRatio="xMaxYMin meet">
         <g id="arrow_out" transform="scale(0.3 0.3)">
          <a xlink:href="lfilesystem_8h__incl_org.svg" target="_base">
           <rect id="button" ry="5" rx="5" y="6" x="6" height="38" width="38"
                fill="#f2f5e9" fill-opacity="0.5" stroke="#606060" stroke-width="1.0"/>
           <path id="arrow"
             d="M 11.500037,31.436501 C 11.940474,20.09759 22.043105,11.32322 32.158766,21.979434 L 37.068811,17.246167 C 37.068811,17.246167 37.088388,32 37.088388,32 L 22.160133,31.978069 C 22.160133,31.978069 26.997745,27.140456 26.997745,27.140456 C 18.528582,18.264221 13.291696,25.230495 11.500037,31.436501 z"
             style="fill:#404040;"/>
          </a>
         </g>
        </svg>
</svg>
