<?xml version="1.0" encoding="UTF-8" standalone="no"?>
<!DOCTYPE svg PUBLIC "-//W3C//DTD SVG 1.1//EN"
 "http://www.w3.org/Graphics/SVG/1.1/DTD/svg11.dtd">
<!-- Generated by graphviz version 2.43.0 (0)
 -->
<!-- Title: lfilesystem_FilesystemEntry.h Pages: 1 -->
<svg width="514pt" height="162pt"
 viewBox="0.00 0.00 514.00 162.00" xmlns="http://www.w3.org/2000/svg" xmlns:xlink="http://www.w3.org/1999/xlink">
<g id="graph0" class="graph" transform="scale(1 1) rotate(0) translate(4 158)">
<title>lfilesystem_FilesystemEntry.h</title>
<polygon fill="white" stroke="transparent" points="-4,4 -4,-158 510,-158 510,4 -4,4"/>
<!-- Node1 -->
<g id="node1" class="node">
<title>Node1</title>
<g id="a_node1"><a xlink:title="This file defines the FilesystemEntry class.">
<polygon fill="#bfbfbf" stroke="black" points="173,-134.5 173,-153.5 335,-153.5 335,-134.5 173,-134.5"/>
<text text-anchor="middle" x="254" y="-141.5" font-family="Helvetica,sans-Serif" font-size="10.00">lfilesystem_FilesystemEntry.h</text>
</a>
</g>
</g>
<!-- Node2 -->
<g id="node2" class="node">
<title>Node2</title>
<g id="a_node2"><a xlink:title=" ">
<polygon fill="white" stroke="#bfbfbf" points="0,-73 0,-92 50,-92 50,-73 0,-73"/>
<text text-anchor="middle" x="25" y="-80" font-family="Helvetica,sans-Serif" font-size="10.00">cstdint</text>
</a>
</g>
</g>
<!-- Node1&#45;&gt;Node2 -->
<g id="edge1" class="edge">
<title>Node1&#45;&gt;Node2</title>
<path fill="none" stroke="midnightblue" d="M211.34,-134.47C172.57,-126.35 113.96,-113.14 64,-98 61.43,-97.22 58.79,-96.36 56.14,-95.47"/>
<polygon fill="midnightblue" stroke="midnightblue" points="57.3,-92.16 46.7,-92.11 54.95,-98.76 57.3,-92.16"/>
</g>
<!-- Node3 -->
<g id="node3" class="node">
<title>Node3</title>
<g id="a_node3"><a xlink:title=" ">
<polygon fill="white" stroke="#bfbfbf" points="23,-6 23,-25 91,-25 91,-6 23,-6"/>
<text text-anchor="middle" x="57" y="-13" font-family="Helvetica,sans-Serif" font-size="10.00">filesystem</text>
</a>
</g>
</g>
<!-- Node1&#45;&gt;Node3 -->
<g id="edge2" class="edge">
<title>Node1&#45;&gt;Node3</title>
<path fill="none" stroke="midnightblue" d="M208.48,-134.48C181.29,-127.79 147.07,-116.44 121,-98 96.97,-81 77.52,-52.45 66.6,-34.05"/>
<polygon fill="midnightblue" stroke="midnightblue" points="69.57,-32.18 61.57,-25.23 63.49,-35.65 69.57,-32.18"/>
</g>
<!-- Node4 -->
<g id="node4" class="node">
<title>Node4</title>
<g id="a_node4"><a xlink:title=" ">
<polygon fill="white" stroke="#bfbfbf" points="109,-6 109,-25 153,-25 153,-6 109,-6"/>
<text text-anchor="middle" x="131" y="-13" font-family="Helvetica,sans-Serif" font-size="10.00">string</text>
</a>
</g>
</g>
<!-- Node1&#45;&gt;Node4 -->
<g id="edge3" class="edge">
<title>Node1&#45;&gt;Node4</title>
<path fill="none" stroke="midnightblue" d="M194.12,-134.43C171.98,-128.1 148.91,-117.11 135,-98 121.81,-79.87 123.4,-53.01 126.53,-35.15"/>
<polygon fill="midnightblue" stroke="midnightblue" points="130.01,-35.61 128.62,-25.11 123.16,-34.19 130.01,-35.61"/>
</g>
<!-- Node5 -->
<g id="node5" class="node">
<title>Node5</title>
<g id="a_node5"><a xlink:title=" ">
<polygon fill="white" stroke="#bfbfbf" points="366.5,-73 366.5,-92 431.5,-92 431.5,-73 366.5,-73"/>
<text text-anchor="middle" x="399" y="-80" font-family="Helvetica,sans-Serif" font-size="10.00">functional</text>
</a>
</g>
</g>
<!-- Node1&#45;&gt;Node5 -->
<g id="edge4" class="edge">
<title>Node1&#45;&gt;Node5</title>
<path fill="none" stroke="midnightblue" d="M274.77,-134.48C299.43,-124.36 340.75,-107.4 368.9,-95.85"/>
<polygon fill="midnightblue" stroke="midnightblue" points="370.34,-99.04 378.26,-92.01 367.68,-92.57 370.34,-99.04"/>
</g>
<!-- Node6 -->
<g id="node6" class="node">
<title>Node6</title>
<g id="a_node6"><a xlink:title=" ">
<polygon fill="white" stroke="#bfbfbf" points="450,-73 450,-92 506,-92 506,-73 450,-73"/>
<text text-anchor="middle" x="478" y="-80" font-family="Helvetica,sans-Serif" font-size="10.00">optional</text>
</a>
</g>
</g>
<!-- Node1&#45;&gt;Node6 -->
<g id="edge5" class="edge">
<title>Node1&#45;&gt;Node6</title>
<path fill="none" stroke="midnightblue" d="M296.79,-134.45C334.99,-126.41 392.27,-113.33 441,-98 443.28,-97.28 445.61,-96.5 447.95,-95.67"/>
<polygon fill="midnightblue" stroke="midnightblue" points="449.29,-98.91 457.44,-92.14 446.84,-92.35 449.29,-98.91"/>
</g>
<!-- Node7 -->
<g id="node7" class="node">
<title>Node7</title>
<g id="a_node7"><a xlink:title=" ">
<polygon fill="white" stroke="#bfbfbf" points="262.5,-6 262.5,-25 319.5,-25 319.5,-6 262.5,-6"/>
<text text-anchor="middle" x="291" y="-13" font-family="Helvetica,sans-Serif" font-size="10.00">ostream</text>
</a>
</g>
</g>
<!-- Node1&#45;&gt;Node7 -->
<g id="edge6" class="edge">
<title>Node1&#45;&gt;Node7</title>
<path fill="none" stroke="midnightblue" d="M260.78,-134.25C267.13,-125.56 276.32,-111.61 281,-98 288.08,-77.41 290.27,-52.37 290.89,-35.53"/>
<polygon fill="midnightblue" stroke="midnightblue" points="294.39,-35.4 291.1,-25.33 287.39,-35.26 294.39,-35.4"/>
</g>
<!-- Node8 -->
<g id="node8" class="node">
<title>Node8</title>
<g id="a_node8"><a xlink:title=" ">
<polygon fill="white" stroke="#bfbfbf" points="338,-0.5 338,-30.5 466,-30.5 466,-0.5 338,-0.5"/>
<text text-anchor="start" x="346" y="-18.5" font-family="Helvetica,sans-Serif" font-size="10.00">lfilesystem/lfilesystem</text>
<text text-anchor="middle" x="402" y="-7.5" font-family="Helvetica,sans-Serif" font-size="10.00">_Export.h</text>
</a>
</g>
</g>
<!-- Node1&#45;&gt;Node8 -->
<g id="edge7" class="edge">
<title>Node1&#45;&gt;Node8</title>
<path fill="none" stroke="midnightblue" d="M264.17,-134.31C287.29,-114.54 344.33,-65.79 377.33,-37.59"/>
<polygon fill="midnightblue" stroke="midnightblue" points="379.84,-40.05 385.17,-30.89 375.29,-34.72 379.84,-40.05"/>
</g>
<!-- Node9 -->
<g id="node9" class="node">
<title>Node9</title>
<g id="a_node9"><a xlink:href="lfilesystem__Permissions_8h.html" target="_top" xlink:title="This file defines the Permissions class.">
<polygon fill="white" stroke="black" points="144,-67.5 144,-97.5 272,-97.5 272,-67.5 144,-67.5"/>
<text text-anchor="start" x="152" y="-85.5" font-family="Helvetica,sans-Serif" font-size="10.00">lfilesystem/lfilesystem</text>
<text text-anchor="middle" x="208" y="-74.5" font-family="Helvetica,sans-Serif" font-size="10.00">_Permissions.h</text>
</a>
</g>
</g>
<!-- Node1&#45;&gt;Node9 -->
<g id="edge8" class="edge">
<title>Node1&#45;&gt;Node9</title>
<path fill="none" stroke="midnightblue" d="M247.41,-134.48C241.59,-126.94 232.84,-115.63 225.06,-105.57"/>
<polygon fill="midnightblue" stroke="midnightblue" points="227.73,-103.29 218.84,-97.52 222.19,-107.58 227.73,-103.29"/>
</g>
<!-- Node9&#45;&gt;Node3 -->
<g id="edge9" class="edge">
<title>Node9&#45;&gt;Node3</title>
<path fill="none" stroke="midnightblue" d="M175.24,-67.4C148.74,-55.99 111.78,-40.08 86.27,-29.1"/>
<polygon fill="midnightblue" stroke="midnightblue" points="87.33,-25.75 76.76,-25.01 84.56,-32.18 87.33,-25.75"/>
</g>
<!-- Node9&#45;&gt;Node4 -->
<g id="edge10" class="edge">
<title>Node9&#45;&gt;Node4</title>
<path fill="none" stroke="midnightblue" d="M191.29,-67.4C178.81,-56.86 161.77,-42.48 148.99,-31.69"/>
<polygon fill="midnightblue" stroke="midnightblue" points="151.2,-28.97 141.3,-25.19 146.68,-34.32 151.2,-28.97"/>
</g>
<!-- Node9&#45;&gt;Node7 -->
<g id="edge12" class="edge">
<title>Node9&#45;&gt;Node7</title>
<path fill="none" stroke="midnightblue" d="M226.01,-67.4C239.59,-56.76 258.18,-42.2 272,-31.38"/>
<polygon fill="midnightblue" stroke="midnightblue" points="274.18,-34.12 279.9,-25.19 269.87,-28.6 274.18,-34.12"/>
</g>
<!-- Node9&#45;&gt;Node8 -->
<g id="edge13" class="edge">
<title>Node9&#45;&gt;Node8</title>
<path fill="none" stroke="midnightblue" d="M250.1,-67.4C279.46,-57.56 318.83,-44.37 350.13,-33.88"/>
<polygon fill="midnightblue" stroke="midnightblue" points="351.62,-37.07 359.99,-30.58 349.39,-30.43 351.62,-37.07"/>
</g>
<!-- Node10 -->
<g id="node10" class="node">
<title>Node10</title>
<g id="a_node10"><a xlink:title=" ">
<polygon fill="white" stroke="#bfbfbf" points="171.5,-6 171.5,-25 244.5,-25 244.5,-6 171.5,-6"/>
<text text-anchor="middle" x="208" y="-13" font-family="Helvetica,sans-Serif" font-size="10.00">string_view</text>
</a>
</g>
</g>
<!-- Node9&#45;&gt;Node10 -->
<g id="edge11" class="edge">
<title>Node9&#45;&gt;Node10</title>
<path fill="none" stroke="midnightblue" d="M208,-67.4C208,-58.06 208,-45.71 208,-35.52"/>
<polygon fill="midnightblue" stroke="midnightblue" points="211.5,-35.19 208,-25.19 204.5,-35.19 211.5,-35.19"/>
</g>
</g>
</svg>
