<?xml version="1.0" encoding="UTF-8" standalone="no"?>
<!DOCTYPE svg PUBLIC "-//W3C//DTD SVG 1.1//EN"
 "http://www.w3.org/Graphics/SVG/1.1/DTD/svg11.dtd">
<!-- Generated by graphviz version 8.0.5 (20230430.1635)
 -->
<!-- Title: lfilesystem_FilesystemEntry.h Pages: 1 -->
<svg width="482pt" height="160pt"
 viewBox="0.00 0.00 481.50 160.25" xmlns="http://www.w3.org/2000/svg" xmlns:xlink="http://www.w3.org/1999/xlink">

<svg id="main" version="1.1" xmlns="http://www.w3.org/2000/svg" xmlns:xlink="http://www.w3.org/1999/xlink" xml:space="preserve" onload="init(evt)">
<style type="text/css"><![CDATA[
.node, .edge {opacity: 0.7;}
.node.selected, .edge.selected {opacity: 1;}
.edge:hover path { stroke: red; }
.edge:hover polygon { stroke: red; fill: red; }
]]></style>
<script type="application/ecmascript" xlink:href="svg.min.js"/>
<svg id="graph" class="graph">
<g id="graph0" class="graph" transform="scale(1 1) rotate(0) translate(4 156.25)">
<title>lfilesystem_FilesystemEntry.h</title>
<!-- Node1 -->
<g id="Node000001" class="node">
<title>Node1</title>
<g id="a_Node000001"><a xlink:title="This file defines the FilesystemEntry class.">
<polygon fill="#999999" stroke="#666666" points="311.88,-152.25 165.38,-152.25 165.38,-133 311.88,-133 311.88,-152.25"/>
<text text-anchor="middle" x="238.62" y="-138.75" font-family="Helvetica,sans-Serif" font-size="10.00">lfilesystem_FilesystemEntry.h</text>
</a>
</g>
</g>
<!-- Node2 -->
<g id="Node000002" class="node">
<title>Node2</title>
<g id="a_Node000002"><a xlink:title=" ">
<polygon fill="#e0e0e0" stroke="#999999" points="45.25,-91.38 0,-91.38 0,-72.12 45.25,-72.12 45.25,-91.38"/>
<text text-anchor="middle" x="22.62" y="-77.88" font-family="Helvetica,sans-Serif" font-size="10.00">cstdint</text>
</a>
</g>
</g>
<!-- Node1&#45;&gt;Node2 -->
<g id="edge1_Node000001_Node000002" class="edge">
<title>Node1&#45;&gt;Node2</title>
<g id="a_edge1_Node000001_Node000002"><a xlink:title=" ">
<path fill="none" stroke="#63b8ff" d="M195.9,-132.53C159.37,-124.39 105.59,-111.52 59.62,-97 58.11,-96.52 56.56,-96.01 55.01,-95.48"/>
<polygon fill="#63b8ff" stroke="#63b8ff" points="56.37,-91.89 45.77,-91.79 53.99,-98.48 56.37,-91.89"/>
</a>
</g>
</g>
<!-- Node3 -->
<g id="Node000003" class="node">
<title>Node3</title>
<g id="a_Node000003"><a xlink:title=" ">
<polygon fill="#e0e0e0" stroke="#999999" points="87.12,-24.88 26.13,-24.88 26.13,-5.63 87.12,-5.63 87.12,-24.88"/>
<text text-anchor="middle" x="56.62" y="-11.38" font-family="Helvetica,sans-Serif" font-size="10.00">filesystem</text>
</a>
</g>
</g>
<!-- Node1&#45;&gt;Node3 -->
<g id="edge2_Node000001_Node000003" class="edge">
<title>Node1&#45;&gt;Node3</title>
<g id="a_edge2_Node000001_Node000003"><a xlink:title=" ">
<path fill="none" stroke="#63b8ff" d="M195.84,-132.5C170.97,-125.68 140.03,-114.47 116.62,-97 94.28,-80.32 76.47,-53.04 66.23,-34.86"/>
<polygon fill="#63b8ff" stroke="#63b8ff" points="68.93,-33.5 61.09,-26.36 62.77,-36.83 68.93,-33.5"/>
</a>
</g>
</g>
<!-- Node4 -->
<g id="Node000004" class="node">
<title>Node4</title>
<g id="a_Node000004"><a xlink:title=" ">
<polygon fill="#e0e0e0" stroke="#999999" points="145.62,-24.88 105.62,-24.88 105.62,-5.63 145.62,-5.63 145.62,-24.88"/>
<text text-anchor="middle" x="125.62" y="-11.38" font-family="Helvetica,sans-Serif" font-size="10.00">string</text>
</a>
</g>
</g>
<!-- Node1&#45;&gt;Node4 -->
<g id="edge3_Node000001_Node000004" class="edge">
<title>Node1&#45;&gt;Node4</title>
<g id="a_edge3_Node000001_Node000004"><a xlink:title=" ">
<path fill="none" stroke="#63b8ff" d="M186.53,-132.53C165.76,-126.15 143.72,-115.32 130.62,-97 118.02,-79.36 118.8,-53.63 121.4,-35.98"/>
<polygon fill="#63b8ff" stroke="#63b8ff" points="125.01,-36.72 123.36,-26.25 118.12,-35.47 125.01,-36.72"/>
</a>
</g>
</g>
<!-- Node5 -->
<g id="Node000005" class="node">
<title>Node5</title>
<g id="a_Node000005"><a xlink:title=" ">
<polygon fill="#e0e0e0" stroke="#999999" points="405.62,-91.38 347.62,-91.38 347.62,-72.12 405.62,-72.12 405.62,-91.38"/>
<text text-anchor="middle" x="376.62" y="-77.88" font-family="Helvetica,sans-Serif" font-size="10.00">functional</text>
</a>
</g>
</g>
<!-- Node1&#45;&gt;Node5 -->
<g id="edge4_Node000001_Node000005" class="edge">
<title>Node1&#45;&gt;Node5</title>
<g id="a_edge4_Node000001_Node000005"><a xlink:title=" ">
<path fill="none" stroke="#63b8ff" d="M259.89,-132.55C282.85,-122.76 319.64,-107.06 345.78,-95.91"/>
<polygon fill="#63b8ff" stroke="#63b8ff" points="346.74,-98.88 354.57,-91.73 344,-92.44 346.74,-98.88"/>
</a>
</g>
</g>
<!-- Node6 -->
<g id="Node000006" class="node">
<title>Node6</title>
<g id="a_Node000006"><a xlink:title=" ">
<polygon fill="#e0e0e0" stroke="#999999" points="473.5,-91.38 423.75,-91.38 423.75,-72.12 473.5,-72.12 473.5,-91.38"/>
<text text-anchor="middle" x="448.62" y="-77.88" font-family="Helvetica,sans-Serif" font-size="10.00">optional</text>
</a>
</g>
</g>
<!-- Node1&#45;&gt;Node6 -->
<g id="edge5_Node000001_Node000006" class="edge">
<title>Node1&#45;&gt;Node6</title>
<g id="a_edge5_Node000001_Node000006"><a xlink:title=" ">
<path fill="none" stroke="#63b8ff" d="M281.82,-132.56C317.77,-124.56 370.08,-111.89 414.62,-97 415.89,-96.58 417.17,-96.13 418.46,-95.66"/>
<polygon fill="#63b8ff" stroke="#63b8ff" points="419.26,-98.72 427.32,-91.84 416.73,-92.19 419.26,-98.72"/>
</a>
</g>
</g>
<!-- Node7 -->
<g id="Node000007" class="node">
<title>Node7</title>
<g id="a_Node000007"><a xlink:title=" ">
<polygon fill="#e0e0e0" stroke="#999999" points="298.25,-24.88 247,-24.88 247,-5.63 298.25,-5.63 298.25,-24.88"/>
<text text-anchor="middle" x="272.62" y="-11.38" font-family="Helvetica,sans-Serif" font-size="10.00">ostream</text>
</a>
</g>
</g>
<!-- Node1&#45;&gt;Node7 -->
<g id="edge6_Node000001_Node000007" class="edge">
<title>Node1&#45;&gt;Node7</title>
<g id="a_edge6_Node000001_Node000007"><a xlink:title=" ">
<path fill="none" stroke="#63b8ff" d="M244.84,-132.5C250.46,-123.79 258.46,-110.08 262.62,-97 269.11,-76.64 271.42,-52.14 272.23,-35.51"/>
<polygon fill="#63b8ff" stroke="#63b8ff" points="275.75,-36.07 272.59,-25.96 268.75,-35.83 275.75,-36.07"/>
</a>
</g>
</g>
<!-- Node8 -->
<g id="Node000008" class="node">
<title>Node8</title>
<g id="a_Node000008"><a xlink:title=" ">
<polygon fill="#e0e0e0" stroke="#999999" points="429.38,-30.5 315.88,-30.5 315.88,0 429.38,0 429.38,-30.5"/>
<text text-anchor="start" x="323.88" y="-17" font-family="Helvetica,sans-Serif" font-size="10.00">lfilesystem/lfilesystem</text>
<text text-anchor="middle" x="372.62" y="-5.75" font-family="Helvetica,sans-Serif" font-size="10.00">_Export.h</text>
</a>
</g>
</g>
<!-- Node1&#45;&gt;Node8 -->
<g id="edge7_Node000001_Node000008" class="edge">
<title>Node1&#45;&gt;Node8</title>
<g id="a_edge7_Node000001_Node000008"><a xlink:title=" ">
<path fill="none" stroke="#63b8ff" d="M248.26,-132.61C269.22,-113 319.43,-66.02 349.25,-38.12"/>
<polygon fill="#63b8ff" stroke="#63b8ff" points="351.17,-41.18 356.08,-31.8 346.38,-36.07 351.17,-41.18"/>
</a>
</g>
</g>
<!-- Node9 -->
<g id="Node000009" class="node">
<title>Node9</title>
<g id="a_Node000009"><a xlink:href="lfilesystem___permissions_8h.html" target="_top" xlink:title="This file defines the Permissions class.">
<polygon fill="white" stroke="#666666" points="253.38,-97 139.88,-97 139.88,-66.5 253.38,-66.5 253.38,-97"/>
<text text-anchor="start" x="147.88" y="-83.5" font-family="Helvetica,sans-Serif" font-size="10.00">lfilesystem/lfilesystem</text>
<text text-anchor="middle" x="196.62" y="-72.25" font-family="Helvetica,sans-Serif" font-size="10.00">_Permissions.h</text>
</a>
</g>
</g>
<!-- Node1&#45;&gt;Node9 -->
<g id="edge8_Node000001_Node000009" class="edge">
<title>Node1&#45;&gt;Node9</title>
<g id="a_edge8_Node000001_Node000009"><a xlink:title=" ">
<path fill="none" stroke="#63b8ff" d="M232.25,-132.68C227.22,-125.64 219.98,-115.48 213.33,-106.17"/>
<polygon fill="#63b8ff" stroke="#63b8ff" points="215.65,-104.39 206.99,-98.28 209.95,-108.46 215.65,-104.39"/>
</a>
</g>
</g>
<!-- Node9&#45;&gt;Node3 -->
<g id="edge9_Node000009_Node000003" class="edge">
<title>Node9&#45;&gt;Node3</title>
<g id="a_edge9_Node000009_Node000003"><a xlink:title=" ">
<path fill="none" stroke="#63b8ff" d="M164.86,-66.11C141.21,-55.22 109.17,-40.46 86.09,-29.83"/>
<polygon fill="#63b8ff" stroke="#63b8ff" points="87.73,-26.27 77.18,-25.26 84.8,-32.62 87.73,-26.27"/>
</a>
</g>
</g>
<!-- Node9&#45;&gt;Node4 -->
<g id="edge10_Node000009_Node000004" class="edge">
<title>Node9&#45;&gt;Node4</title>
<g id="a_edge10_Node000009_Node000004"><a xlink:title=" ">
<path fill="none" stroke="#63b8ff" d="M180.51,-66.11C169.43,-56.04 154.71,-42.67 143.3,-32.31"/>
<polygon fill="#63b8ff" stroke="#63b8ff" points="146.09,-30.21 136.34,-26.07 141.39,-35.39 146.09,-30.21"/>
</a>
</g>
</g>
<!-- Node9&#45;&gt;Node7 -->
<g id="edge12_Node000009_Node000007" class="edge">
<title>Node9&#45;&gt;Node7</title>
<g id="a_edge12_Node000009_Node000007"><a xlink:title=" ">
<path fill="none" stroke="#63b8ff" d="M213.87,-66.11C225.85,-55.94 241.81,-42.41 254.07,-32"/>
<polygon fill="#63b8ff" stroke="#63b8ff" points="255.87,-34.21 261.23,-25.07 251.34,-28.87 255.87,-34.21"/>
</a>
</g>
</g>
<!-- Node9&#45;&gt;Node8 -->
<g id="edge13_Node000009_Node000008" class="edge">
<title>Node9&#45;&gt;Node8</title>
<g id="a_edge13_Node000009_Node000008"><a xlink:title=" ">
<path fill="none" stroke="#63b8ff" d="M236.56,-66.11C262.01,-56.79 295.2,-44.62 322.43,-34.65"/>
<polygon fill="#63b8ff" stroke="#63b8ff" points="323.36,-37.67 331.54,-30.94 320.95,-31.09 323.36,-37.67"/>
</a>
</g>
</g>
<!-- Node10 -->
<g id="Node000010" class="node">
<title>Node10</title>
<g id="a_Node000010"><a xlink:title=" ">
<polygon fill="#e0e0e0" stroke="#999999" points="229.38,-24.88 163.88,-24.88 163.88,-5.63 229.38,-5.63 229.38,-24.88"/>
<text text-anchor="middle" x="196.62" y="-11.38" font-family="Helvetica,sans-Serif" font-size="10.00">string_view</text>
</a>
</g>
</g>
<!-- Node9&#45;&gt;Node10 -->
<g id="edge11_Node000009_Node000010" class="edge">
<title>Node9&#45;&gt;Node10</title>
<g id="a_edge11_Node000009_Node000010"><a xlink:title=" ">
<path fill="none" stroke="#63b8ff" d="M196.62,-66.11C196.62,-57.13 196.62,-45.51 196.62,-35.76"/>
<polygon fill="#63b8ff" stroke="#63b8ff" points="200.13,-36.07 196.62,-26.07 193.13,-36.07 200.13,-36.07"/>
</a>
</g>
</g>
</g>
</svg>
</svg>

<style type='text/css'>
<![CDATA[
[data-mouse-over-selected='false'] { opacity: 0.7; }
[data-mouse-over-selected='true']  { opacity: 1.0; }
]]>
</style>
<script type="application/ecmascript"><![CDATA[
document.addEventListener('DOMContentLoaded', (event) => {
  highlightEdges();
  highlightAdjacentNodes();
});
]]></script>
</svg>
