<?xml version="1.0" encoding="UTF-8" standalone="no"?>
<!DOCTYPE svg PUBLIC "-//W3C//DTD SVG 1.1//EN"
 "http://www.w3.org/Graphics/SVG/1.1/DTD/svg11.dtd">
<!-- Generated by graphviz version 2.43.0 (0)
 -->
<!-- Title: lfilesystem_FilesystemEntry.h Pages: 1 -->
<svg width="468pt" height="308pt"
 viewBox="0.00 0.00 467.54 308.00" xmlns="http://www.w3.org/2000/svg" xmlns:xlink="http://www.w3.org/1999/xlink">
<g id="graph0" class="graph" transform="scale(1 1) rotate(0) translate(4 304)">
<title>lfilesystem_FilesystemEntry.h</title>
<polygon fill="white" stroke="transparent" points="-4,4 -4,-304 463.54,-304 463.54,4 -4,4"/>
<!-- Node1 -->
<g id="node1" class="node">
<title>Node1</title>
<g id="a_node1"><a xlink:title="This file defines the FilesystemEntry class.">
<polygon fill="#bfbfbf" stroke="black" points="242.04,-280.5 242.04,-299.5 404.04,-299.5 404.04,-280.5 242.04,-280.5"/>
<text text-anchor="middle" x="323.04" y="-287.5" font-family="Helvetica,sans-Serif" font-size="10.00">lfilesystem_FilesystemEntry.h</text>
</a>
</g>
</g>
<!-- Node2 -->
<g id="node2" class="node">
<title>Node2</title>
<g id="a_node2"><a xlink:href="lfilesystem__CFile_8h.html" target="_top" xlink:title="This file defines the CFile class.">
<polygon fill="white" stroke="black" points="185.54,-224.5 185.54,-243.5 294.54,-243.5 294.54,-224.5 185.54,-224.5"/>
<text text-anchor="middle" x="240.04" y="-231.5" font-family="Helvetica,sans-Serif" font-size="10.00">lfilesystem_CFile.h</text>
</a>
</g>
</g>
<!-- Node1&#45;&gt;Node2 -->
<g id="edge1" class="edge">
<title>Node1&#45;&gt;Node2</title>
<path fill="none" stroke="midnightblue" d="M300.94,-274.62C285.78,-264.76 266.16,-251.99 253.34,-243.65"/>
<polygon fill="midnightblue" stroke="midnightblue" points="299.41,-277.8 309.71,-280.32 303.23,-271.94 299.41,-277.8"/>
</g>
<!-- Node3 -->
<g id="node3" class="node">
<title>Node3</title>
<g id="a_node3"><a xlink:href="lfilesystem__File_8h.html" target="_top" xlink:title="This file defines the File and TempFile classes.">
<polygon fill="white" stroke="black" points="189.04,-168.5 189.04,-187.5 291.04,-187.5 291.04,-168.5 189.04,-168.5"/>
<text text-anchor="middle" x="240.04" y="-175.5" font-family="Helvetica,sans-Serif" font-size="10.00">lfilesystem_File.h</text>
</a>
</g>
</g>
<!-- Node1&#45;&gt;Node3 -->
<g id="edge8" class="edge">
<title>Node1&#45;&gt;Node3</title>
<path fill="none" stroke="midnightblue" d="M320.88,-269.94C318.55,-256.14 313.77,-237.59 304.04,-224 292.34,-207.65 272.78,-195.17 258.35,-187.54"/>
<polygon fill="midnightblue" stroke="midnightblue" points="317.47,-270.79 322.32,-280.21 324.4,-269.82 317.47,-270.79"/>
</g>
<!-- Node4 -->
<g id="node4" class="node">
<title>Node4</title>
<g id="a_node4"><a xlink:href="lfilesystem__Directory_8h.html" target="_top" xlink:title="This file defines the Directory class.">
<polygon fill="white" stroke="black" points="309.04,-112.5 309.04,-131.5 437.04,-131.5 437.04,-112.5 309.04,-112.5"/>
<text text-anchor="middle" x="373.04" y="-119.5" font-family="Helvetica,sans-Serif" font-size="10.00">lfilesystem_Directory.h</text>
</a>
</g>
</g>
<!-- Node1&#45;&gt;Node4 -->
<g id="edge7" class="edge">
<title>Node1&#45;&gt;Node4</title>
<path fill="none" stroke="midnightblue" d="M350.67,-275.71C380.52,-259.63 426.43,-229.47 446.04,-188 458.23,-162.23 422.98,-142.29 397.31,-131.63"/>
<polygon fill="midnightblue" stroke="midnightblue" points="348.85,-272.71 341.6,-280.43 352.09,-278.92 348.85,-272.71"/>
</g>
<!-- Node8 -->
<g id="node8" class="node">
<title>Node8</title>
<g id="a_node8"><a xlink:href="lfilesystem__FileWatcher_8h.html" target="_top" xlink:title="This file defines the files::FileWatcher class.">
<polygon fill="white" stroke="black" points="21.54,-224.5 21.54,-243.5 162.54,-243.5 162.54,-224.5 21.54,-224.5"/>
<text text-anchor="middle" x="92.04" y="-231.5" font-family="Helvetica,sans-Serif" font-size="10.00">lfilesystem_FileWatcher.h</text>
</a>
</g>
</g>
<!-- Node1&#45;&gt;Node8 -->
<g id="edge9" class="edge">
<title>Node1&#45;&gt;Node8</title>
<path fill="none" stroke="midnightblue" d="M276.64,-278.15C232.99,-267.95 168.53,-252.88 128.47,-243.52"/>
<polygon fill="midnightblue" stroke="midnightblue" points="275.9,-281.58 286.44,-280.44 277.5,-274.76 275.9,-281.58"/>
</g>
<!-- Node10 -->
<g id="node10" class="node">
<title>Node10</title>
<g id="a_node10"><a xlink:href="lfilesystem__SymLink_8h.html" target="_top" xlink:title="This file defines the files::SymLink class.">
<polygon fill="white" stroke="black" points="309.54,-168.5 309.54,-187.5 436.54,-187.5 436.54,-168.5 309.54,-168.5"/>
<text text-anchor="middle" x="373.04" y="-175.5" font-family="Helvetica,sans-Serif" font-size="10.00">lfilesystem_SymLink.h</text>
</a>
</g>
</g>
<!-- Node1&#45;&gt;Node10 -->
<g id="edge12" class="edge">
<title>Node1&#45;&gt;Node10</title>
<path fill="none" stroke="midnightblue" d="M331.22,-271C342.13,-247 361.01,-205.47 369.14,-187.59"/>
<polygon fill="midnightblue" stroke="midnightblue" points="327.92,-269.82 326.96,-280.37 334.29,-272.71 327.92,-269.82"/>
</g>
<!-- Node2&#45;&gt;Node3 -->
<g id="edge2" class="edge">
<title>Node2&#45;&gt;Node3</title>
<path fill="none" stroke="midnightblue" d="M240.04,-213.8C240.04,-204.91 240.04,-194.78 240.04,-187.75"/>
<polygon fill="midnightblue" stroke="midnightblue" points="236.54,-214.08 240.04,-224.08 243.54,-214.08 236.54,-214.08"/>
</g>
<!-- Node3&#45;&gt;Node4 -->
<g id="edge3" class="edge">
<title>Node3&#45;&gt;Node4</title>
<path fill="none" stroke="midnightblue" d="M270.49,-164.64C295.45,-154.5 330.12,-140.43 352.06,-131.52"/>
<polygon fill="midnightblue" stroke="midnightblue" points="269.06,-161.44 261.11,-168.44 271.7,-167.92 269.06,-161.44"/>
</g>
<!-- Node7 -->
<g id="node7" class="node">
<title>Node7</title>
<g id="a_node7"><a xlink:href="lfilesystem__DynamicLibrary_8h.html" target="_top" xlink:title="This file defines the DynamicLibrary class.">
<polygon fill="white" stroke="black" points="17.54,-112.5 17.54,-131.5 178.54,-131.5 178.54,-112.5 17.54,-112.5"/>
<text text-anchor="middle" x="98.04" y="-119.5" font-family="Helvetica,sans-Serif" font-size="10.00">lfilesystem_DynamicLibrary.h</text>
</a>
</g>
</g>
<!-- Node3&#45;&gt;Node7 -->
<g id="edge6" class="edge">
<title>Node3&#45;&gt;Node7</title>
<path fill="none" stroke="midnightblue" d="M207.89,-164.77C181.21,-154.63 143.97,-140.47 120.44,-131.52"/>
<polygon fill="midnightblue" stroke="midnightblue" points="206.95,-168.16 217.54,-168.44 209.44,-161.62 206.95,-168.16"/>
</g>
<!-- Node5 -->
<g id="node5" class="node">
<title>Node5</title>
<g id="a_node5"><a xlink:href="lfilesystem__SpecialDirectories_8h.html" target="_top" xlink:title="This file contains utility functions for finding some common directories.">
<polygon fill="white" stroke="black" points="286.54,-56.5 286.54,-75.5 459.54,-75.5 459.54,-56.5 286.54,-56.5"/>
<text text-anchor="middle" x="373.04" y="-63.5" font-family="Helvetica,sans-Serif" font-size="10.00">lfilesystem_SpecialDirectories.h</text>
</a>
</g>
</g>
<!-- Node4&#45;&gt;Node5 -->
<g id="edge4" class="edge">
<title>Node4&#45;&gt;Node5</title>
<path fill="none" stroke="midnightblue" d="M373.04,-101.8C373.04,-92.91 373.04,-82.78 373.04,-75.75"/>
<polygon fill="midnightblue" stroke="midnightblue" points="369.54,-102.08 373.04,-112.08 376.54,-102.08 369.54,-102.08"/>
</g>
<!-- Node6 -->
<g id="node6" class="node">
<title>Node6</title>
<g id="a_node6"><a xlink:href="lfilesystem__Volume_8h.html" target="_top" xlink:title="This file defines the files::Volume class.">
<polygon fill="white" stroke="black" points="312.04,-0.5 312.04,-19.5 434.04,-19.5 434.04,-0.5 312.04,-0.5"/>
<text text-anchor="middle" x="373.04" y="-7.5" font-family="Helvetica,sans-Serif" font-size="10.00">lfilesystem_Volume.h</text>
</a>
</g>
</g>
<!-- Node5&#45;&gt;Node6 -->
<g id="edge5" class="edge">
<title>Node5&#45;&gt;Node6</title>
<path fill="none" stroke="midnightblue" d="M373.04,-45.8C373.04,-36.91 373.04,-26.78 373.04,-19.75"/>
<polygon fill="midnightblue" stroke="midnightblue" points="369.54,-46.08 373.04,-56.08 376.54,-46.08 369.54,-46.08"/>
</g>
<!-- Node8&#45;&gt;Node7 -->
<g id="edge10" class="edge">
<title>Node8&#45;&gt;Node7</title>
<path fill="none" stroke="midnightblue" d="M51.34,-221.15C21.59,-210.23 -11.12,-192.07 4.04,-168 15.9,-149.17 38.07,-138.05 57.89,-131.57"/>
<polygon fill="midnightblue" stroke="midnightblue" points="50.23,-224.47 60.83,-224.44 52.53,-217.86 50.23,-224.47"/>
</g>
<!-- Node9 -->
<g id="node9" class="node">
<title>Node9</title>
<g id="a_node9"><a xlink:href="lfilesystem__SimpleWatcher_8h.html" target="_top" xlink:title="This file defines the SimpleFileWatcher class.">
<polygon fill="white" stroke="black" points="13.04,-168.5 13.04,-187.5 171.04,-187.5 171.04,-168.5 13.04,-168.5"/>
<text text-anchor="middle" x="92.04" y="-175.5" font-family="Helvetica,sans-Serif" font-size="10.00">lfilesystem_SimpleWatcher.h</text>
</a>
</g>
</g>
<!-- Node8&#45;&gt;Node9 -->
<g id="edge11" class="edge">
<title>Node8&#45;&gt;Node9</title>
<path fill="none" stroke="midnightblue" d="M92.04,-213.8C92.04,-204.91 92.04,-194.78 92.04,-187.75"/>
<polygon fill="midnightblue" stroke="midnightblue" points="88.54,-214.08 92.04,-224.08 95.54,-214.08 88.54,-214.08"/>
</g>
<!-- Node10&#45;&gt;Node4 -->
<g id="edge13" class="edge">
<title>Node10&#45;&gt;Node4</title>
<path fill="none" stroke="midnightblue" d="M373.04,-157.8C373.04,-148.91 373.04,-138.78 373.04,-131.75"/>
<polygon fill="midnightblue" stroke="midnightblue" points="369.54,-158.08 373.04,-168.08 376.54,-158.08 369.54,-158.08"/>
</g>
</g>
</svg>
