<?xml version="1.0" encoding="UTF-8" standalone="no"?>
<!DOCTYPE svg PUBLIC "-//W3C//DTD SVG 1.1//EN"
 "http://www.w3.org/Graphics/SVG/1.1/DTD/svg11.dtd">
<!-- Generated by graphviz version 8.0.5 (20230430.1635)
 -->
<!-- Title: lfilesystem_SimpleWatcher.h Pages: 1 -->
<svg width="548pt" height="293pt"
 viewBox="0.00 0.00 547.75 293.25" xmlns="http://www.w3.org/2000/svg" xmlns:xlink="http://www.w3.org/1999/xlink">
<g id="graph0" class="graph" transform="scale(1 1) rotate(0) translate(4 289.25)">
<title>lfilesystem_SimpleWatcher.h</title>
<!-- Node1 -->
<g id="Node000001" class="node">
<title>Node1</title>
<g id="a_Node000001"><a xlink:title="This file defines the SimpleFileWatcher class.">
<polygon fill="#999999" stroke="#666666" points="481,-285.25 339,-285.25 339,-266 481,-266 481,-285.25"/>
<text text-anchor="middle" x="410" y="-271.75" font-family="Helvetica,sans-Serif" font-size="10.00">lfilesystem_SimpleWatcher.h</text>
</a>
</g>
</g>
<!-- Node2 -->
<g id="Node000002" class="node">
<title>Node2</title>
<g id="a_Node000002"><a xlink:title=" ">
<polygon fill="#e0e0e0" stroke="#999999" points="58,-91.38 0,-91.38 0,-72.12 58,-72.12 58,-91.38"/>
<text text-anchor="middle" x="29" y="-77.88" font-family="Helvetica,sans-Serif" font-size="10.00">functional</text>
</a>
</g>
</g>
<!-- Node1&#45;&gt;Node2 -->
<g id="edge1_Node000001_Node000002" class="edge">
<title>Node1&#45;&gt;Node2</title>
<g id="a_edge1_Node000001_Node000002"><a xlink:title=" ">
<path fill="none" stroke="#63b8ff" d="M392.13,-265.63C331.01,-234.85 129.98,-133.61 56.34,-96.52"/>
<polygon fill="#63b8ff" stroke="#63b8ff" points="58.33,-93.1 47.83,-91.73 55.18,-99.35 58.33,-93.1"/>
</a>
</g>
</g>
<!-- Node3 -->
<g id="Node000003" class="node">
<title>Node3</title>
<g id="a_Node000003"><a xlink:title=" ">
<polygon fill="#e0e0e0" stroke="#999999" points="539.75,-30.5 426.25,-30.5 426.25,0 539.75,0 539.75,-30.5"/>
<text text-anchor="start" x="434.25" y="-17" font-family="Helvetica,sans-Serif" font-size="10.00">lfilesystem/lfilesystem</text>
<text text-anchor="middle" x="483" y="-5.75" font-family="Helvetica,sans-Serif" font-size="10.00">_Export.h</text>
</a>
</g>
</g>
<!-- Node1&#45;&gt;Node3 -->
<g id="edge2_Node000001_Node000003" class="edge">
<title>Node1&#45;&gt;Node3</title>
<g id="a_edge2_Node000001_Node000003"><a xlink:title=" ">
<path fill="none" stroke="#63b8ff" d="M432.75,-265.63C447.78,-258.39 466.42,-246.67 476,-230 510.52,-169.98 498.46,-83.99 489.37,-41.71"/>
<polygon fill="#63b8ff" stroke="#63b8ff" points="492.56,-40.97 486.92,-32 485.74,-42.53 492.56,-40.97"/>
</a>
</g>
</g>
<!-- Node4 -->
<g id="Node000004" class="node">
<title>Node4</title>
<g id="a_Node000004"><a xlink:href="lfilesystem___file_watcher_8h.html" target="_top" xlink:title="This file defines the files::FileWatcher class.">
<polygon fill="white" stroke="#666666" points="466.75,-230 353.25,-230 353.25,-199.5 466.75,-199.5 466.75,-230"/>
<text text-anchor="start" x="361.25" y="-216.5" font-family="Helvetica,sans-Serif" font-size="10.00">lfilesystem/lfilesystem</text>
<text text-anchor="middle" x="410" y="-205.25" font-family="Helvetica,sans-Serif" font-size="10.00">_FileWatcher.h</text>
</a>
</g>
</g>
<!-- Node1&#45;&gt;Node4 -->
<g id="edge3_Node000001_Node000004" class="edge">
<title>Node1&#45;&gt;Node4</title>
<g id="a_edge3_Node000001_Node000004"><a xlink:title=" ">
<path fill="none" stroke="#63b8ff" d="M410,-265.68C410,-259.15 410,-249.95 410,-241.22"/>
<polygon fill="#63b8ff" stroke="#63b8ff" points="413.5,-241.28 410,-231.28 406.5,-241.28 413.5,-241.28"/>
</a>
</g>
</g>
<!-- Node4&#45;&gt;Node3 -->
<g id="edge5_Node000004_Node000003" class="edge">
<title>Node4&#45;&gt;Node3</title>
<g id="a_edge5_Node000004_Node000003"><a xlink:title=" ">
<path fill="none" stroke="#63b8ff" d="M422.22,-199.21C429.74,-189.61 439.06,-176.45 445,-163.5 463.67,-122.83 474.28,-71.46 479.31,-41.39"/>
<polygon fill="#63b8ff" stroke="#63b8ff" points="482.91,-42.05 481.03,-31.62 476,-40.95 482.91,-42.05"/>
</a>
</g>
</g>
<!-- Node5 -->
<g id="Node000005" class="node">
<title>Node5</title>
<g id="a_Node000005"><a xlink:title=" ">
<polygon fill="#e0e0e0" stroke="#999999" points="435.62,-157.88 384.38,-157.88 384.38,-138.62 435.62,-138.62 435.62,-157.88"/>
<text text-anchor="middle" x="410" y="-144.38" font-family="Helvetica,sans-Serif" font-size="10.00">memory</text>
</a>
</g>
</g>
<!-- Node4&#45;&gt;Node5 -->
<g id="edge4_Node000004_Node000005" class="edge">
<title>Node4&#45;&gt;Node5</title>
<g id="a_edge4_Node000004_Node000005"><a xlink:title=" ">
<path fill="none" stroke="#63b8ff" d="M410,-199.11C410,-190.13 410,-178.51 410,-168.76"/>
<polygon fill="#63b8ff" stroke="#63b8ff" points="413.5,-169.07 410,-159.07 406.5,-169.07 413.5,-169.07"/>
</a>
</g>
</g>
<!-- Node6 -->
<g id="Node000006" class="node">
<title>Node6</title>
<g id="a_Node000006"><a xlink:href="lfilesystem___filesystem_entry_8h.html" target="_top" xlink:title="This file defines the FilesystemEntry class.">
<polygon fill="white" stroke="#666666" points="329.75,-163.5 216.25,-163.5 216.25,-133 329.75,-133 329.75,-163.5"/>
<text text-anchor="start" x="224.25" y="-150" font-family="Helvetica,sans-Serif" font-size="10.00">lfilesystem/lfilesystem</text>
<text text-anchor="middle" x="273" y="-138.75" font-family="Helvetica,sans-Serif" font-size="10.00">_FilesystemEntry.h</text>
</a>
</g>
</g>
<!-- Node4&#45;&gt;Node6 -->
<g id="edge6_Node000004_Node000006" class="edge">
<title>Node4&#45;&gt;Node6</title>
<g id="a_edge6_Node000004_Node000006"><a xlink:title=" ">
<path fill="none" stroke="#63b8ff" d="M378.91,-199.11C359.64,-190.04 334.68,-178.29 313.83,-168.47"/>
<polygon fill="#63b8ff" stroke="#63b8ff" points="315.5,-164.92 304.96,-163.83 312.52,-171.25 315.5,-164.92"/>
</a>
</g>
</g>
<!-- Node6&#45;&gt;Node2 -->
<g id="edge10_Node000006_Node000002" class="edge">
<title>Node6&#45;&gt;Node2</title>
<g id="a_edge10_Node000006_Node000002"><a xlink:title=" ">
<path fill="none" stroke="#63b8ff" d="M215.95,-134.19C175.54,-124.65 120.19,-110.99 72,-97 69.88,-96.38 67.7,-95.73 65.51,-95.06"/>
<polygon fill="#63b8ff" stroke="#63b8ff" points="66.87,-91.5 56.28,-91.81 64.75,-98.17 66.87,-91.5"/>
</a>
</g>
</g>
<!-- Node6&#45;&gt;Node3 -->
<g id="edge13_Node000006_Node000003" class="edge">
<title>Node6&#45;&gt;Node3</title>
<g id="a_edge13_Node000006_Node000003"><a xlink:title=" ">
<path fill="none" stroke="#63b8ff" d="M330.25,-136.71C359.96,-129.21 395.65,-116.83 423,-97 443.42,-82.19 459.9,-58.38 470.39,-40.45"/>
<polygon fill="#63b8ff" stroke="#63b8ff" points="473.88,-42.36 475.71,-31.93 467.77,-38.94 473.88,-42.36"/>
</a>
</g>
</g>
<!-- Node7 -->
<g id="Node000007" class="node">
<title>Node7</title>
<g id="a_Node000007"><a xlink:title=" ">
<polygon fill="#e0e0e0" stroke="#999999" points="159.62,-91.38 114.38,-91.38 114.38,-72.12 159.62,-72.12 159.62,-91.38"/>
<text text-anchor="middle" x="137" y="-77.88" font-family="Helvetica,sans-Serif" font-size="10.00">cstdint</text>
</a>
</g>
</g>
<!-- Node6&#45;&gt;Node7 -->
<g id="edge7_Node000006_Node000007" class="edge">
<title>Node6&#45;&gt;Node7</title>
<g id="a_edge7_Node000006_Node000007"><a xlink:title=" ">
<path fill="none" stroke="#63b8ff" d="M242.14,-132.61C219.27,-121.77 188.32,-107.09 165.93,-96.47"/>
<polygon fill="#63b8ff" stroke="#63b8ff" points="167.53,-92.88 157,-91.76 164.53,-99.21 167.53,-92.88"/>
</a>
</g>
</g>
<!-- Node8 -->
<g id="Node000008" class="node">
<title>Node8</title>
<g id="a_Node000008"><a xlink:title=" ">
<polygon fill="#e0e0e0" stroke="#999999" points="406.5,-24.88 345.5,-24.88 345.5,-5.63 406.5,-5.63 406.5,-24.88"/>
<text text-anchor="middle" x="376" y="-11.38" font-family="Helvetica,sans-Serif" font-size="10.00">filesystem</text>
</a>
</g>
</g>
<!-- Node6&#45;&gt;Node8 -->
<g id="edge8_Node000006_Node000008" class="edge">
<title>Node6&#45;&gt;Node8</title>
<g id="a_edge8_Node000006_Node000008"><a xlink:title=" ">
<path fill="none" stroke="#63b8ff" d="M330.17,-140.92C358.24,-134.6 389.66,-122.02 407,-97 420.84,-77.03 404.8,-50.05 391.13,-32.89"/>
<polygon fill="#63b8ff" stroke="#63b8ff" points="393.49,-31.27 384.36,-25.91 388.15,-35.8 393.49,-31.27"/>
</a>
</g>
</g>
<!-- Node9 -->
<g id="Node000009" class="node">
<title>Node9</title>
<g id="a_Node000009"><a xlink:title=" ">
<polygon fill="#e0e0e0" stroke="#999999" points="129,-24.88 89,-24.88 89,-5.63 129,-5.63 129,-24.88"/>
<text text-anchor="middle" x="109" y="-11.38" font-family="Helvetica,sans-Serif" font-size="10.00">string</text>
</a>
</g>
</g>
<!-- Node6&#45;&gt;Node9 -->
<g id="edge9_Node000006_Node000009" class="edge">
<title>Node6&#45;&gt;Node9</title>
<g id="a_edge9_Node000006_Node000009"><a xlink:title=" ">
<path fill="none" stroke="#63b8ff" d="M216.05,-146.66C177.97,-142.92 130.36,-131.06 105,-97 91.93,-79.45 96.26,-53.34 101.64,-35.6"/>
<polygon fill="#63b8ff" stroke="#63b8ff" points="105.24,-36.91 105.16,-26.32 98.61,-34.65 105.24,-36.91"/>
</a>
</g>
</g>
<!-- Node10 -->
<g id="Node000010" class="node">
<title>Node10</title>
<g id="a_Node000010"><a xlink:title=" ">
<polygon fill="#e0e0e0" stroke="#999999" points="397.88,-91.38 348.12,-91.38 348.12,-72.12 397.88,-72.12 397.88,-91.38"/>
<text text-anchor="middle" x="373" y="-77.88" font-family="Helvetica,sans-Serif" font-size="10.00">optional</text>
</a>
</g>
</g>
<!-- Node6&#45;&gt;Node10 -->
<g id="edge11_Node000006_Node000010" class="edge">
<title>Node6&#45;&gt;Node10</title>
<g id="a_edge11_Node000006_Node000010"><a xlink:title=" ">
<path fill="none" stroke="#63b8ff" d="M295.69,-132.61C311.97,-122.11 333.83,-108.02 350.15,-97.49"/>
<polygon fill="#63b8ff" stroke="#63b8ff" points="351.52,-100.12 358.03,-91.76 347.73,-94.24 351.52,-100.12"/>
</a>
</g>
</g>
<!-- Node11 -->
<g id="Node000011" class="node">
<title>Node11</title>
<g id="a_Node000011"><a xlink:title=" ">
<polygon fill="#e0e0e0" stroke="#999999" points="217.62,-24.88 166.38,-24.88 166.38,-5.63 217.62,-5.63 217.62,-24.88"/>
<text text-anchor="middle" x="192" y="-11.38" font-family="Helvetica,sans-Serif" font-size="10.00">ostream</text>
</a>
</g>
</g>
<!-- Node6&#45;&gt;Node11 -->
<g id="edge12_Node000006_Node000011" class="edge">
<title>Node6&#45;&gt;Node11</title>
<g id="a_edge12_Node000006_Node000011"><a xlink:title=" ">
<path fill="none" stroke="#63b8ff" d="M245.25,-132.66C231.63,-124.08 216.21,-111.96 207,-97 195.57,-78.44 192.44,-53.24 191.78,-35.96"/>
<polygon fill="#63b8ff" stroke="#63b8ff" points="195.27,-35.94 191.64,-25.98 188.27,-36.03 195.27,-35.94"/>
</a>
</g>
</g>
<!-- Node12 -->
<g id="Node000012" class="node">
<title>Node12</title>
<g id="a_Node000012"><a xlink:href="lfilesystem___permissions_8h.html" target="_top" xlink:title="This file defines the Permissions class.">
<polygon fill="white" stroke="#666666" points="329.75,-97 216.25,-97 216.25,-66.5 329.75,-66.5 329.75,-97"/>
<text text-anchor="start" x="224.25" y="-83.5" font-family="Helvetica,sans-Serif" font-size="10.00">lfilesystem/lfilesystem</text>
<text text-anchor="middle" x="273" y="-72.25" font-family="Helvetica,sans-Serif" font-size="10.00">_Permissions.h</text>
</a>
</g>
</g>
<!-- Node6&#45;&gt;Node12 -->
<g id="edge14_Node000006_Node000012" class="edge">
<title>Node6&#45;&gt;Node12</title>
<g id="a_edge14_Node000006_Node000012"><a xlink:title=" ">
<path fill="none" stroke="#63b8ff" d="M273,-132.61C273,-125.36 273,-116.38 273,-108.06"/>
<polygon fill="#63b8ff" stroke="#63b8ff" points="276.5,-108.33 273,-98.33 269.5,-108.33 276.5,-108.33"/>
</a>
</g>
</g>
<!-- Node12&#45;&gt;Node3 -->
<g id="edge19_Node000012_Node000003" class="edge">
<title>Node12&#45;&gt;Node3</title>
<g id="a_edge19_Node000012_Node000003"><a xlink:title=" ">
<path fill="none" stroke="#63b8ff" d="M320.92,-66.03C351.83,-56.54 392.22,-44.13 424.96,-34.08"/>
<polygon fill="#63b8ff" stroke="#63b8ff" points="425.76,-37.19 434.29,-30.9 423.7,-30.49 425.76,-37.19"/>
</a>
</g>
</g>
<!-- Node12&#45;&gt;Node8 -->
<g id="edge15_Node000012_Node000008" class="edge">
<title>Node12&#45;&gt;Node8</title>
<g id="a_edge15_Node000012_Node000008"><a xlink:title=" ">
<path fill="none" stroke="#63b8ff" d="M296.37,-66.11C313.14,-55.61 335.65,-41.52 352.46,-30.99"/>
<polygon fill="#63b8ff" stroke="#63b8ff" points="353.99,-33.53 360.61,-25.26 350.28,-27.6 353.99,-33.53"/>
</a>
</g>
</g>
<!-- Node12&#45;&gt;Node9 -->
<g id="edge16_Node000012_Node000009" class="edge">
<title>Node12&#45;&gt;Node9</title>
<g id="a_edge16_Node000012_Node000009"><a xlink:title=" ">
<path fill="none" stroke="#63b8ff" d="M235.79,-66.11C206.59,-54.63 166.45,-38.85 139.22,-28.14"/>
<polygon fill="#63b8ff" stroke="#63b8ff" points="140.7,-24.56 130.11,-24.16 138.14,-31.08 140.7,-24.56"/>
</a>
</g>
</g>
<!-- Node12&#45;&gt;Node11 -->
<g id="edge18_Node000012_Node000011" class="edge">
<title>Node12&#45;&gt;Node11</title>
<g id="a_edge18_Node000012_Node000011"><a xlink:title=" ">
<path fill="none" stroke="#63b8ff" d="M254.62,-66.11C241.73,-55.85 224.52,-42.14 211.4,-31.7"/>
<polygon fill="#63b8ff" stroke="#63b8ff" points="214.08,-28.56 204.08,-25.07 209.72,-34.04 214.08,-28.56"/>
</a>
</g>
</g>
<!-- Node13 -->
<g id="Node000013" class="node">
<title>Node13</title>
<g id="a_Node000013"><a xlink:title=" ">
<polygon fill="#e0e0e0" stroke="#999999" points="305.75,-24.88 240.25,-24.88 240.25,-5.63 305.75,-5.63 305.75,-24.88"/>
<text text-anchor="middle" x="273" y="-11.38" font-family="Helvetica,sans-Serif" font-size="10.00">string_view</text>
</a>
</g>
</g>
<!-- Node12&#45;&gt;Node13 -->
<g id="edge17_Node000012_Node000013" class="edge">
<title>Node12&#45;&gt;Node13</title>
<g id="a_edge17_Node000012_Node000013"><a xlink:title=" ">
<path fill="none" stroke="#63b8ff" d="M273,-66.11C273,-57.13 273,-45.51 273,-35.76"/>
<polygon fill="#63b8ff" stroke="#63b8ff" points="276.5,-36.07 273,-26.07 269.5,-36.07 276.5,-36.07"/>
</a>
</g>
</g>
</g>
</svg>
