<?xml version="1.0" encoding="UTF-8" standalone="no"?>
<!DOCTYPE svg PUBLIC "-//W3C//DTD SVG 1.1//EN"
 "http://www.w3.org/Graphics/SVG/1.1/DTD/svg11.dtd">
<!-- Generated by graphviz version 8.0.5 (20230430.1635)
 -->
<!-- Title: lfilesystem_Directory.h Pages: 1 -->
<svg width="982pt" height="360pt"
 viewBox="0.00 0.00 982.23 359.75" xmlns="http://www.w3.org/2000/svg" xmlns:xlink="http://www.w3.org/1999/xlink">
<g id="graph0" class="graph" transform="scale(1 1) rotate(0) translate(4 355.75)">
<title>lfilesystem_Directory.h</title>
<!-- Node1 -->
<g id="Node000001" class="node">
<title>Node1</title>
<g id="a_Node000001"><a xlink:title="This file defines the Directory class.">
<polygon fill="#999999" stroke="#666666" points="367.73,-351.75 252.73,-351.75 252.73,-332.5 367.73,-332.5 367.73,-351.75"/>
<text text-anchor="middle" x="310.23" y="-338.25" font-family="Helvetica,sans-Serif" font-size="10.00">lfilesystem_Directory.h</text>
</a>
</g>
</g>
<!-- Node2 -->
<g id="Node000002" class="node">
<title>Node2</title>
<g id="a_Node000002"><a xlink:title=" ">
<polygon fill="#e0e0e0" stroke="#999999" points="160.23,-91.38 102.23,-91.38 102.23,-72.12 160.23,-72.12 160.23,-91.38"/>
<text text-anchor="middle" x="131.23" y="-77.88" font-family="Helvetica,sans-Serif" font-size="10.00">functional</text>
</a>
</g>
</g>
<!-- Node1&#45;&gt;Node2 -->
<g id="edge1_Node000001_Node000002" class="edge">
<title>Node1&#45;&gt;Node2</title>
<g id="a_edge1_Node000001_Node000002"><a xlink:title=" ">
<path fill="none" stroke="#63b8ff" d="M274.96,-332.1C229.41,-318.4 151.67,-287.63 115.23,-230 92.15,-193.52 101.74,-175.33 110.23,-133 112.42,-122.07 117.04,-110.55 121.4,-101.31"/>
<polygon fill="#63b8ff" stroke="#63b8ff" points="124.88,-103.17 126.22,-92.66 118.62,-100.04 124.88,-103.17"/>
</a>
</g>
</g>
<!-- Node3 -->
<g id="Node000003" class="node">
<title>Node3</title>
<g id="a_Node000003"><a xlink:title=" ">
<polygon fill="#e0e0e0" stroke="#999999" points="77.85,-91.38 32.6,-91.38 32.6,-72.12 77.85,-72.12 77.85,-91.38"/>
<text text-anchor="middle" x="55.23" y="-77.88" font-family="Helvetica,sans-Serif" font-size="10.00">cstdint</text>
</a>
</g>
</g>
<!-- Node1&#45;&gt;Node3 -->
<g id="edge2_Node000001_Node000003" class="edge">
<title>Node1&#45;&gt;Node3</title>
<g id="a_edge2_Node000001_Node000003"><a xlink:title=" ">
<path fill="none" stroke="#63b8ff" d="M252.61,-335.65C218.57,-330.1 176.05,-318.94 144.23,-296.5 78.6,-250.23 61.2,-146.03 56.72,-102.47"/>
<polygon fill="#63b8ff" stroke="#63b8ff" points="60.13,-102.32 55.76,-92.68 53.16,-102.95 60.13,-102.32"/>
</a>
</g>
</g>
<!-- Node4 -->
<g id="Node000004" class="node">
<title>Node4</title>
<g id="a_Node000004"><a xlink:title=" ">
<polygon fill="#e0e0e0" stroke="#999999" points="677.23,-24.88 637.23,-24.88 637.23,-5.63 677.23,-5.63 677.23,-24.88"/>
<text text-anchor="middle" x="657.23" y="-11.38" font-family="Helvetica,sans-Serif" font-size="10.00">string</text>
</a>
</g>
</g>
<!-- Node1&#45;&gt;Node4 -->
<g id="edge3_Node000001_Node000004" class="edge">
<title>Node1&#45;&gt;Node4</title>
<g id="a_edge3_Node000001_Node000004"><a xlink:title=" ">
<path fill="none" stroke="#63b8ff" d="M368.15,-340.44C457.2,-338.31 632.58,-329.82 777.23,-296.5 869.44,-275.26 974.23,-310.38 974.23,-215.75 974.23,-215.75 974.23,-215.75 974.23,-147.25 974.23,-85.68 767.42,-38.11 687.88,-22.09"/>
<polygon fill="#63b8ff" stroke="#63b8ff" points="689.03,-18.55 678.54,-20.04 687.67,-25.42 689.03,-18.55"/>
</a>
</g>
</g>
<!-- Node5 -->
<g id="Node000005" class="node">
<title>Node5</title>
<g id="a_Node000005"><a xlink:title=" ">
<polygon fill="#e0e0e0" stroke="#999999" points="356.73,-224.38 313.73,-224.38 313.73,-205.12 356.73,-205.12 356.73,-224.38"/>
<text text-anchor="middle" x="335.23" y="-210.88" font-family="Helvetica,sans-Serif" font-size="10.00">vector</text>
</a>
</g>
</g>
<!-- Node1&#45;&gt;Node5 -->
<g id="edge4_Node000001_Node000005" class="edge">
<title>Node1&#45;&gt;Node5</title>
<g id="a_edge4_Node000001_Node000005"><a xlink:title=" ">
<path fill="none" stroke="#63b8ff" d="M312.02,-332.11C316.04,-311.96 325.83,-262.88 331.32,-235.34"/>
<polygon fill="#63b8ff" stroke="#63b8ff" points="334.92,-236.18 333.44,-225.68 328.06,-234.81 334.92,-236.18"/>
</a>
</g>
</g>
<!-- Node6 -->
<g id="Node000006" class="node">
<title>Node6</title>
<g id="a_Node000006"><a xlink:title=" ">
<polygon fill="#e0e0e0" stroke="#999999" points="881.85,-224.38 830.6,-224.38 830.6,-205.12 881.85,-205.12 881.85,-224.38"/>
<text text-anchor="middle" x="856.23" y="-210.88" font-family="Helvetica,sans-Serif" font-size="10.00">memory</text>
</a>
</g>
</g>
<!-- Node1&#45;&gt;Node6 -->
<g id="edge5_Node000001_Node000006" class="edge">
<title>Node1&#45;&gt;Node6</title>
<g id="a_edge5_Node000001_Node000006"><a xlink:title=" ">
<path fill="none" stroke="#63b8ff" d="M367.92,-338.35C437.85,-333.93 558.8,-322.92 659.23,-296.5 722.12,-279.95 791.63,-248 828.94,-229.64"/>
<polygon fill="#63b8ff" stroke="#63b8ff" points="830.18,-232.44 837.58,-224.85 827.07,-226.17 830.18,-232.44"/>
</a>
</g>
</g>
<!-- Node7 -->
<g id="Node000007" class="node">
<title>Node7</title>
<g id="a_Node000007"><a xlink:title=" ">
<polygon fill="#e0e0e0" stroke="#999999" points="946.23,-224.38 900.23,-224.38 900.23,-205.12 946.23,-205.12 946.23,-224.38"/>
<text text-anchor="middle" x="923.23" y="-210.88" font-family="Helvetica,sans-Serif" font-size="10.00">iterator</text>
</a>
</g>
</g>
<!-- Node1&#45;&gt;Node7 -->
<g id="edge6_Node000001_Node000007" class="edge">
<title>Node1&#45;&gt;Node7</title>
<g id="a_edge6_Node000001_Node000007"><a xlink:title=" ">
<path fill="none" stroke="#63b8ff" d="M367.98,-339.43C447.6,-336.05 595.1,-326.01 717.23,-296.5 783.38,-280.51 856.63,-247.98 895.47,-229.46"/>
<polygon fill="#63b8ff" stroke="#63b8ff" points="896.54,-232.34 904.03,-224.85 893.5,-226.04 896.54,-232.34"/>
</a>
</g>
</g>
<!-- Node8 -->
<g id="Node000008" class="node">
<title>Node8</title>
<g id="a_Node000008"><a xlink:title=" ">
<polygon fill="#e0e0e0" stroke="#999999" points="304.98,-30.5 191.48,-30.5 191.48,0 304.98,0 304.98,-30.5"/>
<text text-anchor="start" x="199.48" y="-17" font-family="Helvetica,sans-Serif" font-size="10.00">lfilesystem/lfilesystem</text>
<text text-anchor="middle" x="248.23" y="-5.75" font-family="Helvetica,sans-Serif" font-size="10.00">_Export.h</text>
</a>
</g>
</g>
<!-- Node1&#45;&gt;Node8 -->
<g id="edge7_Node000001_Node000008" class="edge">
<title>Node1&#45;&gt;Node8</title>
<g id="a_edge7_Node000001_Node000008"><a xlink:title=" ">
<path fill="none" stroke="#63b8ff" d="M252.47,-334.58C211.63,-328.45 156.35,-317.03 111.23,-296.5 56.02,-271.39 1.23,-276.4 1.23,-215.75 1.23,-215.75 1.23,-215.75 1.23,-147.25 1.23,-110.05 -3.68,-92.19 23.23,-66.5 45.53,-45.21 122.48,-31.34 180.23,-23.68"/>
<polygon fill="#63b8ff" stroke="#63b8ff" points="180.66,-27.02 190.13,-22.27 179.77,-20.08 180.66,-27.02"/>
</a>
</g>
</g>
<!-- Node9 -->
<g id="Node000009" class="node">
<title>Node9</title>
<g id="a_Node000009"><a xlink:href="lfilesystem___filesystem_entry_8h.html" target="_top" xlink:title="This file defines the FilesystemEntry class.">
<polygon fill="white" stroke="#666666" points="408.98,-163.5 295.48,-163.5 295.48,-133 408.98,-133 408.98,-163.5"/>
<text text-anchor="start" x="303.48" y="-150" font-family="Helvetica,sans-Serif" font-size="10.00">lfilesystem/lfilesystem</text>
<text text-anchor="middle" x="352.23" y="-138.75" font-family="Helvetica,sans-Serif" font-size="10.00">_FilesystemEntry.h</text>
</a>
</g>
</g>
<!-- Node1&#45;&gt;Node9 -->
<g id="edge8_Node000001_Node000009" class="edge">
<title>Node1&#45;&gt;Node9</title>
<g id="a_edge8_Node000001_Node000009"><a xlink:title=" ">
<path fill="none" stroke="#63b8ff" d="M307.37,-332.08C300.59,-308.98 285.45,-246.33 304.23,-199.5 308.54,-188.75 316.36,-179 324.46,-171"/>
<polygon fill="#63b8ff" stroke="#63b8ff" points="326.52,-173.95 331.54,-164.62 321.79,-168.79 326.52,-173.95"/>
</a>
</g>
</g>
<!-- Node15 -->
<g id="Node000015" class="node">
<title>Node15</title>
<g id="a_Node000015"><a xlink:href="lfilesystem___file_8h.html" target="_top" xlink:title="This file defines the File and TempFile classes.">
<polygon fill="white" stroke="#666666" points="649.98,-296.5 536.48,-296.5 536.48,-266 649.98,-266 649.98,-296.5"/>
<text text-anchor="start" x="544.48" y="-283" font-family="Helvetica,sans-Serif" font-size="10.00">lfilesystem/lfilesystem</text>
<text text-anchor="middle" x="593.23" y="-271.75" font-family="Helvetica,sans-Serif" font-size="10.00">_File.h</text>
</a>
</g>
</g>
<!-- Node1&#45;&gt;Node15 -->
<g id="edge22_Node000001_Node000015" class="edge">
<title>Node1&#45;&gt;Node15</title>
<g id="a_edge22_Node000001_Node000015"><a xlink:title=" ">
<path fill="none" stroke="#63b8ff" d="M353.82,-332.05C399.59,-322.53 472.15,-307.44 525.4,-296.36"/>
<polygon fill="#63b8ff" stroke="#63b8ff" points="526.04,-299.59 535.12,-294.13 524.62,-292.74 526.04,-299.59"/>
</a>
</g>
</g>
<!-- Node20 -->
<g id="Node000020" class="node">
<title>Node20</title>
<g id="a_Node000020"><a xlink:href="lfilesystem___sym_link_8h.html" target="_top" xlink:title="This file defines the files::SymLink class.">
<polygon fill="white" stroke="#666666" points="256.98,-230 143.48,-230 143.48,-199.5 256.98,-199.5 256.98,-230"/>
<text text-anchor="start" x="151.48" y="-216.5" font-family="Helvetica,sans-Serif" font-size="10.00">lfilesystem/lfilesystem</text>
<text text-anchor="middle" x="200.23" y="-205.25" font-family="Helvetica,sans-Serif" font-size="10.00">_SymLink.h</text>
</a>
</g>
</g>
<!-- Node1&#45;&gt;Node20 -->
<g id="edge38_Node000001_Node000020" class="edge">
<title>Node1&#45;&gt;Node20</title>
<g id="a_edge38_Node000001_Node000020"><a xlink:title=" ">
<path fill="none" stroke="#63b8ff" d="M302.31,-332.11C285.26,-312.67 244.6,-266.32 220.05,-238.34"/>
<polygon fill="#63b8ff" stroke="#63b8ff" points="222.21,-236.51 212.99,-231.3 216.95,-241.12 222.21,-236.51"/>
</a>
</g>
</g>
<!-- Node9&#45;&gt;Node2 -->
<g id="edge12_Node000009_Node000002" class="edge">
<title>Node9&#45;&gt;Node2</title>
<g id="a_edge12_Node000009_Node000002"><a xlink:title=" ">
<path fill="none" stroke="#63b8ff" d="M301.8,-132.53C262.03,-120.93 207.34,-104.97 170.72,-94.28"/>
<polygon fill="#63b8ff" stroke="#63b8ff" points="172.01,-90.71 161.43,-91.27 170.05,-97.43 172.01,-90.71"/>
</a>
</g>
</g>
<!-- Node9&#45;&gt;Node3 -->
<g id="edge9_Node000009_Node000003" class="edge">
<title>Node9&#45;&gt;Node3</title>
<g id="a_edge9_Node000009_Node000003"><a xlink:title=" ">
<path fill="none" stroke="#63b8ff" d="M295,-138.97C242.09,-130.64 161.55,-116.29 93.23,-97 91.45,-96.5 89.65,-95.95 87.83,-95.38"/>
<polygon fill="#63b8ff" stroke="#63b8ff" points="89.12,-91.77 78.52,-91.82 86.84,-98.39 89.12,-91.77"/>
</a>
</g>
</g>
<!-- Node9&#45;&gt;Node4 -->
<g id="edge11_Node000009_Node000004" class="edge">
<title>Node9&#45;&gt;Node4</title>
<g id="a_edge11_Node000009_Node000004"><a xlink:title=" ">
<path fill="none" stroke="#63b8ff" d="M409.32,-140.63C472.46,-132.46 569.37,-117.13 600.23,-97 623.41,-81.87 640.01,-53.74 649.12,-35"/>
<polygon fill="#63b8ff" stroke="#63b8ff" points="652.62,-36.77 653.61,-26.23 646.26,-33.85 652.62,-36.77"/>
</a>
</g>
</g>
<!-- Node9&#45;&gt;Node8 -->
<g id="edge15_Node000009_Node000008" class="edge">
<title>Node9&#45;&gt;Node8</title>
<g id="a_edge15_Node000009_Node000008"><a xlink:title=" ">
<path fill="none" stroke="#63b8ff" d="M340.7,-132.73C322.74,-110.11 287.92,-66.25 266.51,-39.28"/>
<polygon fill="#63b8ff" stroke="#63b8ff" points="268.76,-37.49 259.8,-31.83 263.28,-41.84 268.76,-37.49"/>
</a>
</g>
</g>
<!-- Node10 -->
<g id="Node000010" class="node">
<title>Node10</title>
<g id="a_Node000010"><a xlink:title=" ">
<polygon fill="#e0e0e0" stroke="#999999" points="501.73,-24.88 440.73,-24.88 440.73,-5.63 501.73,-5.63 501.73,-24.88"/>
<text text-anchor="middle" x="471.23" y="-11.38" font-family="Helvetica,sans-Serif" font-size="10.00">filesystem</text>
</a>
</g>
</g>
<!-- Node9&#45;&gt;Node10 -->
<g id="edge10_Node000009_Node000010" class="edge">
<title>Node9&#45;&gt;Node10</title>
<g id="a_edge10_Node000009_Node000010"><a xlink:title=" ">
<path fill="none" stroke="#63b8ff" d="M350.06,-132.6C348.3,-115.14 348.06,-85.89 362.23,-66.5 371.27,-54.12 405.95,-39.36 433.8,-29.06"/>
<polygon fill="#63b8ff" stroke="#63b8ff" points="434.85,-32.03 443.07,-25.34 432.47,-25.45 434.85,-32.03"/>
</a>
</g>
</g>
<!-- Node11 -->
<g id="Node000011" class="node">
<title>Node11</title>
<g id="a_Node000011"><a xlink:title=" ">
<polygon fill="#e0e0e0" stroke="#999999" points="421.1,-91.38 371.35,-91.38 371.35,-72.12 421.1,-72.12 421.1,-91.38"/>
<text text-anchor="middle" x="396.23" y="-77.88" font-family="Helvetica,sans-Serif" font-size="10.00">optional</text>
</a>
</g>
</g>
<!-- Node9&#45;&gt;Node11 -->
<g id="edge13_Node000009_Node000011" class="edge">
<title>Node9&#45;&gt;Node11</title>
<g id="a_edge13_Node000009_Node000011"><a xlink:title=" ">
<path fill="none" stroke="#63b8ff" d="M362.21,-132.61C368.74,-123.04 377.32,-110.47 384.22,-100.35"/>
<polygon fill="#63b8ff" stroke="#63b8ff" points="387.46,-102.81 390.21,-92.57 381.68,-98.86 387.46,-102.81"/>
</a>
</g>
</g>
<!-- Node12 -->
<g id="Node000012" class="node">
<title>Node12</title>
<g id="a_Node000012"><a xlink:title=" ">
<polygon fill="#e0e0e0" stroke="#999999" points="407.85,-24.88 356.6,-24.88 356.6,-5.63 407.85,-5.63 407.85,-24.88"/>
<text text-anchor="middle" x="382.23" y="-11.38" font-family="Helvetica,sans-Serif" font-size="10.00">ostream</text>
</a>
</g>
</g>
<!-- Node9&#45;&gt;Node12 -->
<g id="edge14_Node000009_Node000012" class="edge">
<title>Node9&#45;&gt;Node12</title>
<g id="a_edge14_Node000009_Node000012"><a xlink:title=" ">
<path fill="none" stroke="#63b8ff" d="M342.15,-132.57C332.18,-116.08 319.67,-88.73 329.23,-66.5 335.31,-52.34 347.56,-40.31 358.75,-31.56"/>
<polygon fill="#63b8ff" stroke="#63b8ff" points="360.35,-34 366.36,-25.28 356.22,-28.35 360.35,-34"/>
</a>
</g>
</g>
<!-- Node13 -->
<g id="Node000013" class="node">
<title>Node13</title>
<g id="a_Node000013"><a xlink:href="lfilesystem___permissions_8h.html" target="_top" xlink:title="This file defines the Permissions class.">
<polygon fill="white" stroke="#666666" points="590.98,-97 477.48,-97 477.48,-66.5 590.98,-66.5 590.98,-97"/>
<text text-anchor="start" x="485.48" y="-83.5" font-family="Helvetica,sans-Serif" font-size="10.00">lfilesystem/lfilesystem</text>
<text text-anchor="middle" x="534.23" y="-72.25" font-family="Helvetica,sans-Serif" font-size="10.00">_Permissions.h</text>
</a>
</g>
</g>
<!-- Node9&#45;&gt;Node13 -->
<g id="edge16_Node000009_Node000013" class="edge">
<title>Node9&#45;&gt;Node13</title>
<g id="a_edge16_Node000009_Node000013"><a xlink:title=" ">
<path fill="none" stroke="#63b8ff" d="M393.52,-132.61C419.96,-123.25 454.46,-111.02 482.69,-101.01"/>
<polygon fill="#63b8ff" stroke="#63b8ff" points="483.52,-104.08 491.78,-97.44 481.18,-97.48 483.52,-104.08"/>
</a>
</g>
</g>
<!-- Node13&#45;&gt;Node4 -->
<g id="edge18_Node000013_Node000004" class="edge">
<title>Node13&#45;&gt;Node4</title>
<g id="a_edge18_Node000013_Node000004"><a xlink:title=" ">
<path fill="none" stroke="#63b8ff" d="M562.14,-66.11C582.63,-55.37 610.3,-40.86 630.51,-30.26"/>
<polygon fill="#63b8ff" stroke="#63b8ff" points="631.81,-33 639.04,-25.26 628.56,-26.8 631.81,-33"/>
</a>
</g>
</g>
<!-- Node13&#45;&gt;Node8 -->
<g id="edge21_Node000013_Node000008" class="edge">
<title>Node13&#45;&gt;Node8</title>
<g id="a_edge21_Node000013_Node000008"><a xlink:title=" ">
<path fill="none" stroke="#63b8ff" d="M477.04,-67.85C430.57,-57.37 364.91,-42.56 315.84,-31.5"/>
<polygon fill="#63b8ff" stroke="#63b8ff" points="316.84,-27.91 306.32,-29.13 315.3,-34.74 316.84,-27.91"/>
</a>
</g>
</g>
<!-- Node13&#45;&gt;Node10 -->
<g id="edge17_Node000013_Node000010" class="edge">
<title>Node13&#45;&gt;Node10</title>
<g id="a_edge17_Node000013_Node000010"><a xlink:title=" ">
<path fill="none" stroke="#63b8ff" d="M519.93,-66.11C510.29,-56.24 497.54,-43.19 487.51,-32.92"/>
<polygon fill="#63b8ff" stroke="#63b8ff" points="490.33,-30.78 480.84,-26.07 485.33,-35.67 490.33,-30.78"/>
</a>
</g>
</g>
<!-- Node13&#45;&gt;Node12 -->
<g id="edge20_Node000013_Node000012" class="edge">
<title>Node13&#45;&gt;Node12</title>
<g id="a_edge20_Node000013_Node000012"><a xlink:title=" ">
<path fill="none" stroke="#63b8ff" d="M499.73,-66.11C473.83,-55.12 438.64,-40.19 413.54,-29.54"/>
<polygon fill="#63b8ff" stroke="#63b8ff" points="415.03,-25.94 404.46,-25.26 412.3,-32.39 415.03,-25.94"/>
</a>
</g>
</g>
<!-- Node14 -->
<g id="Node000014" class="node">
<title>Node14</title>
<g id="a_Node000014"><a xlink:title=" ">
<polygon fill="#e0e0e0" stroke="#999999" points="592.98,-24.88 527.48,-24.88 527.48,-5.63 592.98,-5.63 592.98,-24.88"/>
<text text-anchor="middle" x="560.23" y="-11.38" font-family="Helvetica,sans-Serif" font-size="10.00">string_view</text>
</a>
</g>
</g>
<!-- Node13&#45;&gt;Node14 -->
<g id="edge19_Node000013_Node000014" class="edge">
<title>Node13&#45;&gt;Node14</title>
<g id="a_edge19_Node000013_Node000014"><a xlink:title=" ">
<path fill="none" stroke="#63b8ff" d="M540.13,-66.11C543.83,-56.93 548.64,-45 552.62,-35.11"/>
<polygon fill="#63b8ff" stroke="#63b8ff" points="556.18,-36.66 556.67,-26.07 549.68,-34.04 556.18,-36.66"/>
</a>
</g>
</g>
<!-- Node15&#45;&gt;Node2 -->
<g id="edge27_Node000015_Node000002" class="edge">
<title>Node15&#45;&gt;Node2</title>
<g id="a_edge27_Node000015_Node000002"><a xlink:title=" ">
<path fill="none" stroke="#63b8ff" d="M536.02,-278.13C418.97,-273.22 160.91,-259.16 134.23,-230 102.24,-195.04 114.99,-133.53 124.47,-102.23"/>
<polygon fill="#63b8ff" stroke="#63b8ff" points="128.09,-103.42 127.84,-92.83 121.43,-101.26 128.09,-103.42"/>
</a>
</g>
</g>
<!-- Node15&#45;&gt;Node4 -->
<g id="edge24_Node000015_Node000004" class="edge">
<title>Node15&#45;&gt;Node4</title>
<g id="a_edge24_Node000015_Node000004"><a xlink:title=" ">
<path fill="none" stroke="#63b8ff" d="M602.57,-265.87C608.49,-256.12 615.83,-242.73 620.23,-230 644.06,-160.93 653.02,-73.79 655.96,-35.63"/>
<polygon fill="#63b8ff" stroke="#63b8ff" points="659.49,-36.28 656.71,-26.05 652.51,-35.78 659.49,-36.28"/>
</a>
</g>
</g>
<!-- Node15&#45;&gt;Node5 -->
<g id="edge26_Node000015_Node000005" class="edge">
<title>Node15&#45;&gt;Node5</title>
<g id="a_edge26_Node000015_Node000005"><a xlink:title=" ">
<path fill="none" stroke="#63b8ff" d="M536.02,-269.83C490.8,-260.98 426.35,-247.04 371.23,-230 369.7,-229.53 368.15,-229.02 366.59,-228.49"/>
<polygon fill="#63b8ff" stroke="#63b8ff" points="367.95,-224.89 357.35,-224.74 365.54,-231.47 367.95,-224.89"/>
</a>
</g>
</g>
<!-- Node15&#45;&gt;Node6 -->
<g id="edge30_Node000015_Node000006" class="edge">
<title>Node15&#45;&gt;Node6</title>
<g id="a_edge30_Node000015_Node000006"><a xlink:title=" ">
<path fill="none" stroke="#63b8ff" d="M650.44,-270.67C697.23,-262.13 764.79,-248.17 822.23,-230 823.53,-229.59 824.85,-229.14 826.18,-228.68"/>
<polygon fill="#63b8ff" stroke="#63b8ff" points="827.23,-231.64 835.31,-224.8 824.72,-225.11 827.23,-231.64"/>
</a>
</g>
</g>
<!-- Node15&#45;&gt;Node7 -->
<g id="edge31_Node000015_Node000007" class="edge">
<title>Node15&#45;&gt;Node7</title>
<g id="a_edge31_Node000015_Node000007"><a xlink:title=" ">
<path fill="none" stroke="#63b8ff" d="M650.22,-274.95C710.93,-268.32 809.35,-254.7 891.23,-230 892.5,-229.61 893.8,-229.19 895.09,-228.74"/>
<polygon fill="#63b8ff" stroke="#63b8ff" points="895.9,-231.79 903.91,-224.85 893.33,-225.28 895.9,-231.79"/>
</a>
</g>
</g>
<!-- Node15&#45;&gt;Node8 -->
<g id="edge32_Node000015_Node000008" class="edge">
<title>Node15&#45;&gt;Node8</title>
<g id="a_edge32_Node000015_Node000008"><a xlink:title=" ">
<path fill="none" stroke="#63b8ff" d="M536.27,-272.83C496.15,-265.89 442.15,-253.02 399.23,-230 381.34,-220.4 382.21,-210.61 365.23,-199.5 332.94,-178.37 311.02,-193.06 286.23,-163.5 256.76,-128.37 249.79,-73.13 248.35,-41.24"/>
<polygon fill="#63b8ff" stroke="#63b8ff" points="251.83,-41.52 248.04,-31.63 244.83,-41.73 251.83,-41.52"/>
</a>
</g>
</g>
<!-- Node15&#45;&gt;Node9 -->
<g id="edge33_Node000015_Node000009" class="edge">
<title>Node15&#45;&gt;Node9</title>
<g id="a_edge33_Node000015_Node000009"><a xlink:title=" ">
<path fill="none" stroke="#63b8ff" d="M536.02,-267.18C506.74,-259.04 471.25,-246.86 442.23,-230 415.15,-214.27 389.07,-189.46 372.02,-171.49"/>
<polygon fill="#63b8ff" stroke="#63b8ff" points="375.22,-169.71 365.85,-164.77 370.09,-174.48 375.22,-169.71"/>
</a>
</g>
</g>
<!-- Node15&#45;&gt;Node11 -->
<g id="edge28_Node000015_Node000011" class="edge">
<title>Node15&#45;&gt;Node11</title>
<g id="a_edge28_Node000015_Node000011"><a xlink:title=" ">
<path fill="none" stroke="#63b8ff" d="M592.28,-265.5C589.52,-235.61 578.88,-167.76 538.23,-133 507.95,-107.12 463.44,-94.25 432.35,-88.07"/>
<polygon fill="#63b8ff" stroke="#63b8ff" points="433.02,-84.45 422.55,-86.08 431.75,-91.33 433.02,-84.45"/>
</a>
</g>
</g>
<!-- Node15&#45;&gt;Node14 -->
<g id="edge25_Node000015_Node000014" class="edge">
<title>Node15&#45;&gt;Node14</title>
<g id="a_edge25_Node000015_Node000014"><a xlink:title=" ">
<path fill="none" stroke="#63b8ff" d="M597.2,-265.71C606.12,-230.37 625.09,-137.65 600.23,-66.5 595.77,-53.74 586.56,-41.79 578.1,-32.75"/>
<polygon fill="#63b8ff" stroke="#63b8ff" points="580.94,-30.65 571.4,-26.04 575.99,-35.59 580.94,-30.65"/>
</a>
</g>
</g>
<!-- Node16 -->
<g id="Node000016" class="node">
<title>Node16</title>
<g id="a_Node000016"><a xlink:title=" ">
<polygon fill="#e0e0e0" stroke="#999999" points="745.35,-224.38 697.1,-224.38 697.1,-205.12 745.35,-205.12 745.35,-224.38"/>
<text text-anchor="middle" x="721.23" y="-210.88" font-family="Helvetica,sans-Serif" font-size="10.00">cstddef</text>
</a>
</g>
</g>
<!-- Node15&#45;&gt;Node16 -->
<g id="edge23_Node000015_Node000016" class="edge">
<title>Node15&#45;&gt;Node16</title>
<g id="a_edge23_Node000015_Node000016"><a xlink:title=" ">
<path fill="none" stroke="#63b8ff" d="M622.27,-265.61C643.7,-254.82 672.66,-240.22 693.71,-229.61"/>
<polygon fill="#63b8ff" stroke="#63b8ff" points="694.99,-232.39 702.35,-224.76 691.84,-226.13 694.99,-232.39"/>
</a>
</g>
</g>
<!-- Node17 -->
<g id="Node000017" class="node">
<title>Node17</title>
<g id="a_Node000017"><a xlink:title=" ">
<polygon fill="#e0e0e0" stroke="#999999" points="812.73,-224.38 763.73,-224.38 763.73,-205.12 812.73,-205.12 812.73,-224.38"/>
<text text-anchor="middle" x="788.23" y="-210.88" font-family="Helvetica,sans-Serif" font-size="10.00">fstream</text>
</a>
</g>
</g>
<!-- Node15&#45;&gt;Node17 -->
<g id="edge29_Node000015_Node000017" class="edge">
<title>Node15&#45;&gt;Node17</title>
<g id="a_edge29_Node000015_Node000017"><a xlink:title=" ">
<path fill="none" stroke="#63b8ff" d="M644.76,-265.52C676.56,-256.09 718.05,-243.19 754.23,-230 755.31,-229.61 756.41,-229.2 757.51,-228.78"/>
<polygon fill="#63b8ff" stroke="#63b8ff" points="758.49,-231.75 766.49,-224.81 755.91,-225.25 758.49,-231.75"/>
</a>
</g>
</g>
<!-- Node18 -->
<g id="Node000018" class="node">
<title>Node18</title>
<g id="a_Node000018"><a xlink:href="lfilesystem___c_file_8h.html" target="_top" xlink:title="This file defines the CFile class.">
<polygon fill="white" stroke="#666666" points="564.98,-230 451.48,-230 451.48,-199.5 564.98,-199.5 564.98,-230"/>
<text text-anchor="start" x="459.48" y="-216.5" font-family="Helvetica,sans-Serif" font-size="10.00">lfilesystem/lfilesystem</text>
<text text-anchor="middle" x="508.23" y="-205.25" font-family="Helvetica,sans-Serif" font-size="10.00">_CFile.h</text>
</a>
</g>
</g>
<!-- Node15&#45;&gt;Node18 -->
<g id="edge34_Node000015_Node000018" class="edge">
<title>Node15&#45;&gt;Node18</title>
<g id="a_edge34_Node000015_Node000018"><a xlink:title=" ">
<path fill="none" stroke="#63b8ff" d="M573.94,-265.61C562.74,-257.12 548.45,-246.27 536.06,-236.87"/>
<polygon fill="#63b8ff" stroke="#63b8ff" points="538.52,-233.58 528.44,-230.33 534.29,-239.16 538.52,-233.58"/>
</a>
</g>
</g>
<!-- Node18&#45;&gt;Node8 -->
<g id="edge36_Node000018_Node000008" class="edge">
<title>Node18&#45;&gt;Node8</title>
<g id="a_edge36_Node000018_Node000008"><a xlink:title=" ">
<path fill="none" stroke="#63b8ff" d="M499.26,-199.41C493.13,-189.45 484.93,-175.81 478.23,-163.5 455.21,-121.26 467.31,-97.13 430.23,-66.5 412.6,-51.94 360.14,-38.33 316.04,-28.95"/>
<polygon fill="#63b8ff" stroke="#63b8ff" points="316.84,-25.33 306.33,-26.72 315.41,-32.19 316.84,-25.33"/>
</a>
</g>
</g>
<!-- Node18&#45;&gt;Node9 -->
<g id="edge37_Node000018_Node000009" class="edge">
<title>Node18&#45;&gt;Node9</title>
<g id="a_edge37_Node000018_Node000009"><a xlink:title=" ">
<path fill="none" stroke="#63b8ff" d="M472.83,-199.11C450.57,-189.91 421.63,-177.95 397.68,-168.04"/>
<polygon fill="#63b8ff" stroke="#63b8ff" points="399.33,-164.53 388.75,-163.94 396.66,-171 399.33,-164.53"/>
</a>
</g>
</g>
<!-- Node19 -->
<g id="Node000019" class="node">
<title>Node19</title>
<g id="a_Node000019"><a xlink:title=" ">
<polygon fill="#e0e0e0" stroke="#999999" points="529.35,-157.88 487.1,-157.88 487.1,-138.62 529.35,-138.62 529.35,-157.88"/>
<text text-anchor="middle" x="508.23" y="-144.38" font-family="Helvetica,sans-Serif" font-size="10.00">cstdio</text>
</a>
</g>
</g>
<!-- Node18&#45;&gt;Node19 -->
<g id="edge35_Node000018_Node000019" class="edge">
<title>Node18&#45;&gt;Node19</title>
<g id="a_edge35_Node000018_Node000019"><a xlink:title=" ">
<path fill="none" stroke="#63b8ff" d="M508.23,-199.11C508.23,-190.13 508.23,-178.51 508.23,-168.76"/>
<polygon fill="#63b8ff" stroke="#63b8ff" points="511.73,-169.07 508.23,-159.07 504.73,-169.07 511.73,-169.07"/>
</a>
</g>
</g>
<!-- Node20&#45;&gt;Node2 -->
<g id="edge39_Node000020_Node000002" class="edge">
<title>Node20&#45;&gt;Node2</title>
<g id="a_edge39_Node000020_Node000002"><a xlink:title=" ">
<path fill="none" stroke="#63b8ff" d="M192.58,-199.23C180,-175.34 154.94,-127.78 141.06,-101.42"/>
<polygon fill="#63b8ff" stroke="#63b8ff" points="143.78,-100.07 136.02,-92.85 137.58,-103.33 143.78,-100.07"/>
</a>
</g>
</g>
<!-- Node20&#45;&gt;Node8 -->
<g id="edge41_Node000020_Node000008" class="edge">
<title>Node20&#45;&gt;Node8</title>
<g id="a_edge41_Node000020_Node000008"><a xlink:title=" ">
<path fill="none" stroke="#63b8ff" d="M199.46,-199.04C198.53,-171.95 198.8,-112.75 215.23,-66.5 218.59,-57.03 224.09,-47.57 229.65,-39.46"/>
<polygon fill="#63b8ff" stroke="#63b8ff" points="233.02,-41.78 236.07,-31.63 227.36,-37.66 233.02,-41.78"/>
</a>
</g>
</g>
<!-- Node20&#45;&gt;Node9 -->
<g id="edge42_Node000020_Node000009" class="edge">
<title>Node20&#45;&gt;Node9</title>
<g id="a_edge42_Node000020_Node000009"><a xlink:title=" ">
<path fill="none" stroke="#63b8ff" d="M234.72,-199.11C256.31,-189.95 284.35,-178.05 307.63,-168.18"/>
<polygon fill="#63b8ff" stroke="#63b8ff" points="308.77,-171.07 316.61,-163.94 306.04,-164.62 308.77,-171.07"/>
</a>
</g>
</g>
<!-- Node20&#45;&gt;Node11 -->
<g id="edge40_Node000020_Node000011" class="edge">
<title>Node20&#45;&gt;Node11</title>
<g id="a_edge40_Node000020_Node000011"><a xlink:title=" ">
<path fill="none" stroke="#63b8ff" d="M213.03,-199.1C228.88,-181.65 257.32,-152.41 286.23,-133 309.55,-117.34 338.55,-104.32 360.91,-95.46"/>
<polygon fill="#63b8ff" stroke="#63b8ff" points="361.92,-98.44 369.99,-91.57 359.4,-91.91 361.92,-98.44"/>
</a>
</g>
</g>
</g>
</svg>
