<?xml version="1.0" encoding="UTF-8" standalone="no"?>
<!DOCTYPE svg PUBLIC "-//W3C//DTD SVG 1.1//EN"
 "http://www.w3.org/Graphics/SVG/1.1/DTD/svg11.dtd">
<!-- Generated by graphviz version 2.43.0 (0)
 -->
<!-- Title: lfilesystem_CFile.h Pages: 1 -->
<svg width="506pt" height="364pt"
 viewBox="0.00 0.00 505.50 364.00" xmlns="http://www.w3.org/2000/svg" xmlns:xlink="http://www.w3.org/1999/xlink">
<g id="graph0" class="graph" transform="scale(1 1) rotate(0) translate(4 360)">
<title>lfilesystem_CFile.h</title>
<polygon fill="white" stroke="transparent" points="-4,4 -4,-360 501.5,-360 501.5,4 -4,4"/>
<!-- Node1 -->
<g id="node1" class="node">
<title>Node1</title>
<g id="a_node1"><a xlink:title="This file defines the CFile class.">
<polygon fill="#bfbfbf" stroke="black" points="25.5,-336.5 25.5,-355.5 134.5,-355.5 134.5,-336.5 25.5,-336.5"/>
<text text-anchor="middle" x="80" y="-343.5" font-family="Helvetica,sans-Serif" font-size="10.00">lfilesystem_CFile.h</text>
</a>
</g>
</g>
<!-- Node2 -->
<g id="node2" class="node">
<title>Node2</title>
<g id="a_node2"><a xlink:href="lfilesystem_8h.html" target="_top" xlink:title="The main header for the limes_files library.">
<polygon fill="white" stroke="black" points="96,-56.5 96,-75.5 176,-75.5 176,-56.5 96,-56.5"/>
<text text-anchor="middle" x="136" y="-63.5" font-family="Helvetica,sans-Serif" font-size="10.00">lfilesystem.h</text>
</a>
</g>
</g>
<!-- Node1&#45;&gt;Node2 -->
<g id="edge1" class="edge">
<title>Node1&#45;&gt;Node2</title>
<path fill="none" stroke="midnightblue" d="M69.59,-327.46C58.04,-306.3 41,-269.28 41,-235 41,-235 41,-235 41,-177 41,-129.06 93.33,-91.69 120.31,-75.6"/>
<polygon fill="midnightblue" stroke="midnightblue" points="66.6,-329.28 74.58,-336.25 72.69,-325.83 66.6,-329.28"/>
</g>
<!-- Node5 -->
<g id="node5" class="node">
<title>Node5</title>
<g id="a_node5"><a xlink:href="lfilesystem__File_8h.html" target="_top" xlink:title="This file defines the File and TempFile classes.">
<polygon fill="white" stroke="black" points="94,-280.5 94,-299.5 196,-299.5 196,-280.5 94,-280.5"/>
<text text-anchor="middle" x="145" y="-287.5" font-family="Helvetica,sans-Serif" font-size="10.00">lfilesystem_File.h</text>
</a>
</g>
</g>
<!-- Node1&#45;&gt;Node5 -->
<g id="edge4" class="edge">
<title>Node1&#45;&gt;Node5</title>
<path fill="none" stroke="midnightblue" d="M98.27,-329.82C109.92,-320.15 124.6,-307.95 134.37,-299.83"/>
<polygon fill="midnightblue" stroke="midnightblue" points="95.9,-327.24 90.44,-336.32 100.37,-332.63 95.9,-327.24"/>
</g>
<!-- Node3 -->
<g id="node3" class="node">
<title>Node3</title>
<g id="a_node3"><a xlink:href="files__dir__enumerate_8cpp_source.html" target="_top" xlink:title=" ">
<polygon fill="white" stroke="black" points="0,-0.5 0,-19.5 134,-19.5 134,-0.5 0,-0.5"/>
<text text-anchor="middle" x="67" y="-7.5" font-family="Helvetica,sans-Serif" font-size="10.00">files_dir_enumerate.cpp</text>
</a>
</g>
</g>
<!-- Node2&#45;&gt;Node3 -->
<g id="edge2" class="edge">
<title>Node2&#45;&gt;Node3</title>
<path fill="none" stroke="midnightblue" d="M116.96,-50.1C104.54,-40.38 88.76,-28.03 78.29,-19.83"/>
<polygon fill="midnightblue" stroke="midnightblue" points="114.88,-52.92 124.91,-56.32 119.2,-47.4 114.88,-52.92"/>
</g>
<!-- Node4 -->
<g id="node4" class="node">
<title>Node4</title>
<g id="a_node4"><a xlink:href="files__dir__listen_8cpp_source.html" target="_top" xlink:title=" ">
<polygon fill="white" stroke="black" points="152.5,-0.5 152.5,-19.5 259.5,-19.5 259.5,-0.5 152.5,-0.5"/>
<text text-anchor="middle" x="206" y="-7.5" font-family="Helvetica,sans-Serif" font-size="10.00">files_dir_listen.cpp</text>
</a>
</g>
</g>
<!-- Node2&#45;&gt;Node4 -->
<g id="edge3" class="edge">
<title>Node2&#45;&gt;Node4</title>
<path fill="none" stroke="midnightblue" d="M155.31,-50.1C167.91,-40.38 183.93,-28.03 194.55,-19.83"/>
<polygon fill="midnightblue" stroke="midnightblue" points="153.03,-47.44 147.25,-56.32 157.3,-52.99 153.03,-47.44"/>
</g>
<!-- Node5&#45;&gt;Node2 -->
<g id="edge5" class="edge">
<title>Node5&#45;&gt;Node2</title>
<path fill="none" stroke="midnightblue" d="M122.83,-274.16C113.28,-266.42 103.15,-256.05 98,-244 71.96,-183.01 114.66,-102.32 130.48,-75.83"/>
<polygon fill="midnightblue" stroke="midnightblue" points="120.83,-277.04 130.92,-280.26 125.04,-271.45 120.83,-277.04"/>
</g>
<!-- Node6 -->
<g id="node6" class="node">
<title>Node6</title>
<g id="a_node6"><a xlink:href="lfilesystem__Directory_8h.html" target="_top" xlink:title="This file defines the Directory class.">
<polygon fill="white" stroke="black" points="107,-224.5 107,-243.5 235,-243.5 235,-224.5 107,-224.5"/>
<text text-anchor="middle" x="171" y="-231.5" font-family="Helvetica,sans-Serif" font-size="10.00">lfilesystem_Directory.h</text>
</a>
</g>
</g>
<!-- Node5&#45;&gt;Node6 -->
<g id="edge6" class="edge">
<title>Node5&#45;&gt;Node6</title>
<path fill="none" stroke="midnightblue" d="M153.67,-270.98C158.09,-261.82 163.25,-251.09 166.79,-243.75"/>
<polygon fill="midnightblue" stroke="midnightblue" points="150.48,-269.55 149.29,-280.08 156.79,-272.59 150.48,-269.55"/>
</g>
<!-- Node9 -->
<g id="node9" class="node">
<title>Node9</title>
<g id="a_node9"><a xlink:href="lfilesystem__DynamicLibrary_8h.html" target="_top" xlink:title="This file defines the DynamicLibrary class.">
<polygon fill="white" stroke="black" points="336.5,-168.5 336.5,-187.5 497.5,-187.5 497.5,-168.5 336.5,-168.5"/>
<text text-anchor="middle" x="417" y="-175.5" font-family="Helvetica,sans-Serif" font-size="10.00">lfilesystem_DynamicLibrary.h</text>
</a>
</g>
</g>
<!-- Node5&#45;&gt;Node9 -->
<g id="edge12" class="edge">
<title>Node5&#45;&gt;Node9</title>
<path fill="none" stroke="midnightblue" d="M175.7,-276.59C231.42,-254.05 347.88,-206.95 395.76,-187.59"/>
<polygon fill="midnightblue" stroke="midnightblue" points="174.3,-273.37 166.34,-280.37 176.93,-279.86 174.3,-273.37"/>
</g>
<!-- Node6&#45;&gt;Node2 -->
<g id="edge7" class="edge">
<title>Node6&#45;&gt;Node2</title>
<path fill="none" stroke="midnightblue" d="M154.35,-217.04C147.23,-209.08 139.72,-198.84 136,-188 122.23,-147.86 130.19,-95.73 134.16,-75.52"/>
<polygon fill="midnightblue" stroke="midnightblue" points="152,-219.65 161.44,-224.45 157.05,-214.81 152,-219.65"/>
</g>
<!-- Node7 -->
<g id="node7" class="node">
<title>Node7</title>
<g id="a_node7"><a xlink:href="lfilesystem__SpecialDirectories_8h.html" target="_top" xlink:title="This file contains utility functions for finding some common directories.">
<polygon fill="white" stroke="black" points="145.5,-168.5 145.5,-187.5 318.5,-187.5 318.5,-168.5 145.5,-168.5"/>
<text text-anchor="middle" x="232" y="-175.5" font-family="Helvetica,sans-Serif" font-size="10.00">lfilesystem_SpecialDirectories.h</text>
</a>
</g>
</g>
<!-- Node6&#45;&gt;Node7 -->
<g id="edge8" class="edge">
<title>Node6&#45;&gt;Node7</title>
<path fill="none" stroke="midnightblue" d="M188.47,-217.54C199.34,-207.91 212.94,-195.87 222.02,-187.83"/>
<polygon fill="midnightblue" stroke="midnightblue" points="185.97,-215.07 180.8,-224.32 190.61,-220.32 185.97,-215.07"/>
</g>
<!-- Node7&#45;&gt;Node2 -->
<g id="edge9" class="edge">
<title>Node7&#45;&gt;Node2</title>
<path fill="none" stroke="midnightblue" d="M209.59,-162.67C198.07,-154.58 184.31,-143.76 174,-132 158.31,-114.11 145.72,-88.81 139.76,-75.67"/>
<polygon fill="midnightblue" stroke="midnightblue" points="207.64,-165.57 217.88,-168.29 211.57,-159.78 207.64,-165.57"/>
</g>
<!-- Node8 -->
<g id="node8" class="node">
<title>Node8</title>
<g id="a_node8"><a xlink:href="lfilesystem__Volume_8h.html" target="_top" xlink:title="This file defines the files::Volume class.">
<polygon fill="white" stroke="black" points="183,-112.5 183,-131.5 305,-131.5 305,-112.5 183,-112.5"/>
<text text-anchor="middle" x="244" y="-119.5" font-family="Helvetica,sans-Serif" font-size="10.00">lfilesystem_Volume.h</text>
</a>
</g>
</g>
<!-- Node7&#45;&gt;Node8 -->
<g id="edge10" class="edge">
<title>Node7&#45;&gt;Node8</title>
<path fill="none" stroke="midnightblue" d="M236.2,-158.1C238.19,-149.14 240.48,-138.86 242.06,-131.75"/>
<polygon fill="midnightblue" stroke="midnightblue" points="232.73,-157.56 233.98,-168.08 239.57,-159.08 232.73,-157.56"/>
</g>
<!-- Node8&#45;&gt;Node2 -->
<g id="edge11" class="edge">
<title>Node8&#45;&gt;Node2</title>
<path fill="none" stroke="midnightblue" d="M217.45,-107.73C197.45,-97.73 170.61,-84.31 153.31,-75.65"/>
<polygon fill="midnightblue" stroke="midnightblue" points="216.14,-110.98 226.65,-112.32 219.27,-104.72 216.14,-110.98"/>
</g>
<!-- Node9&#45;&gt;Node2 -->
<g id="edge13" class="edge">
<title>Node9&#45;&gt;Node2</title>
<path fill="none" stroke="midnightblue" d="M397.69,-162.18C377.73,-147.51 345.17,-125.38 314,-112 268.6,-92.52 212.92,-80.13 176.06,-73.39"/>
<polygon fill="midnightblue" stroke="midnightblue" points="395.82,-165.15 405.92,-168.33 400.01,-159.54 395.82,-165.15"/>
</g>
</g>
</svg>
