<?xml version="1.0" encoding="UTF-8" standalone="no"?>
<!DOCTYPE svg PUBLIC "-//W3C//DTD SVG 1.1//EN"
 "http://www.w3.org/Graphics/SVG/1.1/DTD/svg11.dtd">
<!-- Generated by graphviz version 2.43.0 (0)
 -->
<!-- Title: lfilesystem_File.h Pages: 1 -->
<svg width="338pt" height="196pt"
 viewBox="0.00 0.00 338.00 196.00" xmlns="http://www.w3.org/2000/svg" xmlns:xlink="http://www.w3.org/1999/xlink">
<g id="graph0" class="graph" transform="scale(1 1) rotate(0) translate(4 192)">
<title>lfilesystem_File.h</title>
<polygon fill="white" stroke="transparent" points="-4,4 -4,-192 334,-192 334,4 -4,4"/>
<!-- Node1 -->
<g id="node1" class="node">
<title>Node1</title>
<g id="a_node1"><a xlink:title="This file defines the File and TempFile classes.">
<polygon fill="#bfbfbf" stroke="black" points="116.5,-168.5 116.5,-187.5 218.5,-187.5 218.5,-168.5 116.5,-168.5"/>
<text text-anchor="middle" x="167.5" y="-175.5" font-family="Helvetica,sans-Serif" font-size="10.00">lfilesystem_File.h</text>
</a>
</g>
</g>
<!-- Node2 -->
<g id="node2" class="node">
<title>Node2</title>
<g id="a_node2"><a xlink:href="lfilesystem__Directory_8h.html" target="_top" xlink:title="This file defines the Directory class.">
<polygon fill="white" stroke="black" points="22.5,-112.5 22.5,-131.5 150.5,-131.5 150.5,-112.5 22.5,-112.5"/>
<text text-anchor="middle" x="86.5" y="-119.5" font-family="Helvetica,sans-Serif" font-size="10.00">lfilesystem_Directory.h</text>
</a>
</g>
</g>
<!-- Node1&#45;&gt;Node2 -->
<g id="edge1" class="edge">
<title>Node1&#45;&gt;Node2</title>
<path fill="none" stroke="midnightblue" d="M145.93,-162.62C131.14,-152.76 111.99,-139.99 99.48,-131.65"/>
<polygon fill="midnightblue" stroke="midnightblue" points="144.22,-165.69 154.49,-168.32 148.11,-159.86 144.22,-165.69"/>
</g>
<!-- Node5 -->
<g id="node5" class="node">
<title>Node5</title>
<g id="a_node5"><a xlink:href="lfilesystem__DynamicLibrary_8h.html" target="_top" xlink:title="This file defines the DynamicLibrary class.">
<polygon fill="white" stroke="black" points="169,-112.5 169,-131.5 330,-131.5 330,-112.5 169,-112.5"/>
<text text-anchor="middle" x="249.5" y="-119.5" font-family="Helvetica,sans-Serif" font-size="10.00">lfilesystem_DynamicLibrary.h</text>
</a>
</g>
</g>
<!-- Node1&#45;&gt;Node5 -->
<g id="edge4" class="edge">
<title>Node1&#45;&gt;Node5</title>
<path fill="none" stroke="midnightblue" d="M189.33,-162.62C204.31,-152.76 223.7,-139.99 236.36,-131.65"/>
<polygon fill="midnightblue" stroke="midnightblue" points="187.1,-159.9 180.67,-168.32 190.95,-165.75 187.1,-159.9"/>
</g>
<!-- Node3 -->
<g id="node3" class="node">
<title>Node3</title>
<g id="a_node3"><a xlink:href="lfilesystem__SpecialDirectories_8h.html" target="_top" xlink:title="This file contains utility functions for finding some common directories.">
<polygon fill="white" stroke="black" points="0,-56.5 0,-75.5 173,-75.5 173,-56.5 0,-56.5"/>
<text text-anchor="middle" x="86.5" y="-63.5" font-family="Helvetica,sans-Serif" font-size="10.00">lfilesystem_SpecialDirectories.h</text>
</a>
</g>
</g>
<!-- Node2&#45;&gt;Node3 -->
<g id="edge2" class="edge">
<title>Node2&#45;&gt;Node3</title>
<path fill="none" stroke="midnightblue" d="M86.5,-101.8C86.5,-92.91 86.5,-82.78 86.5,-75.75"/>
<polygon fill="midnightblue" stroke="midnightblue" points="83,-102.08 86.5,-112.08 90,-102.08 83,-102.08"/>
</g>
<!-- Node4 -->
<g id="node4" class="node">
<title>Node4</title>
<g id="a_node4"><a xlink:href="lfilesystem__Volume_8h.html" target="_top" xlink:title="This file defines the files::Volume class.">
<polygon fill="white" stroke="black" points="25.5,-0.5 25.5,-19.5 147.5,-19.5 147.5,-0.5 25.5,-0.5"/>
<text text-anchor="middle" x="86.5" y="-7.5" font-family="Helvetica,sans-Serif" font-size="10.00">lfilesystem_Volume.h</text>
</a>
</g>
</g>
<!-- Node3&#45;&gt;Node4 -->
<g id="edge3" class="edge">
<title>Node3&#45;&gt;Node4</title>
<path fill="none" stroke="midnightblue" d="M86.5,-45.8C86.5,-36.91 86.5,-26.78 86.5,-19.75"/>
<polygon fill="midnightblue" stroke="midnightblue" points="83,-46.08 86.5,-56.08 90,-46.08 83,-46.08"/>
</g>
</g>
</svg>
