<?xml version="1.0" encoding="UTF-8" standalone="no"?>
<!DOCTYPE svg PUBLIC "-//W3C//DTD SVG 1.1//EN"
 "http://www.w3.org/Graphics/SVG/1.1/DTD/svg11.dtd">
<!-- Generated by graphviz version 2.43.0 (0)
 -->
<!-- Title: lfilesystem_Permissions.h Pages: 1 -->
<!--zoomable 476 -->
<svg id="main" version="1.1" xmlns="http://www.w3.org/2000/svg" xmlns:xlink="http://www.w3.org/1999/xlink" xml:space="preserve" onload="init(evt)">
<style type="text/css"><![CDATA[
.edge:hover path { stroke: red; }
.edge:hover polygon { stroke: red; fill: red; }
]]></style>
<script type="text/javascript"><![CDATA[
var edges = document.getElementsByTagName('g');
if (edges && edges.length) {
  for (var i=0;i<edges.length;i++) {
    if (edges[i].id.substr(0,4)=='edge') {
      edges[i].setAttribute('class','edge');
    }
  }
}
]]></script>
        <defs>
                <circle id="rim" cx="0" cy="0" r="7"/>
                <circle id="rim2" cx="0" cy="0" r="3.5"/>
                <g id="zoomPlus">
                        <use xlink:href="#rim" fill="#404040">
                                <set attributeName="fill" to="#808080" begin="zoomplus.mouseover" end="zoomplus.mouseout"/>
                        </use>
                        <path d="M-4,0h8M0,-4v8" fill="none" stroke="white" stroke-width="1.5" pointer-events="none"/>
                </g>
                <g id="zoomMin">
                        <use xlink:href="#rim" fill="#404040">
                                <set attributeName="fill" to="#808080" begin="zoomminus.mouseover" end="zoomminus.mouseout"/>
                        </use>
                        <path d="M-4,0h8" fill="none" stroke="white" stroke-width="1.5" pointer-events="none"/>
                </g>
                <g id="dirArrow">
                        <path fill="none" stroke="white" stroke-width="1.5" d="M0,-3.0v7 M-2.5,-0.5L0,-3.0L2.5,-0.5"/>
                </g>
               <g id="resetDef">
                       <use xlink:href="#rim2" fill="#404040">
                               <set attributeName="fill" to="#808080" begin="reset.mouseover" end="reset.mouseout"/>
                       </use>
               </g>
        </defs>

<script type="text/javascript">
var viewWidth = 784;
var viewHeight = 476;
var sectionId = 'dynsection-1';
</script>
<script xlink:href="svgpan.js"/>
<svg id="graph" class="graph">
<g id="viewport">
<title>lfilesystem_Permissions.h</title>
<polygon fill="white" stroke="transparent" points="-4,4 -4,-472 780,-472 780,4 -4,4"/>
<!-- Node1 -->
<g id="node1" class="node">
<title>Node1</title>
<g id="a_node1"><a xlink:title="This file defines the Permissions class.">
<polygon fill="#bfbfbf" stroke="black" points="81,-448.5 81,-467.5 225,-467.5 225,-448.5 81,-448.5"/>
<text text-anchor="middle" x="153" y="-455.5" font-family="Helvetica,sans-Serif" font-size="10.00">lfilesystem_Permissions.h</text>
</a>
</g>
</g>
<!-- Node2 -->
<g id="node2" class="node">
<title>Node2</title>
<g id="a_node2"><a xlink:href="lfilesystem_8h.html" target="_top" xlink:title="The main header for the limes_files library.">
<polygon fill="white" stroke="black" points="266,-56.5 266,-75.5 346,-75.5 346,-56.5 266,-56.5"/>
<text text-anchor="middle" x="306" y="-63.5" font-family="Helvetica,sans-Serif" font-size="10.00">lfilesystem.h</text>
</a>
</g>
</g>
<!-- Node1&#45;&gt;Node2 -->
<g id="edge1" class="edge">
<title>Node1&#45;&gt;Node2</title>
<path fill="none" stroke="midnightblue" d="M108.28,-445.5C63.12,-430.87 0,-400.79 0,-347 0,-347 0,-347 0,-177 0,-137.98 24.89,-130.94 59,-112 124.92,-75.39 214.55,-67.71 265.73,-66.58"/>
<polygon fill="midnightblue" stroke="midnightblue" points="107.31,-448.86 117.9,-448.47 109.38,-442.17 107.31,-448.86"/>
</g>
<!-- Node5 -->
<g id="node5" class="node">
<title>Node5</title>
<g id="a_node5"><a xlink:href="lfilesystem__FilesystemEntry_8h.html" target="_top" xlink:title="This file defines the FilesystemEntry class.">
<polygon fill="white" stroke="black" points="245,-392.5 245,-411.5 407,-411.5 407,-392.5 245,-392.5"/>
<text text-anchor="middle" x="326" y="-399.5" font-family="Helvetica,sans-Serif" font-size="10.00">lfilesystem_FilesystemEntry.h</text>
</a>
</g>
</g>
<!-- Node1&#45;&gt;Node5 -->
<g id="edge4" class="edge">
<title>Node1&#45;&gt;Node5</title>
<path fill="none" stroke="midnightblue" d="M190.05,-445.44C222.66,-435.26 269.41,-420.66 298.72,-411.52"/>
<polygon fill="midnightblue" stroke="midnightblue" points="188.92,-442.12 180.41,-448.44 191,-448.8 188.92,-442.12"/>
</g>
<!-- Node3 -->
<g id="node3" class="node">
<title>Node3</title>
<g id="a_node3"><a xlink:href="files__dir__enumerate_8cpp_source.html" target="_top" xlink:title=" ">
<polygon fill="white" stroke="black" points="170,-0.5 170,-19.5 304,-19.5 304,-0.5 170,-0.5"/>
<text text-anchor="middle" x="237" y="-7.5" font-family="Helvetica,sans-Serif" font-size="10.00">files_dir_enumerate.cpp</text>
</a>
</g>
</g>
<!-- Node2&#45;&gt;Node3 -->
<g id="edge2" class="edge">
<title>Node2&#45;&gt;Node3</title>
<path fill="none" stroke="midnightblue" d="M286.96,-50.1C274.54,-40.38 258.76,-28.03 248.29,-19.83"/>
<polygon fill="midnightblue" stroke="midnightblue" points="284.88,-52.92 294.91,-56.32 289.2,-47.4 284.88,-52.92"/>
</g>
<!-- Node4 -->
<g id="node4" class="node">
<title>Node4</title>
<g id="a_node4"><a xlink:href="files__dir__listen_8cpp_source.html" target="_top" xlink:title=" ">
<polygon fill="white" stroke="black" points="322.5,-0.5 322.5,-19.5 429.5,-19.5 429.5,-0.5 322.5,-0.5"/>
<text text-anchor="middle" x="376" y="-7.5" font-family="Helvetica,sans-Serif" font-size="10.00">files_dir_listen.cpp</text>
</a>
</g>
</g>
<!-- Node2&#45;&gt;Node4 -->
<g id="edge3" class="edge">
<title>Node2&#45;&gt;Node4</title>
<path fill="none" stroke="midnightblue" d="M325.31,-50.1C337.91,-40.38 353.93,-28.03 364.55,-19.83"/>
<polygon fill="midnightblue" stroke="midnightblue" points="323.03,-47.44 317.25,-56.32 327.3,-52.99 323.03,-47.44"/>
</g>
<!-- Node5&#45;&gt;Node2 -->
<g id="edge5" class="edge">
<title>Node5&#45;&gt;Node2</title>
<path fill="none" stroke="midnightblue" d="M417.31,-397.07C548.84,-388.88 776,-364.14 776,-291 776,-291 776,-291 776,-177 776,-143.98 767.55,-130.21 740,-112 675.94,-69.65 441.12,-66.15 346.21,-66.53"/>
<polygon fill="midnightblue" stroke="midnightblue" points="417,-393.58 407.23,-397.68 417.42,-400.57 417,-393.58"/>
</g>
<!-- Node6 -->
<g id="node6" class="node">
<title>Node6</title>
<g id="a_node6"><a xlink:href="lfilesystem__CFile_8h.html" target="_top" xlink:title="This file defines the CFile class.">
<polygon fill="white" stroke="black" points="433.5,-336.5 433.5,-355.5 542.5,-355.5 542.5,-336.5 433.5,-336.5"/>
<text text-anchor="middle" x="488" y="-343.5" font-family="Helvetica,sans-Serif" font-size="10.00">lfilesystem_CFile.h</text>
</a>
</g>
</g>
<!-- Node5&#45;&gt;Node6 -->
<g id="edge6" class="edge">
<title>Node5&#45;&gt;Node6</title>
<path fill="none" stroke="midnightblue" d="M361.48,-389.17C391.99,-379 435.24,-364.59 462.45,-355.52"/>
<polygon fill="midnightblue" stroke="midnightblue" points="360.05,-385.96 351.67,-392.44 362.26,-392.6 360.05,-385.96"/>
</g>
<!-- Node7 -->
<g id="node7" class="node">
<title>Node7</title>
<g id="a_node7"><a xlink:href="lfilesystem__File_8h.html" target="_top" xlink:title="This file defines the File and TempFile classes.">
<polygon fill="white" stroke="black" points="275,-280.5 275,-299.5 377,-299.5 377,-280.5 275,-280.5"/>
<text text-anchor="middle" x="326" y="-287.5" font-family="Helvetica,sans-Serif" font-size="10.00">lfilesystem_File.h</text>
</a>
</g>
</g>
<!-- Node5&#45;&gt;Node7 -->
<g id="edge19" class="edge">
<title>Node5&#45;&gt;Node7</title>
<path fill="none" stroke="midnightblue" d="M326,-382.35C326,-358.25 326,-317.31 326,-299.59"/>
<polygon fill="midnightblue" stroke="midnightblue" points="322.5,-382.37 326,-392.37 329.5,-382.37 322.5,-382.37"/>
</g>
<!-- Node8 -->
<g id="node8" class="node">
<title>Node8</title>
<g id="a_node8"><a xlink:href="lfilesystem__Directory_8h.html" target="_top" xlink:title="This file defines the Directory class.">
<polygon fill="white" stroke="black" points="150,-224.5 150,-243.5 278,-243.5 278,-224.5 150,-224.5"/>
<text text-anchor="middle" x="214" y="-231.5" font-family="Helvetica,sans-Serif" font-size="10.00">lfilesystem_Directory.h</text>
</a>
</g>
</g>
<!-- Node5&#45;&gt;Node8 -->
<g id="edge18" class="edge">
<title>Node5&#45;&gt;Node8</title>
<path fill="none" stroke="midnightblue" d="M314.37,-383.76C290.64,-348.59 237.4,-269.68 219.78,-243.57"/>
<polygon fill="midnightblue" stroke="midnightblue" points="311.48,-385.74 319.98,-392.08 317.29,-381.83 311.48,-385.74"/>
</g>
<!-- Node12 -->
<g id="node12" class="node">
<title>Node12</title>
<g id="a_node12"><a xlink:href="lfilesystem__FileWatcher_8h.html" target="_top" xlink:title="This file defines the files::FileWatcher class.">
<polygon fill="white" stroke="black" points="414.5,-168.5 414.5,-187.5 555.5,-187.5 555.5,-168.5 414.5,-168.5"/>
<text text-anchor="middle" x="485" y="-175.5" font-family="Helvetica,sans-Serif" font-size="10.00">lfilesystem_FileWatcher.h</text>
</a>
</g>
</g>
<!-- Node5&#45;&gt;Node12 -->
<g id="edge20" class="edge">
<title>Node5&#45;&gt;Node12</title>
<path fill="none" stroke="midnightblue" d="M338.17,-384C369.97,-339.6 454.72,-221.27 478.64,-187.88"/>
<polygon fill="midnightblue" stroke="midnightblue" points="335.21,-382.13 332.23,-392.3 340.9,-386.21 335.21,-382.13"/>
</g>
<!-- Node14 -->
<g id="node14" class="node">
<title>Node14</title>
<g id="a_node14"><a xlink:href="lfilesystem__SymLink_8h.html" target="_top" xlink:title="This file defines the files::SymLink class.">
<polygon fill="white" stroke="black" points="91.5,-280.5 91.5,-299.5 218.5,-299.5 218.5,-280.5 91.5,-280.5"/>
<text text-anchor="middle" x="155" y="-287.5" font-family="Helvetica,sans-Serif" font-size="10.00">lfilesystem_SymLink.h</text>
</a>
</g>
</g>
<!-- Node5&#45;&gt;Node14 -->
<g id="edge25" class="edge">
<title>Node5&#45;&gt;Node14</title>
<path fill="none" stroke="midnightblue" d="M295.32,-388.42C276.69,-380.24 252.77,-368.75 233,-356 206.04,-338.61 177.99,-313.1 164.03,-299.8"/>
<polygon fill="midnightblue" stroke="midnightblue" points="293.96,-391.65 304.53,-392.39 296.73,-385.22 293.96,-391.65"/>
</g>
<!-- Node6&#45;&gt;Node2 -->
<g id="edge7" class="edge">
<title>Node6&#45;&gt;Node2</title>
<path fill="none" stroke="midnightblue" d="M552.75,-343.46C626.82,-337.85 738,-315.95 738,-235 738,-235 738,-235 738,-177 738,-146.9 742.07,-131.33 719,-112 690.77,-88.35 444.69,-73.79 346.35,-68.87"/>
<polygon fill="midnightblue" stroke="midnightblue" points="552.3,-339.98 542.55,-344.15 552.77,-346.97 552.3,-339.98"/>
</g>
<!-- Node6&#45;&gt;Node7 -->
<g id="edge8" class="edge">
<title>Node6&#45;&gt;Node7</title>
<path fill="none" stroke="midnightblue" d="M452.52,-333.17C422.01,-323 378.76,-308.59 351.55,-299.52"/>
<polygon fill="midnightblue" stroke="midnightblue" points="451.74,-336.6 462.33,-336.44 453.95,-329.96 451.74,-336.6"/>
</g>
<!-- Node7&#45;&gt;Node2 -->
<g id="edge9" class="edge">
<title>Node7&#45;&gt;Node2</title>
<path fill="none" stroke="midnightblue" d="M324.31,-270.3C320.2,-224.64 309.77,-108.85 306.8,-75.88"/>
<polygon fill="midnightblue" stroke="midnightblue" points="320.83,-270.65 325.22,-280.3 327.8,-270.02 320.83,-270.65"/>
</g>
<!-- Node7&#45;&gt;Node8 -->
<g id="edge10" class="edge">
<title>Node7&#45;&gt;Node8</title>
<path fill="none" stroke="midnightblue" d="M298.75,-275.86C277.98,-265.85 249.98,-252.35 231.95,-243.65"/>
<polygon fill="midnightblue" stroke="midnightblue" points="297.48,-279.13 308.01,-280.32 300.52,-272.83 297.48,-279.13"/>
</g>
<!-- Node11 -->
<g id="node11" class="node">
<title>Node11</title>
<g id="a_node11"><a xlink:href="lfilesystem__DynamicLibrary_8h.html" target="_top" xlink:title="This file defines the DynamicLibrary class.">
<polygon fill="white" stroke="black" points="334.5,-112.5 334.5,-131.5 495.5,-131.5 495.5,-112.5 334.5,-112.5"/>
<text text-anchor="middle" x="415" y="-119.5" font-family="Helvetica,sans-Serif" font-size="10.00">lfilesystem_DynamicLibrary.h</text>
</a>
</g>
</g>
<!-- Node7&#45;&gt;Node11 -->
<g id="edge16" class="edge">
<title>Node7&#45;&gt;Node11</title>
<path fill="none" stroke="midnightblue" d="M335.73,-270.86C354.82,-235.25 396.53,-157.45 410.41,-131.57"/>
<polygon fill="midnightblue" stroke="midnightblue" points="332.43,-269.61 330.79,-280.08 338.59,-272.92 332.43,-269.61"/>
</g>
<!-- Node8&#45;&gt;Node2 -->
<g id="edge11" class="edge">
<title>Node8&#45;&gt;Node2</title>
<path fill="none" stroke="midnightblue" d="M227.62,-216.63C234.2,-208.33 241.95,-197.93 248,-188 272.48,-147.81 294.44,-95.71 302.61,-75.52"/>
<polygon fill="midnightblue" stroke="midnightblue" points="224.9,-214.43 221.32,-224.41 230.34,-218.84 224.9,-214.43"/>
</g>
<!-- Node9 -->
<g id="node9" class="node">
<title>Node9</title>
<g id="a_node9"><a xlink:href="lfilesystem__SpecialDirectories_8h.html" target="_top" xlink:title="This file contains utility functions for finding some common directories.">
<polygon fill="white" stroke="black" points="66.5,-168.5 66.5,-187.5 239.5,-187.5 239.5,-168.5 66.5,-168.5"/>
<text text-anchor="middle" x="153" y="-175.5" font-family="Helvetica,sans-Serif" font-size="10.00">lfilesystem_SpecialDirectories.h</text>
</a>
</g>
</g>
<!-- Node8&#45;&gt;Node9 -->
<g id="edge12" class="edge">
<title>Node8&#45;&gt;Node9</title>
<path fill="none" stroke="midnightblue" d="M196.53,-217.54C185.66,-207.91 172.06,-195.87 162.98,-187.83"/>
<polygon fill="midnightblue" stroke="midnightblue" points="194.39,-220.32 204.2,-224.32 199.03,-215.07 194.39,-220.32"/>
</g>
<!-- Node9&#45;&gt;Node2 -->
<g id="edge13" class="edge">
<title>Node9&#45;&gt;Node2</title>
<path fill="none" stroke="midnightblue" d="M173.28,-162.42C205.64,-139.15 267.96,-94.35 294.05,-75.59"/>
<polygon fill="midnightblue" stroke="midnightblue" points="171.08,-159.69 165.01,-168.37 175.17,-165.37 171.08,-159.69"/>
</g>
<!-- Node10 -->
<g id="node10" class="node">
<title>Node10</title>
<g id="a_node10"><a xlink:href="lfilesystem__Volume_8h.html" target="_top" xlink:title="This file defines the files::Volume class.">
<polygon fill="white" stroke="black" points="80,-112.5 80,-131.5 202,-131.5 202,-112.5 80,-112.5"/>
<text text-anchor="middle" x="141" y="-119.5" font-family="Helvetica,sans-Serif" font-size="10.00">lfilesystem_Volume.h</text>
</a>
</g>
</g>
<!-- Node9&#45;&gt;Node10 -->
<g id="edge14" class="edge">
<title>Node9&#45;&gt;Node10</title>
<path fill="none" stroke="midnightblue" d="M148.8,-158.1C146.81,-149.14 144.52,-138.86 142.94,-131.75"/>
<polygon fill="midnightblue" stroke="midnightblue" points="145.43,-159.08 151.02,-168.08 152.27,-157.56 145.43,-159.08"/>
</g>
<!-- Node10&#45;&gt;Node2 -->
<g id="edge15" class="edge">
<title>Node10&#45;&gt;Node2</title>
<path fill="none" stroke="midnightblue" d="M176.74,-109.3C207.83,-99.13 252.15,-84.62 279.98,-75.52"/>
<polygon fill="midnightblue" stroke="midnightblue" points="175.56,-106.01 167.14,-112.44 177.74,-112.66 175.56,-106.01"/>
</g>
<!-- Node11&#45;&gt;Node2 -->
<g id="edge17" class="edge">
<title>Node11&#45;&gt;Node2</title>
<path fill="none" stroke="midnightblue" d="M388.48,-107.86C368.27,-97.85 341.01,-84.35 323.47,-75.65"/>
<polygon fill="midnightblue" stroke="midnightblue" points="386.97,-111.02 397.49,-112.32 390.08,-104.75 386.97,-111.02"/>
</g>
<!-- Node12&#45;&gt;Node2 -->
<g id="edge21" class="edge">
<title>Node12&#45;&gt;Node2</title>
<path fill="none" stroke="midnightblue" d="M497.96,-160.18C507.18,-146.02 516.13,-125.92 505,-112 485.49,-87.58 398.29,-75.44 346.01,-70.26"/>
<polygon fill="midnightblue" stroke="midnightblue" points="495,-158.31 492.07,-168.49 500.71,-162.35 495,-158.31"/>
</g>
<!-- Node12&#45;&gt;Node11 -->
<g id="edge22" class="edge">
<title>Node12&#45;&gt;Node11</title>
<path fill="none" stroke="midnightblue" d="M465.69,-162.1C453.09,-152.38 437.07,-140.03 426.45,-131.83"/>
<polygon fill="midnightblue" stroke="midnightblue" points="463.7,-164.99 473.75,-168.32 467.97,-159.44 463.7,-164.99"/>
</g>
<!-- Node13 -->
<g id="node13" class="node">
<title>Node13</title>
<g id="a_node13"><a xlink:href="lfilesystem__SimpleWatcher_8h.html" target="_top" xlink:title="This file defines the SimpleFileWatcher class.">
<polygon fill="white" stroke="black" points="552,-112.5 552,-131.5 710,-131.5 710,-112.5 552,-112.5"/>
<text text-anchor="middle" x="631" y="-119.5" font-family="Helvetica,sans-Serif" font-size="10.00">lfilesystem_SimpleWatcher.h</text>
</a>
</g>
</g>
<!-- Node12&#45;&gt;Node13 -->
<g id="edge23" class="edge">
<title>Node12&#45;&gt;Node13</title>
<path fill="none" stroke="midnightblue" d="M517.7,-164.91C545.15,-154.75 583.67,-140.51 607.97,-131.52"/>
<polygon fill="midnightblue" stroke="midnightblue" points="516.3,-161.69 508.13,-168.44 518.73,-168.26 516.3,-161.69"/>
</g>
<!-- Node13&#45;&gt;Node2 -->
<g id="edge24" class="edge">
<title>Node13&#45;&gt;Node2</title>
<path fill="none" stroke="midnightblue" d="M569.32,-110.75C503.9,-99.88 402.43,-83.02 346.47,-73.73"/>
<polygon fill="midnightblue" stroke="midnightblue" points="569.06,-114.26 579.5,-112.44 570.21,-107.35 569.06,-114.26"/>
</g>
<!-- Node14&#45;&gt;Node2 -->
<g id="edge26" class="edge">
<title>Node14&#45;&gt;Node2</title>
<path fill="none" stroke="midnightblue" d="M133.13,-274.48C109.23,-257.16 72.3,-225.75 57,-188 48.12,-166.11 66.21,-116.53 71,-112 98.54,-85.95 206.24,-74.17 265.82,-69.56"/>
<polygon fill="midnightblue" stroke="midnightblue" points="131.39,-277.54 141.58,-280.42 135.41,-271.81 131.39,-277.54"/>
</g>
<!-- Node14&#45;&gt;Node8 -->
<g id="edge27" class="edge">
<title>Node14&#45;&gt;Node8</title>
<path fill="none" stroke="midnightblue" d="M171.89,-273.54C182.41,-263.91 195.57,-251.87 204.35,-243.83"/>
<polygon fill="midnightblue" stroke="midnightblue" points="169.49,-270.99 164.48,-280.32 174.22,-276.15 169.49,-270.99"/>
</g>
</g>
</svg>
        <g id="navigator" transform="translate(0 0)" fill="#404254">
                <rect fill="#f2f5e9" fill-opacity="0.5" stroke="#606060" stroke-width=".5" x="0" y="0" width="60" height="60"/>
                <use id="zoomplus" xlink:href="#zoomPlus" x="17" y="9" onmousedown="handleZoom(evt,'in')"/>
                <use id="zoomminus" xlink:href="#zoomMin" x="42" y="9" onmousedown="handleZoom(evt,'out')"/>
                <use id="reset" xlink:href="#resetDef" x="30" y="36" onmousedown="handleReset()"/>
                <g id="arrowUp" xlink:href="#dirArrow" transform="translate(30 24)" onmousedown="handlePan(0,-1)">
                  <use xlink:href="#rim" fill="#404040">
                        <set attributeName="fill" to="#808080" begin="arrowUp.mouseover" end="arrowUp.mouseout"/>
                  </use>
                  <path fill="none" stroke="white" stroke-width="1.5" d="M0,-3.0v7 M-2.5,-0.5L0,-3.0L2.5,-0.5"/>
                </g>
                <g id="arrowRight" xlink:href="#dirArrow" transform="rotate(90) translate(36 -43)" onmousedown="handlePan(1,0)">
                  <use xlink:href="#rim" fill="#404040">
                        <set attributeName="fill" to="#808080" begin="arrowRight.mouseover" end="arrowRight.mouseout"/>
                  </use>
                  <path fill="none" stroke="white" stroke-width="1.5" d="M0,-3.0v7 M-2.5,-0.5L0,-3.0L2.5,-0.5"/>
                </g>
                <g id="arrowDown" xlink:href="#dirArrow" transform="rotate(180) translate(-30 -48)" onmousedown="handlePan(0,1)">
                  <use xlink:href="#rim" fill="#404040">
                        <set attributeName="fill" to="#808080" begin="arrowDown.mouseover" end="arrowDown.mouseout"/>
                  </use>
                  <path fill="none" stroke="white" stroke-width="1.5" d="M0,-3.0v7 M-2.5,-0.5L0,-3.0L2.5,-0.5"/>
                </g>
                <g id="arrowLeft" xlink:href="#dirArrow" transform="rotate(270) translate(-36 17)" onmousedown="handlePan(-1,0)">
                  <use xlink:href="#rim" fill="#404040">
                        <set attributeName="fill" to="#808080" begin="arrowLeft.mouseover" end="arrowLeft.mouseout"/>
                  </use>
                  <path fill="none" stroke="white" stroke-width="1.5" d="M0,-3.0v7 M-2.5,-0.5L0,-3.0L2.5,-0.5"/>
                </g>
        </g>
        <svg viewBox="0 0 15 15" width="100%" height="30px" preserveAspectRatio="xMaxYMin meet">
         <g id="arrow_out" transform="scale(0.3 0.3)">
          <a xlink:href="lfilesystem__Permissions_8h__dep__incl_org.svg" target="_base">
           <rect id="button" ry="5" rx="5" y="6" x="6" height="38" width="38"
                fill="#f2f5e9" fill-opacity="0.5" stroke="#606060" stroke-width="1.0"/>
           <path id="arrow"
             d="M 11.500037,31.436501 C 11.940474,20.09759 22.043105,11.32322 32.158766,21.979434 L 37.068811,17.246167 C 37.068811,17.246167 37.088388,32 37.088388,32 L 22.160133,31.978069 C 22.160133,31.978069 26.997745,27.140456 26.997745,27.140456 C 18.528582,18.264221 13.291696,25.230495 11.500037,31.436501 z"
             style="fill:#404040;"/>
          </a>
         </g>
        </svg>
</svg>
