<?xml version="1.0" encoding="UTF-8" standalone="no"?>
<!DOCTYPE svg PUBLIC "-//W3C//DTD SVG 1.1//EN"
 "http://www.w3.org/Graphics/SVG/1.1/DTD/svg11.dtd">
<!-- Generated by graphviz version 2.43.0 (0)
 -->
<!-- Title: lfilesystem_DynamicLibrary.h Pages: 1 -->
<!--zoomable 363 -->
<svg id="main" version="1.1" xmlns="http://www.w3.org/2000/svg" xmlns:xlink="http://www.w3.org/1999/xlink" xml:space="preserve" onload="init(evt)">
<style type="text/css"><![CDATA[
.edge:hover path { stroke: red; }
.edge:hover polygon { stroke: red; fill: red; }
]]></style>
<script type="text/javascript"><![CDATA[
var edges = document.getElementsByTagName('g');
if (edges && edges.length) {
  for (var i=0;i<edges.length;i++) {
    if (edges[i].id.substr(0,4)=='edge') {
      edges[i].setAttribute('class','edge');
    }
  }
}
]]></script>
        <defs>
                <circle id="rim" cx="0" cy="0" r="7"/>
                <circle id="rim2" cx="0" cy="0" r="3.5"/>
                <g id="zoomPlus">
                        <use xlink:href="#rim" fill="#404040">
                                <set attributeName="fill" to="#808080" begin="zoomplus.mouseover" end="zoomplus.mouseout"/>
                        </use>
                        <path d="M-4,0h8M0,-4v8" fill="none" stroke="white" stroke-width="1.5" pointer-events="none"/>
                </g>
                <g id="zoomMin">
                        <use xlink:href="#rim" fill="#404040">
                                <set attributeName="fill" to="#808080" begin="zoomminus.mouseover" end="zoomminus.mouseout"/>
                        </use>
                        <path d="M-4,0h8" fill="none" stroke="white" stroke-width="1.5" pointer-events="none"/>
                </g>
                <g id="dirArrow">
                        <path fill="none" stroke="white" stroke-width="1.5" d="M0,-3.0v7 M-2.5,-0.5L0,-3.0L2.5,-0.5"/>
                </g>
               <g id="resetDef">
                       <use xlink:href="#rim2" fill="#404040">
                               <set attributeName="fill" to="#808080" begin="reset.mouseover" end="reset.mouseout"/>
                       </use>
               </g>
        </defs>

<script type="text/javascript">
var viewWidth = 893;
var viewHeight = 363;
var sectionId = 'dynsection-0';
</script>
<script xlink:href="svgpan.js"/>
<svg id="graph" class="graph">
<g id="viewport">
<title>lfilesystem_DynamicLibrary.h</title>
<polygon fill="white" stroke="transparent" points="-4,4 -4,-359 889,-359 889,4 -4,4"/>
<!-- Node1 -->
<g id="node1" class="node">
<title>Node1</title>
<g id="a_node1"><a xlink:title="This file defines the DynamicLibrary class.">
<polygon fill="#bfbfbf" stroke="black" points="260.5,-335.5 260.5,-354.5 421.5,-354.5 421.5,-335.5 260.5,-335.5"/>
<text text-anchor="middle" x="341" y="-342.5" font-family="Helvetica,sans-Serif" font-size="10.00">lfilesystem_DynamicLibrary.h</text>
</a>
</g>
</g>
<!-- Node2 -->
<g id="node2" class="node">
<title>Node2</title>
<g id="a_node2"><a xlink:title=" ">
<polygon fill="white" stroke="#bfbfbf" points="721.5,-6 721.5,-25 794.5,-25 794.5,-6 721.5,-6"/>
<text text-anchor="middle" x="758" y="-13" font-family="Helvetica,sans-Serif" font-size="10.00">string_view</text>
</a>
</g>
</g>
<!-- Node1&#45;&gt;Node2 -->
<g id="edge1" class="edge">
<title>Node1&#45;&gt;Node2</title>
<path fill="none" stroke="midnightblue" d="M421.8,-336.27C539.31,-323.08 747.97,-291.7 790,-232 833.46,-170.26 789.69,-73.77 768.3,-34.27"/>
<polygon fill="midnightblue" stroke="midnightblue" points="771.22,-32.33 763.29,-25.31 765.11,-35.74 771.22,-32.33"/>
</g>
<!-- Node3 -->
<g id="node3" class="node">
<title>Node3</title>
<g id="a_node3"><a xlink:title=" ">
<polygon fill="white" stroke="#bfbfbf" points="813,-6 813,-25 857,-25 857,-6 813,-6"/>
<text text-anchor="middle" x="835" y="-13" font-family="Helvetica,sans-Serif" font-size="10.00">string</text>
</a>
</g>
</g>
<!-- Node1&#45;&gt;Node3 -->
<g id="edge2" class="edge">
<title>Node1&#45;&gt;Node3</title>
<path fill="none" stroke="midnightblue" d="M421.56,-341.87C572.99,-335.67 885,-311.49 885,-217.5 885,-217.5 885,-217.5 885,-148.5 885,-104.99 860.95,-58.34 846.21,-33.84"/>
<polygon fill="midnightblue" stroke="midnightblue" points="848.99,-31.68 840.74,-25.03 843.05,-35.37 848.99,-31.68"/>
</g>
<!-- Node4 -->
<g id="node4" class="node">
<title>Node4</title>
<g id="a_node4"><a xlink:title=" ">
<polygon fill="white" stroke="#bfbfbf" points="209,-274 209,-293 259,-293 259,-274 209,-274"/>
<text text-anchor="middle" x="234" y="-281" font-family="Helvetica,sans-Serif" font-size="10.00">atomic</text>
</a>
</g>
</g>
<!-- Node1&#45;&gt;Node4 -->
<g id="edge3" class="edge">
<title>Node1&#45;&gt;Node4</title>
<path fill="none" stroke="midnightblue" d="M325.67,-335.48C308.03,-325.67 278.84,-309.43 258.14,-297.92"/>
<polygon fill="midnightblue" stroke="midnightblue" points="259.74,-294.81 249.3,-293.01 256.34,-300.93 259.74,-294.81"/>
</g>
<!-- Node5 -->
<g id="node5" class="node">
<title>Node5</title>
<g id="a_node5"><a xlink:title=" ">
<polygon fill="white" stroke="#bfbfbf" points="28.5,-207 28.5,-226 75.5,-226 75.5,-207 28.5,-207"/>
<text text-anchor="middle" x="52" y="-214" font-family="Helvetica,sans-Serif" font-size="10.00">vector</text>
</a>
</g>
</g>
<!-- Node1&#45;&gt;Node5 -->
<g id="edge4" class="edge">
<title>Node1&#45;&gt;Node5</title>
<path fill="none" stroke="midnightblue" d="M308.15,-335.47C279.14,-327.49 236,-314.48 200,-299 153.52,-279.01 102.48,-248.95 74.13,-231.48"/>
<polygon fill="midnightblue" stroke="midnightblue" points="75.76,-228.37 65.42,-226.06 72.07,-234.32 75.76,-228.37"/>
</g>
<!-- Node6 -->
<g id="node6" class="node">
<title>Node6</title>
<g id="a_node6"><a xlink:title=" ">
<polygon fill="white" stroke="#bfbfbf" points="114,-0.5 114,-30.5 242,-30.5 242,-0.5 114,-0.5"/>
<text text-anchor="start" x="122" y="-18.5" font-family="Helvetica,sans-Serif" font-size="10.00">lfilesystem/lfilesystem</text>
<text text-anchor="middle" x="178" y="-7.5" font-family="Helvetica,sans-Serif" font-size="10.00">_Export.h</text>
</a>
</g>
</g>
<!-- Node1&#45;&gt;Node6 -->
<g id="edge5" class="edge">
<title>Node1&#45;&gt;Node6</title>
<path fill="none" stroke="midnightblue" d="M286.97,-335.47C190.81,-318.75 0,-277.96 0,-217.5 0,-217.5 0,-217.5 0,-148.5 0,-88.74 65.53,-52.9 117.07,-33.96"/>
<polygon fill="midnightblue" stroke="midnightblue" points="118.26,-37.25 126.52,-30.62 115.92,-30.65 118.26,-37.25"/>
</g>
<!-- Node7 -->
<g id="node7" class="node">
<title>Node7</title>
<g id="a_node7"><a xlink:href="lfilesystem__FileWatcher_8h.html" target="_top" xlink:title="This file defines the files::FileWatcher class.">
<polygon fill="white" stroke="black" points="277,-268.5 277,-298.5 405,-298.5 405,-268.5 277,-268.5"/>
<text text-anchor="start" x="285" y="-286.5" font-family="Helvetica,sans-Serif" font-size="10.00">lfilesystem/lfilesystem</text>
<text text-anchor="middle" x="341" y="-275.5" font-family="Helvetica,sans-Serif" font-size="10.00">_FileWatcher.h</text>
</a>
</g>
</g>
<!-- Node1&#45;&gt;Node7 -->
<g id="edge6" class="edge">
<title>Node1&#45;&gt;Node7</title>
<path fill="none" stroke="midnightblue" d="M341,-335.48C341,-328.47 341,-318.19 341,-308.7"/>
<polygon fill="midnightblue" stroke="midnightblue" points="344.5,-308.52 341,-298.52 337.5,-308.52 344.5,-308.52"/>
</g>
<!-- Node16 -->
<g id="node16" class="node">
<title>Node16</title>
<g id="a_node16"><a xlink:href="lfilesystem__File_8h.html" target="_top" xlink:title="This file defines the File and TempFile classes.">
<polygon fill="white" stroke="black" points="466,-268.5 466,-298.5 594,-298.5 594,-268.5 466,-268.5"/>
<text text-anchor="start" x="474" y="-286.5" font-family="Helvetica,sans-Serif" font-size="10.00">lfilesystem/lfilesystem</text>
<text text-anchor="middle" x="530" y="-275.5" font-family="Helvetica,sans-Serif" font-size="10.00">_File.h</text>
</a>
</g>
</g>
<!-- Node1&#45;&gt;Node16 -->
<g id="edge23" class="edge">
<title>Node1&#45;&gt;Node16</title>
<path fill="none" stroke="midnightblue" d="M368.08,-335.48C396.07,-326.66 440.52,-312.67 475.78,-301.57"/>
<polygon fill="midnightblue" stroke="midnightblue" points="476.97,-304.86 485.46,-298.52 474.87,-298.19 476.97,-304.86"/>
</g>
<!-- Node7&#45;&gt;Node6 -->
<g id="edge8" class="edge">
<title>Node7&#45;&gt;Node6</title>
<path fill="none" stroke="midnightblue" d="M276.97,-269.68C214.42,-256.86 127.91,-238.18 123,-232 76.68,-173.73 131.32,-81.01 161.12,-38.77"/>
<polygon fill="midnightblue" stroke="midnightblue" points="164.04,-40.71 167.06,-30.55 158.37,-36.61 164.04,-40.71"/>
</g>
<!-- Node8 -->
<g id="node8" class="node">
<title>Node8</title>
<g id="a_node8"><a xlink:title=" ">
<polygon fill="white" stroke="#bfbfbf" points="132,-207 132,-226 190,-226 190,-207 132,-207"/>
<text text-anchor="middle" x="161" y="-214" font-family="Helvetica,sans-Serif" font-size="10.00">memory</text>
</a>
</g>
</g>
<!-- Node7&#45;&gt;Node8 -->
<g id="edge7" class="edge">
<title>Node7&#45;&gt;Node8</title>
<path fill="none" stroke="midnightblue" d="M301.94,-268.4C269.8,-256.79 224.73,-240.51 194.28,-229.52"/>
<polygon fill="midnightblue" stroke="midnightblue" points="195.15,-226.11 184.56,-226.01 192.77,-232.7 195.15,-226.11"/>
</g>
<!-- Node9 -->
<g id="node9" class="node">
<title>Node9</title>
<g id="a_node9"><a xlink:href="lfilesystem__FilesystemEntry_8h.html" target="_top" xlink:title="This file defines the FilesystemEntry class.">
<polygon fill="white" stroke="black" points="347,-134.5 347,-164.5 475,-164.5 475,-134.5 347,-134.5"/>
<text text-anchor="start" x="355" y="-152.5" font-family="Helvetica,sans-Serif" font-size="10.00">lfilesystem/lfilesystem</text>
<text text-anchor="middle" x="411" y="-141.5" font-family="Helvetica,sans-Serif" font-size="10.00">_FilesystemEntry.h</text>
</a>
</g>
</g>
<!-- Node7&#45;&gt;Node9 -->
<g id="edge9" class="edge">
<title>Node7&#45;&gt;Node9</title>
<path fill="none" stroke="midnightblue" d="M355.42,-268.1C364.35,-258.53 375.51,-245.32 383,-232 393.17,-213.92 400.53,-191.52 405.15,-174.78"/>
<polygon fill="midnightblue" stroke="midnightblue" points="408.64,-175.27 407.79,-164.7 401.87,-173.49 408.64,-175.27"/>
</g>
<!-- Node9&#45;&gt;Node3 -->
<g id="edge12" class="edge">
<title>Node9&#45;&gt;Node3</title>
<path fill="none" stroke="midnightblue" d="M458.44,-134.46C484.57,-125.76 517.06,-113.33 544,-98 563.25,-87.05 562.75,-75.96 583,-67 674.01,-26.74 708.91,-60.36 804,-31 805.87,-30.42 807.78,-29.75 809.68,-29.02"/>
<polygon fill="midnightblue" stroke="midnightblue" points="811.12,-32.21 818.93,-25.04 808.36,-25.78 811.12,-32.21"/>
</g>
<!-- Node9&#45;&gt;Node6 -->
<g id="edge16" class="edge">
<title>Node9&#45;&gt;Node6</title>
<path fill="none" stroke="midnightblue" d="M377.46,-134.49C355.57,-124.98 326.6,-111.69 302,-98 267.91,-79.04 230.77,-54 206.11,-36.7"/>
<polygon fill="midnightblue" stroke="midnightblue" points="207.81,-33.61 197.62,-30.71 203.77,-39.33 207.81,-33.61"/>
</g>
<!-- Node10 -->
<g id="node10" class="node">
<title>Node10</title>
<g id="a_node10"><a xlink:title=" ">
<polygon fill="white" stroke="#bfbfbf" points="485,-73 485,-92 535,-92 535,-73 485,-73"/>
<text text-anchor="middle" x="510" y="-80" font-family="Helvetica,sans-Serif" font-size="10.00">cstdint</text>
</a>
</g>
</g>
<!-- Node9&#45;&gt;Node10 -->
<g id="edge10" class="edge">
<title>Node9&#45;&gt;Node10</title>
<path fill="none" stroke="midnightblue" d="M432.48,-134.4C449.08,-123.5 471.96,-108.48 488.55,-97.58"/>
<polygon fill="midnightblue" stroke="midnightblue" points="490.6,-100.42 497.04,-92.01 486.76,-94.57 490.6,-100.42"/>
</g>
<!-- Node11 -->
<g id="node11" class="node">
<title>Node11</title>
<g id="a_node11"><a xlink:title=" ">
<polygon fill="white" stroke="#bfbfbf" points="267,-6 267,-25 335,-25 335,-6 267,-6"/>
<text text-anchor="middle" x="301" y="-13" font-family="Helvetica,sans-Serif" font-size="10.00">filesystem</text>
</a>
</g>
</g>
<!-- Node9&#45;&gt;Node11 -->
<g id="edge11" class="edge">
<title>Node9&#45;&gt;Node11</title>
<path fill="none" stroke="midnightblue" d="M370.52,-134.34C352.9,-126.26 333.47,-114.4 321,-98 307.11,-79.73 302.74,-53.09 301.44,-35.3"/>
<polygon fill="midnightblue" stroke="midnightblue" points="304.92,-34.88 300.95,-25.06 297.93,-35.21 304.92,-34.88"/>
</g>
<!-- Node12 -->
<g id="node12" class="node">
<title>Node12</title>
<g id="a_node12"><a xlink:title=" ">
<polygon fill="white" stroke="#bfbfbf" points="591.5,-73 591.5,-92 656.5,-92 656.5,-73 591.5,-73"/>
<text text-anchor="middle" x="624" y="-80" font-family="Helvetica,sans-Serif" font-size="10.00">functional</text>
</a>
</g>
</g>
<!-- Node9&#45;&gt;Node12 -->
<g id="edge13" class="edge">
<title>Node9&#45;&gt;Node12</title>
<path fill="none" stroke="midnightblue" d="M457.52,-134.4C490.81,-124.3 536.68,-110.35 577,-98 580.1,-97.05 583.32,-96.06 586.55,-95.07"/>
<polygon fill="midnightblue" stroke="midnightblue" points="587.64,-98.39 596.17,-92.11 585.58,-91.7 587.64,-98.39"/>
</g>
<!-- Node13 -->
<g id="node13" class="node">
<title>Node13</title>
<g id="a_node13"><a xlink:title=" ">
<polygon fill="white" stroke="#bfbfbf" points="675,-73 675,-92 731,-92 731,-73 675,-73"/>
<text text-anchor="middle" x="703" y="-80" font-family="Helvetica,sans-Serif" font-size="10.00">optional</text>
</a>
</g>
</g>
<!-- Node9&#45;&gt;Node13 -->
<g id="edge14" class="edge">
<title>Node9&#45;&gt;Node13</title>
<path fill="none" stroke="midnightblue" d="M475.16,-139.04C527.19,-130.6 602.11,-116.68 666,-98 668.43,-97.29 670.93,-96.48 673.42,-95.62"/>
<polygon fill="midnightblue" stroke="midnightblue" points="674.7,-98.88 682.87,-92.14 672.28,-92.32 674.7,-98.88"/>
</g>
<!-- Node14 -->
<g id="node14" class="node">
<title>Node14</title>
<g id="a_node14"><a xlink:title=" ">
<polygon fill="white" stroke="#bfbfbf" points="367.5,-6 367.5,-25 424.5,-25 424.5,-6 367.5,-6"/>
<text text-anchor="middle" x="396" y="-13" font-family="Helvetica,sans-Serif" font-size="10.00">ostream</text>
</a>
</g>
</g>
<!-- Node9&#45;&gt;Node14 -->
<g id="edge15" class="edge">
<title>Node9&#45;&gt;Node14</title>
<path fill="none" stroke="midnightblue" d="M372.34,-134.37C356.23,-126.34 339.17,-114.52 330,-98 323.31,-85.95 323.9,-79.35 330,-67 337.92,-50.98 353.62,-38.64 367.73,-30.17"/>
<polygon fill="midnightblue" stroke="midnightblue" points="369.65,-33.1 376.67,-25.16 366.23,-26.99 369.65,-33.1"/>
</g>
<!-- Node15 -->
<g id="node15" class="node">
<title>Node15</title>
<g id="a_node15"><a xlink:href="lfilesystem__Permissions_8h.html" target="_top" xlink:title="This file defines the Permissions class.">
<polygon fill="white" stroke="black" points="339,-67.5 339,-97.5 467,-97.5 467,-67.5 339,-67.5"/>
<text text-anchor="start" x="347" y="-85.5" font-family="Helvetica,sans-Serif" font-size="10.00">lfilesystem/lfilesystem</text>
<text text-anchor="middle" x="403" y="-74.5" font-family="Helvetica,sans-Serif" font-size="10.00">_Permissions.h</text>
</a>
</g>
</g>
<!-- Node9&#45;&gt;Node15 -->
<g id="edge17" class="edge">
<title>Node9&#45;&gt;Node15</title>
<path fill="none" stroke="midnightblue" d="M409.26,-134.4C408.3,-126.56 407.07,-116.6 405.96,-107.57"/>
<polygon fill="midnightblue" stroke="midnightblue" points="409.43,-107.07 404.73,-97.58 402.48,-107.93 409.43,-107.07"/>
</g>
<!-- Node15&#45;&gt;Node2 -->
<g id="edge20" class="edge">
<title>Node15&#45;&gt;Node2</title>
<path fill="none" stroke="midnightblue" d="M467.08,-68.7C470.09,-68.12 473.08,-67.55 476,-67 558.82,-51.36 655.55,-34.3 711.5,-24.55"/>
<polygon fill="midnightblue" stroke="midnightblue" points="712.2,-27.98 721.46,-22.82 711,-21.08 712.2,-27.98"/>
</g>
<!-- Node15&#45;&gt;Node3 -->
<g id="edge19" class="edge">
<title>Node15&#45;&gt;Node3</title>
<path fill="none" stroke="midnightblue" d="M467.04,-68.45C470.06,-67.94 473.06,-67.45 476,-67 620.95,-44.69 662.79,-70.6 804,-31 805.93,-30.46 807.89,-29.81 809.84,-29.09"/>
<polygon fill="midnightblue" stroke="midnightblue" points="811.46,-32.2 819.3,-25.06 808.72,-25.76 811.46,-32.2"/>
</g>
<!-- Node15&#45;&gt;Node6 -->
<g id="edge22" class="edge">
<title>Node15&#45;&gt;Node6</title>
<path fill="none" stroke="midnightblue" d="M354.46,-67.48C319.97,-57.51 273.49,-44.09 236.89,-33.51"/>
<polygon fill="midnightblue" stroke="midnightblue" points="237.42,-30.02 226.85,-30.61 235.48,-36.75 237.42,-30.02"/>
</g>
<!-- Node15&#45;&gt;Node11 -->
<g id="edge18" class="edge">
<title>Node15&#45;&gt;Node11</title>
<path fill="none" stroke="midnightblue" d="M380.87,-67.4C363.76,-56.5 340.2,-41.48 323.1,-30.58"/>
<polygon fill="midnightblue" stroke="midnightblue" points="324.66,-27.43 314.35,-25.01 320.9,-33.33 324.66,-27.43"/>
</g>
<!-- Node15&#45;&gt;Node14 -->
<g id="edge21" class="edge">
<title>Node15&#45;&gt;Node14</title>
<path fill="none" stroke="midnightblue" d="M401.48,-67.4C400.47,-57.96 399.12,-45.45 398.01,-35.19"/>
<polygon fill="midnightblue" stroke="midnightblue" points="401.49,-34.76 396.94,-25.19 394.53,-35.51 401.49,-34.76"/>
</g>
<!-- Node16&#45;&gt;Node2 -->
<g id="edge26" class="edge">
<title>Node16&#45;&gt;Node2</title>
<path fill="none" stroke="midnightblue" d="M554.62,-268.29C599.16,-241.23 692.85,-177.8 740,-98 751.49,-78.56 755.66,-52.58 757.17,-35.23"/>
<polygon fill="midnightblue" stroke="midnightblue" points="760.66,-35.44 757.82,-25.23 753.67,-34.98 760.66,-35.44"/>
</g>
<!-- Node16&#45;&gt;Node3 -->
<g id="edge25" class="edge">
<title>Node16&#45;&gt;Node3</title>
<path fill="none" stroke="midnightblue" d="M594.04,-278.07C661.87,-272.04 762.87,-258.76 790,-232 844.48,-178.28 841.27,-76.81 837.28,-35.11"/>
<polygon fill="midnightblue" stroke="midnightblue" points="840.75,-34.58 836.19,-25.02 833.79,-35.34 840.75,-34.58"/>
</g>
<!-- Node16&#45;&gt;Node5 -->
<g id="edge27" class="edge">
<title>Node16&#45;&gt;Node5</title>
<path fill="none" stroke="midnightblue" d="M465.88,-274.47C449,-272.36 430.82,-270.09 414,-268 284.68,-251.92 251.61,-253.05 123,-232 110.71,-229.99 97.31,-227.36 85.49,-224.9"/>
<polygon fill="midnightblue" stroke="midnightblue" points="86.09,-221.45 75.58,-222.8 84.64,-228.3 86.09,-221.45"/>
</g>
<!-- Node16&#45;&gt;Node6 -->
<g id="edge33" class="edge">
<title>Node16&#45;&gt;Node6</title>
<path fill="none" stroke="midnightblue" d="M465.93,-273.23C382.29,-260.88 245.46,-239.68 237,-232 181.81,-181.9 176.23,-85.59 176.88,-40.68"/>
<polygon fill="midnightblue" stroke="midnightblue" points="180.38,-40.76 177.14,-30.67 173.38,-40.57 180.38,-40.76"/>
</g>
<!-- Node16&#45;&gt;Node8 -->
<g id="edge31" class="edge">
<title>Node16&#45;&gt;Node8</title>
<path fill="none" stroke="midnightblue" d="M465.98,-273.91C385.61,-262.9 252.41,-243.82 204,-232 200.61,-231.17 197.1,-230.19 193.62,-229.15"/>
<polygon fill="midnightblue" stroke="midnightblue" points="194.59,-225.78 183.99,-226.06 192.45,-232.45 194.59,-225.78"/>
</g>
<!-- Node16&#45;&gt;Node9 -->
<g id="edge34" class="edge">
<title>Node16&#45;&gt;Node9</title>
<path fill="none" stroke="midnightblue" d="M544.69,-268.29C560.5,-251.24 581.45,-222.28 566,-201 547.4,-175.38 515.47,-162.51 485.4,-156.14"/>
<polygon fill="midnightblue" stroke="midnightblue" points="485.77,-152.64 475.29,-154.21 484.46,-159.52 485.77,-152.64"/>
</g>
<!-- Node16&#45;&gt;Node12 -->
<g id="edge28" class="edge">
<title>Node16&#45;&gt;Node12</title>
<path fill="none" stroke="midnightblue" d="M548.79,-268.47C559.93,-259.25 573.49,-246.27 582,-232 607.2,-189.75 617.86,-131.71 621.87,-102.27"/>
<polygon fill="midnightblue" stroke="midnightblue" points="625.37,-102.51 623.13,-92.16 618.42,-101.64 625.37,-102.51"/>
</g>
<!-- Node16&#45;&gt;Node13 -->
<g id="edge29" class="edge">
<title>Node16&#45;&gt;Node13</title>
<path fill="none" stroke="midnightblue" d="M555.07,-268.41C570.03,-259.25 588.81,-246.36 603,-232 643.83,-190.65 678.36,-130.5 694.01,-101.06"/>
<polygon fill="midnightblue" stroke="midnightblue" points="697.21,-102.49 698.74,-92 691.01,-99.25 697.21,-102.49"/>
</g>
<!-- Node17 -->
<g id="node17" class="node">
<title>Node17</title>
<g id="a_node17"><a xlink:title=" ">
<polygon fill="white" stroke="#bfbfbf" points="727.5,-207 727.5,-226 780.5,-226 780.5,-207 727.5,-207"/>
<text text-anchor="middle" x="754" y="-214" font-family="Helvetica,sans-Serif" font-size="10.00">cstddef</text>
</a>
</g>
</g>
<!-- Node16&#45;&gt;Node17 -->
<g id="edge24" class="edge">
<title>Node16&#45;&gt;Node17</title>
<path fill="none" stroke="midnightblue" d="M584.75,-268.48C621.26,-258.86 670.24,-245.44 713,-232 715.61,-231.18 718.3,-230.3 721.01,-229.4"/>
<polygon fill="midnightblue" stroke="midnightblue" points="722.36,-232.63 730.68,-226.07 720.08,-226.01 722.36,-232.63"/>
</g>
<!-- Node18 -->
<g id="node18" class="node">
<title>Node18</title>
<g id="a_node18"><a xlink:title=" ">
<polygon fill="white" stroke="#bfbfbf" points="430.5,-207 430.5,-226 485.5,-226 485.5,-207 430.5,-207"/>
<text text-anchor="middle" x="458" y="-214" font-family="Helvetica,sans-Serif" font-size="10.00">fstream</text>
</a>
</g>
</g>
<!-- Node16&#45;&gt;Node18 -->
<g id="edge30" class="edge">
<title>Node16&#45;&gt;Node18</title>
<path fill="none" stroke="midnightblue" d="M514.38,-268.4C502.82,-257.96 487.08,-243.75 475.17,-233"/>
<polygon fill="midnightblue" stroke="midnightblue" points="477.4,-230.3 467.63,-226.19 472.71,-235.49 477.4,-230.3"/>
</g>
<!-- Node19 -->
<g id="node19" class="node">
<title>Node19</title>
<g id="a_node19"><a xlink:title=" ">
<polygon fill="white" stroke="#bfbfbf" points="503.5,-207 503.5,-226 556.5,-226 556.5,-207 503.5,-207"/>
<text text-anchor="middle" x="530" y="-214" font-family="Helvetica,sans-Serif" font-size="10.00">iterator</text>
</a>
</g>
</g>
<!-- Node16&#45;&gt;Node19 -->
<g id="edge32" class="edge">
<title>Node16&#45;&gt;Node19</title>
<path fill="none" stroke="midnightblue" d="M530,-268.4C530,-259.06 530,-246.71 530,-236.52"/>
<polygon fill="midnightblue" stroke="midnightblue" points="533.5,-236.19 530,-226.19 526.5,-236.19 533.5,-236.19"/>
</g>
<!-- Node20 -->
<g id="node20" class="node">
<title>Node20</title>
<g id="a_node20"><a xlink:href="lfilesystem__CFile_8h.html" target="_top" xlink:title="This file defines the CFile class.">
<polygon fill="white" stroke="black" points="246,-201.5 246,-231.5 374,-231.5 374,-201.5 246,-201.5"/>
<text text-anchor="start" x="254" y="-219.5" font-family="Helvetica,sans-Serif" font-size="10.00">lfilesystem/lfilesystem</text>
<text text-anchor="middle" x="310" y="-208.5" font-family="Helvetica,sans-Serif" font-size="10.00">_CFile.h</text>
</a>
</g>
</g>
<!-- Node16&#45;&gt;Node20 -->
<g id="edge35" class="edge">
<title>Node16&#45;&gt;Node20</title>
<path fill="none" stroke="midnightblue" d="M482.53,-268.48C448.82,-258.51 403.37,-245.09 367.58,-234.51"/>
<polygon fill="midnightblue" stroke="midnightblue" points="368.34,-231.09 357.76,-231.61 366.36,-237.8 368.34,-231.09"/>
</g>
<!-- Node20&#45;&gt;Node6 -->
<g id="edge37" class="edge">
<title>Node20&#45;&gt;Node6</title>
<path fill="none" stroke="midnightblue" d="M299.74,-201.47C292.44,-191.4 282.47,-177.47 274,-165 244.12,-121 210.71,-68.54 192.24,-39.23"/>
<polygon fill="midnightblue" stroke="midnightblue" points="195.08,-37.16 186.79,-30.56 189.15,-40.89 195.08,-37.16"/>
</g>
<!-- Node20&#45;&gt;Node9 -->
<g id="edge38" class="edge">
<title>Node20&#45;&gt;Node9</title>
<path fill="none" stroke="midnightblue" d="M331.92,-201.4C346.08,-192.28 364.71,-180.29 380.33,-170.24"/>
<polygon fill="midnightblue" stroke="midnightblue" points="382.61,-172.93 389.13,-164.58 378.82,-167.05 382.61,-172.93"/>
</g>
<!-- Node21 -->
<g id="node21" class="node">
<title>Node21</title>
<g id="a_node21"><a xlink:title=" ">
<polygon fill="white" stroke="#bfbfbf" points="283,-140 283,-159 329,-159 329,-140 283,-140"/>
<text text-anchor="middle" x="306" y="-147" font-family="Helvetica,sans-Serif" font-size="10.00">cstdio</text>
</a>
</g>
</g>
<!-- Node20&#45;&gt;Node21 -->
<g id="edge36" class="edge">
<title>Node20&#45;&gt;Node21</title>
<path fill="none" stroke="midnightblue" d="M309.13,-201.4C308.55,-191.96 307.78,-179.45 307.15,-169.19"/>
<polygon fill="midnightblue" stroke="midnightblue" points="310.64,-168.96 306.54,-159.19 303.66,-169.39 310.64,-168.96"/>
</g>
</g>
</svg>
        <g id="navigator" transform="translate(0 0)" fill="#404254">
                <rect fill="#f2f5e9" fill-opacity="0.5" stroke="#606060" stroke-width=".5" x="0" y="0" width="60" height="60"/>
                <use id="zoomplus" xlink:href="#zoomPlus" x="17" y="9" onmousedown="handleZoom(evt,'in')"/>
                <use id="zoomminus" xlink:href="#zoomMin" x="42" y="9" onmousedown="handleZoom(evt,'out')"/>
                <use id="reset" xlink:href="#resetDef" x="30" y="36" onmousedown="handleReset()"/>
                <g id="arrowUp" xlink:href="#dirArrow" transform="translate(30 24)" onmousedown="handlePan(0,-1)">
                  <use xlink:href="#rim" fill="#404040">
                        <set attributeName="fill" to="#808080" begin="arrowUp.mouseover" end="arrowUp.mouseout"/>
                  </use>
                  <path fill="none" stroke="white" stroke-width="1.5" d="M0,-3.0v7 M-2.5,-0.5L0,-3.0L2.5,-0.5"/>
                </g>
                <g id="arrowRight" xlink:href="#dirArrow" transform="rotate(90) translate(36 -43)" onmousedown="handlePan(1,0)">
                  <use xlink:href="#rim" fill="#404040">
                        <set attributeName="fill" to="#808080" begin="arrowRight.mouseover" end="arrowRight.mouseout"/>
                  </use>
                  <path fill="none" stroke="white" stroke-width="1.5" d="M0,-3.0v7 M-2.5,-0.5L0,-3.0L2.5,-0.5"/>
                </g>
                <g id="arrowDown" xlink:href="#dirArrow" transform="rotate(180) translate(-30 -48)" onmousedown="handlePan(0,1)">
                  <use xlink:href="#rim" fill="#404040">
                        <set attributeName="fill" to="#808080" begin="arrowDown.mouseover" end="arrowDown.mouseout"/>
                  </use>
                  <path fill="none" stroke="white" stroke-width="1.5" d="M0,-3.0v7 M-2.5,-0.5L0,-3.0L2.5,-0.5"/>
                </g>
                <g id="arrowLeft" xlink:href="#dirArrow" transform="rotate(270) translate(-36 17)" onmousedown="handlePan(-1,0)">
                  <use xlink:href="#rim" fill="#404040">
                        <set attributeName="fill" to="#808080" begin="arrowLeft.mouseover" end="arrowLeft.mouseout"/>
                  </use>
                  <path fill="none" stroke="white" stroke-width="1.5" d="M0,-3.0v7 M-2.5,-0.5L0,-3.0L2.5,-0.5"/>
                </g>
        </g>
        <svg viewBox="0 0 15 15" width="100%" height="30px" preserveAspectRatio="xMaxYMin meet">
         <g id="arrow_out" transform="scale(0.3 0.3)">
          <a xlink:href="lfilesystem__DynamicLibrary_8h__incl_org.svg" target="_base">
           <rect id="button" ry="5" rx="5" y="6" x="6" height="38" width="38"
                fill="#f2f5e9" fill-opacity="0.5" stroke="#606060" stroke-width="1.0"/>
           <path id="arrow"
             d="M 11.500037,31.436501 C 11.940474,20.09759 22.043105,11.32322 32.158766,21.979434 L 37.068811,17.246167 C 37.068811,17.246167 37.088388,32 37.088388,32 L 22.160133,31.978069 C 22.160133,31.978069 26.997745,27.140456 26.997745,27.140456 C 18.528582,18.264221 13.291696,25.230495 11.500037,31.436501 z"
             style="fill:#404040;"/>
          </a>
         </g>
        </svg>
</svg>
