<?xml version="1.0" encoding="UTF-8" standalone="no"?>
<!DOCTYPE svg PUBLIC "-//W3C//DTD SVG 1.1//EN"
 "http://www.w3.org/Graphics/SVG/1.1/DTD/svg11.dtd">
<!-- Generated by graphviz version 8.0.5 (20230430.1635)
 -->
<!-- Title: lfilesystem_Permissions.h Pages: 1 -->
<svg width="427pt" height="359pt"
 viewBox="0.00 0.00 426.80 358.75" xmlns="http://www.w3.org/2000/svg" xmlns:xlink="http://www.w3.org/1999/xlink">

<svg id="main" version="1.1" xmlns="http://www.w3.org/2000/svg" xmlns:xlink="http://www.w3.org/1999/xlink" xml:space="preserve" onload="init(evt)">
<style type="text/css"><![CDATA[
.node, .edge {opacity: 0.7;}
.node.selected, .edge.selected {opacity: 1;}
.edge:hover path { stroke: red; }
.edge:hover polygon { stroke: red; fill: red; }
]]></style>
<script type="application/ecmascript" xlink:href="svg.min.js"/>
<svg id="graph" class="graph">
<g id="graph0" class="graph" transform="scale(1 1) rotate(0) translate(4 354.75)">
<title>lfilesystem_Permissions.h</title>
<!-- Node1 -->
<g id="Node000001" class="node">
<title>Node1</title>
<g id="a_Node000001"><a xlink:title="This file defines the Permissions class.">
<polygon fill="#999999" stroke="#666666" points="362.05,-350.75 231.3,-350.75 231.3,-331.5 362.05,-331.5 362.05,-350.75"/>
<text text-anchor="middle" x="296.67" y="-337.25" font-family="Helvetica,sans-Serif" font-size="10.00">lfilesystem_Permissions.h</text>
</a>
</g>
</g>
<!-- Node2 -->
<g id="Node000002" class="node">
<title>Node2</title>
<g id="a_Node000002"><a xlink:href="lfilesystem___filesystem_entry_8h.html" target="_top" xlink:title="This file defines the FilesystemEntry class.">
<polygon fill="white" stroke="#666666" points="369.92,-295.5 223.42,-295.5 223.42,-276.25 369.92,-276.25 369.92,-295.5"/>
<text text-anchor="middle" x="296.67" y="-282" font-family="Helvetica,sans-Serif" font-size="10.00">lfilesystem_FilesystemEntry.h</text>
</a>
</g>
</g>
<!-- Node1&#45;&gt;Node2 -->
<g id="edge1_Node000001_Node000002" class="edge">
<title>Node1&#45;&gt;Node2</title>
<g id="a_edge1_Node000001_Node000002"><a xlink:title=" ">
<path fill="none" stroke="#63b8ff" d="M296.67,-320.46C296.67,-312.02 296.67,-302.58 296.67,-295.86"/>
<polygon fill="#63b8ff" stroke="#63b8ff" points="293.17,-320.33 296.67,-330.33 300.17,-320.33 293.17,-320.33"/>
</a>
</g>
</g>
<!-- Node3 -->
<g id="Node000003" class="node">
<title>Node3</title>
<g id="a_Node000003"><a xlink:href="lfilesystem___c_file_8h.html" target="_top" xlink:title="This file defines the CFile class.">
<polygon fill="white" stroke="#666666" points="268.67,-240.25 168.67,-240.25 168.67,-221 268.67,-221 268.67,-240.25"/>
<text text-anchor="middle" x="218.67" y="-226.75" font-family="Helvetica,sans-Serif" font-size="10.00">lfilesystem_CFile.h</text>
</a>
</g>
</g>
<!-- Node2&#45;&gt;Node3 -->
<g id="edge2_Node000002_Node000003" class="edge">
<title>Node2&#45;&gt;Node3</title>
<g id="a_edge2_Node000002_Node000003"><a xlink:title=" ">
<path fill="none" stroke="#63b8ff" d="M274.59,-269.8C260.86,-260.42 243.64,-248.67 231.97,-240.7"/>
<polygon fill="#63b8ff" stroke="#63b8ff" points="272.21,-273.09 282.44,-275.84 276.15,-267.31 272.21,-273.09"/>
</a>
</g>
</g>
<!-- Node4 -->
<g id="Node000004" class="node">
<title>Node4</title>
<g id="a_Node000004"><a xlink:href="lfilesystem___file_8h.html" target="_top" xlink:title="This file defines the File and TempFile classes.">
<polygon fill="white" stroke="#666666" points="264.92,-185 172.42,-185 172.42,-165.75 264.92,-165.75 264.92,-185"/>
<text text-anchor="middle" x="218.67" y="-171.5" font-family="Helvetica,sans-Serif" font-size="10.00">lfilesystem_File.h</text>
</a>
</g>
</g>
<!-- Node2&#45;&gt;Node4 -->
<g id="edge9_Node000002_Node000004" class="edge">
<title>Node2&#45;&gt;Node4</title>
<g id="a_edge9_Node000002_Node000004"><a xlink:title=" ">
<path fill="none" stroke="#63b8ff" d="M294.15,-265.39C291.66,-251.97 286.85,-234.24 277.67,-221 266.99,-205.59 249.3,-193.24 236.07,-185.48"/>
<polygon fill="#63b8ff" stroke="#63b8ff" points="290.78,-265.51 295.78,-274.85 297.69,-264.43 290.78,-265.51"/>
</a>
</g>
</g>
<!-- Node5 -->
<g id="Node000005" class="node">
<title>Node5</title>
<g id="a_Node000005"><a xlink:href="lfilesystem___directory_8h.html" target="_top" xlink:title="This file defines the Directory class.">
<polygon fill="white" stroke="#666666" points="398.17,-129.75 283.17,-129.75 283.17,-110.5 398.17,-110.5 398.17,-129.75"/>
<text text-anchor="middle" x="340.67" y="-116.25" font-family="Helvetica,sans-Serif" font-size="10.00">lfilesystem_Directory.h</text>
</a>
</g>
</g>
<!-- Node2&#45;&gt;Node5 -->
<g id="edge8_Node000002_Node000005" class="edge">
<title>Node2&#45;&gt;Node5</title>
<g id="a_edge8_Node000002_Node000005"><a xlink:title=" ">
<path fill="none" stroke="#63b8ff" d="M322.73,-270.46C349.74,-253.86 390.39,-223.81 407.67,-185 418.53,-160.63 387.13,-141.01 363.72,-130.22"/>
<polygon fill="#63b8ff" stroke="#63b8ff" points="321.28,-267.84 314.47,-275.96 324.85,-273.86 321.28,-267.84"/>
</a>
</g>
</g>
<!-- Node9 -->
<g id="Node000009" class="node">
<title>Node9</title>
<g id="a_Node000009"><a xlink:href="lfilesystem___file_watcher_8h.html" target="_top" xlink:title="This file defines the files::FileWatcher class.">
<polygon fill="white" stroke="#666666" points="147.55,-240.25 19.8,-240.25 19.8,-221 147.55,-221 147.55,-240.25"/>
<text text-anchor="middle" x="83.67" y="-226.75" font-family="Helvetica,sans-Serif" font-size="10.00">lfilesystem_FileWatcher.h</text>
</a>
</g>
</g>
<!-- Node2&#45;&gt;Node9 -->
<g id="edge10_Node000002_Node000009" class="edge">
<title>Node2&#45;&gt;Node9</title>
<g id="a_edge10_Node000002_Node000009"><a xlink:title=" ">
<path fill="none" stroke="#63b8ff" d="M249.96,-273.2C210.86,-263.42 155.85,-249.67 119.98,-240.7"/>
<polygon fill="#63b8ff" stroke="#63b8ff" points="248.99,-276.81 259.54,-275.84 250.69,-270.02 248.99,-276.81"/>
</a>
</g>
</g>
<!-- Node11 -->
<g id="Node000011" class="node">
<title>Node11</title>
<g id="a_Node000011"><a xlink:href="lfilesystem___sym_link_8h.html" target="_top" xlink:title="This file defines the files::SymLink class.">
<polygon fill="white" stroke="#666666" points="398.17,-185 283.17,-185 283.17,-165.75 398.17,-165.75 398.17,-185"/>
<text text-anchor="middle" x="340.67" y="-171.5" font-family="Helvetica,sans-Serif" font-size="10.00">lfilesystem_SymLink.h</text>
</a>
</g>
</g>
<!-- Node2&#45;&gt;Node11 -->
<g id="edge13_Node000002_Node000011" class="edge">
<title>Node2&#45;&gt;Node11</title>
<g id="a_edge13_Node000002_Node000011"><a xlink:title=" ">
<path fill="none" stroke="#63b8ff" d="M304.39,-265.83C313.97,-242.22 329.89,-202.96 337.02,-185.38"/>
<polygon fill="#63b8ff" stroke="#63b8ff" points="300.79,-264.41 300.27,-275 307.27,-267.04 300.79,-264.41"/>
</a>
</g>
</g>
<!-- Node3&#45;&gt;Node4 -->
<g id="edge3_Node000003_Node000004" class="edge">
<title>Node3&#45;&gt;Node4</title>
<g id="a_edge3_Node000003_Node000004"><a xlink:title=" ">
<path fill="none" stroke="#63b8ff" d="M218.67,-209.96C218.67,-201.52 218.67,-192.08 218.67,-185.36"/>
<polygon fill="#63b8ff" stroke="#63b8ff" points="215.17,-209.83 218.67,-219.83 222.17,-209.83 215.17,-209.83"/>
</a>
</g>
</g>
<!-- Node4&#45;&gt;Node5 -->
<g id="edge4_Node000004_Node000005" class="edge">
<title>Node4&#45;&gt;Node5</title>
<g id="a_edge4_Node000004_Node000005"><a xlink:title=" ">
<path fill="none" stroke="#63b8ff" d="M249.24,-161.03C271.29,-151.41 300.47,-138.67 319.87,-130.2"/>
<polygon fill="#63b8ff" stroke="#63b8ff" points="248.13,-158.13 240.37,-165.34 250.93,-164.55 248.13,-158.13"/>
</a>
</g>
</g>
<!-- Node8 -->
<g id="Node000008" class="node">
<title>Node8</title>
<g id="a_Node000008"><a xlink:href="lfilesystem___dynamic_library_8h.html" target="_top" xlink:title="This file defines the DynamicLibrary class.">
<polygon fill="white" stroke="#666666" points="161.42,-129.75 17.92,-129.75 17.92,-110.5 161.42,-110.5 161.42,-129.75"/>
<text text-anchor="middle" x="89.67" y="-116.25" font-family="Helvetica,sans-Serif" font-size="10.00">lfilesystem_DynamicLibrary.h</text>
</a>
</g>
</g>
<!-- Node4&#45;&gt;Node8 -->
<g id="edge7_Node000004_Node000008" class="edge">
<title>Node4&#45;&gt;Node8</title>
<g id="a_edge7_Node000004_Node000008"><a xlink:title=" ">
<path fill="none" stroke="#63b8ff" d="M186.66,-161.16C163.31,-151.52 132.27,-138.71 111.66,-130.2"/>
<polygon fill="#63b8ff" stroke="#63b8ff" points="185.21,-164.76 195.79,-165.34 187.88,-158.29 185.21,-164.76"/>
</a>
</g>
</g>
<!-- Node6 -->
<g id="Node000006" class="node">
<title>Node6</title>
<g id="a_Node000006"><a xlink:href="lfilesystem___special_directories_8h.html" target="_top" xlink:title="This file contains utility functions for finding some common directories.">
<polygon fill="white" stroke="#666666" points="418.8,-74.5 262.55,-74.5 262.55,-55.25 418.8,-55.25 418.8,-74.5"/>
<text text-anchor="middle" x="340.67" y="-61" font-family="Helvetica,sans-Serif" font-size="10.00">lfilesystem_SpecialDirectories.h</text>
</a>
</g>
</g>
<!-- Node5&#45;&gt;Node6 -->
<g id="edge5_Node000005_Node000006" class="edge">
<title>Node5&#45;&gt;Node6</title>
<g id="a_edge5_Node000005_Node000006"><a xlink:title=" ">
<path fill="none" stroke="#63b8ff" d="M340.67,-99.46C340.67,-91.02 340.67,-81.58 340.67,-74.86"/>
<polygon fill="#63b8ff" stroke="#63b8ff" points="337.17,-99.33 340.67,-109.33 344.17,-99.33 337.17,-99.33"/>
</a>
</g>
</g>
<!-- Node7 -->
<g id="Node000007" class="node">
<title>Node7</title>
<g id="a_Node000007"><a xlink:href="lfilesystem___volume_8h.html" target="_top" xlink:title="This file defines the files::Volume class.">
<polygon fill="white" stroke="#666666" points="395.55,-19.25 285.8,-19.25 285.8,0 395.55,0 395.55,-19.25"/>
<text text-anchor="middle" x="340.67" y="-5.75" font-family="Helvetica,sans-Serif" font-size="10.00">lfilesystem_Volume.h</text>
</a>
</g>
</g>
<!-- Node6&#45;&gt;Node7 -->
<g id="edge6_Node000006_Node000007" class="edge">
<title>Node6&#45;&gt;Node7</title>
<g id="a_edge6_Node000006_Node000007"><a xlink:title=" ">
<path fill="none" stroke="#63b8ff" d="M340.67,-44.21C340.67,-35.77 340.67,-26.33 340.67,-19.61"/>
<polygon fill="#63b8ff" stroke="#63b8ff" points="337.17,-44.08 340.67,-54.08 344.17,-44.08 337.17,-44.08"/>
</a>
</g>
</g>
<!-- Node9&#45;&gt;Node8 -->
<g id="edge11_Node000009_Node000008" class="edge">
<title>Node9&#45;&gt;Node8</title>
<g id="a_edge11_Node000009_Node000008"><a xlink:title=" ">
<path fill="none" stroke="#63b8ff" d="M44.52,-216.63C18.06,-205.55 -9.79,-187.9 3.67,-165.75 14.59,-147.78 35.35,-136.72 53.74,-130.11"/>
<polygon fill="#63b8ff" stroke="#63b8ff" points="42.91,-220.15 53.5,-220.55 45.47,-213.64 42.91,-220.15"/>
</a>
</g>
</g>
<!-- Node10 -->
<g id="Node000010" class="node">
<title>Node10</title>
<g id="a_Node000010"><a xlink:href="lfilesystem___simple_watcher_8h.html" target="_top" xlink:title="This file defines the SimpleFileWatcher class.">
<polygon fill="white" stroke="#666666" points="154.67,-185 12.67,-185 12.67,-165.75 154.67,-165.75 154.67,-185"/>
<text text-anchor="middle" x="83.67" y="-171.5" font-family="Helvetica,sans-Serif" font-size="10.00">lfilesystem_SimpleWatcher.h</text>
</a>
</g>
</g>
<!-- Node9&#45;&gt;Node10 -->
<g id="edge12_Node000009_Node000010" class="edge">
<title>Node9&#45;&gt;Node10</title>
<g id="a_edge12_Node000009_Node000010"><a xlink:title=" ">
<path fill="none" stroke="#63b8ff" d="M83.67,-209.96C83.67,-201.52 83.67,-192.08 83.67,-185.36"/>
<polygon fill="#63b8ff" stroke="#63b8ff" points="80.17,-209.83 83.67,-219.83 87.17,-209.83 80.17,-209.83"/>
</a>
</g>
</g>
<!-- Node11&#45;&gt;Node5 -->
<g id="edge14_Node000011_Node000005" class="edge">
<title>Node11&#45;&gt;Node5</title>
<g id="a_edge14_Node000011_Node000005"><a xlink:title=" ">
<path fill="none" stroke="#63b8ff" d="M340.67,-154.71C340.67,-146.27 340.67,-136.83 340.67,-130.11"/>
<polygon fill="#63b8ff" stroke="#63b8ff" points="337.17,-154.58 340.67,-164.58 344.17,-154.58 337.17,-154.58"/>
</a>
</g>
</g>
</g>
</svg>
</svg>

<style type='text/css'>
<![CDATA[
[data-mouse-over-selected='false'] { opacity: 0.7; }
[data-mouse-over-selected='true']  { opacity: 1.0; }
]]>
</style>
<script type="application/ecmascript"><![CDATA[
document.addEventListener('DOMContentLoaded', (event) => {
  highlightEdges();
  highlightAdjacentNodes();
});
]]></script>
</svg>
