<?xml version="1.0" encoding="UTF-8" standalone="no"?>
<!DOCTYPE svg PUBLIC "-//W3C//DTD SVG 1.1//EN"
 "http://www.w3.org/Graphics/SVG/1.1/DTD/svg11.dtd">
<!-- Generated by graphviz version 2.43.0 (0)
 -->
<!-- Title: lfilesystem_Volume.h Pages: 1 -->
<!--zoomable 497 -->
<svg id="main" version="1.1" xmlns="http://www.w3.org/2000/svg" xmlns:xlink="http://www.w3.org/1999/xlink" xml:space="preserve" onload="init(evt)">
<style type="text/css"><![CDATA[
.edge:hover path { stroke: red; }
.edge:hover polygon { stroke: red; fill: red; }
]]></style>
<script type="text/javascript"><![CDATA[
var edges = document.getElementsByTagName('g');
if (edges && edges.length) {
  for (var i=0;i<edges.length;i++) {
    if (edges[i].id.substr(0,4)=='edge') {
      edges[i].setAttribute('class','edge');
    }
  }
}
]]></script>
        <defs>
                <circle id="rim" cx="0" cy="0" r="7"/>
                <circle id="rim2" cx="0" cy="0" r="3.5"/>
                <g id="zoomPlus">
                        <use xlink:href="#rim" fill="#404040">
                                <set attributeName="fill" to="#808080" begin="zoomplus.mouseover" end="zoomplus.mouseout"/>
                        </use>
                        <path d="M-4,0h8M0,-4v8" fill="none" stroke="white" stroke-width="1.5" pointer-events="none"/>
                </g>
                <g id="zoomMin">
                        <use xlink:href="#rim" fill="#404040">
                                <set attributeName="fill" to="#808080" begin="zoomminus.mouseover" end="zoomminus.mouseout"/>
                        </use>
                        <path d="M-4,0h8" fill="none" stroke="white" stroke-width="1.5" pointer-events="none"/>
                </g>
                <g id="dirArrow">
                        <path fill="none" stroke="white" stroke-width="1.5" d="M0,-3.0v7 M-2.5,-0.5L0,-3.0L2.5,-0.5"/>
                </g>
               <g id="resetDef">
                       <use xlink:href="#rim2" fill="#404040">
                               <set attributeName="fill" to="#808080" begin="reset.mouseover" end="reset.mouseout"/>
                       </use>
               </g>
        </defs>

<script type="text/javascript">
var viewWidth = 1342;
var viewHeight = 497;
var sectionId = 'dynsection-0';
</script>
<script xlink:href="svgpan.js"/>
<svg id="graph" class="graph">
<g id="viewport">
<title>lfilesystem_Volume.h</title>
<polygon fill="white" stroke="transparent" points="-4,4 -4,-493 1338,-493 1338,4 -4,4"/>
<!-- Node1 -->
<g id="node1" class="node">
<title>Node1</title>
<g id="a_node1"><a xlink:title="This file defines the files::Volume class.">
<polygon fill="#bfbfbf" stroke="black" points="381,-469.5 381,-488.5 503,-488.5 503,-469.5 381,-469.5"/>
<text text-anchor="middle" x="442" y="-476.5" font-family="Helvetica,sans-Serif" font-size="10.00">lfilesystem_Volume.h</text>
</a>
</g>
</g>
<!-- Node2 -->
<g id="node2" class="node">
<title>Node2</title>
<g id="a_node2"><a xlink:title=" ">
<polygon fill="white" stroke="#bfbfbf" points="332,-6 332,-25 376,-25 376,-6 332,-6"/>
<text text-anchor="middle" x="354" y="-13" font-family="Helvetica,sans-Serif" font-size="10.00">string</text>
</a>
</g>
</g>
<!-- Node1&#45;&gt;Node2 -->
<g id="edge1" class="edge">
<title>Node1&#45;&gt;Node2</title>
<path fill="none" stroke="midnightblue" d="M380.98,-477.25C285.32,-475.04 105.45,-466.43 52,-433 15.57,-410.22 0,-394.47 0,-351.5 0,-351.5 0,-351.5 0,-148.5 0,-98.36 33.86,-90.78 78,-67 157.84,-23.99 267.53,-16.83 321.42,-16.12"/>
<polygon fill="midnightblue" stroke="midnightblue" points="321.76,-19.62 331.74,-16.06 321.72,-12.62 321.76,-19.62"/>
</g>
<!-- Node3 -->
<g id="node3" class="node">
<title>Node3</title>
<g id="a_node3"><a xlink:title=" ">
<polygon fill="white" stroke="#bfbfbf" points="165,-73 165,-92 215,-92 215,-73 165,-73"/>
<text text-anchor="middle" x="190" y="-80" font-family="Helvetica,sans-Serif" font-size="10.00">cstdint</text>
</a>
</g>
</g>
<!-- Node1&#45;&gt;Node3 -->
<g id="edge2" class="edge">
<title>Node1&#45;&gt;Node3</title>
<path fill="none" stroke="midnightblue" d="M380.73,-475.55C295.51,-471.21 146.43,-459.93 100,-433 60.63,-410.16 38,-397.01 38,-351.5 38,-351.5 38,-351.5 38,-282.5 38,-198.05 125.51,-127.19 167.73,-97.91"/>
<polygon fill="midnightblue" stroke="midnightblue" points="169.92,-100.65 176.24,-92.15 166,-94.86 169.92,-100.65"/>
</g>
<!-- Node4 -->
<g id="node4" class="node">
<title>Node4</title>
<g id="a_node4"><a xlink:title=" ">
<polygon fill="white" stroke="#bfbfbf" points="480,-6 480,-25 548,-25 548,-6 480,-6"/>
<text text-anchor="middle" x="514" y="-13" font-family="Helvetica,sans-Serif" font-size="10.00">filesystem</text>
</a>
</g>
</g>
<!-- Node1&#45;&gt;Node4 -->
<g id="edge3" class="edge">
<title>Node1&#45;&gt;Node4</title>
<path fill="none" stroke="midnightblue" d="M392.18,-469.49C300.43,-452.39 114,-410.4 114,-351.5 114,-351.5 114,-351.5 114,-148.5 114,-107.75 122.78,-90.6 156,-67 168.7,-57.98 377.06,-32.57 469.93,-21.62"/>
<polygon fill="midnightblue" stroke="midnightblue" points="470.35,-25.1 479.87,-20.46 469.53,-18.15 470.35,-25.1"/>
</g>
<!-- Node5 -->
<g id="node5" class="node">
<title>Node5</title>
<g id="a_node5"><a xlink:title=" ">
<polygon fill="white" stroke="#bfbfbf" points="294.5,-207 294.5,-226 341.5,-226 341.5,-207 294.5,-207"/>
<text text-anchor="middle" x="318" y="-214" font-family="Helvetica,sans-Serif" font-size="10.00">vector</text>
</a>
</g>
</g>
<!-- Node1&#45;&gt;Node5 -->
<g id="edge4" class="edge">
<title>Node1&#45;&gt;Node5</title>
<path fill="none" stroke="midnightblue" d="M443.99,-469.43C445.97,-460.42 448.87,-445.8 450,-433 453.9,-388.8 453.09,-373.48 431,-335 406.42,-292.18 362.87,-253.16 337.62,-232.64"/>
<polygon fill="midnightblue" stroke="midnightblue" points="339.51,-229.68 329.51,-226.18 335.15,-235.15 339.51,-229.68"/>
</g>
<!-- Node6 -->
<g id="node6" class="node">
<title>Node6</title>
<g id="a_node6"><a xlink:title=" ">
<polygon fill="white" stroke="#bfbfbf" points="848,-73 848,-92 904,-92 904,-73 848,-73"/>
<text text-anchor="middle" x="876" y="-80" font-family="Helvetica,sans-Serif" font-size="10.00">optional</text>
</a>
</g>
</g>
<!-- Node1&#45;&gt;Node6 -->
<g id="edge5" class="edge">
<title>Node1&#45;&gt;Node6</title>
<path fill="none" stroke="midnightblue" d="M503.19,-473.98C680.48,-461.51 1182,-420.17 1182,-351.5 1182,-351.5 1182,-351.5 1182,-282.5 1182,-245.31 1187.12,-229.31 1163,-201 1098.14,-124.87 976.3,-97.36 914.32,-87.99"/>
<polygon fill="midnightblue" stroke="midnightblue" points="914.58,-84.49 904.19,-86.54 913.59,-91.42 914.58,-84.49"/>
</g>
<!-- Node7 -->
<g id="node7" class="node">
<title>Node7</title>
<g id="a_node7"><a xlink:title=" ">
<polygon fill="white" stroke="#bfbfbf" points="669.5,-6 669.5,-25 726.5,-25 726.5,-6 669.5,-6"/>
<text text-anchor="middle" x="698" y="-13" font-family="Helvetica,sans-Serif" font-size="10.00">ostream</text>
</a>
</g>
</g>
<!-- Node1&#45;&gt;Node7 -->
<g id="edge6" class="edge">
<title>Node1&#45;&gt;Node7</title>
<path fill="none" stroke="midnightblue" d="M503.07,-475.39C698.53,-466.25 1296,-431.73 1296,-351.5 1296,-351.5 1296,-351.5 1296,-215.5 1296,-97.25 869.7,-36.82 736.97,-20.87"/>
<polygon fill="midnightblue" stroke="midnightblue" points="737.18,-17.37 726.84,-19.67 736.36,-24.32 737.18,-17.37"/>
</g>
<!-- Node8 -->
<g id="node8" class="node">
<title>Node8</title>
<g id="a_node8"><a xlink:title=" ">
<polygon fill="white" stroke="#bfbfbf" points="985,-0.5 985,-30.5 1113,-30.5 1113,-0.5 985,-0.5"/>
<text text-anchor="start" x="993" y="-18.5" font-family="Helvetica,sans-Serif" font-size="10.00">lfilesystem/lfilesystem</text>
<text text-anchor="middle" x="1049" y="-7.5" font-family="Helvetica,sans-Serif" font-size="10.00">_Export.h</text>
</a>
</g>
</g>
<!-- Node1&#45;&gt;Node8 -->
<g id="edge7" class="edge">
<title>Node1&#45;&gt;Node8</title>
<path fill="none" stroke="midnightblue" d="M503.25,-476.3C648.66,-471.9 1011.31,-458.63 1130,-433 1225.44,-412.39 1334,-449.13 1334,-351.5 1334,-351.5 1334,-351.5 1334,-148.5 1334,-55.62 1207.84,-27.9 1123.39,-19.75"/>
<polygon fill="midnightblue" stroke="midnightblue" points="1123.59,-16.25 1113.31,-18.85 1122.96,-23.23 1123.59,-16.25"/>
</g>
<!-- Node9 -->
<g id="node9" class="node">
<title>Node9</title>
<g id="a_node9"><a xlink:href="lfilesystem__SpecialDirectories_8h.html" target="_top" xlink:title="This file contains utility functions for finding some common directories.">
<polygon fill="white" stroke="black" points="313,-402.5 313,-432.5 441,-432.5 441,-402.5 313,-402.5"/>
<text text-anchor="start" x="321" y="-420.5" font-family="Helvetica,sans-Serif" font-size="10.00">lfilesystem/lfilesystem</text>
<text text-anchor="middle" x="377" y="-409.5" font-family="Helvetica,sans-Serif" font-size="10.00">_SpecialDirectories.h</text>
</a>
</g>
</g>
<!-- Node1&#45;&gt;Node9 -->
<g id="edge8" class="edge">
<title>Node1&#45;&gt;Node9</title>
<path fill="none" stroke="midnightblue" d="M432.69,-469.48C424.13,-461.64 411.1,-449.71 399.79,-439.37"/>
<polygon fill="midnightblue" stroke="midnightblue" points="402.06,-436.69 392.32,-432.52 397.33,-441.86 402.06,-436.69"/>
</g>
<!-- Node9&#45;&gt;Node5 -->
<g id="edge9" class="edge">
<title>Node9&#45;&gt;Node5</title>
<path fill="none" stroke="midnightblue" d="M330.36,-402.36C312.96,-394.57 295.02,-382.93 285,-366 259.86,-323.53 289.01,-263.93 306.58,-234.84"/>
<polygon fill="midnightblue" stroke="midnightblue" points="309.65,-236.55 312,-226.22 303.72,-232.82 309.65,-236.55"/>
</g>
<!-- Node9&#45;&gt;Node8 -->
<g id="edge10" class="edge">
<title>Node9&#45;&gt;Node8</title>
<path fill="none" stroke="midnightblue" d="M441.19,-413.93C610.48,-406.12 1064.62,-378.15 1189,-299 1276.07,-243.59 1277.46,-134.04 1199,-67 1177.6,-48.72 1149.32,-36.98 1123.08,-29.48"/>
<polygon fill="midnightblue" stroke="midnightblue" points="1123.71,-26.02 1113.15,-26.81 1121.9,-32.78 1123.71,-26.02"/>
</g>
<!-- Node10 -->
<g id="node10" class="node">
<title>Node10</title>
<g id="a_node10"><a xlink:href="lfilesystem__Directory_8h.html" target="_top" xlink:title="This file defines the Directory class.">
<polygon fill="white" stroke="black" points="294,-335.5 294,-365.5 422,-365.5 422,-335.5 294,-335.5"/>
<text text-anchor="start" x="302" y="-353.5" font-family="Helvetica,sans-Serif" font-size="10.00">lfilesystem/lfilesystem</text>
<text text-anchor="middle" x="358" y="-342.5" font-family="Helvetica,sans-Serif" font-size="10.00">_Directory.h</text>
</a>
</g>
</g>
<!-- Node9&#45;&gt;Node10 -->
<g id="edge11" class="edge">
<title>Node9&#45;&gt;Node10</title>
<path fill="none" stroke="midnightblue" d="M372.88,-402.4C370.56,-394.47 367.61,-384.38 364.95,-375.27"/>
<polygon fill="midnightblue" stroke="midnightblue" points="368.28,-374.19 362.11,-365.58 361.56,-376.16 368.28,-374.19"/>
</g>
<!-- Node10&#45;&gt;Node2 -->
<g id="edge14" class="edge">
<title>Node10&#45;&gt;Node2</title>
<path fill="none" stroke="midnightblue" d="M306.03,-335.48C282.89,-327.44 256.34,-315.59 236,-299 143.38,-223.46 24.17,-159.39 100,-67 127.71,-33.24 259.62,-21.64 321.64,-18"/>
<polygon fill="midnightblue" stroke="midnightblue" points="321.88,-21.5 331.67,-17.45 321.49,-14.51 321.88,-21.5"/>
</g>
<!-- Node10&#45;&gt;Node3 -->
<g id="edge13" class="edge">
<title>Node10&#45;&gt;Node3</title>
<path fill="none" stroke="midnightblue" d="M314.51,-335.35C295.79,-327.31 275.02,-315.49 261,-299 210.27,-239.32 195.51,-142.34 191.45,-102.01"/>
<polygon fill="midnightblue" stroke="midnightblue" points="194.93,-101.66 190.55,-92.01 187.96,-102.28 194.93,-101.66"/>
</g>
<!-- Node10&#45;&gt;Node5 -->
<g id="edge15" class="edge">
<title>Node10&#45;&gt;Node5</title>
<path fill="none" stroke="midnightblue" d="M353.72,-335.37C346.42,-311.29 331.58,-262.31 323.52,-235.7"/>
<polygon fill="midnightblue" stroke="midnightblue" points="326.85,-234.65 320.61,-226.1 320.16,-236.68 326.85,-234.65"/>
</g>
<!-- Node10&#45;&gt;Node8 -->
<g id="edge18" class="edge">
<title>Node10&#45;&gt;Node8</title>
<path fill="none" stroke="midnightblue" d="M422.2,-337.08C426.86,-336.32 431.5,-335.62 436,-335 610.51,-310.92 1220,-393.67 1220,-217.5 1220,-217.5 1220,-217.5 1220,-148.5 1220,-89.66 1155.78,-53.36 1106.05,-34.08"/>
<polygon fill="midnightblue" stroke="midnightblue" points="1107.23,-30.78 1096.63,-30.56 1104.77,-37.34 1107.23,-30.78"/>
</g>
<!-- Node11 -->
<g id="node11" class="node">
<title>Node11</title>
<g id="a_node11"><a xlink:title=" ">
<polygon fill="white" stroke="#bfbfbf" points="382.5,-73 382.5,-92 447.5,-92 447.5,-73 382.5,-73"/>
<text text-anchor="middle" x="415" y="-80" font-family="Helvetica,sans-Serif" font-size="10.00">functional</text>
</a>
</g>
</g>
<!-- Node10&#45;&gt;Node11 -->
<g id="edge12" class="edge">
<title>Node10&#45;&gt;Node11</title>
<path fill="none" stroke="midnightblue" d="M324.36,-335.29C308.74,-326.98 291.37,-314.95 281,-299 257.11,-262.26 251.14,-240.56 270,-201 294.09,-150.47 351.7,-114.63 386.62,-96.66"/>
<polygon fill="midnightblue" stroke="midnightblue" points="388.43,-99.67 395.82,-92.07 385.31,-93.41 388.43,-99.67"/>
</g>
<!-- Node12 -->
<g id="node12" class="node">
<title>Node12</title>
<g id="a_node12"><a xlink:title=" ">
<polygon fill="white" stroke="#bfbfbf" points="1096,-207 1096,-226 1154,-226 1154,-207 1096,-207"/>
<text text-anchor="middle" x="1125" y="-214" font-family="Helvetica,sans-Serif" font-size="10.00">memory</text>
</a>
</g>
</g>
<!-- Node10&#45;&gt;Node12 -->
<g id="edge16" class="edge">
<title>Node10&#45;&gt;Node12</title>
<path fill="none" stroke="midnightblue" d="M422.23,-337.3C426.89,-336.5 431.51,-335.72 436,-335 723.05,-288.85 800.28,-303.83 1082,-232 1085.21,-231.18 1088.52,-230.24 1091.81,-229.24"/>
<polygon fill="midnightblue" stroke="midnightblue" points="1093.08,-232.51 1101.53,-226.13 1090.94,-225.85 1093.08,-232.51"/>
</g>
<!-- Node13 -->
<g id="node13" class="node">
<title>Node13</title>
<g id="a_node13"><a xlink:title=" ">
<polygon fill="white" stroke="#bfbfbf" points="359.5,-207 359.5,-226 412.5,-226 412.5,-207 359.5,-207"/>
<text text-anchor="middle" x="386" y="-214" font-family="Helvetica,sans-Serif" font-size="10.00">iterator</text>
</a>
</g>
</g>
<!-- Node10&#45;&gt;Node13 -->
<g id="edge17" class="edge">
<title>Node10&#45;&gt;Node13</title>
<path fill="none" stroke="midnightblue" d="M361,-335.37C366.08,-311.4 376.4,-262.75 382.06,-236.06"/>
<polygon fill="midnightblue" stroke="midnightblue" points="385.53,-236.61 384.18,-226.1 378.68,-235.15 385.53,-236.61"/>
</g>
<!-- Node14 -->
<g id="node14" class="node">
<title>Node14</title>
<g id="a_node14"><a xlink:href="lfilesystem__FilesystemEntry_8h.html" target="_top" xlink:title="This file defines the FilesystemEntry class.">
<polygon fill="white" stroke="black" points="545,-134.5 545,-164.5 673,-164.5 673,-134.5 545,-134.5"/>
<text text-anchor="start" x="553" y="-152.5" font-family="Helvetica,sans-Serif" font-size="10.00">lfilesystem/lfilesystem</text>
<text text-anchor="middle" x="609" y="-141.5" font-family="Helvetica,sans-Serif" font-size="10.00">_FilesystemEntry.h</text>
</a>
</g>
</g>
<!-- Node10&#45;&gt;Node14 -->
<g id="edge19" class="edge">
<title>Node10&#45;&gt;Node14</title>
<path fill="none" stroke="midnightblue" d="M341.5,-335.45C310.46,-307.39 249.67,-243.45 286,-201 317.34,-164.38 449.27,-154.12 534.52,-151.37"/>
<polygon fill="midnightblue" stroke="midnightblue" points="534.79,-154.86 544.68,-151.07 534.58,-147.86 534.79,-154.86"/>
</g>
<!-- Node17 -->
<g id="node17" class="node">
<title>Node17</title>
<g id="a_node17"><a xlink:href="lfilesystem__File_8h.html" target="_top" xlink:title="This file defines the File and TempFile classes.">
<polygon fill="white" stroke="black" points="519,-268.5 519,-298.5 647,-298.5 647,-268.5 519,-268.5"/>
<text text-anchor="start" x="527" y="-286.5" font-family="Helvetica,sans-Serif" font-size="10.00">lfilesystem/lfilesystem</text>
<text text-anchor="middle" x="583" y="-275.5" font-family="Helvetica,sans-Serif" font-size="10.00">_File.h</text>
</a>
</g>
</g>
<!-- Node10&#45;&gt;Node17 -->
<g id="edge33" class="edge">
<title>Node10&#45;&gt;Node17</title>
<path fill="none" stroke="midnightblue" d="M406.54,-335.48C441.03,-325.51 487.51,-312.09 524.11,-301.51"/>
<polygon fill="midnightblue" stroke="midnightblue" points="525.52,-304.75 534.15,-298.61 523.58,-298.02 525.52,-304.75"/>
</g>
<!-- Node22 -->
<g id="node22" class="node">
<title>Node22</title>
<g id="a_node22"><a xlink:href="lfilesystem__SymLink_8h.html" target="_top" xlink:title="This file defines the files::SymLink class.">
<polygon fill="white" stroke="black" points="728,-201.5 728,-231.5 856,-231.5 856,-201.5 728,-201.5"/>
<text text-anchor="start" x="736" y="-219.5" font-family="Helvetica,sans-Serif" font-size="10.00">lfilesystem/lfilesystem</text>
<text text-anchor="middle" x="792" y="-208.5" font-family="Helvetica,sans-Serif" font-size="10.00">_SymLink.h</text>
</a>
</g>
</g>
<!-- Node10&#45;&gt;Node22 -->
<g id="edge49" class="edge">
<title>Node10&#45;&gt;Node22</title>
<path fill="none" stroke="midnightblue" d="M422.25,-337.44C426.9,-336.6 431.52,-335.78 436,-335 533.6,-317.94 562.96,-333.07 656,-299 696.87,-284.03 739.14,-256.46 765.49,-237.57"/>
<polygon fill="midnightblue" stroke="midnightblue" points="767.76,-240.24 773.78,-231.52 763.64,-234.58 767.76,-240.24"/>
</g>
<!-- Node14&#45;&gt;Node2 -->
<g id="edge22" class="edge">
<title>Node14&#45;&gt;Node2</title>
<path fill="none" stroke="midnightblue" d="M583.1,-134.47C546.38,-114.6 480.98,-79.3 457,-67 431.45,-53.89 402.01,-39.53 381.17,-29.49"/>
<polygon fill="midnightblue" stroke="midnightblue" points="382.49,-26.24 371.96,-25.06 379.46,-32.55 382.49,-26.24"/>
</g>
<!-- Node14&#45;&gt;Node3 -->
<g id="edge20" class="edge">
<title>Node14&#45;&gt;Node3</title>
<path fill="none" stroke="midnightblue" d="M544.91,-138.56C455.51,-124.69 296.39,-100 225.63,-89.03"/>
<polygon fill="midnightblue" stroke="midnightblue" points="225.87,-85.52 215.45,-87.45 224.8,-92.44 225.87,-85.52"/>
</g>
<!-- Node14&#45;&gt;Node4 -->
<g id="edge21" class="edge">
<title>Node14&#45;&gt;Node4</title>
<path fill="none" stroke="midnightblue" d="M577,-134.32C561.51,-125.89 543.93,-113.75 533,-98 520.02,-79.3 515.81,-52.96 514.5,-35.34"/>
<polygon fill="midnightblue" stroke="midnightblue" points="517.99,-35 513.99,-25.19 511,-35.35 517.99,-35"/>
</g>
<!-- Node14&#45;&gt;Node6 -->
<g id="edge24" class="edge">
<title>Node14&#45;&gt;Node6</title>
<path fill="none" stroke="midnightblue" d="M666.61,-134.48C718.52,-121.84 793.36,-103.62 838.09,-92.73"/>
<polygon fill="midnightblue" stroke="midnightblue" points="839.08,-96.09 847.97,-90.32 837.42,-89.29 839.08,-96.09"/>
</g>
<!-- Node14&#45;&gt;Node7 -->
<g id="edge25" class="edge">
<title>Node14&#45;&gt;Node7</title>
<path fill="none" stroke="midnightblue" d="M637.43,-134.4C651.96,-125.8 668.7,-113.47 679,-98 691.62,-79.05 695.91,-52.77 697.34,-35.23"/>
<polygon fill="midnightblue" stroke="midnightblue" points="700.84,-35.31 697.92,-25.13 693.85,-34.91 700.84,-35.31"/>
</g>
<!-- Node14&#45;&gt;Node8 -->
<g id="edge26" class="edge">
<title>Node14&#45;&gt;Node8</title>
<path fill="none" stroke="midnightblue" d="M636.48,-134.48C672.67,-116.53 738.65,-85.54 798,-67 856.25,-48.8 924.21,-35.6 974.72,-27.27"/>
<polygon fill="midnightblue" stroke="midnightblue" points="975.59,-30.67 984.9,-25.61 974.46,-23.76 975.59,-30.67"/>
</g>
<!-- Node14&#45;&gt;Node11 -->
<g id="edge23" class="edge">
<title>Node14&#45;&gt;Node11</title>
<path fill="none" stroke="midnightblue" d="M566.9,-134.4C531.96,-122.69 482.84,-106.23 450.02,-95.23"/>
<polygon fill="midnightblue" stroke="midnightblue" points="450.98,-91.87 440.39,-92.01 448.76,-98.5 450.98,-91.87"/>
</g>
<!-- Node15 -->
<g id="node15" class="node">
<title>Node15</title>
<g id="a_node15"><a xlink:href="lfilesystem__Permissions_8h.html" target="_top" xlink:title="This file defines the Permissions class.">
<polygon fill="white" stroke="black" points="542,-67.5 542,-97.5 670,-97.5 670,-67.5 542,-67.5"/>
<text text-anchor="start" x="550" y="-85.5" font-family="Helvetica,sans-Serif" font-size="10.00">lfilesystem/lfilesystem</text>
<text text-anchor="middle" x="606" y="-74.5" font-family="Helvetica,sans-Serif" font-size="10.00">_Permissions.h</text>
</a>
</g>
</g>
<!-- Node14&#45;&gt;Node15 -->
<g id="edge27" class="edge">
<title>Node14&#45;&gt;Node15</title>
<path fill="none" stroke="midnightblue" d="M608.35,-134.4C607.99,-126.64 607.54,-116.81 607.12,-107.86"/>
<polygon fill="midnightblue" stroke="midnightblue" points="610.61,-107.4 606.65,-97.58 603.61,-107.73 610.61,-107.4"/>
</g>
<!-- Node15&#45;&gt;Node2 -->
<g id="edge29" class="edge">
<title>Node15&#45;&gt;Node2</title>
<path fill="none" stroke="midnightblue" d="M551.63,-67.48C501.21,-54.47 427.88,-35.56 386.17,-24.8"/>
<polygon fill="midnightblue" stroke="midnightblue" points="386.84,-21.36 376.29,-22.25 385.1,-28.14 386.84,-21.36"/>
</g>
<!-- Node15&#45;&gt;Node4 -->
<g id="edge28" class="edge">
<title>Node15&#45;&gt;Node4</title>
<path fill="none" stroke="midnightblue" d="M586.04,-67.4C570.75,-56.6 549.75,-41.76 534.36,-30.89"/>
<polygon fill="midnightblue" stroke="midnightblue" points="536.23,-27.92 526.04,-25.01 532.19,-33.64 536.23,-27.92"/>
</g>
<!-- Node15&#45;&gt;Node7 -->
<g id="edge31" class="edge">
<title>Node15&#45;&gt;Node7</title>
<path fill="none" stroke="midnightblue" d="M625.96,-67.4C641.25,-56.6 662.25,-41.76 677.64,-30.89"/>
<polygon fill="midnightblue" stroke="midnightblue" points="679.81,-33.64 685.96,-25.01 675.77,-27.92 679.81,-33.64"/>
</g>
<!-- Node15&#45;&gt;Node8 -->
<g id="edge32" class="edge">
<title>Node15&#45;&gt;Node8</title>
<path fill="none" stroke="midnightblue" d="M670.42,-72.05C751.24,-60.19 889.56,-39.89 974.75,-27.39"/>
<polygon fill="midnightblue" stroke="midnightblue" points="975.48,-30.82 984.87,-25.91 974.46,-23.9 975.48,-30.82"/>
</g>
<!-- Node16 -->
<g id="node16" class="node">
<title>Node16</title>
<g id="a_node16"><a xlink:title=" ">
<polygon fill="white" stroke="#bfbfbf" points="573.5,-6 573.5,-25 646.5,-25 646.5,-6 573.5,-6"/>
<text text-anchor="middle" x="610" y="-13" font-family="Helvetica,sans-Serif" font-size="10.00">string_view</text>
</a>
</g>
</g>
<!-- Node15&#45;&gt;Node16 -->
<g id="edge30" class="edge">
<title>Node15&#45;&gt;Node16</title>
<path fill="none" stroke="midnightblue" d="M606.87,-67.4C607.45,-57.96 608.22,-45.45 608.85,-35.19"/>
<polygon fill="midnightblue" stroke="midnightblue" points="612.34,-35.39 609.46,-25.19 605.36,-34.96 612.34,-35.39"/>
</g>
<!-- Node17&#45;&gt;Node2 -->
<g id="edge35" class="edge">
<title>Node17&#45;&gt;Node2</title>
<path fill="none" stroke="midnightblue" d="M556.71,-268.36C540.29,-259 519.1,-245.91 502,-232 438.11,-180.03 413.6,-170.22 374,-98 363.19,-78.28 358.14,-52.71 355.84,-35.51"/>
<polygon fill="midnightblue" stroke="midnightblue" points="359.27,-34.65 354.65,-25.12 352.31,-35.45 359.27,-34.65"/>
</g>
<!-- Node17&#45;&gt;Node5 -->
<g id="edge37" class="edge">
<title>Node17&#45;&gt;Node5</title>
<path fill="none" stroke="midnightblue" d="M518.57,-272.05C471.5,-263.55 406.47,-250.02 351,-232 349.13,-231.39 347.21,-230.71 345.3,-229.99"/>
<polygon fill="midnightblue" stroke="midnightblue" points="346.48,-226.69 335.9,-226.14 343.83,-233.17 346.48,-226.69"/>
</g>
<!-- Node17&#45;&gt;Node6 -->
<g id="edge39" class="edge">
<title>Node17&#45;&gt;Node6</title>
<path fill="none" stroke="midnightblue" d="M647.14,-275.18C725.8,-265.57 850.53,-248.04 865,-232 897.38,-196.09 888.32,-133.39 881.09,-102.21"/>
<polygon fill="midnightblue" stroke="midnightblue" points="884.42,-101.1 878.58,-92.26 877.63,-102.81 884.42,-101.1"/>
</g>
<!-- Node17&#45;&gt;Node8 -->
<g id="edge43" class="edge">
<title>Node17&#45;&gt;Node8</title>
<path fill="none" stroke="midnightblue" d="M647.13,-275.29C668.12,-272.95 691.55,-270.34 713,-268 750.32,-263.92 1023.9,-259.93 1049,-232 1097.04,-178.54 1072.98,-83.97 1057.98,-40.09"/>
<polygon fill="midnightblue" stroke="midnightblue" points="1061.24,-38.8 1054.59,-30.56 1054.64,-41.15 1061.24,-38.8"/>
</g>
<!-- Node17&#45;&gt;Node11 -->
<g id="edge38" class="edge">
<title>Node17&#45;&gt;Node11</title>
<path fill="none" stroke="midnightblue" d="M568.13,-268.32C557.95,-258.41 544.3,-244.73 533,-232 492.35,-186.2 448.48,-128.57 427.53,-100.47"/>
<polygon fill="midnightblue" stroke="midnightblue" points="430.11,-98.08 421.34,-92.14 424.49,-102.25 430.11,-98.08"/>
</g>
<!-- Node17&#45;&gt;Node12 -->
<g id="edge41" class="edge">
<title>Node17&#45;&gt;Node12</title>
<path fill="none" stroke="midnightblue" d="M647.13,-280.6C742.81,-276.74 928.17,-265.28 1082,-232 1085.49,-231.24 1089.1,-230.3 1092.67,-229.26"/>
<polygon fill="midnightblue" stroke="midnightblue" points="1094.03,-232.5 1102.5,-226.14 1091.91,-225.83 1094.03,-232.5"/>
</g>
<!-- Node17&#45;&gt;Node13 -->
<g id="edge42" class="edge">
<title>Node17&#45;&gt;Node13</title>
<path fill="none" stroke="midnightblue" d="M538.52,-268.45C507.25,-258.49 464.48,-244.69 427,-232 424.56,-231.17 422.04,-230.31 419.51,-229.43"/>
<polygon fill="midnightblue" stroke="midnightblue" points="420.41,-226.04 409.81,-226.04 418.1,-232.65 420.41,-226.04"/>
</g>
<!-- Node17&#45;&gt;Node14 -->
<g id="edge44" class="edge">
<title>Node17&#45;&gt;Node14</title>
<path fill="none" stroke="midnightblue" d="M566.97,-268.41C550.57,-252.19 529.06,-224.75 541,-201 547.37,-188.33 558.59,-178.04 570.1,-170.14"/>
<polygon fill="midnightblue" stroke="midnightblue" points="572.32,-172.87 578.88,-164.56 568.57,-166.97 572.32,-172.87"/>
</g>
<!-- Node17&#45;&gt;Node16 -->
<g id="edge36" class="edge">
<title>Node17&#45;&gt;Node16</title>
<path fill="none" stroke="midnightblue" d="M576.37,-268.35C569.25,-250.82 560.73,-220.86 575,-201 604.28,-160.25 652.72,-205.75 682,-165 690.43,-153.27 692.62,-92.43 679,-67 670.23,-50.64 653.57,-38.21 638.81,-29.78"/>
<polygon fill="midnightblue" stroke="midnightblue" points="640.43,-26.67 629.96,-25.05 637.13,-32.85 640.43,-26.67"/>
</g>
<!-- Node18 -->
<g id="node18" class="node">
<title>Node18</title>
<g id="a_node18"><a xlink:title=" ">
<polygon fill="white" stroke="#bfbfbf" points="656.5,-207 656.5,-226 709.5,-226 709.5,-207 656.5,-207"/>
<text text-anchor="middle" x="683" y="-214" font-family="Helvetica,sans-Serif" font-size="10.00">cstddef</text>
</a>
</g>
</g>
<!-- Node17&#45;&gt;Node18 -->
<g id="edge34" class="edge">
<title>Node17&#45;&gt;Node18</title>
<path fill="none" stroke="midnightblue" d="M604.7,-268.4C621.47,-257.5 644.57,-242.48 661.33,-231.58"/>
<polygon fill="midnightblue" stroke="midnightblue" points="663.44,-234.39 669.91,-226.01 659.62,-228.52 663.44,-234.39"/>
</g>
<!-- Node19 -->
<g id="node19" class="node">
<title>Node19</title>
<g id="a_node19"><a xlink:title=" ">
<polygon fill="white" stroke="#bfbfbf" points="583.5,-207 583.5,-226 638.5,-226 638.5,-207 583.5,-207"/>
<text text-anchor="middle" x="611" y="-214" font-family="Helvetica,sans-Serif" font-size="10.00">fstream</text>
</a>
</g>
</g>
<!-- Node17&#45;&gt;Node19 -->
<g id="edge40" class="edge">
<title>Node17&#45;&gt;Node19</title>
<path fill="none" stroke="midnightblue" d="M589.08,-268.4C593.23,-258.76 598.76,-245.91 603.23,-235.54"/>
<polygon fill="midnightblue" stroke="midnightblue" points="606.51,-236.76 607.25,-226.19 600.08,-233.99 606.51,-236.76"/>
</g>
<!-- Node20 -->
<g id="node20" class="node">
<title>Node20</title>
<g id="a_node20"><a xlink:href="lfilesystem__CFile_8h.html" target="_top" xlink:title="This file defines the CFile class.">
<polygon fill="white" stroke="black" points="912,-201.5 912,-231.5 1040,-231.5 1040,-201.5 912,-201.5"/>
<text text-anchor="start" x="920" y="-219.5" font-family="Helvetica,sans-Serif" font-size="10.00">lfilesystem/lfilesystem</text>
<text text-anchor="middle" x="976" y="-208.5" font-family="Helvetica,sans-Serif" font-size="10.00">_CFile.h</text>
</a>
</g>
</g>
<!-- Node17&#45;&gt;Node20 -->
<g id="edge45" class="edge">
<title>Node17&#45;&gt;Node20</title>
<path fill="none" stroke="midnightblue" d="M647.03,-272.71C710.73,-262.86 811.23,-247.02 898,-232 899.26,-231.78 900.53,-231.56 901.81,-231.34"/>
<polygon fill="midnightblue" stroke="midnightblue" points="902.51,-234.77 911.75,-229.57 901.29,-227.87 902.51,-234.77"/>
</g>
<!-- Node20&#45;&gt;Node8 -->
<g id="edge47" class="edge">
<title>Node20&#45;&gt;Node8</title>
<path fill="none" stroke="midnightblue" d="M981.25,-201.19C993.67,-167.34 1024.94,-82.08 1040.27,-40.31"/>
<polygon fill="midnightblue" stroke="midnightblue" points="1043.64,-41.28 1043.8,-30.68 1037.07,-38.86 1043.64,-41.28"/>
</g>
<!-- Node20&#45;&gt;Node14 -->
<g id="edge48" class="edge">
<title>Node20&#45;&gt;Node14</title>
<path fill="none" stroke="midnightblue" d="M911.65,-204.1C847.91,-192.81 750.37,-175.54 683.34,-163.67"/>
<polygon fill="midnightblue" stroke="midnightblue" points="683.73,-160.18 673.27,-161.88 682.51,-167.07 683.73,-160.18"/>
</g>
<!-- Node21 -->
<g id="node21" class="node">
<title>Node21</title>
<g id="a_node21"><a xlink:title=" ">
<polygon fill="white" stroke="#bfbfbf" points="918,-140 918,-159 964,-159 964,-140 918,-140"/>
<text text-anchor="middle" x="941" y="-147" font-family="Helvetica,sans-Serif" font-size="10.00">cstdio</text>
</a>
</g>
</g>
<!-- Node20&#45;&gt;Node21 -->
<g id="edge46" class="edge">
<title>Node20&#45;&gt;Node21</title>
<path fill="none" stroke="midnightblue" d="M968.41,-201.4C963.16,-191.66 956.16,-178.65 950.54,-168.21"/>
<polygon fill="midnightblue" stroke="midnightblue" points="953.5,-166.34 945.68,-159.19 947.34,-169.66 953.5,-166.34"/>
</g>
<!-- Node22&#45;&gt;Node6 -->
<g id="edge51" class="edge">
<title>Node22&#45;&gt;Node6</title>
<path fill="none" stroke="midnightblue" d="M800.99,-201.37C816.52,-176.97 848.32,-127 865.09,-100.65"/>
<polygon fill="midnightblue" stroke="midnightblue" points="868.11,-102.41 870.53,-92.1 862.21,-98.65 868.11,-102.41"/>
</g>
<!-- Node22&#45;&gt;Node8 -->
<g id="edge52" class="edge">
<title>Node22&#45;&gt;Node8</title>
<path fill="none" stroke="midnightblue" d="M792.13,-201.26C793.2,-171.68 800.03,-103.32 839,-67 858.75,-48.6 922.7,-34.92 974.9,-26.48"/>
<polygon fill="midnightblue" stroke="midnightblue" points="975.49,-29.93 984.83,-24.91 974.4,-23.01 975.49,-29.93"/>
</g>
<!-- Node22&#45;&gt;Node11 -->
<g id="edge50" class="edge">
<title>Node22&#45;&gt;Node11</title>
<path fill="none" stroke="midnightblue" d="M727.91,-202.76C724.9,-202.17 721.92,-201.58 719,-201 637.68,-184.93 612.04,-198 536,-165 514.39,-155.62 512.45,-147.3 493,-134 474.41,-121.29 452.9,-107.43 437.18,-97.44"/>
<polygon fill="midnightblue" stroke="midnightblue" points="438.98,-94.44 428.66,-92.05 435.24,-100.36 438.98,-94.44"/>
</g>
<!-- Node22&#45;&gt;Node14 -->
<g id="edge53" class="edge">
<title>Node22&#45;&gt;Node14</title>
<path fill="none" stroke="midnightblue" d="M752.29,-201.4C724.71,-191.6 687.78,-178.48 658.31,-168.02"/>
<polygon fill="midnightblue" stroke="midnightblue" points="659.23,-164.63 648.63,-164.58 656.88,-171.22 659.23,-164.63"/>
</g>
</g>
</svg>
        <g id="navigator" transform="translate(0 0)" fill="#404254">
                <rect fill="#f2f5e9" fill-opacity="0.5" stroke="#606060" stroke-width=".5" x="0" y="0" width="60" height="60"/>
                <use id="zoomplus" xlink:href="#zoomPlus" x="17" y="9" onmousedown="handleZoom(evt,'in')"/>
                <use id="zoomminus" xlink:href="#zoomMin" x="42" y="9" onmousedown="handleZoom(evt,'out')"/>
                <use id="reset" xlink:href="#resetDef" x="30" y="36" onmousedown="handleReset()"/>
                <g id="arrowUp" xlink:href="#dirArrow" transform="translate(30 24)" onmousedown="handlePan(0,-1)">
                  <use xlink:href="#rim" fill="#404040">
                        <set attributeName="fill" to="#808080" begin="arrowUp.mouseover" end="arrowUp.mouseout"/>
                  </use>
                  <path fill="none" stroke="white" stroke-width="1.5" d="M0,-3.0v7 M-2.5,-0.5L0,-3.0L2.5,-0.5"/>
                </g>
                <g id="arrowRight" xlink:href="#dirArrow" transform="rotate(90) translate(36 -43)" onmousedown="handlePan(1,0)">
                  <use xlink:href="#rim" fill="#404040">
                        <set attributeName="fill" to="#808080" begin="arrowRight.mouseover" end="arrowRight.mouseout"/>
                  </use>
                  <path fill="none" stroke="white" stroke-width="1.5" d="M0,-3.0v7 M-2.5,-0.5L0,-3.0L2.5,-0.5"/>
                </g>
                <g id="arrowDown" xlink:href="#dirArrow" transform="rotate(180) translate(-30 -48)" onmousedown="handlePan(0,1)">
                  <use xlink:href="#rim" fill="#404040">
                        <set attributeName="fill" to="#808080" begin="arrowDown.mouseover" end="arrowDown.mouseout"/>
                  </use>
                  <path fill="none" stroke="white" stroke-width="1.5" d="M0,-3.0v7 M-2.5,-0.5L0,-3.0L2.5,-0.5"/>
                </g>
                <g id="arrowLeft" xlink:href="#dirArrow" transform="rotate(270) translate(-36 17)" onmousedown="handlePan(-1,0)">
                  <use xlink:href="#rim" fill="#404040">
                        <set attributeName="fill" to="#808080" begin="arrowLeft.mouseover" end="arrowLeft.mouseout"/>
                  </use>
                  <path fill="none" stroke="white" stroke-width="1.5" d="M0,-3.0v7 M-2.5,-0.5L0,-3.0L2.5,-0.5"/>
                </g>
        </g>
        <svg viewBox="0 0 15 15" width="100%" height="30px" preserveAspectRatio="xMaxYMin meet">
         <g id="arrow_out" transform="scale(0.3 0.3)">
          <a xlink:href="lfilesystem__Volume_8h__incl_org.svg" target="_base">
           <rect id="button" ry="5" rx="5" y="6" x="6" height="38" width="38"
                fill="#f2f5e9" fill-opacity="0.5" stroke="#606060" stroke-width="1.0"/>
           <path id="arrow"
             d="M 11.500037,31.436501 C 11.940474,20.09759 22.043105,11.32322 32.158766,21.979434 L 37.068811,17.246167 C 37.068811,17.246167 37.088388,32 37.088388,32 L 22.160133,31.978069 C 22.160133,31.978069 26.997745,27.140456 26.997745,27.140456 C 18.528582,18.264221 13.291696,25.230495 11.500037,31.436501 z"
             style="fill:#404040;"/>
          </a>
         </g>
        </svg>
</svg>
