<?xml version="1.0" encoding="UTF-8" standalone="no"?>
<!DOCTYPE svg PUBLIC "-//W3C//DTD SVG 1.1//EN"
 "http://www.w3.org/Graphics/SVG/1.1/DTD/svg11.dtd">
<!-- Generated by graphviz version 2.43.0 (0)
 -->
<!-- Title: lfilesystem_SpecialDirectories.h Pages: 1 -->
<svg width="1088pt" height="430pt"
 viewBox="0.00 0.00 1087.50 430.00" xmlns="http://www.w3.org/2000/svg" xmlns:xlink="http://www.w3.org/1999/xlink">
<g id="graph0" class="graph" transform="scale(1 1) rotate(0) translate(4 426)">
<title>lfilesystem_SpecialDirectories.h</title>
<polygon fill="white" stroke="transparent" points="-4,4 -4,-426 1083.5,-426 1083.5,4 -4,4"/>
<!-- Node1 -->
<g id="node1" class="node">
<title>Node1</title>
<g id="a_node1"><a xlink:title="This file contains utility functions for finding some common directories.">
<polygon fill="#bfbfbf" stroke="black" points="0,-402.5 0,-421.5 173,-421.5 173,-402.5 0,-402.5"/>
<text text-anchor="middle" x="86.5" y="-409.5" font-family="Helvetica,sans-Serif" font-size="10.00">lfilesystem_SpecialDirectories.h</text>
</a>
</g>
</g>
<!-- Node2 -->
<g id="node2" class="node">
<title>Node2</title>
<g id="a_node2"><a xlink:title=" ">
<polygon fill="white" stroke="#bfbfbf" points="115,-207 115,-226 162,-226 162,-207 115,-207"/>
<text text-anchor="middle" x="138.5" y="-214" font-family="Helvetica,sans-Serif" font-size="10.00">vector</text>
</a>
</g>
</g>
<!-- Node1&#45;&gt;Node2 -->
<g id="edge1" class="edge">
<title>Node1&#45;&gt;Node2</title>
<path fill="none" stroke="midnightblue" d="M88.8,-402.44C96.65,-373.22 122.49,-277.06 133.48,-236.17"/>
<polygon fill="midnightblue" stroke="midnightblue" points="136.89,-236.97 136.11,-226.41 130.13,-235.16 136.89,-236.97"/>
</g>
<!-- Node3 -->
<g id="node3" class="node">
<title>Node3</title>
<g id="a_node3"><a xlink:title=" ">
<polygon fill="white" stroke="#bfbfbf" points="297.5,-0.5 297.5,-30.5 425.5,-30.5 425.5,-0.5 297.5,-0.5"/>
<text text-anchor="start" x="305.5" y="-18.5" font-family="Helvetica,sans-Serif" font-size="10.00">lfilesystem/lfilesystem</text>
<text text-anchor="middle" x="361.5" y="-7.5" font-family="Helvetica,sans-Serif" font-size="10.00">_Export.h</text>
</a>
</g>
</g>
<!-- Node1&#45;&gt;Node3 -->
<g id="edge2" class="edge">
<title>Node1&#45;&gt;Node3</title>
<path fill="none" stroke="midnightblue" d="M76.56,-402.27C55.96,-383.16 10.5,-335.23 10.5,-284.5 10.5,-284.5 10.5,-284.5 10.5,-148.5 10.5,-105.77 25.98,-90.75 61.5,-67 97.54,-42.91 210.68,-28.95 287.25,-22.04"/>
<polygon fill="midnightblue" stroke="midnightblue" points="287.67,-25.51 297.33,-21.15 287.06,-18.54 287.67,-25.51"/>
</g>
<!-- Node4 -->
<g id="node4" class="node">
<title>Node4</title>
<g id="a_node4"><a xlink:href="lfilesystem__Directory_8h.html" target="_top" xlink:title="This file defines the Directory class.">
<polygon fill="white" stroke="black" points="611.5,-335.5 611.5,-365.5 739.5,-365.5 739.5,-335.5 611.5,-335.5"/>
<text text-anchor="start" x="619.5" y="-353.5" font-family="Helvetica,sans-Serif" font-size="10.00">lfilesystem/lfilesystem</text>
<text text-anchor="middle" x="675.5" y="-342.5" font-family="Helvetica,sans-Serif" font-size="10.00">_Directory.h</text>
</a>
</g>
</g>
<!-- Node1&#45;&gt;Node4 -->
<g id="edge3" class="edge">
<title>Node1&#45;&gt;Node4</title>
<path fill="none" stroke="midnightblue" d="M170.89,-402.48C286.25,-390.82 491.38,-370.1 601.21,-359"/>
<polygon fill="midnightblue" stroke="midnightblue" points="601.62,-362.48 611.21,-357.99 600.91,-355.52 601.62,-362.48"/>
</g>
<!-- Node4&#45;&gt;Node2 -->
<g id="edge7" class="edge">
<title>Node4&#45;&gt;Node2</title>
<path fill="none" stroke="midnightblue" d="M611.35,-339.25C514.32,-322.71 325.24,-286.38 171.5,-232 169.84,-231.41 168.14,-230.78 166.44,-230.11"/>
<polygon fill="midnightblue" stroke="midnightblue" points="167.38,-226.72 156.81,-226.12 164.7,-233.18 167.38,-226.72"/>
</g>
<!-- Node4&#45;&gt;Node3 -->
<g id="edge10" class="edge">
<title>Node4&#45;&gt;Node3</title>
<path fill="none" stroke="midnightblue" d="M611.35,-349.45C451.55,-347.61 48.5,-331.66 48.5,-217.5 48.5,-217.5 48.5,-217.5 48.5,-148.5 48.5,-45.33 194.67,-21.52 287.23,-16.79"/>
<polygon fill="midnightblue" stroke="midnightblue" points="287.57,-20.28 297.4,-16.34 287.26,-13.29 287.57,-20.28"/>
</g>
<!-- Node5 -->
<g id="node5" class="node">
<title>Node5</title>
<g id="a_node5"><a xlink:title=" ">
<polygon fill="white" stroke="#bfbfbf" points="247,-73 247,-92 312,-92 312,-73 247,-73"/>
<text text-anchor="middle" x="279.5" y="-80" font-family="Helvetica,sans-Serif" font-size="10.00">functional</text>
</a>
</g>
</g>
<!-- Node4&#45;&gt;Node5 -->
<g id="edge4" class="edge">
<title>Node4&#45;&gt;Node5</title>
<path fill="none" stroke="midnightblue" d="M611.37,-346.84C474.82,-339.61 163.09,-314.25 105.5,-232 62.04,-169.93 180.01,-117.89 242.93,-95.41"/>
<polygon fill="midnightblue" stroke="midnightblue" points="244.23,-98.67 252.52,-92.06 241.92,-92.06 244.23,-98.67"/>
</g>
<!-- Node6 -->
<g id="node6" class="node">
<title>Node6</title>
<g id="a_node6"><a xlink:title=" ">
<polygon fill="white" stroke="#bfbfbf" points="837.5,-73 837.5,-92 887.5,-92 887.5,-73 837.5,-73"/>
<text text-anchor="middle" x="862.5" y="-80" font-family="Helvetica,sans-Serif" font-size="10.00">cstdint</text>
</a>
</g>
</g>
<!-- Node4&#45;&gt;Node6 -->
<g id="edge5" class="edge">
<title>Node4&#45;&gt;Node6</title>
<path fill="none" stroke="midnightblue" d="M739.53,-345.27C815.25,-339.13 935.57,-325.48 971.5,-299 1008.61,-271.65 1025.2,-242.68 1005.5,-201 981.72,-150.68 924.65,-114.66 890.23,-96.63"/>
<polygon fill="midnightblue" stroke="midnightblue" points="891.67,-93.43 881.17,-92.02 888.5,-99.67 891.67,-93.43"/>
</g>
<!-- Node7 -->
<g id="node7" class="node">
<title>Node7</title>
<g id="a_node7"><a xlink:title=" ">
<polygon fill="white" stroke="#bfbfbf" points="874.5,-6 874.5,-25 918.5,-25 918.5,-6 874.5,-6"/>
<text text-anchor="middle" x="896.5" y="-13" font-family="Helvetica,sans-Serif" font-size="10.00">string</text>
</a>
</g>
</g>
<!-- Node4&#45;&gt;Node7 -->
<g id="edge6" class="edge">
<title>Node4&#45;&gt;Node7</title>
<path fill="none" stroke="midnightblue" d="M739.76,-344.46C821.43,-337.21 957.13,-322.13 1001.5,-299 1045.96,-275.82 1079.5,-267.64 1079.5,-217.5 1079.5,-217.5 1079.5,-217.5 1079.5,-148.5 1079.5,-74.87 980.84,-38.2 928.4,-23.91"/>
<polygon fill="midnightblue" stroke="midnightblue" points="929.13,-20.48 918.57,-21.35 927.37,-27.26 929.13,-20.48"/>
</g>
<!-- Node8 -->
<g id="node8" class="node">
<title>Node8</title>
<g id="a_node8"><a xlink:title=" ">
<polygon fill="white" stroke="#bfbfbf" points="845.5,-207 845.5,-226 903.5,-226 903.5,-207 845.5,-207"/>
<text text-anchor="middle" x="874.5" y="-214" font-family="Helvetica,sans-Serif" font-size="10.00">memory</text>
</a>
</g>
</g>
<!-- Node4&#45;&gt;Node8 -->
<g id="edge8" class="edge">
<title>Node4&#45;&gt;Node8</title>
<path fill="none" stroke="midnightblue" d="M696.8,-335.37C735.04,-310.01 814.92,-257.02 853.18,-231.64"/>
<polygon fill="midnightblue" stroke="midnightblue" points="855.14,-234.54 861.54,-226.1 851.27,-228.71 855.14,-234.54"/>
</g>
<!-- Node9 -->
<g id="node9" class="node">
<title>Node9</title>
<g id="a_node9"><a xlink:title=" ">
<polygon fill="white" stroke="#bfbfbf" points="922,-207 922,-226 975,-226 975,-207 922,-207"/>
<text text-anchor="middle" x="948.5" y="-214" font-family="Helvetica,sans-Serif" font-size="10.00">iterator</text>
</a>
</g>
</g>
<!-- Node4&#45;&gt;Node9 -->
<g id="edge9" class="edge">
<title>Node4&#45;&gt;Node9</title>
<path fill="none" stroke="midnightblue" d="M708.65,-335.4C731.52,-325.54 762.54,-311.87 789.5,-299 837.45,-276.11 892.41,-247.37 923.54,-230.85"/>
<polygon fill="midnightblue" stroke="midnightblue" points="925.22,-233.92 932.4,-226.14 921.93,-227.74 925.22,-233.92"/>
</g>
<!-- Node10 -->
<g id="node10" class="node">
<title>Node10</title>
<g id="a_node10"><a xlink:href="lfilesystem__FilesystemEntry_8h.html" target="_top" xlink:title="This file defines the FilesystemEntry class.">
<polygon fill="white" stroke="black" points="615.5,-134.5 615.5,-164.5 743.5,-164.5 743.5,-134.5 615.5,-134.5"/>
<text text-anchor="start" x="623.5" y="-152.5" font-family="Helvetica,sans-Serif" font-size="10.00">lfilesystem/lfilesystem</text>
<text text-anchor="middle" x="679.5" y="-141.5" font-family="Helvetica,sans-Serif" font-size="10.00">_FilesystemEntry.h</text>
</a>
</g>
</g>
<!-- Node4&#45;&gt;Node10 -->
<g id="edge11" class="edge">
<title>Node4&#45;&gt;Node10</title>
<path fill="none" stroke="midnightblue" d="M739.6,-342.31C849.82,-327.48 1056.72,-287.38 983.5,-201 954.64,-166.95 834.25,-155.83 753.9,-152.22"/>
<polygon fill="midnightblue" stroke="midnightblue" points="753.96,-148.72 743.83,-151.8 753.67,-155.71 753.96,-148.72"/>
</g>
<!-- Node16 -->
<g id="node16" class="node">
<title>Node16</title>
<g id="a_node16"><a xlink:href="lfilesystem__File_8h.html" target="_top" xlink:title="This file defines the File and TempFile classes.">
<polygon fill="white" stroke="black" points="611.5,-268.5 611.5,-298.5 739.5,-298.5 739.5,-268.5 611.5,-268.5"/>
<text text-anchor="start" x="619.5" y="-286.5" font-family="Helvetica,sans-Serif" font-size="10.00">lfilesystem/lfilesystem</text>
<text text-anchor="middle" x="675.5" y="-275.5" font-family="Helvetica,sans-Serif" font-size="10.00">_File.h</text>
</a>
</g>
</g>
<!-- Node4&#45;&gt;Node16 -->
<g id="edge25" class="edge">
<title>Node4&#45;&gt;Node16</title>
<path fill="none" stroke="midnightblue" d="M675.5,-335.4C675.5,-327.64 675.5,-317.81 675.5,-308.86"/>
<polygon fill="midnightblue" stroke="midnightblue" points="679,-308.58 675.5,-298.58 672,-308.58 679,-308.58"/>
</g>
<!-- Node21 -->
<g id="node21" class="node">
<title>Node21</title>
<g id="a_node21"><a xlink:href="lfilesystem__SymLink_8h.html" target="_top" xlink:title="This file defines the files::SymLink class.">
<polygon fill="white" stroke="black" points="180.5,-201.5 180.5,-231.5 308.5,-231.5 308.5,-201.5 180.5,-201.5"/>
<text text-anchor="start" x="188.5" y="-219.5" font-family="Helvetica,sans-Serif" font-size="10.00">lfilesystem/lfilesystem</text>
<text text-anchor="middle" x="244.5" y="-208.5" font-family="Helvetica,sans-Serif" font-size="10.00">_SymLink.h</text>
</a>
</g>
</g>
<!-- Node4&#45;&gt;Node21 -->
<g id="edge41" class="edge">
<title>Node4&#45;&gt;Node21</title>
<path fill="none" stroke="midnightblue" d="M629.78,-335.5C550.1,-311.09 386.06,-260.85 299.99,-234.49"/>
<polygon fill="midnightblue" stroke="midnightblue" points="300.98,-231.14 290.4,-231.56 298.93,-237.83 300.98,-231.14"/>
</g>
<!-- Node10&#45;&gt;Node3 -->
<g id="edge18" class="edge">
<title>Node10&#45;&gt;Node3</title>
<path fill="none" stroke="midnightblue" d="M648.24,-134.39C611.25,-117.8 547.7,-89.66 492.5,-67 464.93,-55.68 433.81,-43.66 408.82,-34.18"/>
<polygon fill="midnightblue" stroke="midnightblue" points="409.81,-30.81 399.22,-30.55 407.34,-37.36 409.81,-30.81"/>
</g>
<!-- Node10&#45;&gt;Node5 -->
<g id="edge15" class="edge">
<title>Node10&#45;&gt;Node5</title>
<path fill="none" stroke="midnightblue" d="M615.23,-138.06C533,-124.69 392.79,-101.91 322.43,-90.48"/>
<polygon fill="midnightblue" stroke="midnightblue" points="322.6,-86.96 312.17,-88.81 321.48,-93.87 322.6,-86.96"/>
</g>
<!-- Node10&#45;&gt;Node6 -->
<g id="edge12" class="edge">
<title>Node10&#45;&gt;Node6</title>
<path fill="none" stroke="midnightblue" d="M719.21,-134.4C752.03,-122.74 798.1,-106.37 829.06,-95.38"/>
<polygon fill="midnightblue" stroke="midnightblue" points="830.3,-98.65 838.55,-92.01 827.95,-92.06 830.3,-98.65"/>
</g>
<!-- Node10&#45;&gt;Node7 -->
<g id="edge14" class="edge">
<title>Node10&#45;&gt;Node7</title>
<path fill="none" stroke="midnightblue" d="M702.72,-134.37C744.6,-108.9 832.27,-55.57 873.78,-30.32"/>
<polygon fill="midnightblue" stroke="midnightblue" points="875.64,-33.28 882.37,-25.1 872,-27.3 875.64,-33.28"/>
</g>
<!-- Node11 -->
<g id="node11" class="node">
<title>Node11</title>
<g id="a_node11"><a xlink:title=" ">
<polygon fill="white" stroke="#bfbfbf" points="632.5,-6 632.5,-25 700.5,-25 700.5,-6 632.5,-6"/>
<text text-anchor="middle" x="666.5" y="-13" font-family="Helvetica,sans-Serif" font-size="10.00">filesystem</text>
</a>
</g>
</g>
<!-- Node10&#45;&gt;Node11 -->
<g id="edge13" class="edge">
<title>Node10&#45;&gt;Node11</title>
<path fill="none" stroke="midnightblue" d="M646.09,-134.34C631.11,-126.09 614.94,-114.11 606.5,-98 600.1,-85.8 600.69,-79.49 606.5,-67 613.69,-51.55 628.18,-39.14 641.13,-30.49"/>
<polygon fill="midnightblue" stroke="midnightblue" points="643.11,-33.38 649.73,-25.11 639.39,-27.44 643.11,-33.38"/>
</g>
<!-- Node12 -->
<g id="node12" class="node">
<title>Node12</title>
<g id="a_node12"><a xlink:title=" ">
<polygon fill="white" stroke="#bfbfbf" points="427.5,-73 427.5,-92 483.5,-92 483.5,-73 427.5,-73"/>
<text text-anchor="middle" x="455.5" y="-80" font-family="Helvetica,sans-Serif" font-size="10.00">optional</text>
</a>
</g>
</g>
<!-- Node10&#45;&gt;Node12 -->
<g id="edge16" class="edge">
<title>Node10&#45;&gt;Node12</title>
<path fill="none" stroke="midnightblue" d="M625.49,-134.45C589.15,-124.77 540.24,-111.29 497.5,-98 494.74,-97.14 491.88,-96.22 489.02,-95.28"/>
<polygon fill="midnightblue" stroke="midnightblue" points="490,-91.91 479.4,-92.04 487.76,-98.55 490,-91.91"/>
</g>
<!-- Node13 -->
<g id="node13" class="node">
<title>Node13</title>
<g id="a_node13"><a xlink:title=" ">
<polygon fill="white" stroke="#bfbfbf" points="533,-6 533,-25 590,-25 590,-6 533,-6"/>
<text text-anchor="middle" x="561.5" y="-13" font-family="Helvetica,sans-Serif" font-size="10.00">ostream</text>
</a>
</g>
</g>
<!-- Node10&#45;&gt;Node13 -->
<g id="edge17" class="edge">
<title>Node10&#45;&gt;Node13</title>
<path fill="none" stroke="midnightblue" d="M647.91,-134.39C631.47,-125.78 612.05,-113.45 598.5,-98 582.21,-79.42 571.88,-52.48 566.4,-34.73"/>
<polygon fill="midnightblue" stroke="midnightblue" points="569.73,-33.66 563.59,-25.03 563,-35.61 569.73,-33.66"/>
</g>
<!-- Node14 -->
<g id="node14" class="node">
<title>Node14</title>
<g id="a_node14"><a xlink:href="lfilesystem__Permissions_8h.html" target="_top" xlink:title="This file defines the Permissions class.">
<polygon fill="white" stroke="black" points="615.5,-67.5 615.5,-97.5 743.5,-97.5 743.5,-67.5 615.5,-67.5"/>
<text text-anchor="start" x="623.5" y="-85.5" font-family="Helvetica,sans-Serif" font-size="10.00">lfilesystem/lfilesystem</text>
<text text-anchor="middle" x="679.5" y="-74.5" font-family="Helvetica,sans-Serif" font-size="10.00">_Permissions.h</text>
</a>
</g>
</g>
<!-- Node10&#45;&gt;Node14 -->
<g id="edge19" class="edge">
<title>Node10&#45;&gt;Node14</title>
<path fill="none" stroke="midnightblue" d="M679.5,-134.4C679.5,-126.64 679.5,-116.81 679.5,-107.86"/>
<polygon fill="midnightblue" stroke="midnightblue" points="683,-107.58 679.5,-97.58 676,-107.58 683,-107.58"/>
</g>
<!-- Node14&#45;&gt;Node3 -->
<g id="edge24" class="edge">
<title>Node14&#45;&gt;Node3</title>
<path fill="none" stroke="midnightblue" d="M615.15,-68.35C563.21,-57.73 490.08,-42.78 435.69,-31.66"/>
<polygon fill="midnightblue" stroke="midnightblue" points="436.25,-28.21 425.76,-29.63 434.85,-35.07 436.25,-28.21"/>
</g>
<!-- Node14&#45;&gt;Node7 -->
<g id="edge21" class="edge">
<title>Node14&#45;&gt;Node7</title>
<path fill="none" stroke="midnightblue" d="M726.32,-67.48C768.11,-54.96 828.2,-36.96 864.66,-26.04"/>
<polygon fill="midnightblue" stroke="midnightblue" points="865.71,-29.38 874.29,-23.15 863.7,-22.67 865.71,-29.38"/>
</g>
<!-- Node14&#45;&gt;Node11 -->
<g id="edge20" class="edge">
<title>Node14&#45;&gt;Node11</title>
<path fill="none" stroke="midnightblue" d="M676.68,-67.4C674.79,-57.96 672.29,-45.45 670.24,-35.19"/>
<polygon fill="midnightblue" stroke="midnightblue" points="673.63,-34.31 668.24,-25.19 666.77,-35.69 673.63,-34.31"/>
</g>
<!-- Node14&#45;&gt;Node13 -->
<g id="edge23" class="edge">
<title>Node14&#45;&gt;Node13</title>
<path fill="none" stroke="midnightblue" d="M653.9,-67.4C633.65,-56.24 605.58,-40.78 585.71,-29.83"/>
<polygon fill="midnightblue" stroke="midnightblue" points="587.39,-26.77 576.94,-25.01 584.01,-32.9 587.39,-26.77"/>
</g>
<!-- Node15 -->
<g id="node15" class="node">
<title>Node15</title>
<g id="a_node15"><a xlink:title=" ">
<polygon fill="white" stroke="#bfbfbf" points="752,-6 752,-25 825,-25 825,-6 752,-6"/>
<text text-anchor="middle" x="788.5" y="-13" font-family="Helvetica,sans-Serif" font-size="10.00">string_view</text>
</a>
</g>
</g>
<!-- Node14&#45;&gt;Node15 -->
<g id="edge22" class="edge">
<title>Node14&#45;&gt;Node15</title>
<path fill="none" stroke="midnightblue" d="M703.15,-67.4C721.68,-56.34 747.31,-41.06 765.64,-30.13"/>
<polygon fill="midnightblue" stroke="midnightblue" points="767.44,-33.13 774.23,-25.01 763.85,-27.12 767.44,-33.13"/>
</g>
<!-- Node16&#45;&gt;Node2 -->
<g id="edge29" class="edge">
<title>Node16&#45;&gt;Node2</title>
<path fill="none" stroke="midnightblue" d="M611.11,-282.46C514.17,-280.97 325.66,-272.5 171.5,-232 169.2,-231.4 166.86,-230.65 164.54,-229.82"/>
<polygon fill="midnightblue" stroke="midnightblue" points="165.84,-226.58 155.26,-226.08 163.22,-233.07 165.84,-226.58"/>
</g>
<!-- Node16&#45;&gt;Node3 -->
<g id="edge35" class="edge">
<title>Node16&#45;&gt;Node3</title>
<path fill="none" stroke="midnightblue" d="M611.38,-279.5C537.64,-274.65 422.95,-262.34 393.5,-232 343,-179.97 350.19,-85.03 356.98,-40.61"/>
<polygon fill="midnightblue" stroke="midnightblue" points="360.44,-41.15 358.62,-30.71 353.54,-40 360.44,-41.15"/>
</g>
<!-- Node16&#45;&gt;Node5 -->
<g id="edge30" class="edge">
<title>Node16&#45;&gt;Node5</title>
<path fill="none" stroke="midnightblue" d="M611.36,-278.84C531.23,-273.15 399.85,-259.81 360.5,-232 315.23,-200.01 292.68,-134.47 283.96,-102.24"/>
<polygon fill="midnightblue" stroke="midnightblue" points="287.3,-101.16 281.44,-92.34 280.52,-102.89 287.3,-101.16"/>
</g>
<!-- Node16&#45;&gt;Node7 -->
<g id="edge27" class="edge">
<title>Node16&#45;&gt;Node7</title>
<path fill="none" stroke="midnightblue" d="M706.56,-268.44C758.17,-243.06 859.54,-184.12 896.5,-98 905.12,-77.93 903.34,-52.43 900.57,-35.34"/>
<polygon fill="midnightblue" stroke="midnightblue" points="903.92,-34.2 898.61,-25.03 897.04,-35.51 903.92,-34.2"/>
</g>
<!-- Node16&#45;&gt;Node8 -->
<g id="edge33" class="edge">
<title>Node16&#45;&gt;Node8</title>
<path fill="none" stroke="midnightblue" d="M719.25,-268.49C750.55,-258.44 793.66,-244.5 831.5,-232 834.08,-231.15 836.74,-230.26 839.41,-229.37"/>
<polygon fill="midnightblue" stroke="midnightblue" points="840.68,-232.64 849.05,-226.14 838.46,-226 840.68,-232.64"/>
</g>
<!-- Node16&#45;&gt;Node9 -->
<g id="edge34" class="edge">
<title>Node16&#45;&gt;Node9</title>
<path fill="none" stroke="midnightblue" d="M739.63,-271.94C787.76,-263.27 854.96,-249.57 912.5,-232 914.78,-231.3 917.12,-230.52 919.46,-229.69"/>
<polygon fill="midnightblue" stroke="midnightblue" points="920.81,-232.92 928.91,-226.1 918.32,-226.38 920.81,-232.92"/>
</g>
<!-- Node16&#45;&gt;Node10 -->
<g id="edge36" class="edge">
<title>Node16&#45;&gt;Node10</title>
<path fill="none" stroke="midnightblue" d="M691.91,-268.4C701.38,-259.14 712.38,-246.16 717.5,-232 722.18,-219.04 721.87,-214.07 717.5,-201 714.06,-190.7 707.59,-180.81 700.96,-172.56"/>
<polygon fill="midnightblue" stroke="midnightblue" points="703.55,-170.2 694.38,-164.9 698.24,-174.76 703.55,-170.2"/>
</g>
<!-- Node16&#45;&gt;Node12 -->
<g id="edge31" class="edge">
<title>Node16&#45;&gt;Node12</title>
<path fill="none" stroke="midnightblue" d="M681.88,-268.3C688.6,-250.98 696.55,-221.51 683.5,-201 663.22,-169.13 640.25,-181.98 606.5,-165 561.12,-142.17 509.19,-113.59 479.57,-97.05"/>
<polygon fill="midnightblue" stroke="midnightblue" points="481.22,-93.96 470.78,-92.13 477.8,-100.06 481.22,-93.96"/>
</g>
<!-- Node16&#45;&gt;Node15 -->
<g id="edge28" class="edge">
<title>Node16&#45;&gt;Node15</title>
<path fill="none" stroke="midnightblue" d="M697.06,-268.49C709.39,-259.45 724.2,-246.66 733.5,-232 774.27,-167.74 784.86,-74.7 787.58,-35.28"/>
<polygon fill="midnightblue" stroke="midnightblue" points="791.09,-35.24 788.18,-25.05 784.1,-34.83 791.09,-35.24"/>
</g>
<!-- Node17 -->
<g id="node17" class="node">
<title>Node17</title>
<g id="a_node17"><a xlink:title=" ">
<polygon fill="white" stroke="#bfbfbf" points="549,-207 549,-226 602,-226 602,-207 549,-207"/>
<text text-anchor="middle" x="575.5" y="-214" font-family="Helvetica,sans-Serif" font-size="10.00">cstddef</text>
</a>
</g>
</g>
<!-- Node16&#45;&gt;Node17 -->
<g id="edge26" class="edge">
<title>Node16&#45;&gt;Node17</title>
<path fill="none" stroke="midnightblue" d="M653.8,-268.4C637.03,-257.5 613.93,-242.48 597.17,-231.58"/>
<polygon fill="midnightblue" stroke="midnightblue" points="598.88,-228.52 588.59,-226.01 595.06,-234.39 598.88,-228.52"/>
</g>
<!-- Node18 -->
<g id="node18" class="node">
<title>Node18</title>
<g id="a_node18"><a xlink:title=" ">
<polygon fill="white" stroke="#bfbfbf" points="620,-207 620,-226 675,-226 675,-207 620,-207"/>
<text text-anchor="middle" x="647.5" y="-214" font-family="Helvetica,sans-Serif" font-size="10.00">fstream</text>
</a>
</g>
</g>
<!-- Node16&#45;&gt;Node18 -->
<g id="edge32" class="edge">
<title>Node16&#45;&gt;Node18</title>
<path fill="none" stroke="midnightblue" d="M669.42,-268.4C665.27,-258.76 659.74,-245.91 655.27,-235.54"/>
<polygon fill="midnightblue" stroke="midnightblue" points="658.42,-233.99 651.25,-226.19 651.99,-236.76 658.42,-233.99"/>
</g>
<!-- Node19 -->
<g id="node19" class="node">
<title>Node19</title>
<g id="a_node19"><a xlink:href="lfilesystem__CFile_8h.html" target="_top" xlink:title="This file defines the CFile class.">
<polygon fill="white" stroke="black" points="402.5,-201.5 402.5,-231.5 530.5,-231.5 530.5,-201.5 402.5,-201.5"/>
<text text-anchor="start" x="410.5" y="-219.5" font-family="Helvetica,sans-Serif" font-size="10.00">lfilesystem/lfilesystem</text>
<text text-anchor="middle" x="466.5" y="-208.5" font-family="Helvetica,sans-Serif" font-size="10.00">_CFile.h</text>
</a>
</g>
</g>
<!-- Node16&#45;&gt;Node19 -->
<g id="edge37" class="edge">
<title>Node16&#45;&gt;Node19</title>
<path fill="none" stroke="midnightblue" d="M630.41,-268.48C598.52,-258.56 555.57,-245.2 521.64,-234.65"/>
<polygon fill="midnightblue" stroke="midnightblue" points="522.46,-231.24 511.87,-231.61 520.38,-237.92 522.46,-231.24"/>
</g>
<!-- Node19&#45;&gt;Node3 -->
<g id="edge39" class="edge">
<title>Node19&#45;&gt;Node3</title>
<path fill="none" stroke="midnightblue" d="M458.95,-201.19C441.01,-167.2 395.72,-81.35 373.78,-39.78"/>
<polygon fill="midnightblue" stroke="midnightblue" points="376.75,-37.89 368.98,-30.68 370.55,-41.16 376.75,-37.89"/>
</g>
<!-- Node19&#45;&gt;Node10 -->
<g id="edge40" class="edge">
<title>Node19&#45;&gt;Node10</title>
<path fill="none" stroke="midnightblue" d="M512.46,-201.48C544.96,-191.56 588.73,-178.2 623.31,-167.65"/>
<polygon fill="midnightblue" stroke="midnightblue" points="624.72,-170.88 633.26,-164.61 622.67,-164.18 624.72,-170.88"/>
</g>
<!-- Node20 -->
<g id="node20" class="node">
<title>Node20</title>
<g id="a_node20"><a xlink:title=" ">
<polygon fill="white" stroke="#bfbfbf" points="465.5,-140 465.5,-159 511.5,-159 511.5,-140 465.5,-140"/>
<text text-anchor="middle" x="488.5" y="-147" font-family="Helvetica,sans-Serif" font-size="10.00">cstdio</text>
</a>
</g>
</g>
<!-- Node19&#45;&gt;Node20 -->
<g id="edge38" class="edge">
<title>Node19&#45;&gt;Node20</title>
<path fill="none" stroke="midnightblue" d="M471.27,-201.4C474.5,-191.86 478.79,-179.18 482.29,-168.86"/>
<polygon fill="midnightblue" stroke="midnightblue" points="485.67,-169.79 485.56,-159.19 479.04,-167.54 485.67,-169.79"/>
</g>
<!-- Node21&#45;&gt;Node3 -->
<g id="edge44" class="edge">
<title>Node21&#45;&gt;Node3</title>
<path fill="none" stroke="midnightblue" d="M238.71,-201.34C228.18,-173.07 209.41,-108.76 237.5,-67 249.2,-49.59 268.06,-38.19 287.58,-30.71"/>
<polygon fill="midnightblue" stroke="midnightblue" points="288.9,-33.95 297.18,-27.34 286.59,-27.35 288.9,-33.95"/>
</g>
<!-- Node21&#45;&gt;Node5 -->
<g id="edge42" class="edge">
<title>Node21&#45;&gt;Node5</title>
<path fill="none" stroke="midnightblue" d="M248.25,-201.37C254.6,-177.4 267.5,-128.75 274.58,-102.06"/>
<polygon fill="midnightblue" stroke="midnightblue" points="278.04,-102.66 277.22,-92.1 271.27,-100.87 278.04,-102.66"/>
</g>
<!-- Node21&#45;&gt;Node10 -->
<g id="edge45" class="edge">
<title>Node21&#45;&gt;Node10</title>
<path fill="none" stroke="midnightblue" d="M308.69,-205.91C387.83,-194.08 522.08,-174.02 605.49,-161.56"/>
<polygon fill="midnightblue" stroke="midnightblue" points="606.03,-165.02 615.41,-160.08 605,-158.09 606.03,-165.02"/>
</g>
<!-- Node21&#45;&gt;Node12 -->
<g id="edge43" class="edge">
<title>Node21&#45;&gt;Node12</title>
<path fill="none" stroke="midnightblue" d="M267.08,-201.37C307.72,-175.95 392.69,-122.79 433.15,-97.48"/>
<polygon fill="midnightblue" stroke="midnightblue" points="435.14,-100.37 441.76,-92.1 431.42,-94.43 435.14,-100.37"/>
</g>
</g>
</svg>
