<?xml version="1.0" encoding="UTF-8" standalone="no"?>
<!DOCTYPE svg PUBLIC "-//W3C//DTD SVG 1.1//EN"
 "http://www.w3.org/Graphics/SVG/1.1/DTD/svg11.dtd">
<!-- Generated by graphviz version 2.43.0 (0)
 -->
<!-- Title: lfilesystem_File.h Pages: 1 -->
<svg width="487pt" height="308pt"
 viewBox="0.00 0.00 486.50 308.00" xmlns="http://www.w3.org/2000/svg" xmlns:xlink="http://www.w3.org/1999/xlink">
<g id="graph0" class="graph" transform="scale(1 1) rotate(0) translate(4 304)">
<title>lfilesystem_File.h</title>
<polygon fill="white" stroke="transparent" points="-4,4 -4,-304 482.5,-304 482.5,4 -4,4"/>
<!-- Node1 -->
<g id="node1" class="node">
<title>Node1</title>
<g id="a_node1"><a xlink:title="This file defines the File and TempFile classes.">
<polygon fill="#bfbfbf" stroke="black" points="131,-280.5 131,-299.5 233,-299.5 233,-280.5 131,-280.5"/>
<text text-anchor="middle" x="182" y="-287.5" font-family="Helvetica,sans-Serif" font-size="10.00">lfilesystem_File.h</text>
</a>
</g>
</g>
<!-- Node2 -->
<g id="node2" class="node">
<title>Node2</title>
<g id="a_node2"><a xlink:href="lfilesystem_8h.html" target="_top" xlink:title="The main header for the limes_files library.">
<polygon fill="white" stroke="black" points="96,-56.5 96,-75.5 176,-75.5 176,-56.5 96,-56.5"/>
<text text-anchor="middle" x="136" y="-63.5" font-family="Helvetica,sans-Serif" font-size="10.00">lfilesystem.h</text>
</a>
</g>
</g>
<!-- Node1&#45;&gt;Node2 -->
<g id="edge1" class="edge">
<title>Node1&#45;&gt;Node2</title>
<path fill="none" stroke="midnightblue" d="M147.11,-276.21C132.73,-269.05 117.48,-258.57 109,-244 79.49,-193.29 91.38,-168.26 108,-112 112.12,-98.06 121.82,-84.18 128.64,-75.61"/>
<polygon fill="midnightblue" stroke="midnightblue" points="145.81,-279.46 156.36,-280.45 148.72,-273.1 145.81,-279.46"/>
</g>
<!-- Node5 -->
<g id="node5" class="node">
<title>Node5</title>
<g id="a_node5"><a xlink:href="lfilesystem__Directory_8h.html" target="_top" xlink:title="This file defines the Directory class.">
<polygon fill="white" stroke="black" points="118,-224.5 118,-243.5 246,-243.5 246,-224.5 118,-224.5"/>
<text text-anchor="middle" x="182" y="-231.5" font-family="Helvetica,sans-Serif" font-size="10.00">lfilesystem_Directory.h</text>
</a>
</g>
</g>
<!-- Node1&#45;&gt;Node5 -->
<g id="edge4" class="edge">
<title>Node1&#45;&gt;Node5</title>
<path fill="none" stroke="midnightblue" d="M182,-269.8C182,-260.91 182,-250.78 182,-243.75"/>
<polygon fill="midnightblue" stroke="midnightblue" points="178.5,-270.08 182,-280.08 185.5,-270.08 178.5,-270.08"/>
</g>
<!-- Node8 -->
<g id="node8" class="node">
<title>Node8</title>
<g id="a_node8"><a xlink:href="lfilesystem__DynamicLibrary_8h.html" target="_top" xlink:title="This file defines the DynamicLibrary class.">
<polygon fill="white" stroke="black" points="317.5,-168.5 317.5,-187.5 478.5,-187.5 478.5,-168.5 317.5,-168.5"/>
<text text-anchor="middle" x="398" y="-175.5" font-family="Helvetica,sans-Serif" font-size="10.00">lfilesystem_DynamicLibrary.h</text>
</a>
</g>
</g>
<!-- Node1&#45;&gt;Node8 -->
<g id="edge10" class="edge">
<title>Node1&#45;&gt;Node8</title>
<path fill="none" stroke="midnightblue" d="M208.05,-275.73C252.92,-252.88 343.59,-206.71 381.13,-187.59"/>
<polygon fill="midnightblue" stroke="midnightblue" points="206.27,-272.71 198.95,-280.37 209.45,-278.95 206.27,-272.71"/>
</g>
<!-- Node3 -->
<g id="node3" class="node">
<title>Node3</title>
<g id="a_node3"><a xlink:href="files__dir__enumerate_8cpp_source.html" target="_top" xlink:title=" ">
<polygon fill="white" stroke="black" points="0,-0.5 0,-19.5 134,-19.5 134,-0.5 0,-0.5"/>
<text text-anchor="middle" x="67" y="-7.5" font-family="Helvetica,sans-Serif" font-size="10.00">files_dir_enumerate.cpp</text>
</a>
</g>
</g>
<!-- Node2&#45;&gt;Node3 -->
<g id="edge2" class="edge">
<title>Node2&#45;&gt;Node3</title>
<path fill="none" stroke="midnightblue" d="M116.96,-50.1C104.54,-40.38 88.76,-28.03 78.29,-19.83"/>
<polygon fill="midnightblue" stroke="midnightblue" points="114.88,-52.92 124.91,-56.32 119.2,-47.4 114.88,-52.92"/>
</g>
<!-- Node4 -->
<g id="node4" class="node">
<title>Node4</title>
<g id="a_node4"><a xlink:href="files__dir__listen_8cpp_source.html" target="_top" xlink:title=" ">
<polygon fill="white" stroke="black" points="152.5,-0.5 152.5,-19.5 259.5,-19.5 259.5,-0.5 152.5,-0.5"/>
<text text-anchor="middle" x="206" y="-7.5" font-family="Helvetica,sans-Serif" font-size="10.00">files_dir_listen.cpp</text>
</a>
</g>
</g>
<!-- Node2&#45;&gt;Node4 -->
<g id="edge3" class="edge">
<title>Node2&#45;&gt;Node4</title>
<path fill="none" stroke="midnightblue" d="M155.31,-50.1C167.91,-40.38 183.93,-28.03 194.55,-19.83"/>
<polygon fill="midnightblue" stroke="midnightblue" points="153.03,-47.44 147.25,-56.32 157.3,-52.99 153.03,-47.44"/>
</g>
<!-- Node5&#45;&gt;Node2 -->
<g id="edge5" class="edge">
<title>Node5&#45;&gt;Node2</title>
<path fill="none" stroke="midnightblue" d="M150.98,-219.67C138.01,-212.35 124.28,-201.89 117,-188 97.06,-149.95 120.42,-96.61 131.16,-75.8"/>
<polygon fill="midnightblue" stroke="midnightblue" points="149.7,-222.95 160.19,-224.45 152.93,-216.73 149.7,-222.95"/>
</g>
<!-- Node6 -->
<g id="node6" class="node">
<title>Node6</title>
<g id="a_node6"><a xlink:href="lfilesystem__SpecialDirectories_8h.html" target="_top" xlink:title="This file contains utility functions for finding some common directories.">
<polygon fill="white" stroke="black" points="126.5,-168.5 126.5,-187.5 299.5,-187.5 299.5,-168.5 126.5,-168.5"/>
<text text-anchor="middle" x="213" y="-175.5" font-family="Helvetica,sans-Serif" font-size="10.00">lfilesystem_SpecialDirectories.h</text>
</a>
</g>
</g>
<!-- Node5&#45;&gt;Node6 -->
<g id="edge6" class="edge">
<title>Node5&#45;&gt;Node6</title>
<path fill="none" stroke="midnightblue" d="M192.18,-215.27C197.47,-206.05 203.72,-195.17 207.98,-187.75"/>
<polygon fill="midnightblue" stroke="midnightblue" points="189.06,-213.67 187.12,-224.08 195.13,-217.15 189.06,-213.67"/>
</g>
<!-- Node6&#45;&gt;Node2 -->
<g id="edge7" class="edge">
<title>Node6&#45;&gt;Node2</title>
<path fill="none" stroke="midnightblue" d="M188.43,-163.01C176.78,-155.24 163.57,-144.59 155,-132 142.96,-114.31 138.44,-88.92 136.83,-75.72"/>
<polygon fill="midnightblue" stroke="midnightblue" points="186.61,-165.99 196.94,-168.37 190.35,-160.07 186.61,-165.99"/>
</g>
<!-- Node7 -->
<g id="node7" class="node">
<title>Node7</title>
<g id="a_node7"><a xlink:href="lfilesystem__Volume_8h.html" target="_top" xlink:title="This file defines the files::Volume class.">
<polygon fill="white" stroke="black" points="164,-112.5 164,-131.5 286,-131.5 286,-112.5 164,-112.5"/>
<text text-anchor="middle" x="225" y="-119.5" font-family="Helvetica,sans-Serif" font-size="10.00">lfilesystem_Volume.h</text>
</a>
</g>
</g>
<!-- Node6&#45;&gt;Node7 -->
<g id="edge8" class="edge">
<title>Node6&#45;&gt;Node7</title>
<path fill="none" stroke="midnightblue" d="M217.2,-158.1C219.19,-149.14 221.48,-138.86 223.06,-131.75"/>
<polygon fill="midnightblue" stroke="midnightblue" points="213.73,-157.56 214.98,-168.08 220.57,-159.08 213.73,-157.56"/>
</g>
<!-- Node7&#45;&gt;Node2 -->
<g id="edge9" class="edge">
<title>Node7&#45;&gt;Node2</title>
<path fill="none" stroke="midnightblue" d="M201.76,-106.9C185.44,-97 164.13,-84.07 150.26,-75.65"/>
<polygon fill="midnightblue" stroke="midnightblue" points="200.34,-110.13 210.7,-112.32 203.97,-104.14 200.34,-110.13"/>
</g>
<!-- Node8&#45;&gt;Node2 -->
<g id="edge11" class="edge">
<title>Node8&#45;&gt;Node2</title>
<path fill="none" stroke="midnightblue" d="M378.61,-162.36C358.58,-147.84 325.98,-125.81 295,-112 256.22,-94.71 209.14,-82.37 176.31,-75.04"/>
<polygon fill="midnightblue" stroke="midnightblue" points="376.74,-165.34 386.87,-168.45 380.9,-159.7 376.74,-165.34"/>
</g>
</g>
</svg>
