<?xml version="1.0" encoding="UTF-8" standalone="no"?>
<!DOCTYPE svg PUBLIC "-//W3C//DTD SVG 1.1//EN"
 "http://www.w3.org/Graphics/SVG/1.1/DTD/svg11.dtd">
<!-- Generated by graphviz version 2.43.0 (0)
 -->
<!-- Title: lfilesystem_File.h Pages: 1 -->
<svg width="1024pt" height="296pt"
 viewBox="0.00 0.00 1024.00 296.00" xmlns="http://www.w3.org/2000/svg" xmlns:xlink="http://www.w3.org/1999/xlink">
<g id="graph0" class="graph" transform="scale(1 1) rotate(0) translate(4 292)">
<title>lfilesystem_File.h</title>
<polygon fill="white" stroke="transparent" points="-4,4 -4,-292 1020,-292 1020,4 -4,4"/>
<!-- Node1 -->
<g id="node1" class="node">
<title>Node1</title>
<g id="a_node1"><a xlink:title="This file defines the File and TempFile classes.">
<polygon fill="#bfbfbf" stroke="black" points="530.5,-268.5 530.5,-287.5 632.5,-287.5 632.5,-268.5 530.5,-268.5"/>
<text text-anchor="middle" x="581.5" y="-275.5" font-family="Helvetica,sans-Serif" font-size="10.00">lfilesystem_File.h</text>
</a>
</g>
</g>
<!-- Node2 -->
<g id="node2" class="node">
<title>Node2</title>
<g id="a_node2"><a xlink:title=" ">
<polygon fill="white" stroke="#bfbfbf" points="0,-207 0,-226 53,-226 53,-207 0,-207"/>
<text text-anchor="middle" x="26.5" y="-214" font-family="Helvetica,sans-Serif" font-size="10.00">cstddef</text>
</a>
</g>
</g>
<!-- Node1&#45;&gt;Node2 -->
<g id="edge1" class="edge">
<title>Node1&#45;&gt;Node2</title>
<path fill="none" stroke="midnightblue" d="M530.16,-276.77C436.93,-275.41 234.05,-268.13 67.5,-232 64.08,-231.26 60.55,-230.31 57.06,-229.25"/>
<polygon fill="midnightblue" stroke="midnightblue" points="58.08,-225.9 47.48,-226.07 55.87,-232.54 58.08,-225.9"/>
</g>
<!-- Node3 -->
<g id="node3" class="node">
<title>Node3</title>
<g id="a_node3"><a xlink:title=" ">
<polygon fill="white" stroke="#bfbfbf" points="255.5,-6 255.5,-25 299.5,-25 299.5,-6 255.5,-6"/>
<text text-anchor="middle" x="277.5" y="-13" font-family="Helvetica,sans-Serif" font-size="10.00">string</text>
</a>
</g>
</g>
<!-- Node1&#45;&gt;Node3 -->
<g id="edge2" class="edge">
<title>Node1&#45;&gt;Node3</title>
<path fill="none" stroke="midnightblue" d="M530.2,-276.83C425.69,-273.29 190.42,-248.23 100.5,-98 66.82,-41.73 185.65,-23.95 245.32,-18.63"/>
<polygon fill="midnightblue" stroke="midnightblue" points="245.71,-22.11 255.39,-17.8 245.13,-15.13 245.71,-22.11"/>
</g>
<!-- Node4 -->
<g id="node4" class="node">
<title>Node4</title>
<g id="a_node4"><a xlink:title=" ">
<polygon fill="white" stroke="#bfbfbf" points="527,-6 527,-25 600,-25 600,-6 527,-6"/>
<text text-anchor="middle" x="563.5" y="-13" font-family="Helvetica,sans-Serif" font-size="10.00">string_view</text>
</a>
</g>
</g>
<!-- Node1&#45;&gt;Node4 -->
<g id="edge3" class="edge">
<title>Node1&#45;&gt;Node4</title>
<path fill="none" stroke="midnightblue" d="M574.35,-268.36C567.73,-259.76 558.34,-245.87 554.5,-232 550.82,-218.72 553.77,-214.76 554.5,-201 556.95,-155.03 563.05,-143.97 565.5,-98 566.23,-84.24 565.77,-80.78 565.5,-67 565.29,-56.52 564.84,-44.83 564.42,-35.34"/>
<polygon fill="midnightblue" stroke="midnightblue" points="567.91,-34.9 563.94,-25.07 560.91,-35.23 567.91,-34.9"/>
</g>
<!-- Node5 -->
<g id="node5" class="node">
<title>Node5</title>
<g id="a_node5"><a xlink:title=" ">
<polygon fill="white" stroke="#bfbfbf" points="748,-207 748,-226 795,-226 795,-207 748,-207"/>
<text text-anchor="middle" x="771.5" y="-214" font-family="Helvetica,sans-Serif" font-size="10.00">vector</text>
</a>
</g>
</g>
<!-- Node1&#45;&gt;Node5 -->
<g id="edge4" class="edge">
<title>Node1&#45;&gt;Node5</title>
<path fill="none" stroke="midnightblue" d="M612.87,-268.47C643.76,-259.9 692.18,-245.98 733.5,-232 735.76,-231.24 738.08,-230.42 740.41,-229.58"/>
<polygon fill="midnightblue" stroke="midnightblue" points="741.74,-232.82 749.9,-226.07 739.31,-226.26 741.74,-232.82"/>
</g>
<!-- Node6 -->
<g id="node6" class="node">
<title>Node6</title>
<g id="a_node6"><a xlink:title=" ">
<polygon fill="white" stroke="#bfbfbf" points="110,-73 110,-92 175,-92 175,-73 110,-73"/>
<text text-anchor="middle" x="142.5" y="-80" font-family="Helvetica,sans-Serif" font-size="10.00">functional</text>
</a>
</g>
</g>
<!-- Node1&#45;&gt;Node6 -->
<g id="edge5" class="edge">
<title>Node1&#45;&gt;Node6</title>
<path fill="none" stroke="midnightblue" d="M543.09,-268.44C510.62,-260.65 463.2,-247.94 423.5,-232 323.14,-191.7 211.74,-126.06 165.03,-97.51"/>
<polygon fill="midnightblue" stroke="midnightblue" points="166.68,-94.41 156.33,-92.16 163.01,-100.37 166.68,-94.41"/>
</g>
<!-- Node7 -->
<g id="node7" class="node">
<title>Node7</title>
<g id="a_node7"><a xlink:title=" ">
<polygon fill="white" stroke="#bfbfbf" points="193.5,-73 193.5,-92 249.5,-92 249.5,-73 193.5,-73"/>
<text text-anchor="middle" x="221.5" y="-80" font-family="Helvetica,sans-Serif" font-size="10.00">optional</text>
</a>
</g>
</g>
<!-- Node1&#45;&gt;Node7 -->
<g id="edge6" class="edge">
<title>Node1&#45;&gt;Node7</title>
<path fill="none" stroke="midnightblue" d="M561.99,-268.42C542.27,-259.63 511,-245.41 484.5,-232 393.64,-186.04 289.29,-124.36 244.2,-97.25"/>
<polygon fill="midnightblue" stroke="midnightblue" points="245.88,-94.18 235.51,-92.01 242.26,-100.17 245.88,-94.18"/>
</g>
<!-- Node8 -->
<g id="node8" class="node">
<title>Node8</title>
<g id="a_node8"><a xlink:title=" ">
<polygon fill="white" stroke="#bfbfbf" points="813,-207 813,-226 868,-226 868,-207 813,-207"/>
<text text-anchor="middle" x="840.5" y="-214" font-family="Helvetica,sans-Serif" font-size="10.00">fstream</text>
</a>
</g>
</g>
<!-- Node1&#45;&gt;Node8 -->
<g id="edge7" class="edge">
<title>Node1&#45;&gt;Node8</title>
<path fill="none" stroke="midnightblue" d="M632.64,-269.43C678.26,-262.03 746.61,-249.34 804.5,-232 806.79,-231.31 809.13,-230.54 811.47,-229.72"/>
<polygon fill="midnightblue" stroke="midnightblue" points="812.81,-232.95 820.93,-226.14 810.34,-226.41 812.81,-232.95"/>
</g>
<!-- Node9 -->
<g id="node9" class="node">
<title>Node9</title>
<g id="a_node9"><a xlink:title=" ">
<polygon fill="white" stroke="#bfbfbf" points="886.5,-207 886.5,-226 944.5,-226 944.5,-207 886.5,-207"/>
<text text-anchor="middle" x="915.5" y="-214" font-family="Helvetica,sans-Serif" font-size="10.00">memory</text>
</a>
</g>
</g>
<!-- Node1&#45;&gt;Node9 -->
<g id="edge8" class="edge">
<title>Node1&#45;&gt;Node9</title>
<path fill="none" stroke="midnightblue" d="M632.72,-272.57C692.27,-266.64 793.18,-254.22 877.5,-232 880.16,-231.3 882.89,-230.47 885.61,-229.58"/>
<polygon fill="midnightblue" stroke="midnightblue" points="887.01,-232.8 895.25,-226.14 884.66,-226.21 887.01,-232.8"/>
</g>
<!-- Node10 -->
<g id="node10" class="node">
<title>Node10</title>
<g id="a_node10"><a xlink:title=" ">
<polygon fill="white" stroke="#bfbfbf" points="963,-207 963,-226 1016,-226 1016,-207 963,-207"/>
<text text-anchor="middle" x="989.5" y="-214" font-family="Helvetica,sans-Serif" font-size="10.00">iterator</text>
</a>
</g>
</g>
<!-- Node1&#45;&gt;Node10 -->
<g id="edge9" class="edge">
<title>Node1&#45;&gt;Node10</title>
<path fill="none" stroke="midnightblue" d="M632.52,-275.06C704.93,-271.35 841.19,-260.87 953.5,-232 956.01,-231.35 958.58,-230.57 961.14,-229.72"/>
<polygon fill="midnightblue" stroke="midnightblue" points="962.61,-232.9 970.76,-226.13 960.16,-226.34 962.61,-232.9"/>
</g>
<!-- Node11 -->
<g id="node11" class="node">
<title>Node11</title>
<g id="a_node11"><a xlink:title=" ">
<polygon fill="white" stroke="#bfbfbf" points="618.5,-0.5 618.5,-30.5 746.5,-30.5 746.5,-0.5 618.5,-0.5"/>
<text text-anchor="start" x="626.5" y="-18.5" font-family="Helvetica,sans-Serif" font-size="10.00">lfilesystem/lfilesystem</text>
<text text-anchor="middle" x="682.5" y="-7.5" font-family="Helvetica,sans-Serif" font-size="10.00">_Export.h</text>
</a>
</g>
</g>
<!-- Node1&#45;&gt;Node11 -->
<g id="edge10" class="edge">
<title>Node1&#45;&gt;Node11</title>
<path fill="none" stroke="midnightblue" d="M632.59,-271.14C657.44,-265.43 685.18,-254.17 700.5,-232 741.2,-173.09 711.27,-82.36 693.36,-39.91"/>
<polygon fill="midnightblue" stroke="midnightblue" points="696.53,-38.43 689.32,-30.67 690.12,-41.23 696.53,-38.43"/>
</g>
<!-- Node12 -->
<g id="node12" class="node">
<title>Node12</title>
<g id="a_node12"><a xlink:href="lfilesystem__FilesystemEntry_8h.html" target="_top" xlink:title="This file defines the FilesystemEntry class.">
<polygon fill="white" stroke="black" points="371.5,-134.5 371.5,-164.5 499.5,-164.5 499.5,-134.5 371.5,-134.5"/>
<text text-anchor="start" x="379.5" y="-152.5" font-family="Helvetica,sans-Serif" font-size="10.00">lfilesystem/lfilesystem</text>
<text text-anchor="middle" x="435.5" y="-141.5" font-family="Helvetica,sans-Serif" font-size="10.00">_FilesystemEntry.h</text>
</a>
</g>
</g>
<!-- Node1&#45;&gt;Node12 -->
<g id="edge11" class="edge">
<title>Node1&#45;&gt;Node12</title>
<path fill="none" stroke="midnightblue" d="M569.23,-268.43C556.88,-259.66 537.42,-245.44 521.5,-232 498.46,-212.56 473.62,-188.66 456.58,-171.79"/>
<polygon fill="midnightblue" stroke="midnightblue" points="458.9,-169.15 449.34,-164.57 453.95,-174.11 458.9,-169.15"/>
</g>
<!-- Node17 -->
<g id="node17" class="node">
<title>Node17</title>
<g id="a_node17"><a xlink:href="lfilesystem__CFile_8h.html" target="_top" xlink:title="This file defines the CFile class.">
<polygon fill="white" stroke="black" points="563.5,-201.5 563.5,-231.5 691.5,-231.5 691.5,-201.5 563.5,-201.5"/>
<text text-anchor="start" x="571.5" y="-219.5" font-family="Helvetica,sans-Serif" font-size="10.00">lfilesystem/lfilesystem</text>
<text text-anchor="middle" x="627.5" y="-208.5" font-family="Helvetica,sans-Serif" font-size="10.00">_CFile.h</text>
</a>
</g>
</g>
<!-- Node1&#45;&gt;Node17 -->
<g id="edge25" class="edge">
<title>Node1&#45;&gt;Node17</title>
<path fill="none" stroke="midnightblue" d="M588.09,-268.48C593.91,-260.94 602.66,-249.63 610.44,-239.57"/>
<polygon fill="midnightblue" stroke="midnightblue" points="613.31,-241.58 616.66,-231.52 607.77,-237.29 613.31,-241.58"/>
</g>
<!-- Node12&#45;&gt;Node3 -->
<g id="edge14" class="edge">
<title>Node12&#45;&gt;Node3</title>
<path fill="none" stroke="midnightblue" d="M390.05,-134.42C368.98,-126.25 344.66,-114.3 326.5,-98 306.78,-80.3 292.53,-52.76 284.64,-34.67"/>
<polygon fill="midnightblue" stroke="midnightblue" points="287.8,-33.16 280.73,-25.26 281.33,-35.84 287.8,-33.16"/>
</g>
<!-- Node12&#45;&gt;Node6 -->
<g id="edge15" class="edge">
<title>Node12&#45;&gt;Node6</title>
<path fill="none" stroke="midnightblue" d="M371.25,-138.02C320.21,-129.11 247.23,-115.06 184.5,-98 181.47,-97.18 178.34,-96.25 175.23,-95.27"/>
<polygon fill="midnightblue" stroke="midnightblue" points="176.03,-91.85 165.43,-92.04 173.83,-98.5 176.03,-91.85"/>
</g>
<!-- Node12&#45;&gt;Node7 -->
<g id="edge16" class="edge">
<title>Node12&#45;&gt;Node7</title>
<path fill="none" stroke="midnightblue" d="M385.26,-134.42C350.86,-124.62 304.27,-111.01 263.5,-98 260.9,-97.17 258.22,-96.29 255.53,-95.4"/>
<polygon fill="midnightblue" stroke="midnightblue" points="256.46,-92.02 245.87,-92.13 254.22,-98.65 256.46,-92.02"/>
</g>
<!-- Node12&#45;&gt;Node11 -->
<g id="edge18" class="edge">
<title>Node12&#45;&gt;Node11</title>
<path fill="none" stroke="midnightblue" d="M479.09,-134.49C504.88,-125.49 537.83,-112.74 565.5,-98 598.82,-80.25 633.97,-54.72 656.94,-36.98"/>
<polygon fill="midnightblue" stroke="midnightblue" points="659.39,-39.51 665.11,-30.6 655.08,-33.99 659.39,-39.51"/>
</g>
<!-- Node13 -->
<g id="node13" class="node">
<title>Node13</title>
<g id="a_node13"><a xlink:title=" ">
<polygon fill="white" stroke="#bfbfbf" points="343.5,-73 343.5,-92 393.5,-92 393.5,-73 343.5,-73"/>
<text text-anchor="middle" x="368.5" y="-80" font-family="Helvetica,sans-Serif" font-size="10.00">cstdint</text>
</a>
</g>
</g>
<!-- Node12&#45;&gt;Node13 -->
<g id="edge12" class="edge">
<title>Node12&#45;&gt;Node13</title>
<path fill="none" stroke="midnightblue" d="M420.96,-134.4C410.31,-124.06 395.84,-110.02 384.8,-99.31"/>
<polygon fill="midnightblue" stroke="midnightblue" points="387.08,-96.65 377.46,-92.19 382.2,-101.67 387.08,-96.65"/>
</g>
<!-- Node14 -->
<g id="node14" class="node">
<title>Node14</title>
<g id="a_node14"><a xlink:title=" ">
<polygon fill="white" stroke="#bfbfbf" points="440.5,-6 440.5,-25 508.5,-25 508.5,-6 440.5,-6"/>
<text text-anchor="middle" x="474.5" y="-13" font-family="Helvetica,sans-Serif" font-size="10.00">filesystem</text>
</a>
</g>
</g>
<!-- Node12&#45;&gt;Node14 -->
<g id="edge13" class="edge">
<title>Node12&#45;&gt;Node14</title>
<path fill="none" stroke="midnightblue" d="M499,-134.5C518.19,-126.97 537.16,-115.49 548.5,-98 556,-86.44 554.94,-79.18 548.5,-67 539.51,-49.99 521.93,-37.62 506.16,-29.39"/>
<polygon fill="midnightblue" stroke="midnightblue" points="507.68,-26.24 497.16,-25.01 504.62,-32.53 507.68,-26.24"/>
</g>
<!-- Node15 -->
<g id="node15" class="node">
<title>Node15</title>
<g id="a_node15"><a xlink:title=" ">
<polygon fill="white" stroke="#bfbfbf" points="342,-6 342,-25 399,-25 399,-6 342,-6"/>
<text text-anchor="middle" x="370.5" y="-13" font-family="Helvetica,sans-Serif" font-size="10.00">ostream</text>
</a>
</g>
</g>
<!-- Node12&#45;&gt;Node15 -->
<g id="edge17" class="edge">
<title>Node12&#45;&gt;Node15</title>
<path fill="none" stroke="midnightblue" d="M382.03,-134.46C363.72,-126.82 345.17,-115.26 334.5,-98 321.36,-76.74 339.15,-49.85 354.05,-32.91"/>
<polygon fill="midnightblue" stroke="midnightblue" points="356.74,-35.16 360.99,-25.46 351.62,-30.39 356.74,-35.16"/>
</g>
<!-- Node16 -->
<g id="node16" class="node">
<title>Node16</title>
<g id="a_node16"><a xlink:href="lfilesystem__Permissions_8h.html" target="_top" xlink:title="This file defines the Permissions class.">
<polygon fill="white" stroke="black" points="411.5,-67.5 411.5,-97.5 539.5,-97.5 539.5,-67.5 411.5,-67.5"/>
<text text-anchor="start" x="419.5" y="-85.5" font-family="Helvetica,sans-Serif" font-size="10.00">lfilesystem/lfilesystem</text>
<text text-anchor="middle" x="475.5" y="-74.5" font-family="Helvetica,sans-Serif" font-size="10.00">_Permissions.h</text>
</a>
</g>
</g>
<!-- Node12&#45;&gt;Node16 -->
<g id="edge19" class="edge">
<title>Node12&#45;&gt;Node16</title>
<path fill="none" stroke="midnightblue" d="M444.18,-134.4C449.26,-126.13 455.8,-115.51 461.59,-106.1"/>
<polygon fill="midnightblue" stroke="midnightblue" points="464.58,-107.93 466.84,-97.58 458.62,-104.26 464.58,-107.93"/>
</g>
<!-- Node16&#45;&gt;Node3 -->
<g id="edge21" class="edge">
<title>Node16&#45;&gt;Node3</title>
<path fill="none" stroke="midnightblue" d="M432.54,-67.4C395.43,-55.21 342.66,-37.89 309.26,-26.93"/>
<polygon fill="midnightblue" stroke="midnightblue" points="310.15,-23.53 299.55,-23.74 307.96,-30.18 310.15,-23.53"/>
</g>
<!-- Node16&#45;&gt;Node4 -->
<g id="edge22" class="edge">
<title>Node16&#45;&gt;Node4</title>
<path fill="none" stroke="midnightblue" d="M494.59,-67.4C509.08,-56.7 528.93,-42.03 543.61,-31.19"/>
<polygon fill="midnightblue" stroke="midnightblue" points="546.02,-33.76 551.98,-25.01 541.86,-28.13 546.02,-33.76"/>
</g>
<!-- Node16&#45;&gt;Node11 -->
<g id="edge24" class="edge">
<title>Node16&#45;&gt;Node11</title>
<path fill="none" stroke="midnightblue" d="M520.16,-67.48C551.75,-57.56 594.28,-44.2 627.89,-33.65"/>
<polygon fill="midnightblue" stroke="midnightblue" points="629.07,-36.95 637.56,-30.61 626.97,-30.27 629.07,-36.95"/>
</g>
<!-- Node16&#45;&gt;Node14 -->
<g id="edge20" class="edge">
<title>Node16&#45;&gt;Node14</title>
<path fill="none" stroke="midnightblue" d="M475.28,-67.4C475.14,-58.06 474.95,-45.71 474.79,-35.52"/>
<polygon fill="midnightblue" stroke="midnightblue" points="478.29,-35.14 474.63,-25.19 471.29,-35.25 478.29,-35.14"/>
</g>
<!-- Node16&#45;&gt;Node15 -->
<g id="edge23" class="edge">
<title>Node16&#45;&gt;Node15</title>
<path fill="none" stroke="midnightblue" d="M452.72,-67.4C434.95,-56.39 410.4,-41.2 392.76,-30.28"/>
<polygon fill="midnightblue" stroke="midnightblue" points="394.59,-27.29 384.24,-25.01 390.9,-33.25 394.59,-27.29"/>
</g>
<!-- Node17&#45;&gt;Node11 -->
<g id="edge27" class="edge">
<title>Node17&#45;&gt;Node11</title>
<path fill="none" stroke="midnightblue" d="M638.73,-201.33C645.82,-191.64 654.54,-178.21 659.5,-165 675.18,-123.24 680.18,-71.01 681.76,-40.93"/>
<polygon fill="midnightblue" stroke="midnightblue" points="685.26,-41.06 682.21,-30.91 678.27,-40.75 685.26,-41.06"/>
</g>
<!-- Node17&#45;&gt;Node12 -->
<g id="edge28" class="edge">
<title>Node17&#45;&gt;Node12</title>
<path fill="none" stroke="midnightblue" d="M585.84,-201.4C556.78,-191.56 517.81,-178.37 486.83,-167.88"/>
<polygon fill="midnightblue" stroke="midnightblue" points="487.67,-164.47 477.08,-164.58 485.43,-171.1 487.67,-164.47"/>
</g>
<!-- Node18 -->
<g id="node18" class="node">
<title>Node18</title>
<g id="a_node18"><a xlink:title=" ">
<polygon fill="white" stroke="#bfbfbf" points="604.5,-140 604.5,-159 650.5,-159 650.5,-140 604.5,-140"/>
<text text-anchor="middle" x="627.5" y="-147" font-family="Helvetica,sans-Serif" font-size="10.00">cstdio</text>
</a>
</g>
</g>
<!-- Node17&#45;&gt;Node18 -->
<g id="edge26" class="edge">
<title>Node17&#45;&gt;Node18</title>
<path fill="none" stroke="midnightblue" d="M627.5,-201.4C627.5,-192.06 627.5,-179.71 627.5,-169.52"/>
<polygon fill="midnightblue" stroke="midnightblue" points="631,-169.19 627.5,-159.19 624,-169.19 631,-169.19"/>
</g>
</g>
</svg>
