<?xml version="1.0" encoding="UTF-8" standalone="no"?>
<!DOCTYPE svg PUBLIC "-//W3C//DTD SVG 1.1//EN"
 "http://www.w3.org/Graphics/SVG/1.1/DTD/svg11.dtd">
<!-- Generated by graphviz version 2.43.0 (0)
 -->
<!-- Title: lfilesystem_SimpleWatcher.h Pages: 1 -->
<!--zoomable 296 -->
<svg id="main" version="1.1" xmlns="http://www.w3.org/2000/svg" xmlns:xlink="http://www.w3.org/1999/xlink" xml:space="preserve" onload="init(evt)">
<style type="text/css"><![CDATA[
.edge:hover path { stroke: red; }
.edge:hover polygon { stroke: red; fill: red; }
]]></style>
<script type="text/javascript"><![CDATA[
var edges = document.getElementsByTagName('g');
if (edges && edges.length) {
  for (var i=0;i<edges.length;i++) {
    if (edges[i].id.substr(0,4)=='edge') {
      edges[i].setAttribute('class','edge');
    }
  }
}
]]></script>
        <defs>
                <circle id="rim" cx="0" cy="0" r="7"/>
                <circle id="rim2" cx="0" cy="0" r="3.5"/>
                <g id="zoomPlus">
                        <use xlink:href="#rim" fill="#404040">
                                <set attributeName="fill" to="#808080" begin="zoomplus.mouseover" end="zoomplus.mouseout"/>
                        </use>
                        <path d="M-4,0h8M0,-4v8" fill="none" stroke="white" stroke-width="1.5" pointer-events="none"/>
                </g>
                <g id="zoomMin">
                        <use xlink:href="#rim" fill="#404040">
                                <set attributeName="fill" to="#808080" begin="zoomminus.mouseover" end="zoomminus.mouseout"/>
                        </use>
                        <path d="M-4,0h8" fill="none" stroke="white" stroke-width="1.5" pointer-events="none"/>
                </g>
                <g id="dirArrow">
                        <path fill="none" stroke="white" stroke-width="1.5" d="M0,-3.0v7 M-2.5,-0.5L0,-3.0L2.5,-0.5"/>
                </g>
               <g id="resetDef">
                       <use xlink:href="#rim2" fill="#404040">
                               <set attributeName="fill" to="#808080" begin="reset.mouseover" end="reset.mouseout"/>
                       </use>
               </g>
        </defs>

<script type="text/javascript">
var viewWidth = 596;
var viewHeight = 296;
var sectionId = 'dynsection-0';
</script>
<script xlink:href="svgpan.js"/>
<svg id="graph" class="graph">
<g id="viewport">
<title>lfilesystem_SimpleWatcher.h</title>
<polygon fill="white" stroke="transparent" points="-4,4 -4,-292 591.5,-292 591.5,4 -4,4"/>
<!-- Node1 -->
<g id="node1" class="node">
<title>Node1</title>
<g id="a_node1"><a xlink:title="This file defines the SimpleFileWatcher class.">
<polygon fill="#bfbfbf" stroke="black" points="360.5,-268.5 360.5,-287.5 518.5,-287.5 518.5,-268.5 360.5,-268.5"/>
<text text-anchor="middle" x="439.5" y="-275.5" font-family="Helvetica,sans-Serif" font-size="10.00">lfilesystem_SimpleWatcher.h</text>
</a>
</g>
</g>
<!-- Node2 -->
<g id="node2" class="node">
<title>Node2</title>
<g id="a_node2"><a xlink:title=" ">
<polygon fill="white" stroke="#bfbfbf" points="0,-73 0,-92 65,-92 65,-73 0,-73"/>
<text text-anchor="middle" x="32.5" y="-80" font-family="Helvetica,sans-Serif" font-size="10.00">functional</text>
</a>
</g>
</g>
<!-- Node1&#45;&gt;Node2 -->
<g id="edge1" class="edge">
<title>Node1&#45;&gt;Node2</title>
<path fill="none" stroke="midnightblue" d="M421.49,-268.44C357.02,-237.78 137.48,-133.41 59.92,-96.53"/>
<polygon fill="midnightblue" stroke="midnightblue" points="61.3,-93.32 50.77,-92.18 58.3,-99.64 61.3,-93.32"/>
</g>
<!-- Node3 -->
<g id="node3" class="node">
<title>Node3</title>
<g id="a_node3"><a xlink:title=" ">
<polygon fill="white" stroke="#bfbfbf" points="459.5,-0.5 459.5,-30.5 587.5,-30.5 587.5,-0.5 459.5,-0.5"/>
<text text-anchor="start" x="467.5" y="-18.5" font-family="Helvetica,sans-Serif" font-size="10.00">lfilesystem/lfilesystem</text>
<text text-anchor="middle" x="523.5" y="-7.5" font-family="Helvetica,sans-Serif" font-size="10.00">_Export.h</text>
</a>
</g>
</g>
<!-- Node1&#45;&gt;Node3 -->
<g id="edge2" class="edge">
<title>Node1&#45;&gt;Node3</title>
<path fill="none" stroke="midnightblue" d="M464.61,-268.5C481.21,-261.46 501.81,-249.72 512.5,-232 549.08,-171.36 537.63,-82.76 529.14,-40.57"/>
<polygon fill="midnightblue" stroke="midnightblue" points="532.54,-39.7 527.03,-30.65 525.69,-41.16 532.54,-39.7"/>
</g>
<!-- Node4 -->
<g id="node4" class="node">
<title>Node4</title>
<g id="a_node4"><a xlink:href="lfilesystem__FileWatcher_8h.html" target="_top" xlink:title="This file defines the files::FileWatcher class.">
<polygon fill="white" stroke="black" points="375.5,-201.5 375.5,-231.5 503.5,-231.5 503.5,-201.5 375.5,-201.5"/>
<text text-anchor="start" x="383.5" y="-219.5" font-family="Helvetica,sans-Serif" font-size="10.00">lfilesystem/lfilesystem</text>
<text text-anchor="middle" x="439.5" y="-208.5" font-family="Helvetica,sans-Serif" font-size="10.00">_FileWatcher.h</text>
</a>
</g>
</g>
<!-- Node1&#45;&gt;Node4 -->
<g id="edge3" class="edge">
<title>Node1&#45;&gt;Node4</title>
<path fill="none" stroke="midnightblue" d="M439.5,-268.48C439.5,-261.47 439.5,-251.19 439.5,-241.7"/>
<polygon fill="midnightblue" stroke="midnightblue" points="443,-241.52 439.5,-231.52 436,-241.52 443,-241.52"/>
</g>
<!-- Node4&#45;&gt;Node3 -->
<g id="edge5" class="edge">
<title>Node4&#45;&gt;Node3</title>
<path fill="none" stroke="midnightblue" d="M452.24,-201.37C460.41,-191.71 470.71,-178.29 477.5,-165 498.62,-123.7 512.12,-70.91 518.71,-40.68"/>
<polygon fill="midnightblue" stroke="midnightblue" points="522.19,-41.13 520.82,-30.63 515.34,-39.69 522.19,-41.13"/>
</g>
<!-- Node5 -->
<g id="node5" class="node">
<title>Node5</title>
<g id="a_node5"><a xlink:title=" ">
<polygon fill="white" stroke="#bfbfbf" points="410.5,-140 410.5,-159 468.5,-159 468.5,-140 410.5,-140"/>
<text text-anchor="middle" x="439.5" y="-147" font-family="Helvetica,sans-Serif" font-size="10.00">memory</text>
</a>
</g>
</g>
<!-- Node4&#45;&gt;Node5 -->
<g id="edge4" class="edge">
<title>Node4&#45;&gt;Node5</title>
<path fill="none" stroke="midnightblue" d="M439.5,-201.4C439.5,-192.06 439.5,-179.71 439.5,-169.52"/>
<polygon fill="midnightblue" stroke="midnightblue" points="443,-169.19 439.5,-159.19 436,-169.19 443,-169.19"/>
</g>
<!-- Node6 -->
<g id="node6" class="node">
<title>Node6</title>
<g id="a_node6"><a xlink:href="lfilesystem__FilesystemEntry_8h.html" target="_top" xlink:title="This file defines the FilesystemEntry class.">
<polygon fill="white" stroke="black" points="227.5,-134.5 227.5,-164.5 355.5,-164.5 355.5,-134.5 227.5,-134.5"/>
<text text-anchor="start" x="235.5" y="-152.5" font-family="Helvetica,sans-Serif" font-size="10.00">lfilesystem/lfilesystem</text>
<text text-anchor="middle" x="291.5" y="-141.5" font-family="Helvetica,sans-Serif" font-size="10.00">_FilesystemEntry.h</text>
</a>
</g>
</g>
<!-- Node4&#45;&gt;Node6 -->
<g id="edge6" class="edge">
<title>Node4&#45;&gt;Node6</title>
<path fill="none" stroke="midnightblue" d="M407.39,-201.4C385.57,-191.81 356.51,-179.05 332.94,-168.7"/>
<polygon fill="midnightblue" stroke="midnightblue" points="334.11,-165.39 323.55,-164.58 331.3,-171.8 334.11,-165.39"/>
</g>
<!-- Node6&#45;&gt;Node2 -->
<g id="edge10" class="edge">
<title>Node6&#45;&gt;Node2</title>
<path fill="none" stroke="midnightblue" d="M227.68,-134.44C185.45,-124.86 128.96,-111.5 79.5,-98 76.1,-97.07 72.58,-96.07 69.06,-95.03"/>
<polygon fill="midnightblue" stroke="midnightblue" points="69.84,-91.61 59.25,-92.09 67.82,-98.32 69.84,-91.61"/>
</g>
<!-- Node6&#45;&gt;Node3 -->
<g id="edge13" class="edge">
<title>Node6&#45;&gt;Node3</title>
<path fill="none" stroke="midnightblue" d="M355.53,-137.49C387.18,-129.93 424.85,-117.61 454.5,-98 477.52,-82.78 497.1,-57.7 509.45,-39.38"/>
<polygon fill="midnightblue" stroke="midnightblue" points="512.55,-41.04 515.08,-30.75 506.68,-37.22 512.55,-41.04"/>
</g>
<!-- Node7 -->
<g id="node7" class="node">
<title>Node7</title>
<g id="a_node7"><a xlink:title=" ">
<polygon fill="white" stroke="#bfbfbf" points="121.5,-73 121.5,-92 171.5,-92 171.5,-73 121.5,-73"/>
<text text-anchor="middle" x="146.5" y="-80" font-family="Helvetica,sans-Serif" font-size="10.00">cstdint</text>
</a>
</g>
</g>
<!-- Node6&#45;&gt;Node7 -->
<g id="edge7" class="edge">
<title>Node6&#45;&gt;Node7</title>
<path fill="none" stroke="midnightblue" d="M260.04,-134.4C234.6,-122.99 199.1,-107.08 174.6,-96.1"/>
<polygon fill="midnightblue" stroke="midnightblue" points="176.03,-92.9 165.48,-92.01 173.17,-99.29 176.03,-92.9"/>
</g>
<!-- Node8 -->
<g id="node8" class="node">
<title>Node8</title>
<g id="a_node8"><a xlink:title=" ">
<polygon fill="white" stroke="#bfbfbf" points="364.5,-6 364.5,-25 432.5,-25 432.5,-6 364.5,-6"/>
<text text-anchor="middle" x="398.5" y="-13" font-family="Helvetica,sans-Serif" font-size="10.00">filesystem</text>
</a>
</g>
</g>
<!-- Node6&#45;&gt;Node8 -->
<g id="edge8" class="edge">
<title>Node6&#45;&gt;Node8</title>
<path fill="none" stroke="midnightblue" d="M355.57,-143.28C385.93,-137.21 419.61,-124.47 438.5,-98 453.59,-76.86 432.68,-49.17 415.87,-32.12"/>
<polygon fill="midnightblue" stroke="midnightblue" points="418.21,-29.51 408.57,-25.1 413.35,-34.56 418.21,-29.51"/>
</g>
<!-- Node9 -->
<g id="node9" class="node">
<title>Node9</title>
<g id="a_node9"><a xlink:title=" ">
<polygon fill="white" stroke="#bfbfbf" points="94.5,-6 94.5,-25 138.5,-25 138.5,-6 94.5,-6"/>
<text text-anchor="middle" x="116.5" y="-13" font-family="Helvetica,sans-Serif" font-size="10.00">string</text>
</a>
</g>
</g>
<!-- Node6&#45;&gt;Node9 -->
<g id="edge9" class="edge">
<title>Node6&#45;&gt;Node9</title>
<path fill="none" stroke="midnightblue" d="M227.22,-138.69C181.8,-130.29 126.58,-116.6 112.5,-98 98.84,-79.96 103.79,-52.69 109.44,-34.75"/>
<polygon fill="midnightblue" stroke="midnightblue" points="112.79,-35.76 112.8,-25.17 106.18,-33.45 112.79,-35.76"/>
</g>
<!-- Node10 -->
<g id="node10" class="node">
<title>Node10</title>
<g id="a_node10"><a xlink:title=" ">
<polygon fill="white" stroke="#bfbfbf" points="373.5,-73 373.5,-92 429.5,-92 429.5,-73 373.5,-73"/>
<text text-anchor="middle" x="401.5" y="-80" font-family="Helvetica,sans-Serif" font-size="10.00">optional</text>
</a>
</g>
</g>
<!-- Node6&#45;&gt;Node10 -->
<g id="edge11" class="edge">
<title>Node6&#45;&gt;Node10</title>
<path fill="none" stroke="midnightblue" d="M315.37,-134.4C334.07,-123.34 359.94,-108.06 378.43,-97.13"/>
<polygon fill="midnightblue" stroke="midnightblue" points="380.27,-100.11 387.1,-92.01 376.71,-94.08 380.27,-100.11"/>
</g>
<!-- Node11 -->
<g id="node11" class="node">
<title>Node11</title>
<g id="a_node11"><a xlink:title=" ">
<polygon fill="white" stroke="#bfbfbf" points="175,-6 175,-25 232,-25 232,-6 175,-6"/>
<text text-anchor="middle" x="203.5" y="-13" font-family="Helvetica,sans-Serif" font-size="10.00">ostream</text>
</a>
</g>
</g>
<!-- Node6&#45;&gt;Node11 -->
<g id="edge12" class="edge">
<title>Node6&#45;&gt;Node11</title>
<path fill="none" stroke="midnightblue" d="M260.82,-134.45C245.76,-126 228.71,-113.79 218.5,-98 206.26,-79.07 203.39,-52.78 203,-35.23"/>
<polygon fill="midnightblue" stroke="midnightblue" points="206.5,-35.14 203.03,-25.13 199.5,-35.12 206.5,-35.14"/>
</g>
<!-- Node12 -->
<g id="node12" class="node">
<title>Node12</title>
<g id="a_node12"><a xlink:href="lfilesystem__Permissions_8h.html" target="_top" xlink:title="This file defines the Permissions class.">
<polygon fill="white" stroke="black" points="227.5,-67.5 227.5,-97.5 355.5,-97.5 355.5,-67.5 227.5,-67.5"/>
<text text-anchor="start" x="235.5" y="-85.5" font-family="Helvetica,sans-Serif" font-size="10.00">lfilesystem/lfilesystem</text>
<text text-anchor="middle" x="291.5" y="-74.5" font-family="Helvetica,sans-Serif" font-size="10.00">_Permissions.h</text>
</a>
</g>
</g>
<!-- Node6&#45;&gt;Node12 -->
<g id="edge14" class="edge">
<title>Node6&#45;&gt;Node12</title>
<path fill="none" stroke="midnightblue" d="M291.5,-134.4C291.5,-126.64 291.5,-116.81 291.5,-107.86"/>
<polygon fill="midnightblue" stroke="midnightblue" points="295,-107.58 291.5,-97.58 288,-107.58 295,-107.58"/>
</g>
<!-- Node12&#45;&gt;Node3 -->
<g id="edge19" class="edge">
<title>Node12&#45;&gt;Node3</title>
<path fill="none" stroke="midnightblue" d="M341.55,-67.48C377.26,-57.47 425.45,-43.97 463.26,-33.38"/>
<polygon fill="midnightblue" stroke="midnightblue" points="464.45,-36.68 473.13,-30.61 462.56,-29.94 464.45,-36.68"/>
</g>
<!-- Node12&#45;&gt;Node8 -->
<g id="edge15" class="edge">
<title>Node12&#45;&gt;Node8</title>
<path fill="none" stroke="midnightblue" d="M314.72,-67.4C332.83,-56.39 357.84,-41.2 375.81,-30.28"/>
<polygon fill="midnightblue" stroke="midnightblue" points="377.77,-33.19 384.5,-25.01 374.13,-27.21 377.77,-33.19"/>
</g>
<!-- Node12&#45;&gt;Node9 -->
<g id="edge16" class="edge">
<title>Node12&#45;&gt;Node9</title>
<path fill="none" stroke="midnightblue" d="M253.53,-67.4C222.1,-55.72 177.96,-39.33 148.35,-28.33"/>
<polygon fill="midnightblue" stroke="midnightblue" points="149.5,-25.02 138.9,-24.82 147.06,-31.58 149.5,-25.02"/>
</g>
<!-- Node12&#45;&gt;Node11 -->
<g id="edge18" class="edge">
<title>Node12&#45;&gt;Node11</title>
<path fill="none" stroke="midnightblue" d="M272.41,-67.4C257.92,-56.7 238.07,-42.03 223.39,-31.19"/>
<polygon fill="midnightblue" stroke="midnightblue" points="225.14,-28.13 215.02,-25.01 220.98,-33.76 225.14,-28.13"/>
</g>
<!-- Node13 -->
<g id="node13" class="node">
<title>Node13</title>
<g id="a_node13"><a xlink:title=" ">
<polygon fill="white" stroke="#bfbfbf" points="255,-6 255,-25 328,-25 328,-6 255,-6"/>
<text text-anchor="middle" x="291.5" y="-13" font-family="Helvetica,sans-Serif" font-size="10.00">string_view</text>
</a>
</g>
</g>
<!-- Node12&#45;&gt;Node13 -->
<g id="edge17" class="edge">
<title>Node12&#45;&gt;Node13</title>
<path fill="none" stroke="midnightblue" d="M291.5,-67.4C291.5,-58.06 291.5,-45.71 291.5,-35.52"/>
<polygon fill="midnightblue" stroke="midnightblue" points="295,-35.19 291.5,-25.19 288,-35.19 295,-35.19"/>
</g>
</g>
</svg>
        <g id="navigator" transform="translate(0 0)" fill="#404254">
                <rect fill="#f2f5e9" fill-opacity="0.5" stroke="#606060" stroke-width=".5" x="0" y="0" width="60" height="60"/>
                <use id="zoomplus" xlink:href="#zoomPlus" x="17" y="9" onmousedown="handleZoom(evt,'in')"/>
                <use id="zoomminus" xlink:href="#zoomMin" x="42" y="9" onmousedown="handleZoom(evt,'out')"/>
                <use id="reset" xlink:href="#resetDef" x="30" y="36" onmousedown="handleReset()"/>
                <g id="arrowUp" xlink:href="#dirArrow" transform="translate(30 24)" onmousedown="handlePan(0,-1)">
                  <use xlink:href="#rim" fill="#404040">
                        <set attributeName="fill" to="#808080" begin="arrowUp.mouseover" end="arrowUp.mouseout"/>
                  </use>
                  <path fill="none" stroke="white" stroke-width="1.5" d="M0,-3.0v7 M-2.5,-0.5L0,-3.0L2.5,-0.5"/>
                </g>
                <g id="arrowRight" xlink:href="#dirArrow" transform="rotate(90) translate(36 -43)" onmousedown="handlePan(1,0)">
                  <use xlink:href="#rim" fill="#404040">
                        <set attributeName="fill" to="#808080" begin="arrowRight.mouseover" end="arrowRight.mouseout"/>
                  </use>
                  <path fill="none" stroke="white" stroke-width="1.5" d="M0,-3.0v7 M-2.5,-0.5L0,-3.0L2.5,-0.5"/>
                </g>
                <g id="arrowDown" xlink:href="#dirArrow" transform="rotate(180) translate(-30 -48)" onmousedown="handlePan(0,1)">
                  <use xlink:href="#rim" fill="#404040">
                        <set attributeName="fill" to="#808080" begin="arrowDown.mouseover" end="arrowDown.mouseout"/>
                  </use>
                  <path fill="none" stroke="white" stroke-width="1.5" d="M0,-3.0v7 M-2.5,-0.5L0,-3.0L2.5,-0.5"/>
                </g>
                <g id="arrowLeft" xlink:href="#dirArrow" transform="rotate(270) translate(-36 17)" onmousedown="handlePan(-1,0)">
                  <use xlink:href="#rim" fill="#404040">
                        <set attributeName="fill" to="#808080" begin="arrowLeft.mouseover" end="arrowLeft.mouseout"/>
                  </use>
                  <path fill="none" stroke="white" stroke-width="1.5" d="M0,-3.0v7 M-2.5,-0.5L0,-3.0L2.5,-0.5"/>
                </g>
        </g>
        <svg viewBox="0 0 15 15" width="100%" height="30px" preserveAspectRatio="xMaxYMin meet">
         <g id="arrow_out" transform="scale(0.3 0.3)">
          <a xlink:href="lfilesystem__SimpleWatcher_8h__incl_org.svg" target="_base">
           <rect id="button" ry="5" rx="5" y="6" x="6" height="38" width="38"
                fill="#f2f5e9" fill-opacity="0.5" stroke="#606060" stroke-width="1.0"/>
           <path id="arrow"
             d="M 11.500037,31.436501 C 11.940474,20.09759 22.043105,11.32322 32.158766,21.979434 L 37.068811,17.246167 C 37.068811,17.246167 37.088388,32 37.088388,32 L 22.160133,31.978069 C 22.160133,31.978069 26.997745,27.140456 26.997745,27.140456 C 18.528582,18.264221 13.291696,25.230495 11.500037,31.436501 z"
             style="fill:#404040;"/>
          </a>
         </g>
        </svg>
</svg>
