<?xml version="1.0" encoding="UTF-8" standalone="no"?>
<!DOCTYPE svg PUBLIC "-//W3C//DTD SVG 1.1//EN"
 "http://www.w3.org/Graphics/SVG/1.1/DTD/svg11.dtd">
<!-- Generated by graphviz version 8.0.5 (20230430.1635)
 -->
<!-- Title: lfilesystem_Misc.h Pages: 1 -->
<svg width="326pt" height="94pt"
 viewBox="0.00 0.00 325.75 93.75" xmlns="http://www.w3.org/2000/svg" xmlns:xlink="http://www.w3.org/1999/xlink">
<g id="graph0" class="graph" transform="scale(1 1) rotate(0) translate(4 89.75)">
<title>lfilesystem_Misc.h</title>
<!-- Node1 -->
<g id="Node000001" class="node">
<title>Node1</title>
<g id="a_Node000001"><a xlink:title="This file defines miscellaneous filesystem utility functions.">
<polygon fill="#999999" stroke="#666666" points="216.12,-85.75 118.38,-85.75 118.38,-66.5 216.12,-66.5 216.12,-85.75"/>
<text text-anchor="middle" x="167.25" y="-72.25" font-family="Helvetica,sans-Serif" font-size="10.00">lfilesystem_Misc.h</text>
</a>
</g>
</g>
<!-- Node2 -->
<g id="Node000002" class="node">
<title>Node2</title>
<g id="a_Node000002"><a xlink:title=" ">
<polygon fill="#e0e0e0" stroke="#999999" points="44.5,-24.88 0,-24.88 0,-5.63 44.5,-5.63 44.5,-24.88"/>
<text text-anchor="middle" x="22.25" y="-11.38" font-family="Helvetica,sans-Serif" font-size="10.00">climits</text>
</a>
</g>
</g>
<!-- Node1&#45;&gt;Node2 -->
<g id="edge1_Node000001_Node000002" class="edge">
<title>Node1&#45;&gt;Node2</title>
<g id="a_edge1_Node000001_Node000002"><a xlink:title=" ">
<path fill="none" stroke="#63b8ff" d="M143.07,-66.12C119.88,-57.38 83.96,-43.56 53.25,-30.5 52.65,-30.25 52.05,-29.99 51.45,-29.73"/>
<polygon fill="#63b8ff" stroke="#63b8ff" points="53.08,-26.18 42.52,-25.32 50.24,-32.58 53.08,-26.18"/>
</a>
</g>
</g>
<!-- Node3 -->
<g id="Node000003" class="node">
<title>Node3</title>
<g id="a_Node000003"><a xlink:title=" ">
<polygon fill="#e0e0e0" stroke="#999999" points="176,-30.5 62.5,-30.5 62.5,0 176,0 176,-30.5"/>
<text text-anchor="start" x="70.5" y="-17" font-family="Helvetica,sans-Serif" font-size="10.00">lfilesystem/lfilesystem</text>
<text text-anchor="middle" x="119.25" y="-5.75" font-family="Helvetica,sans-Serif" font-size="10.00">_Export.h</text>
</a>
</g>
</g>
<!-- Node1&#45;&gt;Node3 -->
<g id="edge2_Node000001_Node000003" class="edge">
<title>Node1&#45;&gt;Node3</title>
<g id="a_edge2_Node000001_Node000003"><a xlink:title=" ">
<path fill="none" stroke="#63b8ff" d="M159.96,-66.18C154.1,-58.99 145.59,-48.56 137.87,-39.09"/>
<polygon fill="#63b8ff" stroke="#63b8ff" points="140.13,-37.32 131.1,-31.78 134.7,-41.74 140.13,-37.32"/>
</a>
</g>
</g>
<!-- Node4 -->
<g id="Node000004" class="node">
<title>Node4</title>
<g id="a_Node000004"><a xlink:title=" ">
<polygon fill="#e0e0e0" stroke="#999999" points="238.88,-24.88 193.62,-24.88 193.62,-5.63 238.88,-5.63 238.88,-24.88"/>
<text text-anchor="middle" x="216.25" y="-11.38" font-family="Helvetica,sans-Serif" font-size="10.00">cstdint</text>
</a>
</g>
</g>
<!-- Node1&#45;&gt;Node4 -->
<g id="edge3_Node000001_Node000004" class="edge">
<title>Node1&#45;&gt;Node4</title>
<g id="a_edge3_Node000001_Node000004"><a xlink:title=" ">
<path fill="none" stroke="#63b8ff" d="M174.69,-66.18C181.89,-57.54 192.98,-44.21 201.89,-33.5"/>
<polygon fill="#63b8ff" stroke="#63b8ff" points="205.03,-36.2 208.74,-26.28 199.65,-31.72 205.03,-36.2"/>
</a>
</g>
</g>
<!-- Node5 -->
<g id="Node000005" class="node">
<title>Node5</title>
<g id="a_Node000005"><a xlink:title=" ">
<polygon fill="#e0e0e0" stroke="#999999" points="317.75,-24.88 256.75,-24.88 256.75,-5.63 317.75,-5.63 317.75,-24.88"/>
<text text-anchor="middle" x="287.25" y="-11.38" font-family="Helvetica,sans-Serif" font-size="10.00">filesystem</text>
</a>
</g>
</g>
<!-- Node1&#45;&gt;Node5 -->
<g id="edge4_Node000001_Node000005" class="edge">
<title>Node1&#45;&gt;Node5</title>
<g id="a_edge4_Node000001_Node000005"><a xlink:title=" ">
<path fill="none" stroke="#63b8ff" d="M185.74,-66.05C205.35,-56.43 236.57,-41.12 259.21,-30.01"/>
<polygon fill="#63b8ff" stroke="#63b8ff" points="260.5,-32.78 267.94,-25.23 257.42,-26.5 260.5,-32.78"/>
</a>
</g>
</g>
</g>
</svg>
