<?xml version="1.0" encoding="UTF-8" standalone="no"?>
<!DOCTYPE svg PUBLIC "-//W3C//DTD SVG 1.1//EN"
 "http://www.w3.org/Graphics/SVG/1.1/DTD/svg11.dtd">
<!-- Generated by graphviz version 8.0.5 (20230430.1635)
 -->
<!-- Title: lfilesystem_SpecialDirectories.h Pages: 1 -->
<svg width="1021pt" height="426pt"
 viewBox="0.00 0.00 1021.12 426.25" xmlns="http://www.w3.org/2000/svg" xmlns:xlink="http://www.w3.org/1999/xlink">
<g id="graph0" class="graph" transform="scale(1 1) rotate(0) translate(4 422.25)">
<title>lfilesystem_SpecialDirectories.h</title>
<!-- Node1 -->
<g id="Node000001" class="node">
<title>Node1</title>
<g id="a_Node000001"><a xlink:title="This file contains utility functions for finding some common directories.">
<polygon fill="#999999" stroke="#666666" points="156.25,-418.25 0,-418.25 0,-399 156.25,-399 156.25,-418.25"/>
<text text-anchor="middle" x="78.12" y="-404.75" font-family="Helvetica,sans-Serif" font-size="10.00">lfilesystem_SpecialDirectories.h</text>
</a>
</g>
</g>
<!-- Node2 -->
<g id="Node000002" class="node">
<title>Node2</title>
<g id="a_Node000002"><a xlink:title=" ">
<polygon fill="#e0e0e0" stroke="#999999" points="149.62,-224.38 106.62,-224.38 106.62,-205.12 149.62,-205.12 149.62,-224.38"/>
<text text-anchor="middle" x="128.12" y="-210.88" font-family="Helvetica,sans-Serif" font-size="10.00">vector</text>
</a>
</g>
</g>
<!-- Node1&#45;&gt;Node2 -->
<g id="edge1_Node000001_Node000002" class="edge">
<title>Node1&#45;&gt;Node2</title>
<g id="a_edge1_Node000001_Node000002"><a xlink:title=" ">
<path fill="none" stroke="#63b8ff" d="M80.47,-398.63C88.11,-369.29 112.44,-275.95 123.07,-235.15"/>
<polygon fill="#63b8ff" stroke="#63b8ff" points="126.71,-236.07 125.84,-225.51 119.93,-234.3 126.71,-236.07"/>
</a>
</g>
</g>
<!-- Node3 -->
<g id="Node000003" class="node">
<title>Node3</title>
<g id="a_Node000003"><a xlink:title=" ">
<polygon fill="#e0e0e0" stroke="#999999" points="383.88,-30.5 270.38,-30.5 270.38,0 383.88,0 383.88,-30.5"/>
<text text-anchor="start" x="278.38" y="-17" font-family="Helvetica,sans-Serif" font-size="10.00">lfilesystem/lfilesystem</text>
<text text-anchor="middle" x="327.12" y="-5.75" font-family="Helvetica,sans-Serif" font-size="10.00">_Export.h</text>
</a>
</g>
</g>
<!-- Node1&#45;&gt;Node3 -->
<g id="edge2_Node000001_Node000003" class="edge">
<title>Node1&#45;&gt;Node3</title>
<g id="a_edge2_Node000001_Node000003"><a xlink:title=" ">
<path fill="none" stroke="#63b8ff" d="M67.88,-398.71C47.13,-379.61 2.12,-332.39 2.12,-282.25 2.12,-282.25 2.12,-282.25 2.12,-147.25 2.12,-105.04 17.25,-90.28 52.12,-66.5 85.11,-44 189.32,-29.66 259.55,-22.29"/>
<polygon fill="#63b8ff" stroke="#63b8ff" points="259.49,-25.71 269.08,-21.21 258.78,-18.75 259.49,-25.71"/>
</a>
</g>
</g>
<!-- Node4 -->
<g id="Node000004" class="node">
<title>Node4</title>
<g id="a_Node000004"><a xlink:href="lfilesystem___directory_8h.html" target="_top" xlink:title="This file defines the Directory class.">
<polygon fill="white" stroke="#666666" points="680.88,-363 567.38,-363 567.38,-332.5 680.88,-332.5 680.88,-363"/>
<text text-anchor="start" x="575.38" y="-349.5" font-family="Helvetica,sans-Serif" font-size="10.00">lfilesystem/lfilesystem</text>
<text text-anchor="middle" x="624.12" y="-338.25" font-family="Helvetica,sans-Serif" font-size="10.00">_Directory.h</text>
</a>
</g>
</g>
<!-- Node1&#45;&gt;Node4 -->
<g id="edge3_Node000001_Node000004" class="edge">
<title>Node1&#45;&gt;Node4</title>
<g id="a_edge3_Node000001_Node000004"><a xlink:title=" ">
<path fill="none" stroke="#63b8ff" d="M156.64,-399.16C263.98,-387.58 454.76,-367.01 556.24,-356.07"/>
<polygon fill="#63b8ff" stroke="#63b8ff" points="556.4,-359.47 565.97,-354.91 555.65,-352.51 556.4,-359.47"/>
</a>
</g>
</g>
<!-- Node4&#45;&gt;Node2 -->
<g id="edge7_Node000004_Node000002" class="edge">
<title>Node4&#45;&gt;Node2</title>
<g id="a_edge7_Node000004_Node000002"><a xlink:title=" ">
<path fill="none" stroke="#63b8ff" d="M567.21,-337.01C478.07,-320.77 300.94,-284.44 158.12,-230 157.38,-229.72 156.62,-229.42 155.86,-229.11"/>
<polygon fill="#63b8ff" stroke="#63b8ff" points="157.57,-225.61 147.01,-224.81 154.77,-232.02 157.57,-225.61"/>
</a>
</g>
</g>
<!-- Node4&#45;&gt;Node3 -->
<g id="edge10_Node000004_Node000003" class="edge">
<title>Node4&#45;&gt;Node3</title>
<g id="a_edge10_Node000004_Node000003"><a xlink:title=" ">
<path fill="none" stroke="#63b8ff" d="M567.07,-345.98C420.12,-342.48 40.12,-323.04 40.12,-215.75 40.12,-215.75 40.12,-215.75 40.12,-147.25 40.12,-51.36 174.36,-25.36 259.22,-18.5"/>
<polygon fill="#63b8ff" stroke="#63b8ff" points="259.36,-21.92 269.08,-17.7 258.85,-14.94 259.36,-21.92"/>
</a>
</g>
</g>
<!-- Node5 -->
<g id="Node000005" class="node">
<title>Node5</title>
<g id="a_Node000005"><a xlink:title=" ">
<polygon fill="#e0e0e0" stroke="#999999" points="288.12,-91.38 230.12,-91.38 230.12,-72.12 288.12,-72.12 288.12,-91.38"/>
<text text-anchor="middle" x="259.12" y="-77.88" font-family="Helvetica,sans-Serif" font-size="10.00">functional</text>
</a>
</g>
</g>
<!-- Node4&#45;&gt;Node5 -->
<g id="edge4_Node000004_Node000005" class="edge">
<title>Node4&#45;&gt;Node5</title>
<g id="a_edge4_Node000004_Node000005"><a xlink:title=" ">
<path fill="none" stroke="#63b8ff" d="M567.09,-343.55C441.89,-335.12 149.96,-307.4 97.12,-230 56.7,-170.77 163.85,-118.87 223.01,-95.66"/>
<polygon fill="#63b8ff" stroke="#63b8ff" points="224.02,-98.64 232.11,-91.79 221.52,-92.1 224.02,-98.64"/>
</a>
</g>
</g>
<!-- Node6 -->
<g id="Node000006" class="node">
<title>Node6</title>
<g id="a_Node000006"><a xlink:title=" ">
<polygon fill="#e0e0e0" stroke="#999999" points="828.75,-91.38 783.5,-91.38 783.5,-72.12 828.75,-72.12 828.75,-91.38"/>
<text text-anchor="middle" x="806.12" y="-77.88" font-family="Helvetica,sans-Serif" font-size="10.00">cstdint</text>
</a>
</g>
</g>
<!-- Node4&#45;&gt;Node6 -->
<g id="edge5_Node000004_Node000006" class="edge">
<title>Node4&#45;&gt;Node6</title>
<g id="a_edge5_Node000004_Node000006"><a xlink:title=" ">
<path fill="none" stroke="#63b8ff" d="M681.13,-342.45C752.68,-336.06 870.28,-322 905.12,-296.5 942.11,-269.44 959.11,-241.22 940.12,-199.5 918.24,-151.4 865.65,-115.4 833.25,-96.84"/>
<polygon fill="#63b8ff" stroke="#63b8ff" points="835.33,-93.44 824.89,-91.65 831.94,-99.56 835.33,-93.44"/>
</a>
</g>
</g>
<!-- Node7 -->
<g id="Node000007" class="node">
<title>Node7</title>
<g id="a_Node000007"><a xlink:title=" ">
<polygon fill="#e0e0e0" stroke="#999999" points="856.12,-24.88 816.12,-24.88 816.12,-5.63 856.12,-5.63 856.12,-24.88"/>
<text text-anchor="middle" x="836.12" y="-11.38" font-family="Helvetica,sans-Serif" font-size="10.00">string</text>
</a>
</g>
</g>
<!-- Node4&#45;&gt;Node7 -->
<g id="edge6_Node000004_Node000007" class="edge">
<title>Node4&#45;&gt;Node7</title>
<g id="a_edge6_Node000004_Node000007"><a xlink:title=" ">
<path fill="none" stroke="#63b8ff" d="M681.13,-341.88C758.48,-334.53 891.98,-319.04 935.12,-296.5 979.35,-273.39 1013.12,-265.65 1013.12,-215.75 1013.12,-215.75 1013.12,-215.75 1013.12,-147.25 1013.12,-75.3 917.47,-38.34 866.8,-23.81"/>
<polygon fill="#63b8ff" stroke="#63b8ff" points="868,-20.24 857.43,-20.97 866.15,-26.99 868,-20.24"/>
</a>
</g>
</g>
<!-- Node8 -->
<g id="Node000008" class="node">
<title>Node8</title>
<g id="a_Node000008"><a xlink:title=" ">
<polygon fill="#e0e0e0" stroke="#999999" points="844.75,-224.38 793.5,-224.38 793.5,-205.12 844.75,-205.12 844.75,-224.38"/>
<text text-anchor="middle" x="819.12" y="-210.88" font-family="Helvetica,sans-Serif" font-size="10.00">memory</text>
</a>
</g>
</g>
<!-- Node4&#45;&gt;Node8 -->
<g id="edge8_Node000004_Node000008" class="edge">
<title>Node4&#45;&gt;Node8</title>
<g id="a_edge8_Node000004_Node000008"><a xlink:title=" ">
<path fill="none" stroke="#63b8ff" d="M645.74,-332.23C683.04,-307.17 759.11,-256.07 796.85,-230.71"/>
<polygon fill="#63b8ff" stroke="#63b8ff" points="798.23,-233.33 804.58,-224.85 794.32,-227.52 798.23,-233.33"/>
</a>
</g>
</g>
<!-- Node9 -->
<g id="Node000009" class="node">
<title>Node9</title>
<g id="a_Node000009"><a xlink:title=" ">
<polygon fill="#e0e0e0" stroke="#999999" points="909.12,-224.38 863.12,-224.38 863.12,-205.12 909.12,-205.12 909.12,-224.38"/>
<text text-anchor="middle" x="886.12" y="-210.88" font-family="Helvetica,sans-Serif" font-size="10.00">iterator</text>
</a>
</g>
</g>
<!-- Node4&#45;&gt;Node9 -->
<g id="edge9_Node000004_Node000009" class="edge">
<title>Node4&#45;&gt;Node9</title>
<g id="a_edge9_Node000004_Node000009"><a xlink:title=" ">
<path fill="none" stroke="#63b8ff" d="M658.24,-332.21C680.58,-322.49 710.32,-309.22 736.12,-296.5 780.5,-274.63 830.93,-246.87 860.55,-230.25"/>
<polygon fill="#63b8ff" stroke="#63b8ff" points="862.12,-232.82 869.12,-224.86 858.69,-226.72 862.12,-232.82"/>
</a>
</g>
</g>
<!-- Node10 -->
<g id="Node000010" class="node">
<title>Node10</title>
<g id="a_Node000010"><a xlink:href="lfilesystem___filesystem_entry_8h.html" target="_top" xlink:title="This file defines the FilesystemEntry class.">
<polygon fill="white" stroke="#666666" points="688.88,-163.5 575.38,-163.5 575.38,-133 688.88,-133 688.88,-163.5"/>
<text text-anchor="start" x="583.38" y="-150" font-family="Helvetica,sans-Serif" font-size="10.00">lfilesystem/lfilesystem</text>
<text text-anchor="middle" x="632.12" y="-138.75" font-family="Helvetica,sans-Serif" font-size="10.00">_FilesystemEntry.h</text>
</a>
</g>
</g>
<!-- Node4&#45;&gt;Node10 -->
<g id="edge11_Node000004_Node000010" class="edge">
<title>Node4&#45;&gt;Node10</title>
<g id="a_edge11_Node000004_Node000010"><a xlink:title=" ">
<path fill="none" stroke="#63b8ff" d="M681.24,-339.77C785.37,-324.83 989.06,-283.99 918.12,-199.5 890.82,-166.98 775.6,-155.5 700,-151.45"/>
<polygon fill="#63b8ff" stroke="#63b8ff" points="700.31,-147.91 690.14,-150.91 699.96,-154.9 700.31,-147.91"/>
</a>
</g>
</g>
<!-- Node16 -->
<g id="Node000016" class="node">
<title>Node16</title>
<g id="a_Node000016"><a xlink:href="lfilesystem___file_8h.html" target="_top" xlink:title="This file defines the File and TempFile classes.">
<polygon fill="white" stroke="#666666" points="680.88,-296.5 567.38,-296.5 567.38,-266 680.88,-266 680.88,-296.5"/>
<text text-anchor="start" x="575.38" y="-283" font-family="Helvetica,sans-Serif" font-size="10.00">lfilesystem/lfilesystem</text>
<text text-anchor="middle" x="624.12" y="-271.75" font-family="Helvetica,sans-Serif" font-size="10.00">_File.h</text>
</a>
</g>
</g>
<!-- Node4&#45;&gt;Node16 -->
<g id="edge25_Node000004_Node000016" class="edge">
<title>Node4&#45;&gt;Node16</title>
<g id="a_edge25_Node000004_Node000016"><a xlink:title=" ">
<path fill="none" stroke="#63b8ff" d="M624.12,-332.11C624.12,-324.86 624.12,-315.88 624.12,-307.56"/>
<polygon fill="#63b8ff" stroke="#63b8ff" points="627.63,-307.83 624.12,-297.83 620.63,-307.83 627.63,-307.83"/>
</a>
</g>
</g>
<!-- Node21 -->
<g id="Node000021" class="node">
<title>Node21</title>
<g id="a_Node000021"><a xlink:href="lfilesystem___sym_link_8h.html" target="_top" xlink:title="This file defines the files::SymLink class.">
<polygon fill="white" stroke="#666666" points="280.88,-230 167.38,-230 167.38,-199.5 280.88,-199.5 280.88,-230"/>
<text text-anchor="start" x="175.38" y="-216.5" font-family="Helvetica,sans-Serif" font-size="10.00">lfilesystem/lfilesystem</text>
<text text-anchor="middle" x="224.12" y="-205.25" font-family="Helvetica,sans-Serif" font-size="10.00">_SymLink.h</text>
</a>
</g>
</g>
<!-- Node4&#45;&gt;Node21 -->
<g id="edge41_Node000004_Node000021" class="edge">
<title>Node4&#45;&gt;Node21</title>
<g id="a_edge41_Node000004_Node000021"><a xlink:title=" ">
<path fill="none" stroke="#63b8ff" d="M579.4,-332.1C505.75,-307.98 359.15,-259.97 279.21,-233.79"/>
<polygon fill="#63b8ff" stroke="#63b8ff" points="280.46,-230.19 269.86,-230.4 278.28,-236.84 280.46,-230.19"/>
</a>
</g>
</g>
<!-- Node10&#45;&gt;Node3 -->
<g id="edge18_Node000010_Node000003" class="edge">
<title>Node10&#45;&gt;Node3</title>
<g id="a_edge18_Node000010_Node000003"><a xlink:title=" ">
<path fill="none" stroke="#63b8ff" d="M600.43,-132.57C564.6,-116.09 504.45,-88.74 452.12,-66.5 426.72,-55.7 398.17,-44.18 374.77,-34.89"/>
<polygon fill="#63b8ff" stroke="#63b8ff" points="376.34,-31.35 365.75,-30.93 373.76,-37.86 376.34,-31.35"/>
</a>
</g>
</g>
<!-- Node10&#45;&gt;Node5 -->
<g id="edge15_Node000010_Node000005" class="edge">
<title>Node10&#45;&gt;Node5</title>
<g id="a_edge15_Node000010_Node000005"><a xlink:title=" ">
<path fill="none" stroke="#63b8ff" d="M575.07,-137.38C498.71,-124.18 365.22,-101.1 298.88,-89.63"/>
<polygon fill="#63b8ff" stroke="#63b8ff" points="299.9,-86.08 289.45,-87.82 298.71,-92.97 299.9,-86.08"/>
</a>
</g>
</g>
<!-- Node10&#45;&gt;Node6 -->
<g id="edge12_Node000010_Node000006" class="edge">
<title>Node10&#45;&gt;Node6</title>
<g id="a_edge12_Node000010_Node000006"><a xlink:title=" ">
<path fill="none" stroke="#63b8ff" d="M671.61,-132.61C702.24,-121.26 744.2,-105.7 773.08,-95"/>
<polygon fill="#63b8ff" stroke="#63b8ff" points="773.91,-98.05 782.07,-91.29 771.48,-91.49 773.91,-98.05"/>
</a>
</g>
</g>
<!-- Node10&#45;&gt;Node7 -->
<g id="edge14_Node000010_Node000007" class="edge">
<title>Node10&#45;&gt;Node7</title>
<g id="a_edge14_Node000010_Node000007"><a xlink:title=" ">
<path fill="none" stroke="#63b8ff" d="M654.74,-132.73C693.75,-107.67 773.33,-56.57 812.83,-31.21"/>
<polygon fill="#63b8ff" stroke="#63b8ff" points="814.43,-33.7 820.95,-25.35 810.65,-27.81 814.43,-33.7"/>
</a>
</g>
</g>
<!-- Node11 -->
<g id="Node000011" class="node">
<title>Node11</title>
<g id="a_Node000011"><a xlink:title=" ">
<polygon fill="#e0e0e0" stroke="#999999" points="649.62,-24.88 588.62,-24.88 588.62,-5.63 649.62,-5.63 649.62,-24.88"/>
<text text-anchor="middle" x="619.12" y="-11.38" font-family="Helvetica,sans-Serif" font-size="10.00">filesystem</text>
</a>
</g>
</g>
<!-- Node10&#45;&gt;Node11 -->
<g id="edge13_Node000010_Node000011" class="edge">
<title>Node10&#45;&gt;Node11</title>
<g id="a_edge13_Node000010_Node000011"><a xlink:title=" ">
<path fill="none" stroke="#63b8ff" d="M602.19,-132.67C588.53,-124.29 573.73,-112.36 566.12,-97 560.11,-84.85 560.77,-78.95 566.12,-66.5 572.21,-52.34 584.46,-40.31 595.65,-31.56"/>
<polygon fill="#63b8ff" stroke="#63b8ff" points="597.25,-34 603.26,-25.28 593.12,-28.35 597.25,-34"/>
</a>
</g>
</g>
<!-- Node12 -->
<g id="Node000012" class="node">
<title>Node12</title>
<g id="a_Node000012"><a xlink:title=" ">
<polygon fill="#e0e0e0" stroke="#999999" points="443,-91.38 393.25,-91.38 393.25,-72.12 443,-72.12 443,-91.38"/>
<text text-anchor="middle" x="418.12" y="-77.88" font-family="Helvetica,sans-Serif" font-size="10.00">optional</text>
</a>
</g>
</g>
<!-- Node10&#45;&gt;Node12 -->
<g id="edge16_Node000010_Node000012" class="edge">
<title>Node10&#45;&gt;Node12</title>
<g id="a_edge16_Node000010_Node000012"><a xlink:title=" ">
<path fill="none" stroke="#63b8ff" d="M577.04,-132.51C542.43,-122.98 496.95,-109.97 457.12,-97 455.43,-96.45 453.7,-95.87 451.95,-95.27"/>
<polygon fill="#63b8ff" stroke="#63b8ff" points="453.55,-91.78 442.96,-91.76 451.23,-98.38 453.55,-91.78"/>
</a>
</g>
</g>
<!-- Node13 -->
<g id="Node000013" class="node">
<title>Node13</title>
<g id="a_Node000013"><a xlink:title=" ">
<polygon fill="#e0e0e0" stroke="#999999" points="546.75,-24.88 495.5,-24.88 495.5,-5.63 546.75,-5.63 546.75,-24.88"/>
<text text-anchor="middle" x="521.12" y="-11.38" font-family="Helvetica,sans-Serif" font-size="10.00">ostream</text>
</a>
</g>
</g>
<!-- Node10&#45;&gt;Node13 -->
<g id="edge17_Node000010_Node000013" class="edge">
<title>Node10&#45;&gt;Node13</title>
<g id="a_edge17_Node000010_Node000013"><a xlink:title=" ">
<path fill="none" stroke="#63b8ff" d="M603.31,-132.68C588.31,-123.95 570.56,-111.7 558.12,-97 542.61,-78.65 532.27,-52.71 526.56,-35.23"/>
<polygon fill="#63b8ff" stroke="#63b8ff" points="529.74,-34.66 523.46,-26.12 523.04,-36.71 529.74,-34.66"/>
</a>
</g>
</g>
<!-- Node14 -->
<g id="Node000014" class="node">
<title>Node14</title>
<g id="a_Node000014"><a xlink:href="lfilesystem___permissions_8h.html" target="_top" xlink:title="This file defines the Permissions class.">
<polygon fill="white" stroke="#666666" points="688.88,-97 575.38,-97 575.38,-66.5 688.88,-66.5 688.88,-97"/>
<text text-anchor="start" x="583.38" y="-83.5" font-family="Helvetica,sans-Serif" font-size="10.00">lfilesystem/lfilesystem</text>
<text text-anchor="middle" x="632.12" y="-72.25" font-family="Helvetica,sans-Serif" font-size="10.00">_Permissions.h</text>
</a>
</g>
</g>
<!-- Node10&#45;&gt;Node14 -->
<g id="edge19_Node000010_Node000014" class="edge">
<title>Node10&#45;&gt;Node14</title>
<g id="a_edge19_Node000010_Node000014"><a xlink:title=" ">
<path fill="none" stroke="#63b8ff" d="M632.12,-132.61C632.12,-125.36 632.12,-116.38 632.12,-108.06"/>
<polygon fill="#63b8ff" stroke="#63b8ff" points="635.63,-108.33 632.12,-98.33 628.63,-108.33 635.63,-108.33"/>
</a>
</g>
</g>
<!-- Node14&#45;&gt;Node3 -->
<g id="edge24_Node000014_Node000003" class="edge">
<title>Node14&#45;&gt;Node3</title>
<g id="a_edge24_Node000014_Node000003"><a xlink:title=" ">
<path fill="none" stroke="#63b8ff" d="M575.11,-68.69C524.04,-57.89 449.04,-42.03 394.91,-30.58"/>
<polygon fill="#63b8ff" stroke="#63b8ff" points="395.88,-27 385.37,-28.36 394.43,-33.85 395.88,-27"/>
</a>
</g>
</g>
<!-- Node14&#45;&gt;Node7 -->
<g id="edge21_Node000014_Node000007" class="edge">
<title>Node14&#45;&gt;Node7</title>
<g id="a_edge21_Node000014_Node000007"><a xlink:title=" ">
<path fill="none" stroke="#63b8ff" d="M678.67,-66.03C717.61,-53.72 772.05,-36.51 805.65,-25.89"/>
<polygon fill="#63b8ff" stroke="#63b8ff" points="806.3,-29.04 814.78,-22.68 804.19,-22.36 806.3,-29.04"/>
</a>
</g>
</g>
<!-- Node14&#45;&gt;Node11 -->
<g id="edge20_Node000014_Node000011" class="edge">
<title>Node14&#45;&gt;Node11</title>
<g id="a_edge20_Node000014_Node000011"><a xlink:title=" ">
<path fill="none" stroke="#63b8ff" d="M629.18,-66.11C627.36,-57.13 625.02,-45.51 623.06,-35.76"/>
<polygon fill="#63b8ff" stroke="#63b8ff" points="626.31,-35.18 620.9,-26.07 619.45,-36.57 626.31,-35.18"/>
</a>
</g>
</g>
<!-- Node14&#45;&gt;Node13 -->
<g id="edge23_Node000014_Node000013" class="edge">
<title>Node14&#45;&gt;Node13</title>
<g id="a_edge23_Node000014_Node000013"><a xlink:title=" ">
<path fill="none" stroke="#63b8ff" d="M606.94,-66.11C588.7,-55.51 564.15,-41.25 545.99,-30.7"/>
<polygon fill="#63b8ff" stroke="#63b8ff" points="548.03,-27.26 537.63,-25.26 544.52,-33.31 548.03,-27.26"/>
</a>
</g>
</g>
<!-- Node15 -->
<g id="Node000015" class="node">
<title>Node15</title>
<g id="a_Node000015"><a xlink:title=" ">
<polygon fill="#e0e0e0" stroke="#999999" points="765.88,-24.88 700.38,-24.88 700.38,-5.63 765.88,-5.63 765.88,-24.88"/>
<text text-anchor="middle" x="733.12" y="-11.38" font-family="Helvetica,sans-Serif" font-size="10.00">string_view</text>
</a>
</g>
</g>
<!-- Node14&#45;&gt;Node15 -->
<g id="edge22_Node000014_Node000015" class="edge">
<title>Node14&#45;&gt;Node15</title>
<g id="a_edge22_Node000014_Node000015"><a xlink:title=" ">
<path fill="none" stroke="#63b8ff" d="M655.04,-66.11C671.49,-55.61 693.56,-41.52 710.04,-30.99"/>
<polygon fill="#63b8ff" stroke="#63b8ff" points="711.47,-33.59 718.02,-25.26 707.7,-27.69 711.47,-33.59"/>
</a>
</g>
</g>
<!-- Node16&#45;&gt;Node2 -->
<g id="edge29_Node000016_Node000002" class="edge">
<title>Node16&#45;&gt;Node2</title>
<g id="a_edge29_Node000016_Node000002"><a xlink:title=" ">
<path fill="none" stroke="#63b8ff" d="M567.01,-280.2C477.98,-278.77 301.42,-270.5 158.12,-230 156.99,-229.68 155.84,-229.32 154.69,-228.92"/>
<polygon fill="#63b8ff" stroke="#63b8ff" points="156.14,-225.32 145.56,-224.77 153.48,-231.8 156.14,-225.32"/>
</a>
</g>
</g>
<!-- Node16&#45;&gt;Node3 -->
<g id="edge35_Node000016_Node000003" class="edge">
<title>Node16&#45;&gt;Node3</title>
<g id="a_edge35_Node000016_Node000003"><a xlink:title=" ">
<path fill="none" stroke="#63b8ff" d="M567.05,-276.51C499.76,-270.89 393.59,-257.79 366.12,-230 315.86,-179.14 318.65,-86.4 323.49,-41.69"/>
<polygon fill="#63b8ff" stroke="#63b8ff" points="327.06,-42.27 324.79,-31.92 320.11,-41.42 327.06,-42.27"/>
</a>
</g>
</g>
<!-- Node16&#45;&gt;Node5 -->
<g id="edge30_Node000016_Node000005" class="edge">
<title>Node16&#45;&gt;Node5</title>
<g id="a_edge30_Node000016_Node000005"><a xlink:title=" ">
<path fill="none" stroke="#63b8ff" d="M566.93,-276.44C492.97,-270.51 369.31,-256.83 333.12,-230 290.33,-198.27 270.64,-134.79 263.08,-102.54"/>
<polygon fill="#63b8ff" stroke="#63b8ff" points="266.3,-101.87 260.76,-92.84 259.46,-103.35 266.3,-101.87"/>
</a>
</g>
</g>
<!-- Node16&#45;&gt;Node7 -->
<g id="edge27_Node000016_Node000007" class="edge">
<title>Node16&#45;&gt;Node7</title>
<g id="a_edge27_Node000016_Node000007"><a xlink:title=" ">
<path fill="none" stroke="#63b8ff" d="M655.09,-265.67C705.42,-239.95 802.9,-181.15 838.12,-97 846.32,-77.43 844.13,-52.79 840.97,-35.91"/>
<polygon fill="#63b8ff" stroke="#63b8ff" points="844.18,-35.19 838.63,-26.17 837.34,-36.68 844.18,-35.19"/>
</a>
</g>
</g>
<!-- Node16&#45;&gt;Node8 -->
<g id="edge33_Node000016_Node000008" class="edge">
<title>Node16&#45;&gt;Node8</title>
<g id="a_edge33_Node000016_Node000008"><a xlink:title=" ">
<path fill="none" stroke="#63b8ff" d="M670.7,-265.54C701.54,-255.7 742.84,-242.34 779.12,-230 780.8,-229.43 782.52,-228.84 784.25,-228.24"/>
<polygon fill="#63b8ff" stroke="#63b8ff" points="784.92,-231.36 793.2,-224.75 782.6,-224.76 784.92,-231.36"/>
</a>
</g>
</g>
<!-- Node16&#45;&gt;Node9 -->
<g id="edge34_Node000016_Node000009" class="edge">
<title>Node16&#45;&gt;Node9</title>
<g id="a_edge34_Node000016_Node000009"><a xlink:title=" ">
<path fill="none" stroke="#63b8ff" d="M681.23,-271.12C728.3,-262.8 796.45,-248.92 854.12,-230 855.22,-229.64 856.33,-229.25 857.45,-228.85"/>
<polygon fill="#63b8ff" stroke="#63b8ff" points="858.45,-231.82 866.42,-224.84 855.84,-225.32 858.45,-231.82"/>
</a>
</g>
</g>
<!-- Node16&#45;&gt;Node10 -->
<g id="edge36_Node000016_Node000010" class="edge">
<title>Node16&#45;&gt;Node10</title>
<g id="a_edge36_Node000016_Node000010"><a xlink:title=" ">
<path fill="none" stroke="#63b8ff" d="M640.58,-265.73C649.72,-256.53 660.21,-243.79 665.12,-230 669.67,-217.23 669.01,-212.49 665.12,-199.5 662.29,-190.01 657.02,-180.66 651.52,-172.64"/>
<polygon fill="#63b8ff" stroke="#63b8ff" points="653.83,-170.87 645.07,-164.91 648.2,-175.03 653.83,-170.87"/>
</a>
</g>
</g>
<!-- Node16&#45;&gt;Node12 -->
<g id="edge31_Node000016_Node000012" class="edge">
<title>Node16&#45;&gt;Node12</title>
<g id="a_edge31_Node000016_Node000012"><a xlink:title=" ">
<path fill="none" stroke="#63b8ff" d="M630.2,-265.7C636.31,-248.6 643.24,-219.96 631.12,-199.5 630.79,-198.93 500.98,-128 444.2,-96.99"/>
<polygon fill="#63b8ff" stroke="#63b8ff" points="446.26,-93.58 435.81,-91.86 442.91,-99.72 446.26,-93.58"/>
</a>
</g>
</g>
<!-- Node16&#45;&gt;Node15 -->
<g id="edge28_Node000016_Node000015" class="edge">
<title>Node16&#45;&gt;Node15</title>
<g id="a_edge28_Node000016_Node000015"><a xlink:title=" ">
<path fill="none" stroke="#63b8ff" d="M646.58,-265.5C658.5,-256.57 672.45,-244.18 681.12,-230 720.07,-166.37 729.86,-75.4 732.31,-35.86"/>
<polygon fill="#63b8ff" stroke="#63b8ff" points="735.84,-36.29 732.87,-26.12 728.85,-35.93 735.84,-36.29"/>
</a>
</g>
</g>
<!-- Node17 -->
<g id="Node000017" class="node">
<title>Node17</title>
<g id="a_Node000017"><a xlink:title=" ">
<polygon fill="#e0e0e0" stroke="#999999" points="555.25,-224.38 507,-224.38 507,-205.12 555.25,-205.12 555.25,-224.38"/>
<text text-anchor="middle" x="531.12" y="-210.88" font-family="Helvetica,sans-Serif" font-size="10.00">cstddef</text>
</a>
</g>
</g>
<!-- Node16&#45;&gt;Node17 -->
<g id="edge26_Node000016_Node000017" class="edge">
<title>Node16&#45;&gt;Node17</title>
<g id="a_edge26_Node000016_Node000017"><a xlink:title=" ">
<path fill="none" stroke="#63b8ff" d="M603.02,-265.61C588.02,-255.21 567.93,-241.28 552.81,-230.79"/>
<polygon fill="#63b8ff" stroke="#63b8ff" points="555.33,-227.58 545.12,-224.76 551.34,-233.33 555.33,-227.58"/>
</a>
</g>
</g>
<!-- Node18 -->
<g id="Node000018" class="node">
<title>Node18</title>
<g id="a_Node000018"><a xlink:title=" ">
<polygon fill="#e0e0e0" stroke="#999999" points="622.62,-224.38 573.62,-224.38 573.62,-205.12 622.62,-205.12 622.62,-224.38"/>
<text text-anchor="middle" x="598.12" y="-210.88" font-family="Helvetica,sans-Serif" font-size="10.00">fstream</text>
</a>
</g>
</g>
<!-- Node16&#45;&gt;Node18 -->
<g id="edge32_Node000016_Node000018" class="edge">
<title>Node16&#45;&gt;Node18</title>
<g id="a_edge32_Node000016_Node000018"><a xlink:title=" ">
<path fill="none" stroke="#63b8ff" d="M618.23,-265.61C614.52,-256.43 609.72,-244.5 605.73,-234.61"/>
<polygon fill="#63b8ff" stroke="#63b8ff" points="608.67,-233.54 601.68,-225.57 602.17,-236.16 608.67,-233.54"/>
</a>
</g>
</g>
<!-- Node19 -->
<g id="Node000019" class="node">
<title>Node19</title>
<g id="a_Node000019"><a xlink:href="lfilesystem___c_file_8h.html" target="_top" xlink:title="This file defines the CFile class.">
<polygon fill="white" stroke="#666666" points="488.88,-230 375.38,-230 375.38,-199.5 488.88,-199.5 488.88,-230"/>
<text text-anchor="start" x="383.38" y="-216.5" font-family="Helvetica,sans-Serif" font-size="10.00">lfilesystem/lfilesystem</text>
<text text-anchor="middle" x="432.12" y="-205.25" font-family="Helvetica,sans-Serif" font-size="10.00">_CFile.h</text>
</a>
</g>
</g>
<!-- Node16&#45;&gt;Node19 -->
<g id="edge37_Node000016_Node000019" class="edge">
<title>Node16&#45;&gt;Node19</title>
<g id="a_edge37_Node000016_Node000019"><a xlink:title=" ">
<path fill="none" stroke="#63b8ff" d="M580.56,-265.61C552.55,-256.2 515.95,-243.91 486.1,-233.88"/>
<polygon fill="#63b8ff" stroke="#63b8ff" points="487.45,-230.31 476.85,-230.44 485.22,-236.94 487.45,-230.31"/>
</a>
</g>
</g>
<!-- Node19&#45;&gt;Node3 -->
<g id="edge39_Node000019_Node000003" class="edge">
<title>Node19&#45;&gt;Node3</title>
<g id="a_edge39_Node000019_Node000003"><a xlink:title=" ">
<path fill="none" stroke="#63b8ff" d="M424.4,-199.23C406.5,-165.56 362.02,-81.88 339.95,-40.38"/>
<polygon fill="#63b8ff" stroke="#63b8ff" points="342.64,-38.98 334.86,-31.79 336.46,-42.27 342.64,-38.98"/>
</a>
</g>
</g>
<!-- Node19&#45;&gt;Node10 -->
<g id="edge40_Node000019_Node000010" class="edge">
<title>Node19&#45;&gt;Node10</title>
<g id="a_edge40_Node000019_Node000010"><a xlink:title=" ">
<path fill="none" stroke="#63b8ff" d="M477.76,-199.03C507.07,-189.58 545.34,-177.24 576.44,-167.21"/>
<polygon fill="#63b8ff" stroke="#63b8ff" points="577.24,-170.3 585.69,-163.9 575.1,-163.64 577.24,-170.3"/>
</a>
</g>
</g>
<!-- Node20 -->
<g id="Node000020" class="node">
<title>Node20</title>
<g id="a_Node000020"><a xlink:title=" ">
<polygon fill="#e0e0e0" stroke="#999999" points="473.25,-157.88 431,-157.88 431,-138.62 473.25,-138.62 473.25,-157.88"/>
<text text-anchor="middle" x="452.12" y="-144.38" font-family="Helvetica,sans-Serif" font-size="10.00">cstdio</text>
</a>
</g>
</g>
<!-- Node19&#45;&gt;Node20 -->
<g id="edge38_Node000019_Node000020" class="edge">
<title>Node19&#45;&gt;Node20</title>
<g id="a_edge38_Node000019_Node000020"><a xlink:title=" ">
<path fill="none" stroke="#63b8ff" d="M436.66,-199.11C439.48,-190.03 443.13,-178.26 446.18,-168.43"/>
<polygon fill="#63b8ff" stroke="#63b8ff" points="449.77,-169.66 449.39,-159.07 443.08,-167.59 449.77,-169.66"/>
</a>
</g>
</g>
<!-- Node21&#45;&gt;Node3 -->
<g id="edge44_Node000021_Node000003" class="edge">
<title>Node21&#45;&gt;Node3</title>
<g id="a_edge44_Node000021_Node000003"><a xlink:title=" ">
<path fill="none" stroke="#63b8ff" d="M219.02,-199.4C210,-171.37 194.61,-108.42 221.12,-66.5 230.28,-52.03 244.85,-41.65 260.29,-34.23"/>
<polygon fill="#63b8ff" stroke="#63b8ff" points="261.22,-37.2 268.98,-29.98 258.41,-30.79 261.22,-37.2"/>
</a>
</g>
</g>
<!-- Node21&#45;&gt;Node5 -->
<g id="edge42_Node000021_Node000005" class="edge">
<title>Node21&#45;&gt;Node5</title>
<g id="a_edge42_Node000021_Node000005"><a xlink:title=" ">
<path fill="none" stroke="#63b8ff" d="M228,-199.23C234.33,-175.55 246.87,-128.62 253.95,-102.13"/>
<polygon fill="#63b8ff" stroke="#63b8ff" points="257.49,-103.42 256.69,-92.85 250.73,-101.61 257.49,-103.42"/>
</a>
</g>
</g>
<!-- Node21&#45;&gt;Node10 -->
<g id="edge45_Node000021_Node000010" class="edge">
<title>Node21&#45;&gt;Node10</title>
<g id="a_edge45_Node000021_Node000010"><a xlink:title=" ">
<path fill="none" stroke="#63b8ff" d="M281.29,-204.71C355.54,-192.98 485.01,-172.51 564.19,-159.99"/>
<polygon fill="#63b8ff" stroke="#63b8ff" points="564.69,-163.3 574.02,-158.28 563.6,-156.38 564.69,-163.3"/>
</a>
</g>
</g>
<!-- Node21&#45;&gt;Node12 -->
<g id="edge43_Node000021_Node000012" class="edge">
<title>Node21&#45;&gt;Node12</title>
<g id="a_edge43_Node000021_Node000012"><a xlink:title=" ">
<path fill="none" stroke="#63b8ff" d="M245.63,-199.23C282.73,-174.17 358.41,-123.07 395.97,-97.71"/>
<polygon fill="#63b8ff" stroke="#63b8ff" points="397.32,-100.35 403.65,-91.85 393.4,-94.55 397.32,-100.35"/>
</a>
</g>
</g>
</g>
</svg>
