<?xml version="1.0" encoding="UTF-8" standalone="no"?>
<!DOCTYPE svg PUBLIC "-//W3C//DTD SVG 1.1//EN"
 "http://www.w3.org/Graphics/SVG/1.1/DTD/svg11.dtd">
<!-- Generated by graphviz version 2.43.0 (0)
 -->
<!-- Title: lfilesystem_FilesystemEntry.h Pages: 1 -->
<!--zoomable 420 -->
<svg id="main" version="1.1" xmlns="http://www.w3.org/2000/svg" xmlns:xlink="http://www.w3.org/1999/xlink" xml:space="preserve" onload="init(evt)">
<style type="text/css"><![CDATA[
.edge:hover path { stroke: red; }
.edge:hover polygon { stroke: red; fill: red; }
]]></style>
<script type="text/javascript"><![CDATA[
var edges = document.getElementsByTagName('g');
if (edges && edges.length) {
  for (var i=0;i<edges.length;i++) {
    if (edges[i].id.substr(0,4)=='edge') {
      edges[i].setAttribute('class','edge');
    }
  }
}
]]></script>
        <defs>
                <circle id="rim" cx="0" cy="0" r="7"/>
                <circle id="rim2" cx="0" cy="0" r="3.5"/>
                <g id="zoomPlus">
                        <use xlink:href="#rim" fill="#404040">
                                <set attributeName="fill" to="#808080" begin="zoomplus.mouseover" end="zoomplus.mouseout"/>
                        </use>
                        <path d="M-4,0h8M0,-4v8" fill="none" stroke="white" stroke-width="1.5" pointer-events="none"/>
                </g>
                <g id="zoomMin">
                        <use xlink:href="#rim" fill="#404040">
                                <set attributeName="fill" to="#808080" begin="zoomminus.mouseover" end="zoomminus.mouseout"/>
                        </use>
                        <path d="M-4,0h8" fill="none" stroke="white" stroke-width="1.5" pointer-events="none"/>
                </g>
                <g id="dirArrow">
                        <path fill="none" stroke="white" stroke-width="1.5" d="M0,-3.0v7 M-2.5,-0.5L0,-3.0L2.5,-0.5"/>
                </g>
               <g id="resetDef">
                       <use xlink:href="#rim2" fill="#404040">
                               <set attributeName="fill" to="#808080" begin="reset.mouseover" end="reset.mouseout"/>
                       </use>
               </g>
        </defs>

<script type="text/javascript">
var viewWidth = 742;
var viewHeight = 420;
var sectionId = 'dynsection-1';
</script>
<script xlink:href="svgpan.js"/>
<svg id="graph" class="graph">
<g id="viewport">
<title>lfilesystem_FilesystemEntry.h</title>
<polygon fill="white" stroke="transparent" points="-4,4 -4,-416 738,-416 738,4 -4,4"/>
<!-- Node1 -->
<g id="node1" class="node">
<title>Node1</title>
<g id="a_node1"><a xlink:title="This file defines the FilesystemEntry class.">
<polygon fill="#bfbfbf" stroke="black" points="117,-392.5 117,-411.5 279,-411.5 279,-392.5 117,-392.5"/>
<text text-anchor="middle" x="198" y="-399.5" font-family="Helvetica,sans-Serif" font-size="10.00">lfilesystem_FilesystemEntry.h</text>
</a>
</g>
</g>
<!-- Node2 -->
<g id="node2" class="node">
<title>Node2</title>
<g id="a_node2"><a xlink:href="lfilesystem_8h.html" target="_top" xlink:title="The main header for the limes_files library.">
<polygon fill="white" stroke="black" points="207,-56.5 207,-75.5 287,-75.5 287,-56.5 207,-56.5"/>
<text text-anchor="middle" x="247" y="-63.5" font-family="Helvetica,sans-Serif" font-size="10.00">lfilesystem.h</text>
</a>
</g>
</g>
<!-- Node1&#45;&gt;Node2 -->
<g id="edge1" class="edge">
<title>Node1&#45;&gt;Node2</title>
<path fill="none" stroke="midnightblue" d="M106.82,-390.71C80.47,-384.14 53.15,-373.42 32,-356 7.15,-335.53 0,-323.2 0,-291 0,-291 0,-291 0,-177 0,-87.58 136.78,-70.33 206.77,-67.36"/>
<polygon fill="midnightblue" stroke="midnightblue" points="106.32,-394.19 116.86,-393.04 107.9,-387.37 106.32,-394.19"/>
</g>
<!-- Node5 -->
<g id="node5" class="node">
<title>Node5</title>
<g id="a_node5"><a xlink:href="lfilesystem__CFile_8h.html" target="_top" xlink:title="This file defines the CFile class.">
<polygon fill="white" stroke="black" points="41.5,-336.5 41.5,-355.5 150.5,-355.5 150.5,-336.5 41.5,-336.5"/>
<text text-anchor="middle" x="96" y="-343.5" font-family="Helvetica,sans-Serif" font-size="10.00">lfilesystem_CFile.h</text>
</a>
</g>
</g>
<!-- Node1&#45;&gt;Node5 -->
<g id="edge4" class="edge">
<title>Node1&#45;&gt;Node5</title>
<path fill="none" stroke="midnightblue" d="M172.67,-387.59C153.81,-377.61 128.62,-364.27 112.35,-355.65"/>
<polygon fill="midnightblue" stroke="midnightblue" points="171.14,-390.74 181.61,-392.32 174.41,-384.55 171.14,-390.74"/>
</g>
<!-- Node6 -->
<g id="node6" class="node">
<title>Node6</title>
<g id="a_node6"><a xlink:href="lfilesystem__File_8h.html" target="_top" xlink:title="This file defines the File and TempFile classes.">
<polygon fill="white" stroke="black" points="87,-280.5 87,-299.5 189,-299.5 189,-280.5 87,-280.5"/>
<text text-anchor="middle" x="138" y="-287.5" font-family="Helvetica,sans-Serif" font-size="10.00">lfilesystem_File.h</text>
</a>
</g>
</g>
<!-- Node1&#45;&gt;Node6 -->
<g id="edge17" class="edge">
<title>Node1&#45;&gt;Node6</title>
<path fill="none" stroke="midnightblue" d="M188.36,-383.32C175.29,-359.37 152.48,-317.55 142.69,-299.59"/>
<polygon fill="midnightblue" stroke="midnightblue" points="185.43,-385.27 193.29,-392.37 191.58,-381.91 185.43,-385.27"/>
</g>
<!-- Node7 -->
<g id="node7" class="node">
<title>Node7</title>
<g id="a_node7"><a xlink:href="lfilesystem__Directory_8h.html" target="_top" xlink:title="This file defines the Directory class.">
<polygon fill="white" stroke="black" points="153,-224.5 153,-243.5 281,-243.5 281,-224.5 153,-224.5"/>
<text text-anchor="middle" x="217" y="-231.5" font-family="Helvetica,sans-Serif" font-size="10.00">lfilesystem_Directory.h</text>
</a>
</g>
</g>
<!-- Node1&#45;&gt;Node7 -->
<g id="edge16" class="edge">
<title>Node1&#45;&gt;Node7</title>
<path fill="none" stroke="midnightblue" d="M200.18,-381.93C204.3,-345.92 213.08,-269.23 216.02,-243.57"/>
<polygon fill="midnightblue" stroke="midnightblue" points="196.68,-381.74 199.02,-392.08 203.64,-382.54 196.68,-381.74"/>
</g>
<!-- Node11 -->
<g id="node11" class="node">
<title>Node11</title>
<g id="a_node11"><a xlink:href="lfilesystem__FileWatcher_8h.html" target="_top" xlink:title="This file defines the files::FileWatcher class.">
<polygon fill="white" stroke="black" points="538.5,-168.5 538.5,-187.5 679.5,-187.5 679.5,-168.5 538.5,-168.5"/>
<text text-anchor="middle" x="609" y="-175.5" font-family="Helvetica,sans-Serif" font-size="10.00">lfilesystem_FileWatcher.h</text>
</a>
</g>
</g>
<!-- Node1&#45;&gt;Node11 -->
<g id="edge18" class="edge">
<title>Node1&#45;&gt;Node11</title>
<path fill="none" stroke="midnightblue" d="M222.8,-387.61C299.26,-346.31 529.98,-221.68 592.97,-187.66"/>
<polygon fill="midnightblue" stroke="midnightblue" points="220.99,-384.6 213.86,-392.43 224.32,-390.76 220.99,-384.6"/>
</g>
<!-- Node13 -->
<g id="node13" class="node">
<title>Node13</title>
<g id="a_node13"><a xlink:href="lfilesystem__SymLink_8h.html" target="_top" xlink:title="This file defines the files::SymLink class.">
<polygon fill="white" stroke="black" points="245.5,-280.5 245.5,-299.5 372.5,-299.5 372.5,-280.5 245.5,-280.5"/>
<text text-anchor="middle" x="309" y="-287.5" font-family="Helvetica,sans-Serif" font-size="10.00">lfilesystem_SymLink.h</text>
</a>
</g>
</g>
<!-- Node1&#45;&gt;Node13 -->
<g id="edge23" class="edge">
<title>Node1&#45;&gt;Node13</title>
<path fill="none" stroke="midnightblue" d="M213.94,-385.21C237.73,-361.63 281.72,-318.03 300.33,-299.59"/>
<polygon fill="midnightblue" stroke="midnightblue" points="211.35,-382.84 206.71,-392.37 216.28,-387.82 211.35,-382.84"/>
</g>
<!-- Node3 -->
<g id="node3" class="node">
<title>Node3</title>
<g id="a_node3"><a xlink:href="files__dir__enumerate_8cpp_source.html" target="_top" xlink:title=" ">
<polygon fill="white" stroke="black" points="111,-0.5 111,-19.5 245,-19.5 245,-0.5 111,-0.5"/>
<text text-anchor="middle" x="178" y="-7.5" font-family="Helvetica,sans-Serif" font-size="10.00">files_dir_enumerate.cpp</text>
</a>
</g>
</g>
<!-- Node2&#45;&gt;Node3 -->
<g id="edge2" class="edge">
<title>Node2&#45;&gt;Node3</title>
<path fill="none" stroke="midnightblue" d="M227.96,-50.1C215.54,-40.38 199.76,-28.03 189.29,-19.83"/>
<polygon fill="midnightblue" stroke="midnightblue" points="225.88,-52.92 235.91,-56.32 230.2,-47.4 225.88,-52.92"/>
</g>
<!-- Node4 -->
<g id="node4" class="node">
<title>Node4</title>
<g id="a_node4"><a xlink:href="files__dir__listen_8cpp_source.html" target="_top" xlink:title=" ">
<polygon fill="white" stroke="black" points="263.5,-0.5 263.5,-19.5 370.5,-19.5 370.5,-0.5 263.5,-0.5"/>
<text text-anchor="middle" x="317" y="-7.5" font-family="Helvetica,sans-Serif" font-size="10.00">files_dir_listen.cpp</text>
</a>
</g>
</g>
<!-- Node2&#45;&gt;Node4 -->
<g id="edge3" class="edge">
<title>Node2&#45;&gt;Node4</title>
<path fill="none" stroke="midnightblue" d="M266.31,-50.1C278.91,-40.38 294.93,-28.03 305.55,-19.83"/>
<polygon fill="midnightblue" stroke="midnightblue" points="264.03,-47.44 258.25,-56.32 268.3,-52.99 264.03,-47.44"/>
</g>
<!-- Node5&#45;&gt;Node2 -->
<g id="edge5" class="edge">
<title>Node5&#45;&gt;Node2</title>
<path fill="none" stroke="midnightblue" d="M80.95,-328.75C63.77,-308.43 38,-271.84 38,-235 38,-235 38,-235 38,-177 38,-101.55 145.97,-77.74 206.7,-70.31"/>
<polygon fill="midnightblue" stroke="midnightblue" points="78.46,-331.21 87.69,-336.41 83.71,-326.59 78.46,-331.21"/>
</g>
<!-- Node5&#45;&gt;Node6 -->
<g id="edge6" class="edge">
<title>Node5&#45;&gt;Node6</title>
<path fill="none" stroke="midnightblue" d="M109.11,-328.14C116.43,-318.74 125.24,-307.4 131.19,-299.75"/>
<polygon fill="midnightblue" stroke="midnightblue" points="106.31,-326.04 102.94,-336.08 111.84,-330.34 106.31,-326.04"/>
</g>
<!-- Node6&#45;&gt;Node2 -->
<g id="edge7" class="edge">
<title>Node6&#45;&gt;Node2</title>
<path fill="none" stroke="midnightblue" d="M128.86,-270.98C112.84,-236.58 84.51,-160.68 119,-112 138.74,-84.13 177.19,-73.39 206.81,-69.32"/>
<polygon fill="midnightblue" stroke="midnightblue" points="125.84,-272.77 133.35,-280.24 132.14,-269.72 125.84,-272.77"/>
</g>
<!-- Node6&#45;&gt;Node7 -->
<g id="edge8" class="edge">
<title>Node6&#45;&gt;Node7</title>
<path fill="none" stroke="midnightblue" d="M159.03,-274.62C173.47,-264.76 192.14,-251.99 204.34,-243.65"/>
<polygon fill="midnightblue" stroke="midnightblue" points="156.97,-271.79 150.69,-280.32 160.92,-277.57 156.97,-271.79"/>
</g>
<!-- Node10 -->
<g id="node10" class="node">
<title>Node10</title>
<g id="a_node10"><a xlink:href="lfilesystem__DynamicLibrary_8h.html" target="_top" xlink:title="This file defines the DynamicLibrary class.">
<polygon fill="white" stroke="black" points="320.5,-112.5 320.5,-131.5 481.5,-131.5 481.5,-112.5 320.5,-112.5"/>
<text text-anchor="middle" x="401" y="-119.5" font-family="Helvetica,sans-Serif" font-size="10.00">lfilesystem_DynamicLibrary.h</text>
</a>
</g>
</g>
<!-- Node6&#45;&gt;Node10 -->
<g id="edge14" class="edge">
<title>Node6&#45;&gt;Node10</title>
<path fill="none" stroke="midnightblue" d="M199.15,-278.8C228.22,-272.04 262.54,-261.15 290,-244 339.57,-213.05 380.93,-154.08 395.44,-131.81"/>
<polygon fill="midnightblue" stroke="midnightblue" points="198.11,-275.44 189.1,-281.02 199.62,-282.28 198.11,-275.44"/>
</g>
<!-- Node7&#45;&gt;Node2 -->
<g id="edge9" class="edge">
<title>Node7&#45;&gt;Node2</title>
<path fill="none" stroke="midnightblue" d="M174.29,-220.57C158.46,-213.67 142.15,-203.28 133,-188 115.65,-159.02 114,-139.93 133,-112 149.46,-87.81 181.12,-76.62 206.91,-71.45"/>
<polygon fill="midnightblue" stroke="midnightblue" points="173.43,-224 184.01,-224.44 176.01,-217.49 173.43,-224"/>
</g>
<!-- Node8 -->
<g id="node8" class="node">
<title>Node8</title>
<g id="a_node8"><a xlink:href="lfilesystem__SpecialDirectories_8h.html" target="_top" xlink:title="This file contains utility functions for finding some common directories.">
<polygon fill="white" stroke="black" points="142.5,-168.5 142.5,-187.5 315.5,-187.5 315.5,-168.5 142.5,-168.5"/>
<text text-anchor="middle" x="229" y="-175.5" font-family="Helvetica,sans-Serif" font-size="10.00">lfilesystem_SpecialDirectories.h</text>
</a>
</g>
</g>
<!-- Node7&#45;&gt;Node8 -->
<g id="edge10" class="edge">
<title>Node7&#45;&gt;Node8</title>
<path fill="none" stroke="midnightblue" d="M221.2,-214.1C223.19,-205.14 225.48,-194.86 227.06,-187.75"/>
<polygon fill="midnightblue" stroke="midnightblue" points="217.73,-213.56 218.98,-224.08 224.57,-215.08 217.73,-213.56"/>
</g>
<!-- Node8&#45;&gt;Node2 -->
<g id="edge11" class="edge">
<title>Node8&#45;&gt;Node2</title>
<path fill="none" stroke="midnightblue" d="M249.71,-161.95C258.67,-154.14 268.2,-143.77 273,-132 281.17,-111.97 265.41,-88.37 255.04,-75.85"/>
<polygon fill="midnightblue" stroke="midnightblue" points="247.35,-159.36 241.78,-168.37 251.75,-164.8 247.35,-159.36"/>
</g>
<!-- Node9 -->
<g id="node9" class="node">
<title>Node9</title>
<g id="a_node9"><a xlink:href="lfilesystem__Volume_8h.html" target="_top" xlink:title="This file defines the files::Volume class.">
<polygon fill="white" stroke="black" points="142,-112.5 142,-131.5 264,-131.5 264,-112.5 142,-112.5"/>
<text text-anchor="middle" x="203" y="-119.5" font-family="Helvetica,sans-Serif" font-size="10.00">lfilesystem_Volume.h</text>
</a>
</g>
</g>
<!-- Node8&#45;&gt;Node9 -->
<g id="edge12" class="edge">
<title>Node8&#45;&gt;Node9</title>
<path fill="none" stroke="midnightblue" d="M220.33,-158.98C215.91,-149.82 210.75,-139.09 207.21,-131.75"/>
<polygon fill="midnightblue" stroke="midnightblue" points="217.21,-160.59 224.71,-168.08 223.52,-157.55 217.21,-160.59"/>
</g>
<!-- Node9&#45;&gt;Node2 -->
<g id="edge13" class="edge">
<title>Node9&#45;&gt;Node2</title>
<path fill="none" stroke="midnightblue" d="M216.73,-104.14C224.4,-94.74 233.63,-83.4 239.87,-75.75"/>
<polygon fill="midnightblue" stroke="midnightblue" points="213.87,-102.12 210.27,-112.08 219.3,-106.54 213.87,-102.12"/>
</g>
<!-- Node10&#45;&gt;Node2 -->
<g id="edge15" class="edge">
<title>Node10&#45;&gt;Node2</title>
<path fill="none" stroke="midnightblue" d="M366.89,-109.04C337.91,-98.88 297.04,-84.55 271.29,-75.52"/>
<polygon fill="midnightblue" stroke="midnightblue" points="366,-112.44 376.6,-112.44 368.32,-105.83 366,-112.44"/>
</g>
<!-- Node11&#45;&gt;Node2 -->
<g id="edge19" class="edge">
<title>Node11&#45;&gt;Node2</title>
<path fill="none" stroke="midnightblue" d="M593.14,-160.94C577.14,-145.76 551.02,-123.65 524,-112 444.81,-77.87 342.71,-69.42 287.23,-67.46"/>
<polygon fill="midnightblue" stroke="midnightblue" points="590.92,-163.67 600.53,-168.15 595.81,-158.66 590.92,-163.67"/>
</g>
<!-- Node11&#45;&gt;Node10 -->
<g id="edge20" class="edge">
<title>Node11&#45;&gt;Node10</title>
<path fill="none" stroke="midnightblue" d="M566.22,-165.89C526.94,-155.7 469.57,-140.8 433.8,-131.52"/>
<polygon fill="midnightblue" stroke="midnightblue" points="565.48,-169.32 576.04,-168.44 567.24,-162.54 565.48,-169.32"/>
</g>
<!-- Node12 -->
<g id="node12" class="node">
<title>Node12</title>
<g id="a_node12"><a xlink:href="lfilesystem__SimpleWatcher_8h.html" target="_top" xlink:title="This file defines the SimpleFileWatcher class.">
<polygon fill="white" stroke="black" points="576,-112.5 576,-131.5 734,-131.5 734,-112.5 576,-112.5"/>
<text text-anchor="middle" x="655" y="-119.5" font-family="Helvetica,sans-Serif" font-size="10.00">lfilesystem_SimpleWatcher.h</text>
</a>
</g>
</g>
<!-- Node11&#45;&gt;Node12 -->
<g id="edge21" class="edge">
<title>Node11&#45;&gt;Node12</title>
<path fill="none" stroke="midnightblue" d="M623.11,-160.43C631.18,-150.97 640.96,-139.48 647.55,-131.75"/>
<polygon fill="midnightblue" stroke="midnightblue" points="620.42,-158.2 616.6,-168.08 625.75,-162.74 620.42,-158.2"/>
</g>
<!-- Node12&#45;&gt;Node2 -->
<g id="edge22" class="edge">
<title>Node12&#45;&gt;Node2</title>
<path fill="none" stroke="midnightblue" d="M580.36,-111.12C494.09,-99.7 355.28,-81.33 287.23,-72.32"/>
<polygon fill="midnightblue" stroke="midnightblue" points="579.98,-114.6 590.35,-112.44 580.9,-107.66 579.98,-114.6"/>
</g>
<!-- Node13&#45;&gt;Node2 -->
<g id="edge24" class="edge">
<title>Node13&#45;&gt;Node2</title>
<path fill="none" stroke="midnightblue" d="M340.6,-276.52C406.3,-248.83 547.06,-179.34 491,-112 465.51,-81.38 349.44,-71.51 287.01,-68.4"/>
<polygon fill="midnightblue" stroke="midnightblue" points="339.01,-273.39 331.11,-280.45 341.69,-279.86 339.01,-273.39"/>
</g>
<!-- Node13&#45;&gt;Node7 -->
<g id="edge25" class="edge">
<title>Node13&#45;&gt;Node7</title>
<path fill="none" stroke="midnightblue" d="M285.45,-275.18C268.52,-265.24 246.22,-252.15 231.74,-243.65"/>
<polygon fill="midnightblue" stroke="midnightblue" points="283.82,-278.28 294.22,-280.32 287.37,-272.24 283.82,-278.28"/>
</g>
</g>
</svg>
        <g id="navigator" transform="translate(0 0)" fill="#404254">
                <rect fill="#f2f5e9" fill-opacity="0.5" stroke="#606060" stroke-width=".5" x="0" y="0" width="60" height="60"/>
                <use id="zoomplus" xlink:href="#zoomPlus" x="17" y="9" onmousedown="handleZoom(evt,'in')"/>
                <use id="zoomminus" xlink:href="#zoomMin" x="42" y="9" onmousedown="handleZoom(evt,'out')"/>
                <use id="reset" xlink:href="#resetDef" x="30" y="36" onmousedown="handleReset()"/>
                <g id="arrowUp" xlink:href="#dirArrow" transform="translate(30 24)" onmousedown="handlePan(0,-1)">
                  <use xlink:href="#rim" fill="#404040">
                        <set attributeName="fill" to="#808080" begin="arrowUp.mouseover" end="arrowUp.mouseout"/>
                  </use>
                  <path fill="none" stroke="white" stroke-width="1.5" d="M0,-3.0v7 M-2.5,-0.5L0,-3.0L2.5,-0.5"/>
                </g>
                <g id="arrowRight" xlink:href="#dirArrow" transform="rotate(90) translate(36 -43)" onmousedown="handlePan(1,0)">
                  <use xlink:href="#rim" fill="#404040">
                        <set attributeName="fill" to="#808080" begin="arrowRight.mouseover" end="arrowRight.mouseout"/>
                  </use>
                  <path fill="none" stroke="white" stroke-width="1.5" d="M0,-3.0v7 M-2.5,-0.5L0,-3.0L2.5,-0.5"/>
                </g>
                <g id="arrowDown" xlink:href="#dirArrow" transform="rotate(180) translate(-30 -48)" onmousedown="handlePan(0,1)">
                  <use xlink:href="#rim" fill="#404040">
                        <set attributeName="fill" to="#808080" begin="arrowDown.mouseover" end="arrowDown.mouseout"/>
                  </use>
                  <path fill="none" stroke="white" stroke-width="1.5" d="M0,-3.0v7 M-2.5,-0.5L0,-3.0L2.5,-0.5"/>
                </g>
                <g id="arrowLeft" xlink:href="#dirArrow" transform="rotate(270) translate(-36 17)" onmousedown="handlePan(-1,0)">
                  <use xlink:href="#rim" fill="#404040">
                        <set attributeName="fill" to="#808080" begin="arrowLeft.mouseover" end="arrowLeft.mouseout"/>
                  </use>
                  <path fill="none" stroke="white" stroke-width="1.5" d="M0,-3.0v7 M-2.5,-0.5L0,-3.0L2.5,-0.5"/>
                </g>
        </g>
        <svg viewBox="0 0 15 15" width="100%" height="30px" preserveAspectRatio="xMaxYMin meet">
         <g id="arrow_out" transform="scale(0.3 0.3)">
          <a xlink:href="lfilesystem__FilesystemEntry_8h__dep__incl_org.svg" target="_base">
           <rect id="button" ry="5" rx="5" y="6" x="6" height="38" width="38"
                fill="#f2f5e9" fill-opacity="0.5" stroke="#606060" stroke-width="1.0"/>
           <path id="arrow"
             d="M 11.500037,31.436501 C 11.940474,20.09759 22.043105,11.32322 32.158766,21.979434 L 37.068811,17.246167 C 37.068811,17.246167 37.088388,32 37.088388,32 L 22.160133,31.978069 C 22.160133,31.978069 26.997745,27.140456 26.997745,27.140456 C 18.528582,18.264221 13.291696,25.230495 11.500037,31.436501 z"
             style="fill:#404040;"/>
          </a>
         </g>
        </svg>
</svg>
