<?xml version="1.0" encoding="UTF-8" standalone="no"?>
<!DOCTYPE svg PUBLIC "-//W3C//DTD SVG 1.1//EN"
 "http://www.w3.org/Graphics/SVG/1.1/DTD/svg11.dtd">
<!-- Generated by graphviz version 2.43.0 (0)
 -->
<!-- Title: lfilesystem_SymLink.h Pages: 1 -->
<svg width="563pt" height="229pt"
 viewBox="0.00 0.00 563.03 229.00" xmlns="http://www.w3.org/2000/svg" xmlns:xlink="http://www.w3.org/1999/xlink">
<g id="graph0" class="graph" transform="scale(1 1) rotate(0) translate(4 225)">
<title>lfilesystem_SymLink.h</title>
<polygon fill="white" stroke="transparent" points="-4,4 -4,-225 559.03,-225 559.03,4 -4,4"/>
<!-- Node1 -->
<g id="node1" class="node">
<title>Node1</title>
<g id="a_node1"><a xlink:title="This file defines the files::SymLink class.">
<polygon fill="#bfbfbf" stroke="black" points="47.03,-201.5 47.03,-220.5 174.03,-220.5 174.03,-201.5 47.03,-201.5"/>
<text text-anchor="middle" x="110.53" y="-208.5" font-family="Helvetica,sans-Serif" font-size="10.00">lfilesystem_SymLink.h</text>
</a>
</g>
</g>
<!-- Node2 -->
<g id="node2" class="node">
<title>Node2</title>
<g id="a_node2"><a xlink:title=" ">
<polygon fill="white" stroke="#bfbfbf" points="19.03,-73 19.03,-92 84.03,-92 84.03,-73 19.03,-73"/>
<text text-anchor="middle" x="51.53" y="-80" font-family="Helvetica,sans-Serif" font-size="10.00">functional</text>
</a>
</g>
</g>
<!-- Node1&#45;&gt;Node2 -->
<g id="edge1" class="edge">
<title>Node1&#45;&gt;Node2</title>
<path fill="none" stroke="midnightblue" d="M106.48,-201.31C96.92,-180.81 72.82,-129.15 59.95,-101.54"/>
<polygon fill="midnightblue" stroke="midnightblue" points="63.02,-99.84 55.62,-92.26 56.67,-102.8 63.02,-99.84"/>
</g>
<!-- Node3 -->
<g id="node3" class="node">
<title>Node3</title>
<g id="a_node3"><a xlink:title=" ">
<polygon fill="white" stroke="#bfbfbf" points="102.53,-73 102.53,-92 158.53,-92 158.53,-73 102.53,-73"/>
<text text-anchor="middle" x="130.53" y="-80" font-family="Helvetica,sans-Serif" font-size="10.00">optional</text>
</a>
</g>
</g>
<!-- Node1&#45;&gt;Node3 -->
<g id="edge2" class="edge">
<title>Node1&#45;&gt;Node3</title>
<path fill="none" stroke="midnightblue" d="M111.91,-201.31C115.12,-180.99 123.17,-130.05 127.57,-102.28"/>
<polygon fill="midnightblue" stroke="midnightblue" points="131.04,-102.68 129.15,-92.26 124.13,-101.59 131.04,-102.68"/>
</g>
<!-- Node4 -->
<g id="node4" class="node">
<title>Node4</title>
<g id="a_node4"><a xlink:title=" ">
<polygon fill="white" stroke="#bfbfbf" points="111.53,-0.5 111.53,-30.5 239.53,-30.5 239.53,-0.5 111.53,-0.5"/>
<text text-anchor="start" x="119.53" y="-18.5" font-family="Helvetica,sans-Serif" font-size="10.00">lfilesystem/lfilesystem</text>
<text text-anchor="middle" x="175.53" y="-7.5" font-family="Helvetica,sans-Serif" font-size="10.00">_Export.h</text>
</a>
</g>
</g>
<!-- Node1&#45;&gt;Node4 -->
<g id="edge3" class="edge">
<title>Node1&#45;&gt;Node4</title>
<path fill="none" stroke="midnightblue" d="M95.95,-201.36C59.94,-178.95 -27.65,-117.18 9.53,-67 30.66,-38.49 67.5,-25.52 101.12,-19.83"/>
<polygon fill="midnightblue" stroke="midnightblue" points="102.05,-23.23 111.42,-18.29 101.02,-16.31 102.05,-23.23"/>
</g>
<!-- Node5 -->
<g id="node5" class="node">
<title>Node5</title>
<g id="a_node5"><a xlink:href="lfilesystem__FilesystemEntry_8h.html" target="_top" xlink:title="This file defines the FilesystemEntry class.">
<polygon fill="white" stroke="black" points="160.53,-134.5 160.53,-164.5 288.53,-164.5 288.53,-134.5 160.53,-134.5"/>
<text text-anchor="start" x="168.53" y="-152.5" font-family="Helvetica,sans-Serif" font-size="10.00">lfilesystem/lfilesystem</text>
<text text-anchor="middle" x="224.53" y="-141.5" font-family="Helvetica,sans-Serif" font-size="10.00">_FilesystemEntry.h</text>
</a>
</g>
</g>
<!-- Node1&#45;&gt;Node5 -->
<g id="edge4" class="edge">
<title>Node1&#45;&gt;Node5</title>
<path fill="none" stroke="midnightblue" d="M126.87,-201.48C142.96,-193.08 168.07,-179.97 188.79,-169.15"/>
<polygon fill="midnightblue" stroke="midnightblue" points="190.42,-172.25 197.67,-164.52 187.18,-166.05 190.42,-172.25"/>
</g>
<!-- Node5&#45;&gt;Node2 -->
<g id="edge8" class="edge">
<title>Node5&#45;&gt;Node2</title>
<path fill="none" stroke="midnightblue" d="M187,-134.4C156.24,-122.84 113.16,-106.66 83.91,-95.66"/>
<polygon fill="midnightblue" stroke="midnightblue" points="84.77,-92.25 74.18,-92.01 82.31,-98.8 84.77,-92.25"/>
</g>
<!-- Node5&#45;&gt;Node3 -->
<g id="edge9" class="edge">
<title>Node5&#45;&gt;Node3</title>
<path fill="none" stroke="midnightblue" d="M204.14,-134.4C188.52,-123.6 167.06,-108.76 151.34,-97.89"/>
<polygon fill="midnightblue" stroke="midnightblue" points="153.05,-94.82 142.84,-92.01 149.07,-100.57 153.05,-94.82"/>
</g>
<!-- Node5&#45;&gt;Node4 -->
<g id="edge11" class="edge">
<title>Node5&#45;&gt;Node4</title>
<path fill="none" stroke="midnightblue" d="M219.29,-134.37C210.93,-111.85 194.48,-67.53 184.3,-40.12"/>
<polygon fill="midnightblue" stroke="midnightblue" points="187.5,-38.68 180.74,-30.52 180.94,-41.12 187.5,-38.68"/>
</g>
<!-- Node6 -->
<g id="node6" class="node">
<title>Node6</title>
<g id="a_node6"><a xlink:title=" ">
<polygon fill="white" stroke="#bfbfbf" points="252.53,-73 252.53,-92 302.53,-92 302.53,-73 252.53,-73"/>
<text text-anchor="middle" x="277.53" y="-80" font-family="Helvetica,sans-Serif" font-size="10.00">cstdint</text>
</a>
</g>
</g>
<!-- Node5&#45;&gt;Node6 -->
<g id="edge5" class="edge">
<title>Node5&#45;&gt;Node6</title>
<path fill="none" stroke="midnightblue" d="M236.03,-134.4C244.22,-124.36 255.24,-110.84 263.87,-100.25"/>
<polygon fill="midnightblue" stroke="midnightblue" points="266.84,-102.16 270.44,-92.19 261.41,-97.73 266.84,-102.16"/>
</g>
<!-- Node7 -->
<g id="node7" class="node">
<title>Node7</title>
<g id="a_node7"><a xlink:title=" ">
<polygon fill="white" stroke="#bfbfbf" points="257.53,-6 257.53,-25 325.53,-25 325.53,-6 257.53,-6"/>
<text text-anchor="middle" x="291.53" y="-13" font-family="Helvetica,sans-Serif" font-size="10.00">filesystem</text>
</a>
</g>
</g>
<!-- Node5&#45;&gt;Node7 -->
<g id="edge6" class="edge">
<title>Node5&#45;&gt;Node7</title>
<path fill="none" stroke="midnightblue" d="M225.56,-134.45C227.28,-117.55 231.81,-88.74 243.53,-67 250.78,-53.56 262.56,-41.09 272.63,-31.91"/>
<polygon fill="midnightblue" stroke="midnightblue" points="274.98,-34.5 280.22,-25.29 270.38,-29.22 274.98,-34.5"/>
</g>
<!-- Node8 -->
<g id="node8" class="node">
<title>Node8</title>
<g id="a_node8"><a xlink:title=" ">
<polygon fill="white" stroke="#bfbfbf" points="435.53,-6 435.53,-25 479.53,-25 479.53,-6 435.53,-6"/>
<text text-anchor="middle" x="457.53" y="-13" font-family="Helvetica,sans-Serif" font-size="10.00">string</text>
</a>
</g>
</g>
<!-- Node5&#45;&gt;Node8 -->
<g id="edge7" class="edge">
<title>Node5&#45;&gt;Node8</title>
<path fill="none" stroke="midnightblue" d="M288.62,-143.48C350.12,-137.18 436.65,-123.9 457.53,-98 471.72,-80.41 468.2,-53.03 463.55,-34.94"/>
<polygon fill="midnightblue" stroke="midnightblue" points="466.89,-33.89 460.73,-25.27 460.17,-35.85 466.89,-33.89"/>
</g>
<!-- Node9 -->
<g id="node9" class="node">
<title>Node9</title>
<g id="a_node9"><a xlink:title=" ">
<polygon fill="white" stroke="#bfbfbf" points="498.03,-6 498.03,-25 555.03,-25 555.03,-6 498.03,-6"/>
<text text-anchor="middle" x="526.53" y="-13" font-family="Helvetica,sans-Serif" font-size="10.00">ostream</text>
</a>
</g>
</g>
<!-- Node5&#45;&gt;Node9 -->
<g id="edge10" class="edge">
<title>Node5&#45;&gt;Node9</title>
<path fill="none" stroke="midnightblue" d="M288.63,-141.55C352.99,-133.55 446.76,-118.77 476.53,-98 498.83,-82.45 513.06,-53.44 520.42,-34.56"/>
<polygon fill="midnightblue" stroke="midnightblue" points="523.76,-35.62 523.89,-25.02 517.18,-33.22 523.76,-35.62"/>
</g>
<!-- Node10 -->
<g id="node10" class="node">
<title>Node10</title>
<g id="a_node10"><a xlink:href="lfilesystem__Permissions_8h.html" target="_top" xlink:title="This file defines the Permissions class.">
<polygon fill="white" stroke="black" points="320.53,-67.5 320.53,-97.5 448.53,-97.5 448.53,-67.5 320.53,-67.5"/>
<text text-anchor="start" x="328.53" y="-85.5" font-family="Helvetica,sans-Serif" font-size="10.00">lfilesystem/lfilesystem</text>
<text text-anchor="middle" x="384.53" y="-74.5" font-family="Helvetica,sans-Serif" font-size="10.00">_Permissions.h</text>
</a>
</g>
</g>
<!-- Node5&#45;&gt;Node10 -->
<g id="edge12" class="edge">
<title>Node5&#45;&gt;Node10</title>
<path fill="none" stroke="midnightblue" d="M259.25,-134.4C283.05,-124.73 314.82,-111.82 340.41,-101.43"/>
<polygon fill="midnightblue" stroke="midnightblue" points="341.94,-104.58 349.88,-97.58 339.3,-98.1 341.94,-104.58"/>
</g>
<!-- Node10&#45;&gt;Node4 -->
<g id="edge17" class="edge">
<title>Node10&#45;&gt;Node4</title>
<path fill="none" stroke="midnightblue" d="M339.44,-67.48C307.55,-57.56 264.6,-44.2 230.67,-33.65"/>
<polygon fill="midnightblue" stroke="midnightblue" points="231.49,-30.24 220.91,-30.61 229.42,-36.92 231.49,-30.24"/>
</g>
<!-- Node10&#45;&gt;Node7 -->
<g id="edge13" class="edge">
<title>Node10&#45;&gt;Node7</title>
<path fill="none" stroke="midnightblue" d="M364.35,-67.4C348.9,-56.6 327.67,-41.76 312.12,-30.89"/>
<polygon fill="midnightblue" stroke="midnightblue" points="313.91,-27.87 303.71,-25.01 309.9,-33.6 313.91,-27.87"/>
</g>
<!-- Node10&#45;&gt;Node8 -->
<g id="edge14" class="edge">
<title>Node10&#45;&gt;Node8</title>
<path fill="none" stroke="midnightblue" d="M400.37,-67.4C412.09,-56.96 428.05,-42.75 440.13,-32"/>
<polygon fill="midnightblue" stroke="midnightblue" points="442.63,-34.46 447.77,-25.19 437.97,-29.23 442.63,-34.46"/>
</g>
<!-- Node10&#45;&gt;Node9 -->
<g id="edge16" class="edge">
<title>Node10&#45;&gt;Node9</title>
<path fill="none" stroke="midnightblue" d="M415.35,-67.4C440.15,-56.04 474.71,-40.22 498.69,-29.24"/>
<polygon fill="midnightblue" stroke="midnightblue" points="500.31,-32.35 507.95,-25.01 497.4,-25.99 500.31,-32.35"/>
</g>
<!-- Node11 -->
<g id="node11" class="node">
<title>Node11</title>
<g id="a_node11"><a xlink:title=" ">
<polygon fill="white" stroke="#bfbfbf" points="344.03,-6 344.03,-25 417.03,-25 417.03,-6 344.03,-6"/>
<text text-anchor="middle" x="380.53" y="-13" font-family="Helvetica,sans-Serif" font-size="10.00">string_view</text>
</a>
</g>
</g>
<!-- Node10&#45;&gt;Node11 -->
<g id="edge15" class="edge">
<title>Node10&#45;&gt;Node11</title>
<path fill="none" stroke="midnightblue" d="M383.67,-67.4C383.09,-57.96 382.32,-45.45 381.68,-35.19"/>
<polygon fill="midnightblue" stroke="midnightblue" points="385.18,-34.96 381.07,-25.19 378.19,-35.39 385.18,-34.96"/>
</g>
</g>
</svg>
