<?xml version="1.0" encoding="UTF-8" standalone="no"?>
<!DOCTYPE svg PUBLIC "-//W3C//DTD SVG 1.1//EN"
 "http://www.w3.org/Graphics/SVG/1.1/DTD/svg11.dtd">
<!-- Generated by graphviz version 8.0.5 (20230430.1635)
 -->
<!-- Title: lfilesystem_CFile.h Pages: 1 -->
<svg width="305pt" height="248pt"
 viewBox="0.00 0.00 304.88 248.25" xmlns="http://www.w3.org/2000/svg" xmlns:xlink="http://www.w3.org/1999/xlink">

<svg id="main" version="1.1" xmlns="http://www.w3.org/2000/svg" xmlns:xlink="http://www.w3.org/1999/xlink" xml:space="preserve" onload="init(evt)">
<style type="text/css"><![CDATA[
.node, .edge {opacity: 0.7;}
.node.selected, .edge.selected {opacity: 1;}
.edge:hover path { stroke: red; }
.edge:hover polygon { stroke: red; fill: red; }
]]></style>
<script type="application/ecmascript" xlink:href="svg.min.js"/>
<svg id="graph" class="graph">
<g id="graph0" class="graph" transform="scale(1 1) rotate(0) translate(4 244.25)">
<title>lfilesystem_CFile.h</title>
<!-- Node1 -->
<g id="Node000001" class="node">
<title>Node1</title>
<g id="a_Node000001"><a xlink:title="This file defines the CFile class.">
<polygon fill="#999999" stroke="#666666" points="201.12,-240.25 101.12,-240.25 101.12,-221 201.12,-221 201.12,-240.25"/>
<text text-anchor="middle" x="151.12" y="-226.75" font-family="Helvetica,sans-Serif" font-size="10.00">lfilesystem_CFile.h</text>
</a>
</g>
</g>
<!-- Node2 -->
<g id="Node000002" class="node">
<title>Node2</title>
<g id="a_Node000002"><a xlink:href="lfilesystem___file_8h.html" target="_top" xlink:title="This file defines the File and TempFile classes.">
<polygon fill="white" stroke="#666666" points="197.38,-185 104.88,-185 104.88,-165.75 197.38,-165.75 197.38,-185"/>
<text text-anchor="middle" x="151.12" y="-171.5" font-family="Helvetica,sans-Serif" font-size="10.00">lfilesystem_File.h</text>
</a>
</g>
</g>
<!-- Node1&#45;&gt;Node2 -->
<g id="edge1_Node000001_Node000002" class="edge">
<title>Node1&#45;&gt;Node2</title>
<g id="a_edge1_Node000001_Node000002"><a xlink:title=" ">
<path fill="none" stroke="#63b8ff" d="M151.12,-209.96C151.12,-201.52 151.12,-192.08 151.12,-185.36"/>
<polygon fill="#63b8ff" stroke="#63b8ff" points="147.63,-209.83 151.12,-219.83 154.63,-209.83 147.63,-209.83"/>
</a>
</g>
</g>
<!-- Node3 -->
<g id="Node000003" class="node">
<title>Node3</title>
<g id="a_Node000003"><a xlink:href="lfilesystem___directory_8h.html" target="_top" xlink:title="This file defines the Directory class.">
<polygon fill="white" stroke="#666666" points="135.62,-129.75 20.62,-129.75 20.62,-110.5 135.62,-110.5 135.62,-129.75"/>
<text text-anchor="middle" x="78.12" y="-116.25" font-family="Helvetica,sans-Serif" font-size="10.00">lfilesystem_Directory.h</text>
</a>
</g>
</g>
<!-- Node2&#45;&gt;Node3 -->
<g id="edge2_Node000002_Node000003" class="edge">
<title>Node2&#45;&gt;Node3</title>
<g id="a_edge2_Node000002_Node000003"><a xlink:title=" ">
<path fill="none" stroke="#63b8ff" d="M130.04,-158.99C117.15,-149.59 101.13,-137.91 90.33,-130.02"/>
<polygon fill="#63b8ff" stroke="#63b8ff" points="127.6,-162.28 137.74,-165.34 131.73,-156.62 127.6,-162.28"/>
</a>
</g>
</g>
<!-- Node6 -->
<g id="Node000006" class="node">
<title>Node6</title>
<g id="a_Node000006"><a xlink:href="lfilesystem___dynamic_library_8h.html" target="_top" xlink:title="This file defines the DynamicLibrary class.">
<polygon fill="white" stroke="#666666" points="296.88,-129.75 153.38,-129.75 153.38,-110.5 296.88,-110.5 296.88,-129.75"/>
<text text-anchor="middle" x="225.12" y="-116.25" font-family="Helvetica,sans-Serif" font-size="10.00">lfilesystem_DynamicLibrary.h</text>
</a>
</g>
</g>
<!-- Node2&#45;&gt;Node6 -->
<g id="edge5_Node000002_Node000006" class="edge">
<title>Node2&#45;&gt;Node6</title>
<g id="a_edge5_Node000002_Node000006"><a xlink:title=" ">
<path fill="none" stroke="#63b8ff" d="M172.5,-158.99C185.56,-149.59 201.8,-137.91 212.76,-130.02"/>
<polygon fill="#63b8ff" stroke="#63b8ff" points="170.75,-156.66 164.68,-165.34 174.84,-162.34 170.75,-156.66"/>
</a>
</g>
</g>
<!-- Node4 -->
<g id="Node000004" class="node">
<title>Node4</title>
<g id="a_Node000004"><a xlink:href="lfilesystem___special_directories_8h.html" target="_top" xlink:title="This file contains utility functions for finding some common directories.">
<polygon fill="white" stroke="#666666" points="156.25,-74.5 0,-74.5 0,-55.25 156.25,-55.25 156.25,-74.5"/>
<text text-anchor="middle" x="78.12" y="-61" font-family="Helvetica,sans-Serif" font-size="10.00">lfilesystem_SpecialDirectories.h</text>
</a>
</g>
</g>
<!-- Node3&#45;&gt;Node4 -->
<g id="edge3_Node000003_Node000004" class="edge">
<title>Node3&#45;&gt;Node4</title>
<g id="a_edge3_Node000003_Node000004"><a xlink:title=" ">
<path fill="none" stroke="#63b8ff" d="M78.12,-99.46C78.12,-91.02 78.12,-81.58 78.12,-74.86"/>
<polygon fill="#63b8ff" stroke="#63b8ff" points="74.63,-99.33 78.12,-109.33 81.63,-99.33 74.63,-99.33"/>
</a>
</g>
</g>
<!-- Node5 -->
<g id="Node000005" class="node">
<title>Node5</title>
<g id="a_Node000005"><a xlink:href="lfilesystem___volume_8h.html" target="_top" xlink:title="This file defines the files::Volume class.">
<polygon fill="white" stroke="#666666" points="133,-19.25 23.25,-19.25 23.25,0 133,0 133,-19.25"/>
<text text-anchor="middle" x="78.12" y="-5.75" font-family="Helvetica,sans-Serif" font-size="10.00">lfilesystem_Volume.h</text>
</a>
</g>
</g>
<!-- Node4&#45;&gt;Node5 -->
<g id="edge4_Node000004_Node000005" class="edge">
<title>Node4&#45;&gt;Node5</title>
<g id="a_edge4_Node000004_Node000005"><a xlink:title=" ">
<path fill="none" stroke="#63b8ff" d="M78.12,-44.21C78.12,-35.77 78.12,-26.33 78.12,-19.61"/>
<polygon fill="#63b8ff" stroke="#63b8ff" points="74.63,-44.08 78.12,-54.08 81.63,-44.08 74.63,-44.08"/>
</a>
</g>
</g>
</g>
</svg>
</svg>

<style type='text/css'>
<![CDATA[
[data-mouse-over-selected='false'] { opacity: 0.7; }
[data-mouse-over-selected='true']  { opacity: 1.0; }
]]>
</style>
<script type="application/ecmascript"><![CDATA[
document.addEventListener('DOMContentLoaded', (event) => {
  highlightEdges();
  highlightAdjacentNodes();
});
]]></script>
</svg>
