<?xml version="1.0" encoding="UTF-8" standalone="no"?>
<!DOCTYPE svg PUBLIC "-//W3C//DTD SVG 1.1//EN"
 "http://www.w3.org/Graphics/SVG/1.1/DTD/svg11.dtd">
<!-- Generated by graphviz version 2.43.0 (0)
 -->
<!-- Title: lfilesystem_Directory.h Pages: 1 -->
<!--zoomable 363 -->
<svg id="main" version="1.1" xmlns="http://www.w3.org/2000/svg" xmlns:xlink="http://www.w3.org/1999/xlink" xml:space="preserve" onload="init(evt)">
<style type="text/css"><![CDATA[
.edge:hover path { stroke: red; }
.edge:hover polygon { stroke: red; fill: red; }
]]></style>
<script type="text/javascript"><![CDATA[
var edges = document.getElementsByTagName('g');
if (edges && edges.length) {
  for (var i=0;i<edges.length;i++) {
    if (edges[i].id.substr(0,4)=='edge') {
      edges[i].setAttribute('class','edge');
    }
  }
}
]]></script>
        <defs>
                <circle id="rim" cx="0" cy="0" r="7"/>
                <circle id="rim2" cx="0" cy="0" r="3.5"/>
                <g id="zoomPlus">
                        <use xlink:href="#rim" fill="#404040">
                                <set attributeName="fill" to="#808080" begin="zoomplus.mouseover" end="zoomplus.mouseout"/>
                        </use>
                        <path d="M-4,0h8M0,-4v8" fill="none" stroke="white" stroke-width="1.5" pointer-events="none"/>
                </g>
                <g id="zoomMin">
                        <use xlink:href="#rim" fill="#404040">
                                <set attributeName="fill" to="#808080" begin="zoomminus.mouseover" end="zoomminus.mouseout"/>
                        </use>
                        <path d="M-4,0h8" fill="none" stroke="white" stroke-width="1.5" pointer-events="none"/>
                </g>
                <g id="dirArrow">
                        <path fill="none" stroke="white" stroke-width="1.5" d="M0,-3.0v7 M-2.5,-0.5L0,-3.0L2.5,-0.5"/>
                </g>
               <g id="resetDef">
                       <use xlink:href="#rim2" fill="#404040">
                               <set attributeName="fill" to="#808080" begin="reset.mouseover" end="reset.mouseout"/>
                       </use>
               </g>
        </defs>

<script type="text/javascript">
var viewWidth = 1041;
var viewHeight = 363;
var sectionId = 'dynsection-0';
</script>
<script xlink:href="svgpan.js"/>
<svg id="graph" class="graph">
<g id="viewport">
<title>lfilesystem_Directory.h</title>
<polygon fill="white" stroke="transparent" points="-4,4 -4,-359 1036.87,-359 1036.87,4 -4,4"/>
<!-- Node1 -->
<g id="node1" class="node">
<title>Node1</title>
<g id="a_node1"><a xlink:title="This file defines the Directory class.">
<polygon fill="#bfbfbf" stroke="black" points="261.87,-335.5 261.87,-354.5 389.87,-354.5 389.87,-335.5 261.87,-335.5"/>
<text text-anchor="middle" x="325.87" y="-342.5" font-family="Helvetica,sans-Serif" font-size="10.00">lfilesystem_Directory.h</text>
</a>
</g>
</g>
<!-- Node2 -->
<g id="node2" class="node">
<title>Node2</title>
<g id="a_node2"><a xlink:title=" ">
<polygon fill="white" stroke="#bfbfbf" points="98.37,-73 98.37,-92 163.37,-92 163.37,-73 98.37,-73"/>
<text text-anchor="middle" x="130.87" y="-80" font-family="Helvetica,sans-Serif" font-size="10.00">functional</text>
</a>
</g>
</g>
<!-- Node1&#45;&gt;Node2 -->
<g id="edge1" class="edge">
<title>Node1&#45;&gt;Node2</title>
<path fill="none" stroke="midnightblue" d="M286.94,-335.48C237.63,-322.44 154.33,-292.41 114.87,-232 91.02,-195.49 101.33,-176.77 109.87,-134 112.13,-122.65 117,-110.66 121.48,-101.21"/>
<polygon fill="midnightblue" stroke="midnightblue" points="124.69,-102.61 126.05,-92.1 118.44,-99.47 124.69,-102.61"/>
</g>
<!-- Node3 -->
<g id="node3" class="node">
<title>Node3</title>
<g id="a_node3"><a xlink:title=" ">
<polygon fill="white" stroke="#bfbfbf" points="29.87,-73 29.87,-92 79.87,-92 79.87,-73 29.87,-73"/>
<text text-anchor="middle" x="54.87" y="-80" font-family="Helvetica,sans-Serif" font-size="10.00">cstdint</text>
</a>
</g>
</g>
<!-- Node1&#45;&gt;Node3 -->
<g id="edge2" class="edge">
<title>Node1&#45;&gt;Node3</title>
<path fill="none" stroke="midnightblue" d="M261.86,-339.21C225,-333.87 179.31,-322.63 144.87,-299 77.35,-252.67 60.35,-145.33 56.18,-102.07"/>
<polygon fill="midnightblue" stroke="midnightblue" points="59.67,-101.76 55.34,-92.09 52.69,-102.35 59.67,-101.76"/>
</g>
<!-- Node4 -->
<g id="node4" class="node">
<title>Node4</title>
<g id="a_node4"><a xlink:title=" ">
<polygon fill="white" stroke="#bfbfbf" points="655.87,-6 655.87,-25 699.87,-25 699.87,-6 655.87,-6"/>
<text text-anchor="middle" x="677.87" y="-13" font-family="Helvetica,sans-Serif" font-size="10.00">string</text>
</a>
</g>
</g>
<!-- Node1&#45;&gt;Node4 -->
<g id="edge3" class="edge">
<title>Node1&#45;&gt;Node4</title>
<path fill="none" stroke="midnightblue" d="M389.91,-343.13C484.98,-340.74 668.61,-331.83 820.87,-299 919.54,-277.72 1032.87,-318.44 1032.87,-217.5 1032.87,-217.5 1032.87,-217.5 1032.87,-148.5 1032.87,-79.94 797.33,-35.49 709.97,-21.36"/>
<polygon fill="midnightblue" stroke="midnightblue" points="710.5,-17.9 700.07,-19.79 709.4,-24.82 710.5,-17.9"/>
</g>
<!-- Node5 -->
<g id="node5" class="node">
<title>Node5</title>
<g id="a_node5"><a xlink:title=" ">
<polygon fill="white" stroke="#bfbfbf" points="328.37,-207 328.37,-226 375.37,-226 375.37,-207 328.37,-207"/>
<text text-anchor="middle" x="351.87" y="-214" font-family="Helvetica,sans-Serif" font-size="10.00">vector</text>
</a>
</g>
</g>
<!-- Node1&#45;&gt;Node5 -->
<g id="edge4" class="edge">
<title>Node1&#45;&gt;Node5</title>
<path fill="none" stroke="midnightblue" d="M327.65,-335.31C331.83,-314.99 342.3,-264.05 348.01,-236.28"/>
<polygon fill="midnightblue" stroke="midnightblue" points="351.48,-236.76 350.07,-226.26 344.63,-235.35 351.48,-236.76"/>
</g>
<!-- Node6 -->
<g id="node6" class="node">
<title>Node6</title>
<g id="a_node6"><a xlink:title=" ">
<polygon fill="white" stroke="#bfbfbf" points="874.87,-207 874.87,-226 932.87,-226 932.87,-207 874.87,-207"/>
<text text-anchor="middle" x="903.87" y="-214" font-family="Helvetica,sans-Serif" font-size="10.00">memory</text>
</a>
</g>
</g>
<!-- Node1&#45;&gt;Node6 -->
<g id="edge5" class="edge">
<title>Node1&#45;&gt;Node6</title>
<path fill="none" stroke="midnightblue" d="M390.15,-341.29C465.22,-336.96 592.67,-326.03 698.87,-299 765.31,-282.09 839.06,-248.98 877.42,-230.59"/>
<polygon fill="midnightblue" stroke="midnightblue" points="879.35,-233.55 886.82,-226.04 876.3,-227.25 879.35,-233.55"/>
</g>
<!-- Node7 -->
<g id="node7" class="node">
<title>Node7</title>
<g id="a_node7"><a xlink:title=" ">
<polygon fill="white" stroke="#bfbfbf" points="951.37,-207 951.37,-226 1004.37,-226 1004.37,-207 951.37,-207"/>
<text text-anchor="middle" x="977.87" y="-214" font-family="Helvetica,sans-Serif" font-size="10.00">iterator</text>
</a>
</g>
</g>
<!-- Node1&#45;&gt;Node7 -->
<g id="edge6" class="edge">
<title>Node1&#45;&gt;Node7</title>
<path fill="none" stroke="midnightblue" d="M389.99,-342.22C475.06,-338.75 629.46,-328.59 757.87,-299 829.55,-282.48 909.59,-248.7 950.52,-230.24"/>
<polygon fill="midnightblue" stroke="midnightblue" points="952.17,-233.34 959.81,-226.01 949.26,-226.97 952.17,-233.34"/>
</g>
<!-- Node8 -->
<g id="node8" class="node">
<title>Node8</title>
<g id="a_node8"><a xlink:title=" ">
<polygon fill="white" stroke="#bfbfbf" points="186.87,-0.5 186.87,-30.5 314.87,-30.5 314.87,-0.5 186.87,-0.5"/>
<text text-anchor="start" x="194.87" y="-18.5" font-family="Helvetica,sans-Serif" font-size="10.00">lfilesystem/lfilesystem</text>
<text text-anchor="middle" x="250.87" y="-7.5" font-family="Helvetica,sans-Serif" font-size="10.00">_Export.h</text>
</a>
</g>
</g>
<!-- Node1&#45;&gt;Node8 -->
<g id="edge7" class="edge">
<title>Node1&#45;&gt;Node8</title>
<path fill="none" stroke="midnightblue" d="M261.81,-338.29C217.32,-332.54 157.53,-321.18 108.87,-299 54.47,-274.2 1.87,-277.28 1.87,-217.5 1.87,-217.5 1.87,-217.5 1.87,-148.5 1.87,-111.31 -5.6,-93.13 20.87,-67 42.73,-45.42 118.21,-31.77 176.8,-24.18"/>
<polygon fill="midnightblue" stroke="midnightblue" points="177.31,-27.64 186.79,-22.92 176.43,-20.7 177.31,-27.64"/>
</g>
<!-- Node9 -->
<g id="node9" class="node">
<title>Node9</title>
<g id="a_node9"><a xlink:href="lfilesystem__FilesystemEntry_8h.html" target="_top" xlink:title="This file defines the FilesystemEntry class.">
<polygon fill="white" stroke="black" points="295.87,-134.5 295.87,-164.5 423.87,-164.5 423.87,-134.5 295.87,-134.5"/>
<text text-anchor="start" x="303.87" y="-152.5" font-family="Helvetica,sans-Serif" font-size="10.00">lfilesystem/lfilesystem</text>
<text text-anchor="middle" x="359.87" y="-141.5" font-family="Helvetica,sans-Serif" font-size="10.00">_FilesystemEntry.h</text>
</a>
</g>
</g>
<!-- Node1&#45;&gt;Node9 -->
<g id="edge8" class="edge">
<title>Node1&#45;&gt;Node9</title>
<path fill="none" stroke="midnightblue" d="M323.21,-335.29C316.71,-312.45 301.74,-249.26 318.87,-201 322.64,-190.35 329.73,-180.32 336.96,-172.04"/>
<polygon fill="midnightblue" stroke="midnightblue" points="339.57,-174.38 343.84,-164.68 334.45,-169.6 339.57,-174.38"/>
</g>
<!-- Node15 -->
<g id="node15" class="node">
<title>Node15</title>
<g id="a_node15"><a xlink:href="lfilesystem__File_8h.html" target="_top" xlink:title="This file defines the File and TempFile classes.">
<polygon fill="white" stroke="black" points="561.87,-268.5 561.87,-298.5 689.87,-298.5 689.87,-268.5 561.87,-268.5"/>
<text text-anchor="start" x="569.87" y="-286.5" font-family="Helvetica,sans-Serif" font-size="10.00">lfilesystem/lfilesystem</text>
<text text-anchor="middle" x="625.87" y="-275.5" font-family="Helvetica,sans-Serif" font-size="10.00">_File.h</text>
</a>
</g>
</g>
<!-- Node1&#45;&gt;Node15 -->
<g id="edge22" class="edge">
<title>Node1&#45;&gt;Node15</title>
<path fill="none" stroke="midnightblue" d="M368.85,-335.48C416.46,-326.03 494.08,-310.64 551.58,-299.23"/>
<polygon fill="midnightblue" stroke="midnightblue" points="552.58,-302.6 561.71,-297.22 551.22,-295.74 552.58,-302.6"/>
</g>
<!-- Node20 -->
<g id="node20" class="node">
<title>Node20</title>
<g id="a_node20"><a xlink:href="lfilesystem__SymLink_8h.html" target="_top" xlink:title="This file defines the files::SymLink class.">
<polygon fill="white" stroke="black" points="143.87,-201.5 143.87,-231.5 271.87,-231.5 271.87,-201.5 143.87,-201.5"/>
<text text-anchor="start" x="151.87" y="-219.5" font-family="Helvetica,sans-Serif" font-size="10.00">lfilesystem/lfilesystem</text>
<text text-anchor="middle" x="207.87" y="-208.5" font-family="Helvetica,sans-Serif" font-size="10.00">_SymLink.h</text>
</a>
</g>
</g>
<!-- Node1&#45;&gt;Node20 -->
<g id="edge38" class="edge">
<title>Node1&#45;&gt;Node20</title>
<path fill="none" stroke="midnightblue" d="M317.76,-335.31C299.48,-315.71 254.62,-267.62 228.21,-239.31"/>
<polygon fill="midnightblue" stroke="midnightblue" points="230.67,-236.81 221.29,-231.89 225.55,-241.59 230.67,-236.81"/>
</g>
<!-- Node9&#45;&gt;Node2 -->
<g id="edge12" class="edge">
<title>Node9&#45;&gt;Node2</title>
<path fill="none" stroke="midnightblue" d="M310.46,-134.48C268.7,-122.62 209.64,-105.86 170.81,-94.84"/>
<polygon fill="midnightblue" stroke="midnightblue" points="171.49,-91.39 160.91,-92.03 169.58,-98.13 171.49,-91.39"/>
</g>
<!-- Node9&#45;&gt;Node3 -->
<g id="edge9" class="edge">
<title>Node9&#45;&gt;Node3</title>
<path fill="none" stroke="midnightblue" d="M295.68,-140.58C240.17,-132.78 158.15,-118.95 88.87,-98 86.72,-97.35 84.53,-96.61 82.34,-95.81"/>
<polygon fill="midnightblue" stroke="midnightblue" points="83.53,-92.52 72.95,-92.08 80.95,-99.02 83.53,-92.52"/>
</g>
<!-- Node9&#45;&gt;Node4 -->
<g id="edge11" class="edge">
<title>Node9&#45;&gt;Node4</title>
<path fill="none" stroke="midnightblue" d="M424.16,-141.64C490.64,-133.58 589.08,-118.64 620.87,-98 644.7,-82.53 661.44,-53.28 670.36,-34.35"/>
<polygon fill="midnightblue" stroke="midnightblue" points="673.63,-35.61 674.51,-25.05 667.24,-32.76 673.63,-35.61"/>
</g>
<!-- Node9&#45;&gt;Node8 -->
<g id="edge15" class="edge">
<title>Node9&#45;&gt;Node8</title>
<path fill="none" stroke="midnightblue" d="M348.2,-134.37C329.19,-111.35 291.39,-65.57 268.9,-38.34"/>
<polygon fill="midnightblue" stroke="midnightblue" points="271.51,-36.01 262.45,-30.52 266.12,-40.46 271.51,-36.01"/>
</g>
<!-- Node10 -->
<g id="node10" class="node">
<title>Node10</title>
<g id="a_node10"><a xlink:title=" ">
<polygon fill="white" stroke="#bfbfbf" points="435.87,-6 435.87,-25 503.87,-25 503.87,-6 435.87,-6"/>
<text text-anchor="middle" x="469.87" y="-13" font-family="Helvetica,sans-Serif" font-size="10.00">filesystem</text>
</a>
</g>
</g>
<!-- Node9&#45;&gt;Node10 -->
<g id="edge10" class="edge">
<title>Node9&#45;&gt;Node10</title>
<path fill="none" stroke="midnightblue" d="M356.29,-134.5C352.71,-117.13 349.45,-87.33 362.87,-67 371.42,-54.04 407.18,-38.78 435.04,-28.45"/>
<polygon fill="midnightblue" stroke="midnightblue" points="436.3,-31.72 444.51,-25.01 433.91,-25.14 436.3,-31.72"/>
</g>
<!-- Node11 -->
<g id="node11" class="node">
<title>Node11</title>
<g id="a_node11"><a xlink:title=" ">
<polygon fill="white" stroke="#bfbfbf" points="371.87,-73 371.87,-92 427.87,-92 427.87,-73 371.87,-73"/>
<text text-anchor="middle" x="399.87" y="-80" font-family="Helvetica,sans-Serif" font-size="10.00">optional</text>
</a>
</g>
</g>
<!-- Node9&#45;&gt;Node11 -->
<g id="edge13" class="edge">
<title>Node9&#45;&gt;Node11</title>
<path fill="none" stroke="midnightblue" d="M368.55,-134.4C374.6,-124.56 382.71,-111.38 389.16,-100.89"/>
<polygon fill="midnightblue" stroke="midnightblue" points="392.26,-102.55 394.52,-92.19 386.29,-98.88 392.26,-102.55"/>
</g>
<!-- Node12 -->
<g id="node12" class="node">
<title>Node12</title>
<g id="a_node12"><a xlink:title=" ">
<polygon fill="white" stroke="#bfbfbf" points="351.37,-6 351.37,-25 408.37,-25 408.37,-6 351.37,-6"/>
<text text-anchor="middle" x="379.87" y="-13" font-family="Helvetica,sans-Serif" font-size="10.00">ostream</text>
</a>
</g>
</g>
<!-- Node9&#45;&gt;Node12 -->
<g id="edge14" class="edge">
<title>Node9&#45;&gt;Node12</title>
<path fill="none" stroke="midnightblue" d="M348.04,-134.24C335.97,-117.87 320.29,-90.29 329.87,-67 335.78,-52.63 347.97,-40.18 358.83,-31.24"/>
<polygon fill="midnightblue" stroke="midnightblue" points="360.99,-34 366.76,-25.11 356.7,-28.46 360.99,-34"/>
</g>
<!-- Node13 -->
<g id="node13" class="node">
<title>Node13</title>
<g id="a_node13"><a xlink:href="lfilesystem__Permissions_8h.html" target="_top" xlink:title="This file defines the Permissions class.">
<polygon fill="white" stroke="black" points="483.87,-67.5 483.87,-97.5 611.87,-97.5 611.87,-67.5 483.87,-67.5"/>
<text text-anchor="start" x="491.87" y="-85.5" font-family="Helvetica,sans-Serif" font-size="10.00">lfilesystem/lfilesystem</text>
<text text-anchor="middle" x="547.87" y="-74.5" font-family="Helvetica,sans-Serif" font-size="10.00">_Permissions.h</text>
</a>
</g>
</g>
<!-- Node9&#45;&gt;Node13 -->
<g id="edge16" class="edge">
<title>Node9&#45;&gt;Node13</title>
<path fill="none" stroke="midnightblue" d="M400.66,-134.4C429.11,-124.56 467.27,-111.37 497.6,-100.88"/>
<polygon fill="midnightblue" stroke="midnightblue" points="498.85,-104.15 507.15,-97.58 496.56,-97.54 498.85,-104.15"/>
</g>
<!-- Node13&#45;&gt;Node4 -->
<g id="edge18" class="edge">
<title>Node13&#45;&gt;Node4</title>
<path fill="none" stroke="midnightblue" d="M576.08,-67.4C598.58,-56.14 629.87,-40.5 651.79,-29.54"/>
<polygon fill="midnightblue" stroke="midnightblue" points="653.47,-32.61 660.85,-25.01 650.34,-26.35 653.47,-32.61"/>
</g>
<!-- Node13&#45;&gt;Node8 -->
<g id="edge21" class="edge">
<title>Node13&#45;&gt;Node8</title>
<path fill="none" stroke="midnightblue" d="M483.79,-67.48C437.12,-57.26 373.81,-43.41 324.97,-32.72"/>
<polygon fill="midnightblue" stroke="midnightblue" points="325.6,-29.27 315.09,-30.55 324.11,-36.11 325.6,-29.27"/>
</g>
<!-- Node13&#45;&gt;Node10 -->
<g id="edge17" class="edge">
<title>Node13&#45;&gt;Node10</title>
<path fill="none" stroke="midnightblue" d="M530.94,-67.4C518.3,-56.86 501.04,-42.48 488.09,-31.69"/>
<polygon fill="midnightblue" stroke="midnightblue" points="490.22,-28.91 480.3,-25.19 485.74,-34.29 490.22,-28.91"/>
</g>
<!-- Node13&#45;&gt;Node12 -->
<g id="edge20" class="edge">
<title>Node13&#45;&gt;Node12</title>
<path fill="none" stroke="midnightblue" d="M511.41,-67.4C481.54,-55.84 439.72,-39.66 411.3,-28.66"/>
<polygon fill="midnightblue" stroke="midnightblue" points="412.44,-25.35 401.85,-25.01 409.92,-31.88 412.44,-25.35"/>
</g>
<!-- Node14 -->
<g id="node14" class="node">
<title>Node14</title>
<g id="a_node14"><a xlink:title=" ">
<polygon fill="white" stroke="#bfbfbf" points="527.37,-6 527.37,-25 600.37,-25 600.37,-6 527.37,-6"/>
<text text-anchor="middle" x="563.87" y="-13" font-family="Helvetica,sans-Serif" font-size="10.00">string_view</text>
</a>
</g>
</g>
<!-- Node13&#45;&gt;Node14 -->
<g id="edge19" class="edge">
<title>Node13&#45;&gt;Node14</title>
<path fill="none" stroke="midnightblue" d="M551.34,-67.4C553.66,-57.96 556.74,-45.45 559.27,-35.19"/>
<polygon fill="midnightblue" stroke="midnightblue" points="562.74,-35.74 561.73,-25.19 555.94,-34.07 562.74,-35.74"/>
</g>
<!-- Node15&#45;&gt;Node2 -->
<g id="edge27" class="edge">
<title>Node15&#45;&gt;Node2</title>
<path fill="none" stroke="midnightblue" d="M561.82,-280.54C435.37,-276 163.38,-262.75 134.87,-232 101.93,-196.47 115.18,-133.12 124.56,-101.91"/>
<polygon fill="midnightblue" stroke="midnightblue" points="127.92,-102.91 127.64,-92.31 121.26,-100.77 127.92,-102.91"/>
</g>
<!-- Node15&#45;&gt;Node4 -->
<g id="edge24" class="edge">
<title>Node15&#45;&gt;Node4</title>
<path fill="none" stroke="midnightblue" d="M646.33,-268.33C657.63,-259.31 670.78,-246.6 677.87,-232 710.02,-165.8 701.79,-139.93 691.87,-67 690.39,-56.13 687.2,-44.29 684.23,-34.81"/>
<polygon fill="midnightblue" stroke="midnightblue" points="687.55,-33.69 681.09,-25.29 680.9,-35.88 687.55,-33.69"/>
</g>
<!-- Node15&#45;&gt;Node5 -->
<g id="edge26" class="edge">
<title>Node15&#45;&gt;Node5</title>
<path fill="none" stroke="midnightblue" d="M561.85,-271.56C513.99,-262.72 447.22,-248.97 389.87,-232 387.29,-231.24 384.64,-230.38 381.99,-229.48"/>
<polygon fill="midnightblue" stroke="midnightblue" points="383.17,-226.18 372.58,-226.06 380.78,-232.76 383.17,-226.18"/>
</g>
<!-- Node15&#45;&gt;Node6 -->
<g id="edge30" class="edge">
<title>Node15&#45;&gt;Node6</title>
<path fill="none" stroke="midnightblue" d="M689.96,-271.85C738.7,-263.06 807.15,-249.27 865.87,-232 868.45,-231.24 871.1,-230.39 873.74,-229.49"/>
<polygon fill="midnightblue" stroke="midnightblue" points="874.95,-232.77 883.16,-226.08 872.57,-226.19 874.95,-232.77"/>
</g>
<!-- Node15&#45;&gt;Node7 -->
<g id="edge31" class="edge">
<title>Node15&#45;&gt;Node7</title>
<path fill="none" stroke="midnightblue" d="M690.02,-276.52C754.51,-269.51 856.35,-255.73 941.87,-232 944.31,-231.32 946.81,-230.53 949.3,-229.67"/>
<polygon fill="midnightblue" stroke="midnightblue" points="950.58,-232.93 958.71,-226.14 948.12,-226.38 950.58,-232.93"/>
</g>
<!-- Node15&#45;&gt;Node8 -->
<g id="edge32" class="edge">
<title>Node15&#45;&gt;Node8</title>
<path fill="none" stroke="midnightblue" d="M561.49,-275.33C518.81,-268.59 462.65,-255.81 417.87,-232 399.81,-222.4 401.33,-211.64 383.87,-201 344.6,-177.07 317.42,-199.37 286.87,-165 255.97,-130.24 250.51,-73.44 250.13,-41.09"/>
<polygon fill="midnightblue" stroke="midnightblue" points="253.63,-40.76 250.18,-30.74 246.64,-40.73 253.63,-40.76"/>
</g>
<!-- Node15&#45;&gt;Node9 -->
<g id="edge33" class="edge">
<title>Node15&#45;&gt;Node9</title>
<path fill="none" stroke="midnightblue" d="M561.73,-268.95C530.22,-260.8 492.36,-248.71 460.87,-232 444.6,-223.36 407.9,-192.51 383.52,-171.34"/>
<polygon fill="midnightblue" stroke="midnightblue" points="385.6,-168.52 375.77,-164.58 381,-173.79 385.6,-168.52"/>
</g>
<!-- Node15&#45;&gt;Node11 -->
<g id="edge28" class="edge">
<title>Node15&#45;&gt;Node11</title>
<path fill="none" stroke="midnightblue" d="M624.73,-268.27C621.49,-238.1 609.41,-167.69 565.87,-134 545.84,-118.5 480.51,-101.58 438.03,-91.79"/>
<polygon fill="midnightblue" stroke="midnightblue" points="438.55,-88.32 428.02,-89.51 437,-95.14 438.55,-88.32"/>
</g>
<!-- Node15&#45;&gt;Node14 -->
<g id="edge25" class="edge">
<title>Node15&#45;&gt;Node14</title>
<path fill="none" stroke="midnightblue" d="M629.32,-268.48C637.34,-232.73 654.17,-136.11 620.87,-67 613.66,-52.05 599.82,-39.62 587.58,-30.83"/>
<polygon fill="midnightblue" stroke="midnightblue" points="589.31,-27.78 579.07,-25.09 585.4,-33.58 589.31,-27.78"/>
</g>
<!-- Node16 -->
<g id="node16" class="node">
<title>Node16</title>
<g id="a_node16"><a xlink:title=" ">
<polygon fill="white" stroke="#bfbfbf" points="730.37,-207 730.37,-226 783.37,-226 783.37,-207 730.37,-207"/>
<text text-anchor="middle" x="756.87" y="-214" font-family="Helvetica,sans-Serif" font-size="10.00">cstddef</text>
</a>
</g>
</g>
<!-- Node15&#45;&gt;Node16 -->
<g id="edge23" class="edge">
<title>Node15&#45;&gt;Node16</title>
<path fill="none" stroke="midnightblue" d="M654.29,-268.4C676.97,-257.14 708.5,-241.5 730.59,-230.54"/>
<polygon fill="midnightblue" stroke="midnightblue" points="732.32,-233.59 739.72,-226.01 729.21,-227.32 732.32,-233.59"/>
</g>
<!-- Node17 -->
<g id="node17" class="node">
<title>Node17</title>
<g id="a_node17"><a xlink:title=" ">
<polygon fill="white" stroke="#bfbfbf" points="801.37,-207 801.37,-226 856.37,-226 856.37,-207 801.37,-207"/>
<text text-anchor="middle" x="828.87" y="-214" font-family="Helvetica,sans-Serif" font-size="10.00">fstream</text>
</a>
</g>
</g>
<!-- Node15&#45;&gt;Node17 -->
<g id="edge29" class="edge">
<title>Node15&#45;&gt;Node17</title>
<path fill="none" stroke="midnightblue" d="M676.67,-268.41C709.96,-258.87 754.29,-245.57 792.87,-232 794.77,-231.33 796.73,-230.62 798.69,-229.88"/>
<polygon fill="midnightblue" stroke="midnightblue" points="800.37,-232.98 808.43,-226.1 797.84,-226.46 800.37,-232.98"/>
</g>
<!-- Node18 -->
<g id="node18" class="node">
<title>Node18</title>
<g id="a_node18"><a xlink:href="lfilesystem__CFile_8h.html" target="_top" xlink:title="This file defines the CFile class.">
<polygon fill="white" stroke="black" points="469.87,-201.5 469.87,-231.5 597.87,-231.5 597.87,-201.5 469.87,-201.5"/>
<text text-anchor="start" x="477.87" y="-219.5" font-family="Helvetica,sans-Serif" font-size="10.00">lfilesystem/lfilesystem</text>
<text text-anchor="middle" x="533.87" y="-208.5" font-family="Helvetica,sans-Serif" font-size="10.00">_CFile.h</text>
</a>
</g>
</g>
<!-- Node15&#45;&gt;Node18 -->
<g id="edge34" class="edge">
<title>Node15&#45;&gt;Node18</title>
<path fill="none" stroke="midnightblue" d="M605.9,-268.4C593.13,-259.37 576.35,-247.51 562.2,-237.52"/>
<polygon fill="midnightblue" stroke="midnightblue" points="563.98,-234.49 553.79,-231.58 559.94,-240.21 563.98,-234.49"/>
</g>
<!-- Node18&#45;&gt;Node8 -->
<g id="edge36" class="edge">
<title>Node18&#45;&gt;Node8</title>
<path fill="none" stroke="midnightblue" d="M524.75,-201.25C501.23,-164.53 440.08,-69.34 436.87,-67 418.79,-53.86 368.93,-40.68 325.38,-31.08"/>
<polygon fill="midnightblue" stroke="midnightblue" points="325.85,-27.6 315.33,-28.91 324.36,-34.44 325.85,-27.6"/>
</g>
<!-- Node18&#45;&gt;Node9 -->
<g id="edge37" class="edge">
<title>Node18&#45;&gt;Node9</title>
<path fill="none" stroke="midnightblue" d="M496.11,-201.4C470,-191.64 435.08,-178.59 407.12,-168.15"/>
<polygon fill="midnightblue" stroke="midnightblue" points="408.14,-164.8 397.55,-164.58 405.69,-171.35 408.14,-164.8"/>
</g>
<!-- Node19 -->
<g id="node19" class="node">
<title>Node19</title>
<g id="a_node19"><a xlink:title=" ">
<polygon fill="white" stroke="#bfbfbf" points="510.87,-140 510.87,-159 556.87,-159 556.87,-140 510.87,-140"/>
<text text-anchor="middle" x="533.87" y="-147" font-family="Helvetica,sans-Serif" font-size="10.00">cstdio</text>
</a>
</g>
</g>
<!-- Node18&#45;&gt;Node19 -->
<g id="edge35" class="edge">
<title>Node18&#45;&gt;Node19</title>
<path fill="none" stroke="midnightblue" d="M533.87,-201.4C533.87,-192.06 533.87,-179.71 533.87,-169.52"/>
<polygon fill="midnightblue" stroke="midnightblue" points="537.37,-169.19 533.87,-159.19 530.37,-169.19 537.37,-169.19"/>
</g>
<!-- Node20&#45;&gt;Node2 -->
<g id="edge39" class="edge">
<title>Node20&#45;&gt;Node2</title>
<path fill="none" stroke="midnightblue" d="M199.41,-201.38C193.38,-191.27 185.08,-177.32 177.87,-165 165.02,-143.05 150.42,-117.66 140.94,-101.13"/>
<polygon fill="midnightblue" stroke="midnightblue" points="143.78,-99.03 135.77,-92.09 137.7,-102.5 143.78,-99.03"/>
</g>
<!-- Node20&#45;&gt;Node8 -->
<g id="edge41" class="edge">
<title>Node20&#45;&gt;Node8</title>
<path fill="none" stroke="midnightblue" d="M206.11,-201.09C203.34,-173.98 199.81,-113.9 215.87,-67 219.3,-56.96 225.35,-47.1 231.47,-38.8"/>
<polygon fill="midnightblue" stroke="midnightblue" points="234.35,-40.79 237.75,-30.76 228.83,-36.48 234.35,-40.79"/>
</g>
<!-- Node20&#45;&gt;Node9 -->
<g id="edge42" class="edge">
<title>Node20&#45;&gt;Node9</title>
<path fill="none" stroke="midnightblue" d="M240.85,-201.4C263.36,-191.77 293.37,-178.94 317.63,-168.56"/>
<polygon fill="midnightblue" stroke="midnightblue" points="319.13,-171.73 326.95,-164.58 316.38,-165.29 319.13,-171.73"/>
</g>
<!-- Node20&#45;&gt;Node11 -->
<g id="edge40" class="edge">
<title>Node20&#45;&gt;Node11</title>
<path fill="none" stroke="midnightblue" d="M218.83,-201.21C232.98,-183.54 259.1,-153.43 286.87,-134 310.59,-117.4 340.65,-104.28 363.8,-95.58"/>
<polygon fill="midnightblue" stroke="midnightblue" points="365.07,-98.84 373.26,-92.13 362.66,-92.27 365.07,-98.84"/>
</g>
</g>
</svg>
        <g id="navigator" transform="translate(0 0)" fill="#404254">
                <rect fill="#f2f5e9" fill-opacity="0.5" stroke="#606060" stroke-width=".5" x="0" y="0" width="60" height="60"/>
                <use id="zoomplus" xlink:href="#zoomPlus" x="17" y="9" onmousedown="handleZoom(evt,'in')"/>
                <use id="zoomminus" xlink:href="#zoomMin" x="42" y="9" onmousedown="handleZoom(evt,'out')"/>
                <use id="reset" xlink:href="#resetDef" x="30" y="36" onmousedown="handleReset()"/>
                <g id="arrowUp" xlink:href="#dirArrow" transform="translate(30 24)" onmousedown="handlePan(0,-1)">
                  <use xlink:href="#rim" fill="#404040">
                        <set attributeName="fill" to="#808080" begin="arrowUp.mouseover" end="arrowUp.mouseout"/>
                  </use>
                  <path fill="none" stroke="white" stroke-width="1.5" d="M0,-3.0v7 M-2.5,-0.5L0,-3.0L2.5,-0.5"/>
                </g>
                <g id="arrowRight" xlink:href="#dirArrow" transform="rotate(90) translate(36 -43)" onmousedown="handlePan(1,0)">
                  <use xlink:href="#rim" fill="#404040">
                        <set attributeName="fill" to="#808080" begin="arrowRight.mouseover" end="arrowRight.mouseout"/>
                  </use>
                  <path fill="none" stroke="white" stroke-width="1.5" d="M0,-3.0v7 M-2.5,-0.5L0,-3.0L2.5,-0.5"/>
                </g>
                <g id="arrowDown" xlink:href="#dirArrow" transform="rotate(180) translate(-30 -48)" onmousedown="handlePan(0,1)">
                  <use xlink:href="#rim" fill="#404040">
                        <set attributeName="fill" to="#808080" begin="arrowDown.mouseover" end="arrowDown.mouseout"/>
                  </use>
                  <path fill="none" stroke="white" stroke-width="1.5" d="M0,-3.0v7 M-2.5,-0.5L0,-3.0L2.5,-0.5"/>
                </g>
                <g id="arrowLeft" xlink:href="#dirArrow" transform="rotate(270) translate(-36 17)" onmousedown="handlePan(-1,0)">
                  <use xlink:href="#rim" fill="#404040">
                        <set attributeName="fill" to="#808080" begin="arrowLeft.mouseover" end="arrowLeft.mouseout"/>
                  </use>
                  <path fill="none" stroke="white" stroke-width="1.5" d="M0,-3.0v7 M-2.5,-0.5L0,-3.0L2.5,-0.5"/>
                </g>
        </g>
        <svg viewBox="0 0 15 15" width="100%" height="30px" preserveAspectRatio="xMaxYMin meet">
         <g id="arrow_out" transform="scale(0.3 0.3)">
          <a xlink:href="lfilesystem__Directory_8h__incl_org.svg" target="_base">
           <rect id="button" ry="5" rx="5" y="6" x="6" height="38" width="38"
                fill="#f2f5e9" fill-opacity="0.5" stroke="#606060" stroke-width="1.0"/>
           <path id="arrow"
             d="M 11.500037,31.436501 C 11.940474,20.09759 22.043105,11.32322 32.158766,21.979434 L 37.068811,17.246167 C 37.068811,17.246167 37.088388,32 37.088388,32 L 22.160133,31.978069 C 22.160133,31.978069 26.997745,27.140456 26.997745,27.140456 C 18.528582,18.264221 13.291696,25.230495 11.500037,31.436501 z"
             style="fill:#404040;"/>
          </a>
         </g>
        </svg>
</svg>
