<?xml version="1.0" encoding="UTF-8" standalone="no"?>
<!DOCTYPE svg PUBLIC "-//W3C//DTD SVG 1.1//EN"
 "http://www.w3.org/Graphics/SVG/1.1/DTD/svg11.dtd">
<!-- Generated by graphviz version 8.0.5 (20230430.1635)
 -->
<!-- Title: lfilesystem_DynamicLibrary.h Pages: 1 -->
<svg width="850pt" height="360pt"
 viewBox="0.00 0.00 850.00 359.75" xmlns="http://www.w3.org/2000/svg" xmlns:xlink="http://www.w3.org/1999/xlink">
<g id="graph0" class="graph" transform="scale(1 1) rotate(0) translate(4 355.75)">
<title>lfilesystem_DynamicLibrary.h</title>
<!-- Node1 -->
<g id="Node000001" class="node">
<title>Node1</title>
<g id="a_Node000001"><a xlink:title="This file defines the DynamicLibrary class.">
<polygon fill="#999999" stroke="#666666" points="394.75,-351.75 251.25,-351.75 251.25,-332.5 394.75,-332.5 394.75,-351.75"/>
<text text-anchor="middle" x="323" y="-338.25" font-family="Helvetica,sans-Serif" font-size="10.00">lfilesystem_DynamicLibrary.h</text>
</a>
</g>
</g>
<!-- Node2 -->
<g id="Node000002" class="node">
<title>Node2</title>
<g id="a_Node000002"><a xlink:title=" ">
<polygon fill="#e0e0e0" stroke="#999999" points="748.75,-24.88 683.25,-24.88 683.25,-5.63 748.75,-5.63 748.75,-24.88"/>
<text text-anchor="middle" x="716" y="-11.38" font-family="Helvetica,sans-Serif" font-size="10.00">string_view</text>
</a>
</g>
</g>
<!-- Node1&#45;&gt;Node2 -->
<g id="edge1_Node000001_Node000002" class="edge">
<title>Node1&#45;&gt;Node2</title>
<g id="a_edge1_Node000001_Node000002"><a xlink:title=" ">
<path fill="none" stroke="#63b8ff" d="M395.21,-333.3C505.34,-319.64 706.78,-287.3 747,-230 789.82,-168.99 747.45,-73.86 726.37,-34.37"/>
<polygon fill="#63b8ff" stroke="#63b8ff" points="729.09,-33.05 721.19,-25.98 722.96,-36.43 729.09,-33.05"/>
</a>
</g>
</g>
<!-- Node3 -->
<g id="Node000003" class="node">
<title>Node3</title>
<g id="a_Node000003"><a xlink:title=" ">
<polygon fill="#e0e0e0" stroke="#999999" points="809,-24.88 769,-24.88 769,-5.63 809,-5.63 809,-24.88"/>
<text text-anchor="middle" x="789" y="-11.38" font-family="Helvetica,sans-Serif" font-size="10.00">string</text>
</a>
</g>
</g>
<!-- Node1&#45;&gt;Node3 -->
<g id="edge2_Node000001_Node000003" class="edge">
<title>Node1&#45;&gt;Node3</title>
<g id="a_edge2_Node000001_Node000003"><a xlink:title=" ">
<path fill="none" stroke="#63b8ff" d="M395.16,-338.66C537.77,-331.82 842,-306.59 842,-215.75 842,-215.75 842,-215.75 842,-147.25 842,-104.32 817.23,-58.86 801.56,-34.4"/>
<polygon fill="#63b8ff" stroke="#63b8ff" points="803.95,-32.66 795.5,-26.27 798.11,-36.54 803.95,-32.66"/>
</a>
</g>
</g>
<!-- Node4 -->
<g id="Node000004" class="node">
<title>Node4</title>
<g id="a_Node000004"><a xlink:title=" ">
<polygon fill="#e0e0e0" stroke="#999999" points="248.62,-290.88 203.38,-290.88 203.38,-271.62 248.62,-271.62 248.62,-290.88"/>
<text text-anchor="middle" x="226" y="-277.38" font-family="Helvetica,sans-Serif" font-size="10.00">atomic</text>
</a>
</g>
</g>
<!-- Node1&#45;&gt;Node4 -->
<g id="edge3_Node000001_Node000004" class="edge">
<title>Node1&#45;&gt;Node4</title>
<g id="a_edge3_Node000001_Node000004"><a xlink:title=" ">
<path fill="none" stroke="#63b8ff" d="M308.27,-332.18C292.88,-322.85 268.5,-308.05 250.27,-296.98"/>
<polygon fill="#63b8ff" stroke="#63b8ff" points="252.24,-293.47 241.87,-291.28 248.6,-299.46 252.24,-293.47"/>
</a>
</g>
</g>
<!-- Node5 -->
<g id="Node000005" class="node">
<title>Node5</title>
<g id="a_Node000005"><a xlink:title=" ">
<polygon fill="#e0e0e0" stroke="#999999" points="71.5,-224.38 28.5,-224.38 28.5,-205.12 71.5,-205.12 71.5,-224.38"/>
<text text-anchor="middle" x="50" y="-210.88" font-family="Helvetica,sans-Serif" font-size="10.00">vector</text>
</a>
</g>
</g>
<!-- Node1&#45;&gt;Node5 -->
<g id="edge4_Node000001_Node000005" class="edge">
<title>Node1&#45;&gt;Node5</title>
<g id="a_edge4_Node000001_Node000005"><a xlink:title=" ">
<path fill="none" stroke="#63b8ff" d="M291.91,-332.08C265.4,-323.96 226.54,-311.11 194,-296.5 149.75,-276.63 101.08,-247.75 73.17,-230.45"/>
<polygon fill="#63b8ff" stroke="#63b8ff" points="75.21,-226.97 64.87,-224.64 71.5,-232.9 75.21,-226.97"/>
</a>
</g>
</g>
<!-- Node6 -->
<g id="Node000006" class="node">
<title>Node6</title>
<g id="a_Node000006"><a xlink:title=" ">
<polygon fill="#e0e0e0" stroke="#999999" points="209.75,-30.5 96.25,-30.5 96.25,0 209.75,0 209.75,-30.5"/>
<text text-anchor="start" x="104.25" y="-17" font-family="Helvetica,sans-Serif" font-size="10.00">lfilesystem/lfilesystem</text>
<text text-anchor="middle" x="153" y="-5.75" font-family="Helvetica,sans-Serif" font-size="10.00">_Export.h</text>
</a>
</g>
</g>
<!-- Node1&#45;&gt;Node6 -->
<g id="edge5_Node000001_Node000006" class="edge">
<title>Node1&#45;&gt;Node6</title>
<g id="a_edge5_Node000001_Node000006"><a xlink:title=" ">
<path fill="none" stroke="#63b8ff" d="M270.75,-332.02C179.33,-314.6 0,-273.12 0,-215.75 0,-215.75 0,-215.75 0,-147.25 0,-92.31 57.63,-55.46 102.15,-35.19"/>
<polygon fill="#63b8ff" stroke="#63b8ff" points="103.24,-38.1 111,-30.88 100.43,-31.69 103.24,-38.1"/>
</a>
</g>
</g>
<!-- Node7 -->
<g id="Node000007" class="node">
<title>Node7</title>
<g id="a_Node000007"><a xlink:href="lfilesystem___file_watcher_8h.html" target="_top" xlink:title="This file defines the files::FileWatcher class.">
<polygon fill="white" stroke="#666666" points="379.75,-296.5 266.25,-296.5 266.25,-266 379.75,-266 379.75,-296.5"/>
<text text-anchor="start" x="274.25" y="-283" font-family="Helvetica,sans-Serif" font-size="10.00">lfilesystem/lfilesystem</text>
<text text-anchor="middle" x="323" y="-271.75" font-family="Helvetica,sans-Serif" font-size="10.00">_FileWatcher.h</text>
</a>
</g>
</g>
<!-- Node1&#45;&gt;Node7 -->
<g id="edge6_Node000001_Node000007" class="edge">
<title>Node1&#45;&gt;Node7</title>
<g id="a_edge6_Node000001_Node000007"><a xlink:title=" ">
<path fill="none" stroke="#63b8ff" d="M323,-332.18C323,-325.65 323,-316.45 323,-307.72"/>
<polygon fill="#63b8ff" stroke="#63b8ff" points="326.5,-307.78 323,-297.78 319.5,-307.78 326.5,-307.78"/>
</a>
</g>
</g>
<!-- Node16 -->
<g id="Node000016" class="node">
<title>Node16</title>
<g id="a_Node000016"><a xlink:href="lfilesystem___file_8h.html" target="_top" xlink:title="This file defines the File and TempFile classes.">
<polygon fill="white" stroke="#666666" points="553.75,-296.5 440.25,-296.5 440.25,-266 553.75,-266 553.75,-296.5"/>
<text text-anchor="start" x="448.25" y="-283" font-family="Helvetica,sans-Serif" font-size="10.00">lfilesystem/lfilesystem</text>
<text text-anchor="middle" x="497" y="-271.75" font-family="Helvetica,sans-Serif" font-size="10.00">_File.h</text>
</a>
</g>
</g>
<!-- Node1&#45;&gt;Node16 -->
<g id="edge23_Node000001_Node000016" class="edge">
<title>Node1&#45;&gt;Node16</title>
<g id="a_edge23_Node000001_Node000016"><a xlink:title=" ">
<path fill="none" stroke="#63b8ff" d="M349.81,-332.05C374.64,-323.65 412.32,-310.9 443.34,-300.41"/>
<polygon fill="#63b8ff" stroke="#63b8ff" points="444.22,-303.47 452.57,-296.94 441.98,-296.83 444.22,-303.47"/>
</a>
</g>
</g>
<!-- Node7&#45;&gt;Node6 -->
<g id="edge8_Node000007_Node000006" class="edge">
<title>Node7&#45;&gt;Node6</title>
<g id="a_edge8_Node000007_Node000006"><a xlink:title=" ">
<path fill="none" stroke="#63b8ff" d="M265.95,-267.09C206.42,-253.22 121.33,-232.98 119,-230 74.91,-173.73 115.13,-83.04 138.7,-40.17"/>
<polygon fill="#63b8ff" stroke="#63b8ff" points="142.11,-42.25 143.99,-31.83 136.02,-38.8 142.11,-42.25"/>
</a>
</g>
</g>
<!-- Node8 -->
<g id="Node000008" class="node">
<title>Node8</title>
<g id="a_Node000008"><a xlink:title=" ">
<polygon fill="#e0e0e0" stroke="#999999" points="179.62,-224.38 128.38,-224.38 128.38,-205.12 179.62,-205.12 179.62,-224.38"/>
<text text-anchor="middle" x="154" y="-210.88" font-family="Helvetica,sans-Serif" font-size="10.00">memory</text>
</a>
</g>
</g>
<!-- Node7&#45;&gt;Node8 -->
<g id="edge7_Node000007_Node000008" class="edge">
<title>Node7&#45;&gt;Node8</title>
<g id="a_edge7_Node000007_Node000008"><a xlink:title=" ">
<path fill="none" stroke="#63b8ff" d="M284.65,-265.61C255.46,-254.47 215.68,-239.29 187.7,-228.61"/>
<polygon fill="#63b8ff" stroke="#63b8ff" points="189.2,-225.06 178.61,-224.76 186.7,-231.6 189.2,-225.06"/>
</a>
</g>
</g>
<!-- Node9 -->
<g id="Node000009" class="node">
<title>Node9</title>
<g id="a_Node000009"><a xlink:href="lfilesystem___filesystem_entry_8h.html" target="_top" xlink:title="This file defines the FilesystemEntry class.">
<polygon fill="white" stroke="#666666" points="444.75,-163.5 331.25,-163.5 331.25,-133 444.75,-133 444.75,-163.5"/>
<text text-anchor="start" x="339.25" y="-150" font-family="Helvetica,sans-Serif" font-size="10.00">lfilesystem/lfilesystem</text>
<text text-anchor="middle" x="388" y="-138.75" font-family="Helvetica,sans-Serif" font-size="10.00">_FilesystemEntry.h</text>
</a>
</g>
</g>
<!-- Node7&#45;&gt;Node9 -->
<g id="edge9_Node000007_Node000009" class="edge">
<title>Node7&#45;&gt;Node9</title>
<g id="a_edge9_Node000007_Node000009"><a xlink:title=" ">
<path fill="none" stroke="#63b8ff" d="M335.18,-265.57C342.77,-255.9 352.32,-242.73 359,-230 368.39,-212.1 375.97,-190.49 381.03,-174.13"/>
<polygon fill="#63b8ff" stroke="#63b8ff" points="384.62,-175.34 384.11,-164.76 377.91,-173.34 384.62,-175.34"/>
</a>
</g>
</g>
<!-- Node9&#45;&gt;Node3 -->
<g id="edge12_Node000009_Node000003" class="edge">
<title>Node9&#45;&gt;Node3</title>
<g id="a_edge12_Node000009_Node000003"><a xlink:title=" ">
<path fill="none" stroke="#63b8ff" d="M434.8,-132.52C459.48,-123.83 489.79,-111.66 515,-97 533.72,-86.12 533.27,-75.43 553,-66.5 637.27,-28.35 669.69,-58.05 758,-30.5 759.1,-30.16 760.22,-29.78 761.34,-29.38"/>
<polygon fill="#63b8ff" stroke="#63b8ff" points="762.33,-32.35 770.28,-25.34 759.7,-25.87 762.33,-32.35"/>
</a>
</g>
</g>
<!-- Node9&#45;&gt;Node6 -->
<g id="edge16_Node000009_Node000006" class="edge">
<title>Node9&#45;&gt;Node6</title>
<g id="a_edge16_Node000009_Node000006"><a xlink:title=" ">
<path fill="none" stroke="#63b8ff" d="M357.84,-132.59C338.09,-122.83 311.8,-109.54 289,-97 253.06,-77.23 212.75,-53.04 185.41,-36.32"/>
<polygon fill="#63b8ff" stroke="#63b8ff" points="187.67,-32.98 177.31,-30.73 184.01,-38.95 187.67,-32.98"/>
</a>
</g>
</g>
<!-- Node10 -->
<g id="Node000010" class="node">
<title>Node10</title>
<g id="a_Node000010"><a xlink:title=" ">
<polygon fill="#e0e0e0" stroke="#999999" points="505.62,-91.38 460.38,-91.38 460.38,-72.12 505.62,-72.12 505.62,-91.38"/>
<text text-anchor="middle" x="483" y="-77.88" font-family="Helvetica,sans-Serif" font-size="10.00">cstdint</text>
</a>
</g>
</g>
<!-- Node9&#45;&gt;Node10 -->
<g id="edge10_Node000009_Node000010" class="edge">
<title>Node9&#45;&gt;Node10</title>
<g id="a_edge10_Node000009_Node000010"><a xlink:title=" ">
<path fill="none" stroke="#63b8ff" d="M409.56,-132.61C424.88,-122.21 445.4,-108.28 460.85,-97.79"/>
<polygon fill="#63b8ff" stroke="#63b8ff" points="462.42,-100.27 468.73,-91.76 458.49,-94.48 462.42,-100.27"/>
</a>
</g>
</g>
<!-- Node11 -->
<g id="Node000011" class="node">
<title>Node11</title>
<g id="a_Node000011"><a xlink:title=" ">
<polygon fill="#e0e0e0" stroke="#999999" points="305.5,-24.88 244.5,-24.88 244.5,-5.63 305.5,-5.63 305.5,-24.88"/>
<text text-anchor="middle" x="275" y="-11.38" font-family="Helvetica,sans-Serif" font-size="10.00">filesystem</text>
</a>
</g>
</g>
<!-- Node9&#45;&gt;Node11 -->
<g id="edge11_Node000009_Node000011" class="edge">
<title>Node9&#45;&gt;Node11</title>
<g id="a_edge11_Node000009_Node000011"><a xlink:title=" ">
<path fill="none" stroke="#63b8ff" d="M358.02,-132.62C342.69,-123.96 324.65,-111.78 312,-97 296.37,-78.74 286.06,-52.79 280.38,-35.27"/>
<polygon fill="#63b8ff" stroke="#63b8ff" points="283.56,-34.7 277.31,-26.15 276.86,-36.73 283.56,-34.7"/>
</a>
</g>
</g>
<!-- Node12 -->
<g id="Node000012" class="node">
<title>Node12</title>
<g id="a_Node000012"><a xlink:title=" ">
<polygon fill="#e0e0e0" stroke="#999999" points="620,-91.38 562,-91.38 562,-72.12 620,-72.12 620,-91.38"/>
<text text-anchor="middle" x="591" y="-77.88" font-family="Helvetica,sans-Serif" font-size="10.00">functional</text>
</a>
</g>
</g>
<!-- Node9&#45;&gt;Node12 -->
<g id="edge13_Node000009_Node000012" class="edge">
<title>Node9&#45;&gt;Node12</title>
<g id="a_edge13_Node000009_Node000012"><a xlink:title=" ">
<path fill="none" stroke="#63b8ff" d="M435.32,-132.6C467.2,-122.68 510.18,-109.21 548,-97 549.75,-96.44 551.54,-95.86 553.34,-95.27"/>
<polygon fill="#63b8ff" stroke="#63b8ff" points="554.31,-98.3 562.72,-91.86 552.13,-91.65 554.31,-98.3"/>
</a>
</g>
</g>
<!-- Node13 -->
<g id="Node000013" class="node">
<title>Node13</title>
<g id="a_Node000013"><a xlink:title=" ">
<polygon fill="#e0e0e0" stroke="#999999" points="687.88,-91.38 638.12,-91.38 638.12,-72.12 687.88,-72.12 687.88,-91.38"/>
<text text-anchor="middle" x="663" y="-77.88" font-family="Helvetica,sans-Serif" font-size="10.00">optional</text>
</a>
</g>
</g>
<!-- Node9&#45;&gt;Node13 -->
<g id="edge14_Node000009_Node000013" class="edge">
<title>Node9&#45;&gt;Node13</title>
<g id="a_edge14_Node000009_Node000013"><a xlink:title=" ">
<path fill="none" stroke="#63b8ff" d="M444.78,-138.57C494.11,-130.28 567.16,-116.21 629,-97 630.31,-96.59 631.63,-96.16 632.96,-95.7"/>
<polygon fill="#63b8ff" stroke="#63b8ff" points="634,-98.67 642.1,-91.84 631.51,-92.12 634,-98.67"/>
</a>
</g>
</g>
<!-- Node14 -->
<g id="Node000014" class="node">
<title>Node14</title>
<g id="a_Node000014"><a xlink:title=" ">
<polygon fill="#e0e0e0" stroke="#999999" points="387.62,-24.88 336.38,-24.88 336.38,-5.63 387.62,-5.63 387.62,-24.88"/>
<text text-anchor="middle" x="362" y="-11.38" font-family="Helvetica,sans-Serif" font-size="10.00">ostream</text>
</a>
</g>
</g>
<!-- Node9&#45;&gt;Node14 -->
<g id="edge15_Node000009_Node000014" class="edge">
<title>Node9&#45;&gt;Node14</title>
<g id="a_edge15_Node000009_Node000014"><a xlink:title=" ">
<path fill="none" stroke="#63b8ff" d="M356.82,-132.67C342.86,-124.35 327.8,-112.47 320,-97 308.73,-74.65 327.48,-49.05 343.42,-32.77"/>
<polygon fill="#63b8ff" stroke="#63b8ff" points="345.54,-35.63 350.33,-26.17 340.69,-30.58 345.54,-35.63"/>
</a>
</g>
</g>
<!-- Node15 -->
<g id="Node000015" class="node">
<title>Node15</title>
<g id="a_Node000015"><a xlink:href="lfilesystem___permissions_8h.html" target="_top" xlink:title="This file defines the Permissions class.">
<polygon fill="white" stroke="#666666" points="442.75,-97 329.25,-97 329.25,-66.5 442.75,-66.5 442.75,-97"/>
<text text-anchor="start" x="337.25" y="-83.5" font-family="Helvetica,sans-Serif" font-size="10.00">lfilesystem/lfilesystem</text>
<text text-anchor="middle" x="386" y="-72.25" font-family="Helvetica,sans-Serif" font-size="10.00">_Permissions.h</text>
</a>
</g>
</g>
<!-- Node9&#45;&gt;Node15 -->
<g id="edge17_Node000009_Node000015" class="edge">
<title>Node9&#45;&gt;Node15</title>
<g id="a_edge17_Node000009_Node000015"><a xlink:title=" ">
<path fill="none" stroke="#63b8ff" d="M387.55,-132.61C387.32,-125.36 387.04,-116.38 386.78,-108.06"/>
<polygon fill="#63b8ff" stroke="#63b8ff" points="390.26,-108.21 386.45,-98.33 383.26,-108.43 390.26,-108.21"/>
</a>
</g>
</g>
<!-- Node15&#45;&gt;Node2 -->
<g id="edge20_Node000015_Node000002" class="edge">
<title>Node15&#45;&gt;Node2</title>
<g id="a_edge20_Node000015_Node000002"><a xlink:title=" ">
<path fill="none" stroke="#63b8ff" d="M443.05,-68.15C445.74,-67.58 448.4,-67.03 451,-66.5 528.74,-50.61 619.67,-33.74 672.27,-24.15"/>
<polygon fill="#63b8ff" stroke="#63b8ff" points="672.68,-27.45 681.89,-22.22 671.42,-20.56 672.68,-27.45"/>
</a>
</g>
</g>
<!-- Node15&#45;&gt;Node3 -->
<g id="edge19_Node000015_Node000003" class="edge">
<title>Node15&#45;&gt;Node3</title>
<g id="a_edge19_Node000015_Node000003"><a xlink:title=" ">
<path fill="none" stroke="#63b8ff" d="M443.01,-67.92C445.71,-67.42 448.38,-66.94 451,-66.5 586.48,-43.76 625.74,-67.65 758,-30.5 759.32,-30.13 760.64,-29.71 761.98,-29.26"/>
<polygon fill="#63b8ff" stroke="#63b8ff" points="763.01,-32.21 770.99,-25.23 760.4,-25.72 763.01,-32.21"/>
</a>
</g>
</g>
<!-- Node15&#45;&gt;Node6 -->
<g id="edge22_Node000015_Node000006" class="edge">
<title>Node15&#45;&gt;Node6</title>
<g id="a_edge22_Node000015_Node000006"><a xlink:title=" ">
<path fill="none" stroke="#63b8ff" d="M332.84,-66.03C298.24,-56.46 252.94,-43.92 216.46,-33.82"/>
<polygon fill="#63b8ff" stroke="#63b8ff" points="217.51,-30.2 206.93,-30.9 215.64,-36.94 217.51,-30.2"/>
</a>
</g>
</g>
<!-- Node15&#45;&gt;Node11 -->
<g id="edge18_Node000015_Node000011" class="edge">
<title>Node15&#45;&gt;Node11</title>
<g id="a_edge18_Node000015_Node000011"><a xlink:title=" ">
<path fill="none" stroke="#63b8ff" d="M360.81,-66.11C342.57,-55.51 318.03,-41.25 299.86,-30.7"/>
<polygon fill="#63b8ff" stroke="#63b8ff" points="301.91,-27.26 291.51,-25.26 298.39,-33.31 301.91,-27.26"/>
</a>
</g>
</g>
<!-- Node15&#45;&gt;Node14 -->
<g id="edge21_Node000015_Node000014" class="edge">
<title>Node15&#45;&gt;Node14</title>
<g id="a_edge21_Node000015_Node000014"><a xlink:title=" ">
<path fill="none" stroke="#63b8ff" d="M380.55,-66.11C377.14,-56.93 372.7,-45 369.02,-35.11"/>
<polygon fill="#63b8ff" stroke="#63b8ff" points="372.05,-34.22 365.28,-26.07 365.49,-36.67 372.05,-34.22"/>
</a>
</g>
</g>
<!-- Node16&#45;&gt;Node2 -->
<g id="edge26_Node000016_Node000002" class="edge">
<title>Node16&#45;&gt;Node2</title>
<g id="a_edge26_Node000016_Node000002"><a xlink:title=" ">
<path fill="none" stroke="#63b8ff" d="M520.67,-265.6C563.04,-238.08 651.64,-174.4 697,-97 708.02,-78.2 712.65,-53.42 714.59,-36.3"/>
<polygon fill="#63b8ff" stroke="#63b8ff" points="718.17,-36.65 715.59,-26.37 711.2,-36.01 718.17,-36.65"/>
</a>
</g>
</g>
<!-- Node16&#45;&gt;Node3 -->
<g id="edge25_Node000016_Node000003" class="edge">
<title>Node16&#45;&gt;Node3</title>
<g id="a_edge25_Node000016_Node000003"><a xlink:title=" ">
<path fill="none" stroke="#63b8ff" d="M553.98,-276.05C619.21,-270.04 720.49,-256.63 747,-230 799.83,-176.94 796.07,-78.1 791.65,-36.03"/>
<polygon fill="#63b8ff" stroke="#63b8ff" points="795,-35.63 790.34,-26.12 788.05,-36.46 795,-35.63"/>
</a>
</g>
</g>
<!-- Node16&#45;&gt;Node5 -->
<g id="edge27_Node000016_Node000005" class="edge">
<title>Node16&#45;&gt;Node5</title>
<g id="a_edge27_Node000016_Node000005"><a xlink:title=" ">
<path fill="none" stroke="#63b8ff" d="M439.81,-272.7C336.09,-259 126.84,-231.33 119,-230 107.03,-227.97 93.96,-225.37 82.46,-222.95"/>
<polygon fill="#63b8ff" stroke="#63b8ff" points="83.5,-219.38 72.99,-220.71 82.03,-226.23 83.5,-219.38"/>
</a>
</g>
</g>
<!-- Node16&#45;&gt;Node6 -->
<g id="edge33_Node000016_Node000006" class="edge">
<title>Node16&#45;&gt;Node6</title>
<g id="a_edge33_Node000016_Node000006"><a xlink:title=" ">
<path fill="none" stroke="#63b8ff" d="M439.99,-272.74C365.59,-262.46 242.97,-243.75 227,-230 170.45,-181.32 157.08,-87.14 153.94,-41.83"/>
<polygon fill="#63b8ff" stroke="#63b8ff" points="157.38,-41.7 153.32,-31.92 150.4,-42.1 157.38,-41.7"/>
</a>
</g>
</g>
<!-- Node16&#45;&gt;Node8 -->
<g id="edge31_Node000016_Node000008" class="edge">
<title>Node16&#45;&gt;Node8</title>
<g id="a_edge31_Node000016_Node000008"><a xlink:title=" ">
<path fill="none" stroke="#63b8ff" d="M440.03,-272.04C365.61,-261.1 239.43,-241.76 194,-230 191.83,-229.44 189.6,-228.81 187.37,-228.13"/>
<polygon fill="#63b8ff" stroke="#63b8ff" points="188.64,-224.54 178.05,-224.75 186.46,-231.19 188.64,-224.54"/>
</a>
</g>
</g>
<!-- Node16&#45;&gt;Node9 -->
<g id="edge34_Node000016_Node000009" class="edge">
<title>Node16&#45;&gt;Node9</title>
<g id="a_edge34_Node000016_Node000009"><a xlink:title=" ">
<path fill="none" stroke="#63b8ff" d="M510.92,-265.52C525.26,-248.51 543.6,-220.2 529,-199.5 512.2,-175.68 483.05,-163.08 455.6,-156.45"/>
<polygon fill="#63b8ff" stroke="#63b8ff" points="456.71,-152.9 446.19,-154.19 455.22,-159.74 456.71,-152.9"/>
</a>
</g>
</g>
<!-- Node16&#45;&gt;Node12 -->
<g id="edge28_Node000016_Node000012" class="edge">
<title>Node16&#45;&gt;Node12</title>
<g id="a_edge28_Node000016_Node000012"><a xlink:title=" ">
<path fill="none" stroke="#63b8ff" d="M514.65,-265.53C524.78,-256.26 537.04,-243.51 545,-230 569.63,-188.21 582.44,-131.84 587.82,-102.45"/>
<polygon fill="#63b8ff" stroke="#63b8ff" points="591.44,-103.07 589.68,-92.62 584.54,-101.88 591.44,-103.07"/>
</a>
</g>
</g>
<!-- Node16&#45;&gt;Node13 -->
<g id="edge29_Node000016_Node000013" class="edge">
<title>Node16&#45;&gt;Node13</title>
<g id="a_edge29_Node000016_Node000013"><a xlink:title=" ">
<path fill="none" stroke="#63b8ff" d="M521.35,-265.63C535.39,-256.48 552.8,-243.83 566,-230 604.96,-189.17 638.11,-130.78 653.62,-101.3"/>
<polygon fill="#63b8ff" stroke="#63b8ff" points="657.03,-103.32 658.51,-92.83 650.81,-100.11 657.03,-103.32"/>
</a>
</g>
</g>
<!-- Node17 -->
<g id="Node000017" class="node">
<title>Node17</title>
<g id="a_Node000017"><a xlink:title=" ">
<polygon fill="#e0e0e0" stroke="#999999" points="738.12,-224.38 689.88,-224.38 689.88,-205.12 738.12,-205.12 738.12,-224.38"/>
<text text-anchor="middle" x="714" y="-210.88" font-family="Helvetica,sans-Serif" font-size="10.00">cstddef</text>
</a>
</g>
</g>
<!-- Node16&#45;&gt;Node17 -->
<g id="edge24_Node000016_Node000017" class="edge">
<title>Node16&#45;&gt;Node17</title>
<g id="a_edge24_Node000016_Node000017"><a xlink:title=" ">
<path fill="none" stroke="#63b8ff" d="M554.21,-265.52C589.53,-256.1 635.66,-243.2 676,-230 677.51,-229.51 679.04,-228.99 680.59,-228.46"/>
<polygon fill="#63b8ff" stroke="#63b8ff" points="681.56,-231.47 689.8,-224.81 679.2,-224.88 681.56,-231.47"/>
</a>
</g>
</g>
<!-- Node18 -->
<g id="Node000018" class="node">
<title>Node18</title>
<g id="a_Node000018"><a xlink:title=" ">
<polygon fill="#e0e0e0" stroke="#999999" points="455.5,-224.38 406.5,-224.38 406.5,-205.12 455.5,-205.12 455.5,-224.38"/>
<text text-anchor="middle" x="431" y="-210.88" font-family="Helvetica,sans-Serif" font-size="10.00">fstream</text>
</a>
</g>
</g>
<!-- Node16&#45;&gt;Node18 -->
<g id="edge30_Node000016_Node000018" class="edge">
<title>Node16&#45;&gt;Node18</title>
<g id="a_edge30_Node000016_Node000018"><a xlink:title=" ">
<path fill="none" stroke="#63b8ff" d="M482.02,-265.61C471.82,-255.64 458.3,-242.43 447.74,-232.11"/>
<polygon fill="#63b8ff" stroke="#63b8ff" points="450.63,-230.06 441.03,-225.57 445.73,-235.07 450.63,-230.06"/>
</a>
</g>
</g>
<!-- Node19 -->
<g id="Node000019" class="node">
<title>Node19</title>
<g id="a_Node000019"><a xlink:title=" ">
<polygon fill="#e0e0e0" stroke="#999999" points="520,-224.38 474,-224.38 474,-205.12 520,-205.12 520,-224.38"/>
<text text-anchor="middle" x="497" y="-210.88" font-family="Helvetica,sans-Serif" font-size="10.00">iterator</text>
</a>
</g>
</g>
<!-- Node16&#45;&gt;Node19 -->
<g id="edge32_Node000016_Node000019" class="edge">
<title>Node16&#45;&gt;Node19</title>
<g id="a_edge32_Node000016_Node000019"><a xlink:title=" ">
<path fill="none" stroke="#63b8ff" d="M497,-265.61C497,-256.63 497,-245.01 497,-235.26"/>
<polygon fill="#63b8ff" stroke="#63b8ff" points="500.5,-235.57 497,-225.57 493.5,-235.57 500.5,-235.57"/>
</a>
</g>
</g>
<!-- Node20 -->
<g id="Node000020" class="node">
<title>Node20</title>
<g id="a_Node000020"><a xlink:href="lfilesystem___c_file_8h.html" target="_top" xlink:title="This file defines the CFile class.">
<polygon fill="white" stroke="#666666" points="349.75,-230 236.25,-230 236.25,-199.5 349.75,-199.5 349.75,-230"/>
<text text-anchor="start" x="244.25" y="-216.5" font-family="Helvetica,sans-Serif" font-size="10.00">lfilesystem/lfilesystem</text>
<text text-anchor="middle" x="293" y="-205.25" font-family="Helvetica,sans-Serif" font-size="10.00">_CFile.h</text>
</a>
</g>
</g>
<!-- Node16&#45;&gt;Node20 -->
<g id="edge35_Node000016_Node000020" class="edge">
<title>Node16&#45;&gt;Node20</title>
<g id="a_edge35_Node000016_Node000020"><a xlink:title=" ">
<path fill="none" stroke="#63b8ff" d="M450.45,-265.53C420.55,-256.08 381.52,-243.74 349.8,-233.71"/>
<polygon fill="#63b8ff" stroke="#63b8ff" points="350.94,-230.08 340.35,-230.4 348.83,-236.76 350.94,-230.08"/>
</a>
</g>
</g>
<!-- Node20&#45;&gt;Node6 -->
<g id="edge37_Node000020_Node000006" class="edge">
<title>Node20&#45;&gt;Node6</title>
<g id="a_edge37_Node000020_Node000006"><a xlink:title=" ">
<path fill="none" stroke="#63b8ff" d="M282.71,-199.23C258.69,-165.34 198.77,-80.82 169.55,-39.59"/>
<polygon fill="#63b8ff" stroke="#63b8ff" points="171.95,-37.93 163.31,-31.79 166.24,-41.98 171.95,-37.93"/>
</a>
</g>
</g>
<!-- Node20&#45;&gt;Node9 -->
<g id="edge38_Node000020_Node000009" class="edge">
<title>Node20&#45;&gt;Node9</title>
<g id="a_edge38_Node000020_Node000009"><a xlink:title=" ">
<path fill="none" stroke="#63b8ff" d="M314.56,-199.11C327.31,-190.45 343.66,-179.35 357.7,-169.82"/>
<polygon fill="#63b8ff" stroke="#63b8ff" points="359.22,-172.34 365.53,-163.83 355.29,-166.55 359.22,-172.34"/>
</a>
</g>
</g>
<!-- Node21 -->
<g id="Node000021" class="node">
<title>Node21</title>
<g id="a_Node000021"><a xlink:title=" ">
<polygon fill="#e0e0e0" stroke="#999999" points="313.12,-157.88 270.88,-157.88 270.88,-138.62 313.12,-138.62 313.12,-157.88"/>
<text text-anchor="middle" x="292" y="-144.38" font-family="Helvetica,sans-Serif" font-size="10.00">cstdio</text>
</a>
</g>
</g>
<!-- Node20&#45;&gt;Node21 -->
<g id="edge36_Node000020_Node000021" class="edge">
<title>Node20&#45;&gt;Node21</title>
<g id="a_edge36_Node000020_Node000021"><a xlink:title=" ">
<path fill="none" stroke="#63b8ff" d="M292.77,-199.11C292.63,-190.13 292.45,-178.51 292.3,-168.76"/>
<polygon fill="#63b8ff" stroke="#63b8ff" points="295.79,-169.02 292.14,-159.07 288.79,-169.13 295.79,-169.02"/>
</a>
</g>
</g>
</g>
</svg>
