<?xml version="1.0" encoding="UTF-8" standalone="no"?>
<!DOCTYPE svg PUBLIC "-//W3C//DTD SVG 1.1//EN"
 "http://www.w3.org/Graphics/SVG/1.1/DTD/svg11.dtd">
<!-- Generated by graphviz version 8.0.5 (20230430.1635)
 -->
<!-- Title: lfilesystem_FileWatcher.h Pages: 1 -->
<svg width="312pt" height="83pt"
 viewBox="0.00 0.00 311.75 82.50" xmlns="http://www.w3.org/2000/svg" xmlns:xlink="http://www.w3.org/1999/xlink">
<g id="graph0" class="graph" transform="scale(1 1) rotate(0) translate(4 78.5)">
<title>lfilesystem_FileWatcher.h</title>
<!-- Node1 -->
<g id="Node000001" class="node">
<title>Node1</title>
<g id="a_Node000001"><a xlink:title="This file defines the files::FileWatcher class.">
<polygon fill="#999999" stroke="#666666" points="215.62,-74.5 87.88,-74.5 87.88,-55.25 215.62,-55.25 215.62,-74.5"/>
<text text-anchor="middle" x="151.75" y="-61" font-family="Helvetica,sans-Serif" font-size="10.00">lfilesystem_FileWatcher.h</text>
</a>
</g>
</g>
<!-- Node2 -->
<g id="Node000002" class="node">
<title>Node2</title>
<g id="a_Node000002"><a xlink:href="lfilesystem___dynamic_library_8h.html" target="_top" xlink:title="This file defines the DynamicLibrary class.">
<polygon fill="white" stroke="#666666" points="143.5,-19.25 0,-19.25 0,0 143.5,0 143.5,-19.25"/>
<text text-anchor="middle" x="71.75" y="-5.75" font-family="Helvetica,sans-Serif" font-size="10.00">lfilesystem_DynamicLibrary.h</text>
</a>
</g>
</g>
<!-- Node1&#45;&gt;Node2 -->
<g id="edge1_Node000001_Node000002" class="edge">
<title>Node1&#45;&gt;Node2</title>
<g id="a_edge1_Node000001_Node000002"><a xlink:title=" ">
<path fill="none" stroke="#63b8ff" d="M129.11,-48.8C115.02,-39.42 97.36,-27.67 85.39,-19.7"/>
<polygon fill="#63b8ff" stroke="#63b8ff" points="126.92,-52.21 137.18,-54.84 130.79,-46.39 126.92,-52.21"/>
</a>
</g>
</g>
<!-- Node3 -->
<g id="Node000003" class="node">
<title>Node3</title>
<g id="a_Node000003"><a xlink:href="lfilesystem___simple_watcher_8h.html" target="_top" xlink:title="This file defines the SimpleFileWatcher class.">
<polygon fill="white" stroke="#666666" points="303.75,-19.25 161.75,-19.25 161.75,0 303.75,0 303.75,-19.25"/>
<text text-anchor="middle" x="232.75" y="-5.75" font-family="Helvetica,sans-Serif" font-size="10.00">lfilesystem_SimpleWatcher.h</text>
</a>
</g>
</g>
<!-- Node1&#45;&gt;Node3 -->
<g id="edge2_Node000001_Node000003" class="edge">
<title>Node1&#45;&gt;Node3</title>
<g id="a_edge2_Node000001_Node000003"><a xlink:title=" ">
<path fill="none" stroke="#63b8ff" d="M174.68,-48.8C188.94,-39.42 206.82,-27.67 218.94,-19.7"/>
<polygon fill="#63b8ff" stroke="#63b8ff" points="172.92,-46.42 166.49,-54.84 176.77,-52.27 172.92,-46.42"/>
</a>
</g>
</g>
</g>
</svg>
